<svg width="36" height="37" viewBox="0 0 36 37" fill="none" xmlns="http://www.w3.org/2000/svg">
<path d="M11.1708 14.1694C12.904 15.9036 14.003 19.7928 14.003 19.7928C14.003 19.7928 9.94205 20.7414 7.4 19.8827C6.05465 19.4282 3.01814 18.369 3.52582 16.5538C4.03349 14.7385 4.93423 13.1536 6.00285 12.1952C7.07147 11.2368 10.0959 13.0939 11.1708 14.1694Z" fill="#D68563"/>
<path d="M10.5875 14.4484C12.4909 15.9888 13.9891 19.7415 13.9891 19.7415C13.9891 19.7415 10.0529 21.1198 7.43725 20.5371C6.05295 20.2288 2.92499 19.4994 3.23986 17.6388C3.55474 15.7781 4.28423 14.1045 5.24599 13.0365C6.20776 11.9686 9.40705 13.4931 10.5875 14.4484Z" fill="#D93332"/>
<path d="M14.334 25.9709C14.9679 23.6024 13.975 19.6847 13.975 19.6847C13.975 19.6847 9.98382 20.8937 8.21169 22.9084C7.27382 23.9746 5.17374 26.4102 6.52101 27.7284C7.86829 29.0466 9.44082 29.9689 10.8455 30.2646C12.2501 30.5602 13.9408 27.4397 14.334 25.9709Z" fill="#D68563"/>
<path d="M13.6888 26.0211C14.567 23.7354 13.9882 19.7364 13.9882 19.7364C13.9882 19.7364 9.89023 20.5109 7.91631 22.3233C6.87165 23.2825 4.52743 25.4781 5.73045 26.932C6.93347 28.386 8.402 29.4706 9.76892 29.9146C11.1358 30.3586 13.1442 27.4387 13.6888 26.0211Z" fill="#D93332"/>
<rect x="22.3555" y="31.8828" width="27.6948" height="13.4427" transform="rotate(-105 22.3555 31.8828)" fill="#40AB30"/>
<rect x="17.7021" y="34.2998" width="29.9556" height="5.12103" transform="rotate(-105 17.7021 34.2998)" fill="#208D0F"/>
<rect x="13.606" y="19.0146" width="18.5637" height="1.6956" transform="rotate(-15 13.606 19.0146)" fill="#D93332"/>
</svg>
