<svg width="30" height="30" viewBox="0 0 30 30" fill="none" xmlns="http://www.w3.org/2000/svg">
<path d="M15.0656 9.63813C14.6236 11.2857 12.6626 13.3008 12.6626 13.3008C12.6626 13.3008 10.6784 11.1839 10.3115 9.3536C10.1173 8.38492 9.69925 6.18689 10.9696 5.86133C12.2399 5.53576 13.5082 5.52712 14.4573 5.83759C15.4065 6.14807 15.3397 8.61636 15.0656 9.63813Z" fill="#D6BD63"/>
<path d="M14.6948 9.38332C14.4288 11.066 12.6889 13.2742 12.6889 13.2742C12.6889 13.2742 10.4892 11.382 9.93036 9.60329C9.63461 8.66196 8.98594 6.5236 10.2166 6.06606C11.4472 5.60853 12.7093 5.46589 13.6873 5.67385C14.6654 5.88181 14.8597 8.33978 14.6948 9.38332Z" fill="#FFE336"/>
<path d="M9.05561 15.6481C10.7032 15.2062 12.7182 13.2451 12.7182 13.2451C12.7182 13.2451 10.6014 11.2609 8.77108 10.894C7.8024 10.6998 5.60437 10.2818 5.27881 11.5521C4.95324 12.8224 4.9446 14.0907 5.25507 15.0399C5.56555 15.989 8.03384 15.9222 9.05561 15.6481Z" fill="#D6BD63"/>
<path d="M8.80129 15.2768C10.484 15.0108 12.6921 13.2709 12.6921 13.2709C12.6921 13.2709 10.7999 11.0712 9.02126 10.5124C8.07993 10.2166 5.94157 9.56797 5.48403 10.7986C5.02649 12.0292 4.88386 13.2913 5.09182 14.2694C5.29978 15.2474 7.75775 15.4418 8.80129 15.2768Z" fill="#FFE336"/>
<rect x="8.28418" y="22.5391" width="19.268" height="9.35246" transform="rotate(-45 8.28418 22.5391)" fill="#F15150"/>
<rect x="5.2085" y="20.5771" width="20.8409" height="3.56284" transform="rotate(-45 5.2085 20.5771)" fill="#D93332"/>
<rect x="12.9941" y="12.791" width="12.9153" height="1.17968" transform="rotate(45 12.9941 12.791)" fill="#FFE336"/>
</svg>
