<svg width="33" height="33" viewBox="0 0 33 33" fill="none" xmlns="http://www.w3.org/2000/svg">
<path d="M17.2022 10.3484C16.7096 12.1847 14.5239 14.4307 14.5239 14.4307C14.5239 14.4307 12.3124 12.0713 11.9034 10.0313C11.687 8.95161 11.221 6.50175 12.6369 6.13888C14.0527 5.77602 15.4663 5.76638 16.5243 6.11243C17.5822 6.45848 17.5077 9.20956 17.2022 10.3484Z" fill="#086A1E"/>
<path d="M16.7881 10.0647C16.4917 11.9401 14.5525 14.4013 14.5525 14.4013C14.5525 14.4013 12.1007 12.2923 11.4779 10.3099C11.1482 9.26067 10.4252 6.87732 11.7968 6.36736C13.1685 5.8574 14.5752 5.69842 15.6653 5.93021C16.7554 6.162 16.972 8.90157 16.7881 10.0647Z" fill="#208D0F"/>
<path d="M10.5027 17.0494C12.339 16.5568 14.585 14.3711 14.585 14.3711C14.585 14.3711 12.2256 12.1595 10.1856 11.7506C9.10591 11.5342 6.65604 11.0682 6.29318 12.484C5.93031 13.8999 5.92068 15.3135 6.26673 16.3714C6.61277 17.4294 9.36386 17.3549 10.5027 17.0494Z" fill="#086A1E"/>
<path d="M10.219 16.6358C12.0944 16.3393 14.5556 14.4001 14.5556 14.4001C14.5556 14.4001 12.4466 11.9484 10.4642 11.3255C9.41497 10.9959 7.03161 10.2729 6.52165 11.6445C6.01169 13.0161 5.85271 14.4228 6.0845 15.5129C6.31629 16.603 9.05587 16.8197 10.219 16.6358Z" fill="#208D0F"/>
<rect x="9.64209" y="24.7275" width="21.4756" height="10.424" transform="rotate(-45 9.64209 24.7275)" fill="#DEC423"/>
<rect x="6.21484" y="22.54" width="23.2287" height="3.97105" transform="rotate(-45 6.21484 22.54)" fill="#FFE336"/>
<rect x="14.8916" y="13.8623" width="14.395" height="1.31483" transform="rotate(45 14.8916 13.8623)" fill="#208D0F"/>
</svg>
