<svg width="195" height="84" viewBox="0 0 195 84" fill="none" xmlns="http://www.w3.org/2000/svg">
<rect x="0.5" y="1.5" width="194" height="82" rx="19.5" stroke="#354A71"/>
<path d="M21 1C21 1 30.8621 11 47 11C63.1379 11 73 1 73 1" stroke="#354A71"/>
<g filter="url(#filter0_f_77_1143)">
<circle cx="27.6741" cy="8.67423" r="3" transform="rotate(15 27.6741 8.67423)" fill="#EC9219"/>
</g>
<circle cx="27.6741" cy="8.67423" r="3" transform="rotate(15 27.6741 8.67423)" fill="#EC9219"/>
<circle cx="28.0621" cy="7.22579" r="1.5" transform="rotate(15 28.0621 7.22579)" fill="#F5A941"/>
<g filter="url(#filter1_f_77_1143)">
<circle cx="64.6742" cy="9.67406" r="3" transform="rotate(-15 64.6742 9.67406)" fill="#D92C21"/>
</g>
<circle cx="64.6742" cy="9.67406" r="3" transform="rotate(-15 64.6742 9.67406)" fill="#D92C21"/>
<circle cx="64.2859" cy="8.22472" r="1.5" transform="rotate(-15 64.2859 8.22472)" fill="#E74A3F"/>
<g filter="url(#filter2_f_77_1143)">
<circle cx="46" cy="8" r="3" transform="rotate(-180 46 8)" fill="#208D0F"/>
</g>
<circle cx="46" cy="8" r="3" transform="rotate(-180 46 8)" fill="#208D0F"/>
<circle cx="46" cy="9.5" r="1.5" transform="rotate(-180 46 9.5)" fill="#39A528"/>
<path d="M73 1C73 1 82.8621 11 99 11C115.138 11 125 1 125 1" stroke="#354A71"/>
<g filter="url(#filter3_f_77_1143)">
<circle cx="79.6741" cy="8.67423" r="3" transform="rotate(15 79.6741 8.67423)" fill="#EC9219"/>
</g>
<circle cx="79.6741" cy="8.67423" r="3" transform="rotate(15 79.6741 8.67423)" fill="#EC9219"/>
<circle cx="80.0621" cy="7.22579" r="1.5" transform="rotate(15 80.0621 7.22579)" fill="#F5A941"/>
<g filter="url(#filter4_f_77_1143)">
<circle cx="116.674" cy="9.67406" r="3" transform="rotate(-15 116.674 9.67406)" fill="#D92C21"/>
</g>
<circle cx="116.674" cy="9.67406" r="3" transform="rotate(-15 116.674 9.67406)" fill="#D92C21"/>
<circle cx="116.286" cy="8.22472" r="1.5" transform="rotate(-15 116.286 8.22472)" fill="#E74A3F"/>
<g filter="url(#filter5_f_77_1143)">
<circle cx="98" cy="8" r="3" transform="rotate(-180 98 8)" fill="#208D0F"/>
</g>
<circle cx="98" cy="8" r="3" transform="rotate(-180 98 8)" fill="#208D0F"/>
<circle cx="98" cy="9.5" r="1.5" transform="rotate(-180 98 9.5)" fill="#39A528"/>
<path d="M125 1C125 1 134.862 11 151 11C167.138 11 177 1 177 1" stroke="#354A71"/>
<g filter="url(#filter6_f_77_1143)">
<circle cx="131.674" cy="8.67423" r="3" transform="rotate(15 131.674 8.67423)" fill="#EC9219"/>
</g>
<circle cx="131.674" cy="8.67423" r="3" transform="rotate(15 131.674 8.67423)" fill="#EC9219"/>
<circle cx="132.062" cy="7.22579" r="1.5" transform="rotate(15 132.062 7.22579)" fill="#F5A941"/>
<g filter="url(#filter7_f_77_1143)">
<circle cx="168.674" cy="9.67406" r="3" transform="rotate(-15 168.674 9.67406)" fill="#D92C21"/>
</g>
<circle cx="168.674" cy="9.67406" r="3" transform="rotate(-15 168.674 9.67406)" fill="#D92C21"/>
<circle cx="168.286" cy="8.22472" r="1.5" transform="rotate(-15 168.286 8.22472)" fill="#E74A3F"/>
<g filter="url(#filter8_f_77_1143)">
<circle cx="150" cy="8" r="3" transform="rotate(-180 150 8)" fill="#208D0F"/>
</g>
<circle cx="150" cy="8" r="3" transform="rotate(-180 150 8)" fill="#208D0F"/>
<circle cx="150" cy="9.5" r="1.5" transform="rotate(-180 150 9.5)" fill="#39A528"/>
<defs>
<filter id="filter0_f_77_1143" x="20.6733" y="1.67383" width="14.0015" height="14.001" filterUnits="userSpaceOnUse" color-interpolation-filters="sRGB">
<feFlood flood-opacity="0" result="BackgroundImageFix"/>
<feBlend mode="normal" in="SourceGraphic" in2="BackgroundImageFix" result="shape"/>
<feGaussianBlur stdDeviation="2" result="effect1_foregroundBlur_77_1143"/>
</filter>
<filter id="filter1_f_77_1143" x="57.6733" y="2.67285" width="14.0015" height="14.002" filterUnits="userSpaceOnUse" color-interpolation-filters="sRGB">
<feFlood flood-opacity="0" result="BackgroundImageFix"/>
<feBlend mode="normal" in="SourceGraphic" in2="BackgroundImageFix" result="shape"/>
<feGaussianBlur stdDeviation="2" result="effect1_foregroundBlur_77_1143"/>
</filter>
<filter id="filter2_f_77_1143" x="39" y="1" width="14" height="14" filterUnits="userSpaceOnUse" color-interpolation-filters="sRGB">
<feFlood flood-opacity="0" result="BackgroundImageFix"/>
<feBlend mode="normal" in="SourceGraphic" in2="BackgroundImageFix" result="shape"/>
<feGaussianBlur stdDeviation="2" result="effect1_foregroundBlur_77_1143"/>
</filter>
<filter id="filter3_f_77_1143" x="72.6733" y="1.67383" width="14.0015" height="14.001" filterUnits="userSpaceOnUse" color-interpolation-filters="sRGB">
<feFlood flood-opacity="0" result="BackgroundImageFix"/>
<feBlend mode="normal" in="SourceGraphic" in2="BackgroundImageFix" result="shape"/>
<feGaussianBlur stdDeviation="2" result="effect1_foregroundBlur_77_1143"/>
</filter>
<filter id="filter4_f_77_1143" x="109.673" y="2.67285" width="14.0015" height="14.002" filterUnits="userSpaceOnUse" color-interpolation-filters="sRGB">
<feFlood flood-opacity="0" result="BackgroundImageFix"/>
<feBlend mode="normal" in="SourceGraphic" in2="BackgroundImageFix" result="shape"/>
<feGaussianBlur stdDeviation="2" result="effect1_foregroundBlur_77_1143"/>
</filter>
<filter id="filter5_f_77_1143" x="91" y="1" width="14" height="14" filterUnits="userSpaceOnUse" color-interpolation-filters="sRGB">
<feFlood flood-opacity="0" result="BackgroundImageFix"/>
<feBlend mode="normal" in="SourceGraphic" in2="BackgroundImageFix" result="shape"/>
<feGaussianBlur stdDeviation="2" result="effect1_foregroundBlur_77_1143"/>
</filter>
<filter id="filter6_f_77_1143" x="124.673" y="1.67383" width="14.0015" height="14.001" filterUnits="userSpaceOnUse" color-interpolation-filters="sRGB">
<feFlood flood-opacity="0" result="BackgroundImageFix"/>
<feBlend mode="normal" in="SourceGraphic" in2="BackgroundImageFix" result="shape"/>
<feGaussianBlur stdDeviation="2" result="effect1_foregroundBlur_77_1143"/>
</filter>
<filter id="filter7_f_77_1143" x="161.673" y="2.67285" width="14.0015" height="14.002" filterUnits="userSpaceOnUse" color-interpolation-filters="sRGB">
<feFlood flood-opacity="0" result="BackgroundImageFix"/>
<feBlend mode="normal" in="SourceGraphic" in2="BackgroundImageFix" result="shape"/>
<feGaussianBlur stdDeviation="2" result="effect1_foregroundBlur_77_1143"/>
</filter>
<filter id="filter8_f_77_1143" x="143" y="1" width="14" height="14" filterUnits="userSpaceOnUse" color-interpolation-filters="sRGB">
<feFlood flood-opacity="0" result="BackgroundImageFix"/>
<feBlend mode="normal" in="SourceGraphic" in2="BackgroundImageFix" result="shape"/>
<feGaussianBlur stdDeviation="2" result="effect1_foregroundBlur_77_1143"/>
</filter>
</defs>
</svg>
