<svg width="38" height="12" viewBox="0 0 38 12" fill="none" xmlns="http://www.w3.org/2000/svg">
<path d="M36.0219 11.668C34.7044 12.1783 3.49658 12.0562 1.96501 11.6008C0.433436 11.1454 -0.294364 9.5045 0.110485 7.9835C0.632841 6.02103 1.42577 5.02693 3.66889 4.29406C5.91202 3.56119 9.70833 4.29406 9.70833 4.29406C9.70833 4.29406 12.5506 -0.291411 16.9718 0.0146685C21.3931 0.320748 24.5512 4.29406 24.5512 4.29406C24.5512 4.29406 26.696 2.33803 29.535 3.56119C32.374 4.78435 32.4464 7.96354 32.4464 7.96354C32.4464 7.96354 33.3593 7.07556 34.9729 7.04811C36.5866 7.02065 37.4681 7.63132 37.9229 8.9525C38.2825 9.99699 37.3394 11.1577 36.0219 11.668Z" fill="#F3F3FF"/>
</svg>
