<svg width="21" height="20" viewBox="0 0 21 20" fill="none" xmlns="http://www.w3.org/2000/svg">
<path d="M18.1475 1.86695C18.0575 1.789 17.9519 1.73153 17.8379 1.69846C17.7239 1.66538 17.6042 1.65748 17.4869 1.67529L6.75173 3.34196C6.55623 3.37189 6.37787 3.47161 6.24906 3.62301C6.12025 3.7744 6.04955 3.96741 6.04981 4.16695V12.792C5.66398 12.6018 5.24054 12.5021 4.81114 12.5003C4.2395 12.5003 3.68071 12.6713 3.20541 12.9918C2.73011 13.3123 2.35966 13.7678 2.14091 14.3008C1.92215 14.8337 1.86491 15.4202 1.97643 15.986C2.08796 16.5517 2.36322 17.0714 2.76743 17.4794C3.17164 17.8873 3.68663 18.165 4.24728 18.2776C4.80793 18.3901 5.38906 18.3324 5.91719 18.1116C6.44531 17.8909 6.8967 17.517 7.21429 17.0374C7.53187 16.5577 7.70138 15.9938 7.70138 15.417V9.05029L16.785 7.64196V11.1253C16.3992 10.9351 15.9757 10.8354 15.5463 10.8336C14.9747 10.8336 14.4159 11.0047 13.9406 11.3252C13.4653 11.6457 13.0948 12.1012 12.8761 12.6341C12.6573 13.1671 12.6001 13.7535 12.7116 14.3193C12.8231 14.8851 13.0984 15.4048 13.5026 15.8127C13.9068 16.2206 14.4218 16.4984 14.9825 16.6109C15.5431 16.7235 16.1242 16.6657 16.6524 16.4449C17.1805 16.2242 17.6319 15.8503 17.9495 15.3707C18.267 14.8911 18.4366 14.3272 18.4366 13.7503V2.50029C18.4366 2.37992 18.4107 2.26098 18.3608 2.15165C18.3109 2.04232 18.2382 1.94519 18.1475 1.86695ZM4.81114 16.667C4.56615 16.667 4.32667 16.5936 4.12297 16.4563C3.91927 16.3189 3.76051 16.1237 3.66675 15.8953C3.573 15.6669 3.54847 15.4156 3.59627 15.1731C3.64406 14.9306 3.76203 14.7079 3.93526 14.5331C4.1085 14.3583 4.32921 14.2392 4.56949 14.191C4.80977 14.1427 5.05882 14.1675 5.28516 14.2621C5.5115 14.3567 5.70495 14.5169 5.84106 14.7225C5.97717 14.9281 6.04981 15.1697 6.04981 15.417C6.04981 15.7485 5.91931 16.0664 5.68702 16.3008C5.45472 16.5353 5.13966 16.667 4.81114 16.667ZM15.5463 15.0003C15.3013 15.0003 15.0618 14.927 14.8581 14.7896C14.6544 14.6523 14.4957 14.4571 14.4019 14.2286C14.3082 14.0002 14.2837 13.7489 14.3314 13.5064C14.3792 13.264 14.4972 13.0412 14.6704 12.8664C14.8437 12.6916 15.0644 12.5725 15.3047 12.5243C15.5449 12.4761 15.794 12.5008 16.0203 12.5954C16.2467 12.6901 16.4401 12.8503 16.5762 13.0558C16.7123 13.2614 16.785 13.5031 16.785 13.7503C16.785 14.0818 16.6545 14.3998 16.4222 14.6342C16.1899 14.8686 15.8748 15.0003 15.5463 15.0003ZM16.785 5.95029L7.70138 7.35862V4.85862L16.785 3.47529V5.95029Z" fill="#F3F3FF"/>
</svg>
