<svg width="1144" height="1144" viewBox="0 0 1144 1144" fill="none" xmlns="http://www.w3.org/2000/svg">
<g filter="url(#filter0_f_206_107)">
<path d="M267.82 572.128C267.82 740.265 404.121 876.567 572.258 876.567C740.395 876.567 876.697 740.265 876.697 572.128C876.697 403.991 740.395 267.689 572.258 267.689C404.121 267.689 267.82 403.991 267.82 572.128Z" fill="url(#paint0_radial_206_107)"/>
</g>
<path d="M367.927 447.52L364.301 448.641C364.301 448.641 356.798 455.27 352.521 460.007C344.663 468.71 341.223 474.457 335.441 484.591C329.726 494.61 327.013 500.561 323.141 511.386C319.796 520.738 318.39 526.17 316.406 535.885C314.479 545.313 313.653 550.688 313.05 560.284C312.243 573.151 312.695 580.472 314.26 593.271C315.968 607.245 317.343 615.181 321.936 628.52C325.209 638.028 327.429 643.299 332.326 652.118C337.191 660.882 340.644 665.423 346.805 673.374C351.64 679.613 359.724 688.461 361.042 689.897L361.027 689.881C361.027 689.881 364.439 694.934 369.064 695.492C373.688 696.05 383.038 687.902 383.038 687.902C383.038 687.902 389.227 681.326 394.32 678.785C398.937 676.482 407.101 675.276 407.101 675.276C407.101 675.276 411.753 675.122 414.691 675.515C417.781 675.928 419.551 676.255 422.436 677.407C426.477 679.019 431.729 683.466 431.729 683.466C431.729 683.466 435.779 686.543 438.759 687.806C442.151 689.245 444.305 689.479 447.973 689.95C451.484 690.402 453.568 690.931 457.038 690.236C460.576 689.528 465.399 686.381 465.399 686.381L473.591 681.286C473.591 681.286 478.665 677.567 482.415 676.21C485.977 674.922 488.175 674.488 491.972 674.452C496.658 674.408 499.368 675.162 503.709 676.882C506.712 678.071 510.963 680.817 510.963 680.817L522.534 688.184C527.052 691.061 528.557 691.051 533.842 690.806C539.127 690.561 545.573 687.76 552.019 683.76C554.886 681.981 555.997 680.27 558.946 678.624C561.923 676.962 563.742 676.167 567.075 675.38C569.906 674.711 574.489 674.584 574.489 674.584C574.489 674.584 579.041 674.264 581.868 674.817C584.959 675.421 586.554 676.343 589.367 677.731C594.036 680.033 595.682 682.883 600.298 685.283C603.268 686.827 604.929 687.874 608.206 688.621C611.815 689.444 617.693 688.921 617.693 688.921C617.693 688.921 623.44 688.441 626.828 687.15C629.618 686.086 630.943 684.978 633.495 683.447C637.511 681.039 643.429 676.759 643.429 676.759C643.429 676.759 649.086 673.888 653.041 673.356C656.224 672.927 658.073 673.249 661.264 673.615C663.913 673.919 665.483 673.929 667.975 674.856C670.839 675.922 672.008 677.367 674.59 678.978C678.386 681.346 680.181 683.279 684.305 685.05C687.505 686.424 689.419 687.049 692.872 687.586C696.045 688.078 697.895 688.125 701.095 687.845C703.444 687.639 704.766 687.41 707.04 686.797C710.765 685.792 712.741 684.701 716.051 682.874L716.251 682.763C719.937 680.728 721.385 678.625 725.11 676.659C728.973 674.619 731.234 673.245 735.586 672.665C738.688 672.252 740.51 672.416 743.597 672.918C746.021 673.312 747.368 673.693 749.663 674.55C753.414 675.951 755.191 677.448 758.569 679.568C763.2 682.473 765.457 684.579 769.901 687.75C772.15 689.356 772.997 691.082 775.672 691.845C777.649 692.409 778.922 692.398 780.943 692.011C783.33 691.554 784.683 690.86 786.522 689.304C792.387 684.341 799.712 673.658 799.712 673.658C799.712 673.658 809.069 660.818 813.743 651.86C817.506 644.649 821.985 632.763 821.985 632.763C821.985 632.763 825.81 623.077 827.593 616.672C829.865 608.509 831.687 595.385 831.687 595.385L833.442 574.641C834.127 566.541 832.957 557.74 832.957 557.74C832.957 557.74 831.753 545.475 830.467 537.686C829.513 531.912 827.586 522.975 827.586 522.975L823.174 509.862L814.149 489.602C814.149 489.602 809.276 479.787 806.264 473.085C804.104 468.28 804.09 468.692 801.917 464.299C799.975 460.374 790.766 447.875 783.387 447.642C776.73 447.432 771.051 456.726 762.254 460.979C753.458 465.232 749.877 466.187 742.236 466.319C735.812 466.43 726.505 464.274 724.08 463.079C720.587 461.359 715.245 454.045 707.785 451.857C700.325 449.669 695.557 450.102 692.851 450.356C689.426 450.679 687.495 451.231 684.335 452.559C681.647 453.688 677.878 456.268 677.878 456.268C677.878 456.268 674.219 459.274 671.604 460.806L671.54 460.844C668.957 462.357 667.439 463.247 664.529 464.084C661.567 464.936 656.687 465.072 656.687 465.072C656.687 465.072 651.362 465.409 648.043 464.799C644.28 464.108 638.871 461.421 638.871 461.421C638.871 461.421 634.991 457.699 632.094 455.853C628.789 453.747 622.949 451.652 622.949 451.652C622.949 451.652 618.514 450.523 615.605 450.391C612.369 450.243 610.481 450.357 607.348 451.16C603.962 452.027 602.185 453.024 599.205 454.816C596.86 456.225 593.578 458.963 593.578 458.963C593.578 458.963 588.913 463.321 585.154 464.669C582.09 465.767 576.883 465.849 576.883 465.849L567.607 465.557C567.607 465.557 562.516 465.202 559.644 463.864C556.983 462.624 553.676 459.351 553.676 459.351C553.676 459.351 549.422 456.317 546.442 454.799C543.255 453.175 541.438 452.079 537.902 451.44C535.23 450.957 530.945 451.221 530.945 451.221C530.945 451.221 526.036 451.624 523.089 452.62C520.895 453.362 517.728 455.128 517.728 455.128L512.986 458.068L507.991 462.234C507.991 462.234 502.963 465.096 499.419 466.083C495.811 467.087 491.781 467.283 489.884 467.223C487.986 467.163 485.142 466.264 482.132 465.537C479.668 464.943 478.179 464.893 475.855 463.898C471.662 462.102 470.745 459.876 466.78 457.64C463.801 455.959 461.977 454.282 458.696 453.266C455.031 452.13 452.892 451.072 449.054 451.314C446.581 451.471 444.843 451.623 442.477 452.342C439.554 453.232 439.483 453.484 435.612 455.627C431.741 457.77 426.522 462.341 426.522 462.341L417.711 467.006L406.917 467.901L399.158 466.42L391.666 463.301L381.775 456.193L372.524 448.9L367.927 447.52Z" fill="#F1F1FE"/>
<defs>
<filter id="filter0_f_206_107" x="0.828461" y="0.698578" width="1142.86" height="1142.86" filterUnits="userSpaceOnUse" color-interpolation-filters="sRGB">
<feFlood flood-opacity="0" result="BackgroundImageFix"/>
<feBlend mode="normal" in="SourceGraphic" in2="BackgroundImageFix" result="shape"/>
<feGaussianBlur stdDeviation="133.495" result="effect1_foregroundBlur_206_107"/>
</filter>
<radialGradient id="paint0_radial_206_107" cx="0" cy="0" r="1" gradientUnits="userSpaceOnUse" gradientTransform="translate(535.263 549.21) rotate(52.307) scale(314.294 319.975)">
<stop stop-color="#3719CA" stop-opacity="0.4"/>
<stop offset="1" stop-color="#3719CA" stop-opacity="0"/>
</radialGradient>
</defs>
</svg>
