<svg width="56" height="62" viewBox="0 0 56 62" fill="none" xmlns="http://www.w3.org/2000/svg">
<path opacity="0.2" fill-rule="evenodd" clip-rule="evenodd" d="M27.9028 49.8271C38.3508 49.8271 46.8212 41.3545 46.8212 30.9023C46.8212 20.4502 38.3508 11.9775 27.9028 11.9775C17.4547 11.9775 8.98438 20.4502 8.98438 30.9023C8.98438 41.3545 17.4547 49.8271 27.9028 49.8271ZM27.9028 50.8271C38.9034 50.8271 47.8212 41.9065 47.8212 30.9023C47.8212 19.8982 38.9034 10.9775 27.9028 10.9775C16.9021 10.9775 7.98438 19.8982 7.98438 30.9023C7.98438 41.9065 16.9021 50.8271 27.9028 50.8271Z" fill="#F3F3FF"/>
<g filter="url(#filter0_f_73_965)">
<path d="M6.58785 22.6295C5.15883 21.8042 4.66921 19.9763 5.49426 18.5469C6.3193 17.1174 8.14659 16.6276 9.57561 17.4529C11.0046 18.2782 11.4943 20.1061 10.6692 21.5356C9.84416 22.9651 8.01687 23.4548 6.58785 22.6295Z" fill="#EC9219"/>
</g>
<path d="M6.58785 22.6295C5.15883 21.8042 4.66921 19.9763 5.49426 18.5469C6.3193 17.1174 8.14659 16.6276 9.57561 17.4529C11.0046 18.2782 11.4943 20.1061 10.6692 21.5356C9.84416 22.9651 8.01687 23.4548 6.58785 22.6295Z" fill="#EC9219"/>
<path d="M8.6284 22.0823C7.91389 21.6697 7.66908 20.7557 8.0816 20.041C8.49412 19.3263 9.40777 19.0814 10.1223 19.494C10.8368 19.9067 11.0816 20.8206 10.6691 21.5354C10.2566 22.2501 9.34291 22.495 8.6284 22.0823Z" fill="#F5A941"/>
<g filter="url(#filter1_f_73_965)">
<path d="M49.4131 39.3705C50.8421 40.1958 51.3318 42.0237 50.5067 43.4531C49.6817 44.8826 47.8544 45.3724 46.4254 44.5471C44.9963 43.7218 44.5067 41.8939 45.3318 40.4644C46.1568 39.0349 47.9841 38.5452 49.4131 39.3705Z" fill="#EC9219"/>
</g>
<path d="M49.5757 39.3705C51.0047 40.1958 51.4944 42.0237 50.6693 43.4531C49.8443 44.8826 48.017 45.3724 46.588 44.5471C45.1589 43.7218 44.6693 41.8939 45.4944 40.4644C46.3194 39.0349 48.1467 38.5452 49.5757 39.3705Z" fill="#EC9219"/>
<path d="M47.3726 39.9177C48.0871 40.3303 48.3319 41.2443 47.9194 41.959C47.5069 42.6737 46.5932 42.9186 45.8787 42.506C45.1642 42.0933 44.9194 41.1794 45.3319 40.4646C45.7444 39.7499 46.6581 39.505 47.3726 39.9177Z" fill="#F5A941"/>
<g filter="url(#filter2_f_73_965)">
<path d="M45.4283 16.457C46.8574 15.6316 48.6846 16.1214 49.5097 17.5509C50.3347 18.9804 49.8451 20.8083 48.4161 21.6336C46.9871 22.4589 45.1598 21.9691 44.3347 20.5396C43.5097 19.1101 43.9993 17.2823 45.4283 16.457Z" fill="#D92C21"/>
</g>
<path d="M45.5875 16.457C47.0165 15.6316 48.8438 16.1214 49.6689 17.5509C50.4939 18.9804 50.0043 20.8083 48.5753 21.6336C47.1462 22.4589 45.319 21.9691 44.4939 20.5396C43.6689 19.1101 44.1585 17.2823 45.5875 16.457Z" fill="#D92C21"/>
<path d="M44.8819 18.4985C45.5964 18.0858 46.51 18.3307 46.9226 19.0455C47.3351 19.7602 47.0903 20.6741 46.3758 21.0868C45.6613 21.4995 44.7476 21.2546 44.3351 20.5398C43.9226 19.8251 44.1674 18.9112 44.8819 18.4985Z" fill="#E74A3F"/>
<g filter="url(#filter3_f_73_965)">
<path d="M9.57607 44.5469C8.14704 45.3723 6.31976 44.8825 5.49471 43.453C4.66966 42.0235 5.15928 40.1956 6.58831 39.3703C8.01733 38.545 9.84461 39.0348 10.6697 40.4643C11.4947 41.8938 11.0051 43.7216 9.57607 44.5469Z" fill="#D92C21"/>
</g>
<path d="M9.57509 44.5479C8.14607 45.3732 6.31878 44.8835 5.49373 43.454C4.66869 42.0245 5.15831 40.1966 6.58733 39.3713C8.01635 38.546 9.84364 39.0358 10.6687 40.4653C11.4937 41.8947 11.0041 43.7226 9.57509 44.5479Z" fill="#D92C21"/>
<path d="M10.123 42.5054C9.40848 42.9181 8.49484 42.6732 8.08232 41.9584C7.66979 41.2437 7.9146 40.3298 8.62911 39.9171C9.34363 39.5044 10.2573 39.7493 10.6698 40.4641C11.0823 41.1788 10.8375 42.0928 10.123 42.5054Z" fill="#E74A3F"/>
<g filter="url(#filter4_f_73_965)">
<path d="M24.9161 7.98882C24.9161 6.3382 26.2537 5.0001 27.9038 5.0001C29.5539 5.0001 30.8916 6.3382 30.8916 7.98882C30.8916 9.63944 29.5539 10.9775 27.9038 10.9775C26.2537 10.9775 24.9161 9.63944 24.9161 7.98882Z" fill="#208D0F"/>
</g>
<path d="M25.0006 7.98882C25.0006 6.3382 26.3382 5.0001 27.9883 5.0001C29.6384 5.0001 30.9761 6.3382 30.9761 7.98882C30.9761 9.63944 29.6384 10.9775 27.9883 10.9775C26.3382 10.9775 25.0006 9.63944 25.0006 7.98882Z" fill="#208D0F"/>
<path d="M26.4102 9.48318C26.4102 8.65787 27.079 7.98882 27.9041 7.98882C28.7291 7.98882 29.3979 8.65787 29.3979 9.48318C29.3979 10.3085 28.7291 10.9775 27.9041 10.9775C27.079 10.9775 26.4102 10.3085 26.4102 9.48318Z" fill="#39A528"/>
<g filter="url(#filter5_f_73_965)">
<path d="M31.0864 54.0112C31.0864 55.6618 29.7487 56.9999 28.0986 56.9999C26.4485 56.9999 25.1108 55.6618 25.1108 54.0112C25.1108 52.3606 26.4485 51.0225 28.0986 51.0225C29.7487 51.0225 31.0864 52.3606 31.0864 54.0112Z" fill="#208D0F"/>
</g>
<path d="M31.0864 53.9887C31.0864 55.6393 29.7487 56.9774 28.0986 56.9774C26.4485 56.9774 25.1108 55.6393 25.1108 53.9887C25.1108 52.3381 26.4485 51 28.0986 51C29.7487 51 31.0864 52.3381 31.0864 53.9887Z" fill="#208D0F"/>
<path d="M29.5923 52.5168C29.5923 53.3421 28.9234 54.0112 28.0984 54.0112C27.2733 54.0112 26.6045 53.3421 26.6045 52.5168C26.6045 51.6915 27.2733 51.0225 28.0984 51.0225C28.9234 51.0225 29.5923 51.6915 29.5923 52.5168Z" fill="#39A528"/>
<defs>
<filter id="filter0_f_73_965" x="0.0932617" y="12.0518" width="15.9766" height="15.9785" filterUnits="userSpaceOnUse" color-interpolation-filters="sRGB">
<feFlood flood-opacity="0" result="BackgroundImageFix"/>
<feBlend mode="normal" in="SourceGraphic" in2="BackgroundImageFix" result="shape"/>
<feGaussianBlur stdDeviation="2.5" result="effect1_foregroundBlur_73_965"/>
</filter>
<filter id="filter1_f_73_965" x="39.9312" y="33.9697" width="15.9766" height="15.9785" filterUnits="userSpaceOnUse" color-interpolation-filters="sRGB">
<feFlood flood-opacity="0" result="BackgroundImageFix"/>
<feBlend mode="normal" in="SourceGraphic" in2="BackgroundImageFix" result="shape"/>
<feGaussianBlur stdDeviation="2.5" result="effect1_foregroundBlur_73_965"/>
</filter>
<filter id="filter2_f_73_965" x="38.9341" y="11.0557" width="15.9766" height="15.9785" filterUnits="userSpaceOnUse" color-interpolation-filters="sRGB">
<feFlood flood-opacity="0" result="BackgroundImageFix"/>
<feBlend mode="normal" in="SourceGraphic" in2="BackgroundImageFix" result="shape"/>
<feGaussianBlur stdDeviation="2.5" result="effect1_foregroundBlur_73_965"/>
</filter>
<filter id="filter3_f_73_965" x="0.09375" y="33.9697" width="15.9766" height="15.9785" filterUnits="userSpaceOnUse" color-interpolation-filters="sRGB">
<feFlood flood-opacity="0" result="BackgroundImageFix"/>
<feBlend mode="normal" in="SourceGraphic" in2="BackgroundImageFix" result="shape"/>
<feGaussianBlur stdDeviation="2.5" result="effect1_foregroundBlur_73_965"/>
</filter>
<filter id="filter4_f_73_965" x="19.916" y="0" width="15.9756" height="15.9775" filterUnits="userSpaceOnUse" color-interpolation-filters="sRGB">
<feFlood flood-opacity="0" result="BackgroundImageFix"/>
<feBlend mode="normal" in="SourceGraphic" in2="BackgroundImageFix" result="shape"/>
<feGaussianBlur stdDeviation="2.5" result="effect1_foregroundBlur_73_965"/>
</filter>
<filter id="filter5_f_73_965" x="20.1108" y="46.0225" width="15.9756" height="15.9775" filterUnits="userSpaceOnUse" color-interpolation-filters="sRGB">
<feFlood flood-opacity="0" result="BackgroundImageFix"/>
<feBlend mode="normal" in="SourceGraphic" in2="BackgroundImageFix" result="shape"/>
<feGaussianBlur stdDeviation="2.5" result="effect1_foregroundBlur_73_965"/>
</filter>
</defs>
</svg>
