<svg width="141" height="60" viewBox="0 0 141 60" fill="none" xmlns="http://www.w3.org/2000/svg">
<path d="M133.648 43.5378C128.782 45.4419 13.5267 44.9862 7.87037 43.2869C2.21403 41.5876 -0.473854 35.4648 1.02132 29.7894C2.95047 22.4667 5.87886 18.7573 14.1631 16.0227C22.4473 13.2881 36.4677 16.0227 36.4677 16.0227C36.4677 16.0227 46.9646 -1.08736 63.2931 0.0547337C79.6215 1.19683 91.285 16.0227 91.285 16.0227C91.285 16.0227 99.2061 8.72405 109.691 13.2881C120.176 17.8522 120.443 29.7149 120.443 29.7149C120.443 29.7149 123.815 26.4016 129.774 26.2991C135.733 26.1967 138.989 28.4753 140.669 33.4051C141.997 37.3025 138.514 41.6336 133.648 43.5378Z" fill="#F3F3FF"/>
<path d="M129.674 30.8208C127.487 30.0964 10.9546 29.7005 6.62627 30.855C2.29795 32.0094 -0.404458 33.7183 1.71127 36.6158C3.82699 39.5133 14.8357 39.5133 14.8357 39.5133C14.8357 39.5133 26.7578 52.6547 44.365 53.2764C61.9722 53.8982 71.7083 47.4814 71.7083 47.4814C71.7083 47.4814 80.3265 59.9649 102.332 59.0714C124.338 58.178 125.69 38.1723 125.69 38.1723C125.69 38.1723 132.749 37.8325 132.955 35.1671C133.126 32.9606 131.861 31.5452 129.674 30.8208Z" fill="#F3F3FF"/>
</svg>
