<svg width="176" height="68" viewBox="0 0 176 68" fill="none" xmlns="http://www.w3.org/2000/svg">
<path d="M4.9115 55.6621C7.81865 57.0792 162.694 57.8538 168.447 55.5953C174.199 53.3367 177.791 49.9934 174.979 44.3247C172.167 38.6559 157.536 38.656 157.536 38.656C157.536 38.656 141.691 12.946 118.291 11.7297C94.8898 10.5133 81.9501 23.0671 81.9501 23.0671C81.9501 23.0671 70.4962 -1.35565 41.25 0.392274C12.0037 2.1402 10.2062 41.2796 10.2062 41.2796C10.2062 41.2796 0.824783 41.9444 0.550766 47.159C0.323914 51.4759 2.00433 54.2449 4.9115 55.6621Z" fill="#F3F3FF"/>
<path d="M164.77 44.56C161.986 43.9855 13.6729 43.6715 8.16417 44.5871C2.6554 45.5027 -0.78403 46.858 1.90871 49.156C4.60145 51.4541 18.6125 51.4541 18.6125 51.4541C18.6125 51.4541 33.7861 61.8765 56.1953 62.3696C78.6045 62.8627 90.9959 57.7736 90.9959 57.7736C90.9959 57.7736 101.964 67.6742 129.971 66.9657C157.979 66.2571 159.7 50.3905 159.7 50.3905C159.7 50.3905 168.684 50.121 168.946 48.007C169.163 46.257 167.554 45.1345 164.77 44.56Z" fill="#F3F3FF"/>
</svg>
