<svg width="475" height="221" viewBox="0 0 475 221" fill="none" xmlns="http://www.w3.org/2000/svg">
<path d="M340.022 131.301C304.226 148.893 236.11 149.682 236.11 149.682C236.11 149.682 238.382 89.8396 263.452 57.7774C276.72 40.809 307.213 2.63483 334.553 16.4205C361.892 30.2061 383.768 48.587 394.709 66.9678C405.651 85.3487 362.221 120.391 340.022 131.301Z" fill="#D6BD63"/>
<path d="M338.026 122.174C304.643 142.846 237.008 149.68 237.008 149.68C237.008 149.68 231.74 89.9709 252.637 55.8619C263.696 37.8103 289.217 -2.85783 318.137 8.42286C347.057 19.7035 371.122 36.0389 384.315 53.3451C397.508 70.6514 358.729 109.354 338.026 122.174Z" fill="#FFE336"/>
<path d="M134.107 131.301C169.903 148.893 238.019 149.682 238.019 149.682C238.019 149.682 235.747 89.8396 210.676 57.7774C197.408 40.809 166.915 2.63483 139.576 16.4205C112.237 30.2061 90.3609 48.587 79.4191 66.9678C68.4773 85.3487 111.907 120.391 134.107 131.301Z" fill="#D6BD63"/>
<path d="M136.103 122.174C169.486 142.846 237.121 149.68 237.121 149.68C237.121 149.68 242.389 89.9709 221.491 55.8619C210.432 37.8103 184.912 -2.85783 155.991 8.42286C127.071 19.7035 103.006 36.0389 89.8135 53.3451C76.6209 70.6514 115.4 109.354 136.103 122.174Z" fill="#FFE336"/>
<rect x="0.788086" y="147.055" width="473.297" height="73.5234" fill="#D93332"/>
<rect x="250.874" y="147.066" width="73.1595" height="26.8749" transform="rotate(90 250.874 147.066)" fill="#FFE336"/>
</svg>
