<svg width="428" height="156" viewBox="0 0 428 156" fill="none" xmlns="http://www.w3.org/2000/svg">
<path d="M408.481 114.513C402.482 115.513 33.5631 120.893 19.0042 115.798C4.44536 110.702 -4.64456 103.159 2.47197 90.3704C9.5885 77.5814 46.6178 77.5814 46.6178 77.5814C46.6178 77.5814 86.7193 19.5781 145.944 16.834C205.168 14.0898 237.917 42.4119 237.917 42.4119C237.917 42.4119 273.988 -15.4443 333.985 4.54916C393.982 24.5427 419.492 83.5006 419.492 83.5006C419.492 83.5006 428.48 89.5217 426.98 101.018C425.718 110.692 414.481 113.514 408.481 114.513Z" fill="#F3F3FF"/>
<path d="M310.912 81.1533C299.54 77.88 30.18 78.6634 16.9608 81.5847C3.74155 84.5059 -2.54023 95.0313 0.9541 104.788C5.46265 117.376 12.3065 123.753 31.6673 128.454C51.0282 133.155 83.7948 128.454 83.7948 128.454C83.7948 128.454 108.327 157.867 146.487 155.904C184.648 153.941 198.491 128.454 198.491 128.454C198.491 128.454 217.49 152.208 250.989 145.002C284.487 137.795 280.051 104.916 280.051 104.916C280.051 104.916 287.931 110.612 301.858 110.788C315.785 110.964 323.394 107.047 327.32 98.5721C330.423 91.8722 322.284 84.4267 310.912 81.1533Z" fill="#F3F3FF"/>
<path d="M402.482 84.5227C402.482 84.5227 223.871 59.0184 211.659 62.319C199.447 65.6197 193.644 77.512 196.872 88.5355C201.037 102.759 207.359 109.964 225.244 115.275C243.13 120.587 273.399 115.275 273.399 115.275C273.399 115.275 296.061 148.509 331.313 146.29C366.565 144.072 391.746 115.275 391.746 115.275C391.746 115.275 415.981 112.513 419.981 107.015C423.981 101.517 402.482 84.5227 402.482 84.5227Z" fill="#F3F3FF"/>
</svg>
