<svg width="437" height="219" viewBox="0 0 437 219" fill="none" xmlns="http://www.w3.org/2000/svg">
<path d="M414.268 165.61C399.127 172.845 40.486 171.114 22.8851 164.656C5.28428 158.199 -3.07962 134.932 1.57292 113.366C7.57585 85.5396 16.6882 71.4439 42.4662 61.0524C68.2443 50.6609 111.872 61.0524 111.872 61.0524C111.872 61.0524 144.535 -3.96596 195.344 0.374004C246.153 4.71397 282.447 61.0524 282.447 61.0524C282.447 61.0524 307.095 33.3174 339.72 50.6609C372.346 68.0043 373.178 113.083 373.178 113.083C373.178 113.083 383.669 100.492 402.213 100.103C420.757 99.7134 430.887 108.372 436.114 127.105C440.246 141.915 429.409 158.374 414.268 165.61Z" fill="#F3F3FF"/>
<path d="M372.379 141.594C359.713 136.711 49.9663 98.7574 34.4071 99.7553C18.8478 100.753 10.3193 110.294 13.1247 120.477C16.7444 133.617 23.82 140.928 45.4929 148.376C67.1658 155.825 105.417 155.872 105.417 155.872C105.417 155.872 129.966 188.585 174.078 192.124C218.191 195.663 252.691 174.293 252.691 174.293C252.691 174.293 272.414 189.405 301.557 185.143C330.701 180.881 333.951 160.735 333.951 160.735C333.951 160.735 342.302 167.52 358.291 169.698C374.28 171.875 383.513 169.082 389.078 161.238C393.478 155.036 385.045 146.477 372.379 141.594Z" fill="#F3F3FF"/>
</svg>
