<svg width="341" height="151" viewBox="0 0 341 151" fill="none" xmlns="http://www.w3.org/2000/svg">
<path d="M323.033 108.826C311.23 113.567 31.6745 112.432 17.9548 108.201C4.23521 103.97 -2.28434 88.7244 1.34225 74.5928C6.02146 56.3595 13.1244 47.1232 33.2181 40.3141C53.3117 33.505 87.3186 40.3141 87.3186 40.3141C87.3186 40.3141 112.779 -2.28953 152.384 0.554254C191.99 3.39804 220.28 40.3141 220.28 40.3141C220.28 40.3141 239.493 22.1406 264.924 33.505C290.355 44.8694 291.003 74.4073 291.003 74.4073C291.003 74.4073 299.181 66.1571 313.636 65.902C328.091 65.6469 335.987 71.3207 340.062 83.5958C343.283 93.3001 334.835 104.085 323.033 108.826Z" fill="#F3F3FF"/>
<path d="M19.1943 75.4524C30.9556 72.17 309.539 72.9556 323.211 75.8849C336.883 78.8142 343.38 89.3687 339.766 99.1521C335.103 111.775 328.025 118.17 308.001 122.884C287.977 127.598 254.088 122.884 254.088 122.884C254.088 122.884 228.716 152.378 189.249 150.41C149.781 148.441 121.59 122.883 121.59 122.883C121.59 122.883 102.444 135.465 77.1008 127.597C51.7579 119.73 51.1121 99.2805 51.1121 99.2805C51.1121 99.2805 42.9624 104.992 28.5581 105.169C14.1538 105.345 6.28452 101.417 2.22449 92.9193C-0.985255 86.2009 7.43305 78.7347 19.1943 75.4524Z" fill="#F3F3FF"/>
</svg>
