<svg width="76" height="84" viewBox="0 0 76 84" fill="none" xmlns="http://www.w3.org/2000/svg">
<path fill-rule="evenodd" clip-rule="evenodd" d="M0.522134 19.5703C2.54979 13.9121 6.31296 9.18251 11.6834 5.54289C20.7806 -0.622403 32.1365 -1.73684 41.0239 2.66379C47.6954 5.96706 51.5614 11.6008 52.4452 19.3078C52.5546 20.2609 52.6124 22.2685 52.5784 23.9304L52.5181 26.868L53.3296 26.9748C54.687 27.1537 57.2197 27.8299 58.5502 28.3686C61.8187 29.6922 64.4473 31.4224 67.1394 34.0223C71.0354 37.7848 73.7747 42.3915 75.2453 47.6534C75.8612 49.8569 76.003 51.0457 76 53.9734C75.9974 56.3651 75.9339 57.1346 75.6212 58.5697C74.2564 64.8316 70.4692 70.6104 64.7741 75.121C63.7121 75.9621 63.1458 76.0125 62.4685 75.326C62.1189 74.9716 61.9952 74.6901 61.9952 74.2492C61.9952 73.6997 62.1738 73.4727 64.2324 71.4049C67.4944 68.1283 69.2713 65.2704 70.5777 61.1996C71.5061 58.3065 71.6311 57.415 71.6263 53.7271C71.6224 50.7512 71.5817 50.2717 71.1908 48.6014C69.5675 41.6659 65.3132 36.1753 59.1612 33.0762C57.0558 32.0157 54.3963 31.1012 52.4187 30.7579L51.8297 30.6556L51.5444 31.8497C51.3873 32.5065 50.9457 33.9753 50.5628 35.1139C46.6544 46.7371 38.5815 55.3682 30.0912 57.0009C28.423 57.3216 26.1099 57.3252 24.7878 57.0092C20.907 56.0819 18.4284 52.7859 18.4357 48.5629C18.4412 45.2891 19.5806 42.781 22.5391 39.5293C29.0183 32.4081 37.7637 27.7803 46.4713 26.8652L48.3558 26.6672L48.455 25.9339C48.6453 24.5268 48.5574 20.3837 48.3059 18.907C46.9525 10.9578 41.5907 5.47558 33.4506 3.71782C31.1041 3.21125 27.3584 3.21239 24.7489 3.72078C16.4553 5.33622 8.7913 10.5893 4.2683 17.7586C3.93308 18.2898 3.26605 19.5291 2.7859 20.5126C1.73183 22.6717 1.22382 23.0023 0.255419 22.1592C-0.14425 21.8112 -0.0891905 21.2764 0.522134 19.5703ZM21.9898 50.3498C23.152 52.6591 28.1775 54.0975 31.2851 53.0099C34.3058 51.953 39.045 47.5789 42.0505 43.0739C44.3451 39.6345 46.2021 35.7372 47.257 32.1465C47.4503 31.4884 47.6468 30.8488 47.6936 30.7254C47.7953 30.4564 47.0361 30.5281 44.6676 31.0114C36.6716 32.6426 26.3873 39.4011 22.9653 45.2732C21.7195 47.4112 21.3856 49.149 21.9898 50.3498ZM56.6546 78.2681C56.9062 73.5233 57.7059 68.8124 58.3744 68.1346C58.8054 67.6976 59.347 67.6579 59.8642 68.0251C60.4823 68.464 60.5499 68.9209 60.2908 70.9119C60.053 72.7394 59.9557 78.7248 60.1481 79.6994C60.242 80.1754 60.2639 80.1853 61.0793 80.1214C63.848 79.9044 66.6393 79.5126 67.906 79.1629C70.7086 78.3896 72.3777 78.7527 72.4943 80.1612C72.5994 81.4306 71.7492 82.3245 70.0112 82.7725C68.2003 83.2392 64.6805 83.6878 61.3222 83.8801C58.2591 84.0554 57.942 84.0482 57.5593 83.794C56.5509 83.1243 56.4346 82.4135 56.6546 78.2681Z" fill="white"/>
</svg>
