<svg width="76" height="84" viewBox="0 0 76 84" fill="none" xmlns="http://www.w3.org/2000/svg">
<path fill-rule="evenodd" clip-rule="evenodd" d="M75.4779 19.5703C73.4502 13.9121 69.687 9.18251 64.3166 5.54289C55.2194 -0.622403 43.8635 -1.73684 34.9761 2.66379C28.3046 5.96706 24.4386 11.6008 23.5548 19.3078C23.4454 20.2609 23.3876 22.2685 23.4216 23.9304L23.4819 26.868L22.6704 26.9748C21.313 27.1537 18.7803 27.8299 17.4498 28.3686C14.1813 29.6922 11.5527 31.4224 8.86061 34.0223C4.96464 37.7848 2.22526 42.3915 0.754682 47.6534C0.138822 49.8569 -0.0030311 51.0457 4.34171e-05 53.9734C0.00263731 56.3651 0.0661138 57.1346 0.37882 58.5697C1.74365 64.8316 5.53079 70.6104 11.2259 75.121C12.2879 75.9621 12.8542 76.0125 13.5315 75.326C13.8811 74.9716 14.0048 74.6901 14.0048 74.2492C14.0048 73.6997 13.8262 73.4727 11.7676 71.4049C8.50564 68.1283 6.72867 65.2704 5.42229 61.1996C4.49389 58.3065 4.36887 57.415 4.37373 53.7271C4.37761 50.7512 4.41826 50.2717 4.80919 48.6014C6.43248 41.6659 10.6868 36.1753 16.8388 33.0762C18.9442 32.0157 21.6037 31.1012 23.5813 30.7579L24.1703 30.6556L24.4556 31.8497C24.6127 32.5065 25.0543 33.9753 25.4372 35.1139C29.3456 46.7371 37.4185 55.3682 45.9088 57.0009C47.577 57.3216 49.8901 57.3252 51.2122 57.0092C55.093 56.0819 57.5716 52.7859 57.5643 48.5629C57.5588 45.2891 56.4194 42.781 53.4609 39.5293C46.9817 32.4081 38.2363 27.7803 29.5287 26.8652L27.6442 26.6672L27.545 25.9339C27.3547 24.5268 27.4426 20.3837 27.6941 18.907C29.0475 10.9578 34.4093 5.47558 42.5494 3.71782C44.8959 3.21125 48.6416 3.21239 51.2511 3.72078C59.5447 5.33622 67.2087 10.5893 71.7317 17.7586C72.0669 18.2898 72.7339 19.5291 73.2141 20.5126C74.2682 22.6717 74.7762 23.0023 75.7446 22.1592C76.1443 21.8112 76.0892 21.2764 75.4779 19.5703ZM54.0102 50.3498C52.848 52.6591 47.8225 54.0975 44.7149 53.0099C41.6942 51.953 36.955 47.5789 33.9495 43.0739C31.6549 39.6345 29.7979 35.7372 28.743 32.1465C28.5497 31.4884 28.3532 30.8488 28.3064 30.7254C28.2047 30.4564 28.9639 30.5281 31.3324 31.0114C39.3284 32.6426 49.6127 39.4011 53.0347 45.2732C54.2805 47.4112 54.6144 49.149 54.0102 50.3498ZM19.3454 78.2681C19.0938 73.5233 18.2941 68.8124 17.6256 68.1346C17.1946 67.6976 16.653 67.6579 16.1358 68.0251C15.5177 68.464 15.4501 68.9209 15.7092 70.9119C15.947 72.7394 16.0443 78.7248 15.8519 79.6994C15.758 80.1754 15.7361 80.1853 14.9207 80.1214C12.152 79.9044 9.36068 79.5126 8.09398 79.1629C5.29144 78.3896 3.62233 78.7527 3.50573 80.1612C3.40062 81.4306 4.25081 82.3245 5.98876 82.7725C7.79974 83.2392 11.3195 83.6878 14.6778 83.8801C17.7409 84.0554 18.058 84.0482 18.4407 83.794C19.4491 83.1243 19.5654 82.4135 19.3454 78.2681Z" fill="white"/>
</svg>
