<svg width="1578" height="260" viewBox="0 0 1578 260" fill="none" xmlns="http://www.w3.org/2000/svg">
<g clip-path="url(#clip0_312_495)">
<path opacity="0.4" d="M1563.5 2.5C1563.5 35.0544 1541.97 66.1637 1502.8 94.5408C1463.65 122.91 1406.96 148.478 1336.86 169.96C1196.67 212.921 1002.97 239.5 789 239.5C575.025 239.5 381.327 212.921 241.139 169.96C171.042 148.478 114.352 122.91 75.1967 94.5408C36.0306 66.1637 14.5 35.0544 14.5 2.5C14.5 -30.0544 36.0306 -61.1637 75.1967 -89.5408C114.352 -117.91 171.042 -143.478 241.139 -164.96C381.327 -207.921 575.025 -234.5 789 -234.5C1002.97 -234.5 1196.67 -207.921 1336.86 -164.96C1406.96 -143.478 1463.65 -117.91 1502.8 -89.5408C1541.97 -61.1637 1563.5 -30.0544 1563.5 2.5Z" stroke="#F3F3FF"/>
<g filter="url(#filter0_f_312_495)">
<ellipse rx="10.1154" ry="10.012" transform="matrix(0.958983 -0.283463 0.290521 0.956869 1001.61 231.446)" fill="#FCAF34"/>
</g>
<ellipse rx="10.1154" ry="10.012" transform="matrix(0.958983 -0.283463 0.290521 0.956869 1001.61 231.446)" fill="#FCAF34"/>
<ellipse rx="5.05769" ry="5.00601" transform="matrix(0.958983 -0.283463 0.290521 0.956869 1000.16 226.657)" fill="#FFE336"/>
<g filter="url(#filter1_f_312_495)">
<ellipse rx="10.0985" ry="10.0291" transform="matrix(0.890917 -0.454167 0.463574 0.886058 1205.65 201.472)" fill="#FCAF34"/>
</g>
<ellipse rx="10.0985" ry="10.0291" transform="matrix(0.890917 -0.454167 0.463574 0.886058 1205.65 201.472)" fill="#FCAF34"/>
<ellipse rx="5.04923" ry="5.01454" transform="matrix(0.890917 -0.454167 0.463574 0.886058 1203.32 197.03)" fill="#FFE336"/>
<g filter="url(#filter2_f_312_495)">
<ellipse rx="10.0985" ry="10.0291" transform="matrix(0.890917 -0.454167 0.463574 0.886058 1417.65 140.472)" fill="#FCAF34"/>
</g>
<ellipse rx="10.0985" ry="10.0291" transform="matrix(0.890917 -0.454167 0.463574 0.886058 1417.65 140.472)" fill="#FCAF34"/>
<ellipse rx="5.04923" ry="5.01454" transform="matrix(0.890917 -0.454167 0.463574 0.886058 1415.32 136.03)" fill="#FFE336"/>
<g filter="url(#filter3_f_312_495)">
<ellipse rx="10.1272" ry="10.0001" transform="matrix(0.999013 0.0444096 -0.0450238 0.998986 643.568 236.44)" fill="#FCAF34"/>
</g>
<ellipse rx="10.1272" ry="10.0001" transform="matrix(0.999013 0.0444096 -0.0450238 0.998986 643.568 236.44)" fill="#FCAF34"/>
<ellipse rx="5.06359" ry="5.00004" transform="matrix(0.999013 0.0444096 -0.0450238 0.998986 643.793 231.445)" fill="#FFE336"/>
<ellipse rx="10.1238" ry="10.0035" transform="matrix(0.98294 0.183925 -0.187985 0.982172 448.833 214.686)" fill="#FCAF34"/>
<g filter="url(#filter4_f_312_495)">
<ellipse rx="10.1238" ry="10.0035" transform="matrix(0.98294 0.183925 -0.187985 0.982172 448.833 214.686)" fill="#FCAF34"/>
</g>
<ellipse rx="5.06189" ry="5.00176" transform="matrix(0.98294 0.183925 -0.187985 0.982172 449.773 209.775)" fill="#FFE336"/>
<ellipse rx="10.1238" ry="10.0035" transform="matrix(0.932309 0.361663 -0.365513 0.930806 241.095 169.973)" fill="#FCAF34"/>
<g filter="url(#filter5_f_312_495)">
<ellipse rx="10.1238" ry="10.0035" transform="matrix(0.932309 0.361663 -0.365513 0.930806 241.095 169.973)" fill="#FCAF34"/>
</g>
<ellipse rx="5.06189" ry="5.00176" transform="matrix(0.932309 0.361663 -0.365513 0.930806 242.922 165.318)" fill="#FFE336"/>
<ellipse rx="10.1238" ry="10.0035" transform="matrix(0.932309 0.361663 -0.365513 0.930806 45.0951 70.9727)" fill="#FCAF34"/>
<g filter="url(#filter6_f_312_495)">
<ellipse rx="10.1238" ry="10.0035" transform="matrix(0.932309 0.361663 -0.365513 0.930806 45.0951 70.9727)" fill="#FCAF34"/>
</g>
<ellipse rx="5.06189" ry="5.00176" transform="matrix(0.932309 0.361663 -0.365513 0.930806 46.9223 66.3184)" fill="#FFE336"/>
<g filter="url(#filter7_f_312_495)">
<ellipse rx="10.1273" ry="10" transform="matrix(0.999658 0.0261621 -0.0263101 0.999654 582.388 231.267)" fill="#E64939"/>
</g>
<ellipse rx="10.1273" ry="10" transform="matrix(0.999658 0.0261621 -0.0263101 0.999654 582.388 231.267)" fill="#E64939"/>
<ellipse rx="5.06363" ry="5" transform="matrix(0.999658 0.0261621 -0.0263101 0.999654 582.52 226.268)" fill="#F26652"/>
<ellipse rx="10.1273" ry="10" transform="matrix(0.999658 0.0261621 -0.0263101 0.999654 386.388 204.266)" fill="#E64939"/>
<g filter="url(#filter8_f_312_495)">
<ellipse rx="10.1273" ry="10" transform="matrix(0.999658 0.0261621 -0.0263101 0.999654 386.388 204.266)" fill="#E64939"/>
</g>
<ellipse rx="5.06363" ry="5" transform="matrix(0.999658 0.0261621 -0.0263101 0.999654 386.52 199.267)" fill="#F26652"/>
<ellipse rx="10.1273" ry="10" transform="matrix(0.977772 0.209671 -0.209816 0.977741 170.002 142.902)" fill="#E64939"/>
<g filter="url(#filter9_f_312_495)">
<ellipse rx="10.1273" ry="10" transform="matrix(0.977772 0.209671 -0.209816 0.977741 170.002 142.902)" fill="#E64939"/>
</g>
<ellipse rx="5.06363" ry="5" transform="matrix(0.977772 0.209671 -0.209816 0.977741 171.051 138.012)" fill="#F26652"/>
<g filter="url(#filter10_f_312_495)">
<ellipse rx="10.1203" ry="10.0071" transform="matrix(0.977147 -0.212564 0.218204 0.975903 936.074 235.917)" fill="#E64939"/>
</g>
<ellipse rx="10.1203" ry="10.0071" transform="matrix(0.977147 -0.212564 0.218204 0.975903 936.074 235.917)" fill="#E64939"/>
<ellipse rx="5.06013" ry="5.00354" transform="matrix(0.977147 -0.212564 0.218204 0.975903 934.982 231.035)" fill="#F26652"/>
<g filter="url(#filter11_f_312_495)">
<ellipse rx="10.1059" ry="10.0216" transform="matrix(0.921836 -0.38758 0.39628 0.91813 1138.29 213.117)" fill="#E64939"/>
</g>
<ellipse rx="10.1059" ry="10.0216" transform="matrix(0.921836 -0.38758 0.39628 0.91813 1138.29 213.117)" fill="#E64939"/>
<ellipse rx="5.05296" ry="5.01078" transform="matrix(0.921836 -0.38758 0.39628 0.91813 1136.3 208.517)" fill="#F26652"/>
<g filter="url(#filter12_f_312_495)">
<ellipse rx="10.1059" ry="10.0216" transform="matrix(0.921836 -0.38758 0.39628 0.91813 1350.29 164.118)" fill="#E64939"/>
</g>
<ellipse rx="10.1059" ry="10.0216" transform="matrix(0.921836 -0.38758 0.39628 0.91813 1350.29 164.118)" fill="#E64939"/>
<ellipse rx="5.05296" ry="5.01078" transform="matrix(0.921836 -0.38758 0.39628 0.91813 1348.3 159.518)" fill="#F26652"/>
<g filter="url(#filter13_f_312_495)">
<ellipse rx="10.1059" ry="10.0216" transform="matrix(0.921836 -0.38758 0.39628 0.91813 1532.29 68.1182)" fill="#E64939"/>
</g>
<ellipse rx="10.1059" ry="10.0216" transform="matrix(0.921836 -0.38758 0.39628 0.91813 1532.29 68.1182)" fill="#E64939"/>
<ellipse rx="5.05296" ry="5.01078" transform="matrix(0.921836 -0.38758 0.39628 0.91813 1530.3 63.5181)" fill="#F26652"/>
<ellipse rx="10.1268" ry="10.0005" transform="matrix(-0.999164 0.040885 -0.0424471 -0.999099 708.778 238.774)" fill="#208D0F"/>
<ellipse rx="5.06338" ry="5.00025" transform="matrix(-0.999164 0.040885 -0.0424471 -0.999099 708.99 243.77)" fill="#39A528"/>
<ellipse rx="10.1267" ry="10.0006" transform="matrix(-0.997933 0.0637102 -0.0658521 -0.997866 708.785 238.649)" fill="#208D0F"/>
<ellipse rx="10.1267" ry="10.0006" transform="matrix(-0.997933 0.0637102 -0.0658521 -0.997866 708.785 238.649)" fill="#3E6C9A"/>
<ellipse rx="5.06335" ry="5.00028" transform="matrix(-0.997933 0.0637102 -0.0658521 -0.997866 709.115 243.638)" fill="#4B81B5"/>
<circle cx="709.113" cy="238.981" r="10" transform="rotate(-146.125 709.113 238.981)" fill="#2B9126"/>
<circle cx="706.327" cy="243.132" r="5" transform="rotate(-146.125 706.327 243.132)" fill="#40AB30"/>
<g filter="url(#filter14_f_312_495)">
<circle cx="709.192" cy="238.886" r="10" transform="rotate(-147.451 709.192 238.886)" fill="#2B9126"/>
</g>
<circle cx="709.192" cy="238.886" r="10" transform="rotate(-147.451 709.192 238.886)" fill="#2B9126"/>
<circle cx="709.192" cy="238.886" r="10" transform="rotate(-147.451 709.192 238.886)" fill="#2B9126"/>
<circle cx="706.502" cy="243.099" r="5" transform="rotate(-147.451 706.502 243.099)" fill="#40AB30"/>
<ellipse rx="10.1264" ry="10.0008" transform="matrix(-0.995041 -0.099461 0.101469 -0.994839 516.323 225.333)" fill="#208D0F"/>
<ellipse rx="5.06322" ry="5.00041" transform="matrix(-0.995041 -0.099461 0.101469 -0.994839 515.816 230.306)" fill="#39A528"/>
<ellipse rx="10.1264" ry="10.0009" transform="matrix(-0.997101 -0.076695 0.0781228 -0.996896 516.348 225.212)" fill="#208D0F"/>
<ellipse rx="10.1264" ry="10.0009" transform="matrix(-0.997101 -0.076695 0.0781228 -0.996896 516.348 225.212)" fill="#3E6C9A"/>
<ellipse rx="5.06319" ry="5.00045" transform="matrix(-0.997101 -0.076695 0.0781228 -0.996896 515.958 230.196)" fill="#4B81B5"/>
<circle cx="516.113" cy="224.981" r="10" transform="rotate(-146.125 516.113 224.981)" fill="#2B9126"/>
<circle cx="513.327" cy="229.132" r="5" transform="rotate(-146.125 513.327 229.132)" fill="#40AB30"/>
<g filter="url(#filter15_f_312_495)">
<circle cx="516.191" cy="224.886" r="10" transform="rotate(-147.451 516.191 224.886)" fill="#2B9126"/>
</g>
<circle cx="516.191" cy="224.886" r="10" transform="rotate(-147.451 516.191 224.886)" fill="#2B9126"/>
<circle cx="516.191" cy="224.886" r="10" transform="rotate(-147.451 516.191 224.886)" fill="#2B9126"/>
<circle cx="513.502" cy="229.099" r="5" transform="rotate(-147.451 513.502 229.099)" fill="#40AB30"/>
<ellipse rx="10.1264" ry="10.0008" transform="matrix(-0.995041 -0.099461 0.101469 -0.994839 320.323 192.332)" fill="#208D0F"/>
<ellipse rx="5.06322" ry="5.00041" transform="matrix(-0.995041 -0.099461 0.101469 -0.994839 319.816 197.305)" fill="#39A528"/>
<ellipse rx="10.1264" ry="10.0009" transform="matrix(-0.997101 -0.076695 0.0781228 -0.996896 320.347 192.211)" fill="#208D0F"/>
<ellipse rx="10.1264" ry="10.0009" transform="matrix(-0.997101 -0.076695 0.0781228 -0.996896 320.347 192.211)" fill="#3E6C9A"/>
<ellipse rx="5.06319" ry="5.00045" transform="matrix(-0.997101 -0.076695 0.0781228 -0.996896 319.957 197.194)" fill="#4B81B5"/>
<circle cx="320.113" cy="191.98" r="10" transform="rotate(-146.125 320.113 191.98)" fill="#2B9126"/>
<circle cx="317.327" cy="196.131" r="5" transform="rotate(-146.125 317.327 196.131)" fill="#40AB30"/>
<g filter="url(#filter16_f_312_495)">
<circle cx="320.191" cy="191.885" r="10" transform="rotate(-147.451 320.191 191.885)" fill="#2B9126"/>
</g>
<circle cx="320.191" cy="191.885" r="10" transform="rotate(-147.451 320.191 191.885)" fill="#2B9126"/>
<circle cx="320.191" cy="191.885" r="10" transform="rotate(-147.451 320.191 191.885)" fill="#2B9126"/>
<circle cx="317.502" cy="196.098" r="5" transform="rotate(-147.451 317.502 196.098)" fill="#40AB30"/>
<ellipse rx="10.1264" ry="10.0008" transform="matrix(-0.959746 -0.280869 0.282805 -0.959177 101.411 111.059)" fill="#208D0F"/>
<ellipse rx="5.06322" ry="5.00041" transform="matrix(-0.959746 -0.280869 0.282805 -0.959177 99.9976 115.855)" fill="#39A528"/>
<ellipse rx="10.1264" ry="10.0009" transform="matrix(-0.96596 -0.258871 0.260236 -0.965496 101.457 110.944)" fill="#208D0F"/>
<ellipse rx="10.1264" ry="10.0009" transform="matrix(-0.96596 -0.258871 0.260236 -0.965496 101.457 110.944)" fill="#3E6C9A"/>
<ellipse rx="5.06319" ry="5.00045" transform="matrix(-0.96596 -0.258871 0.260236 -0.965496 100.157 115.772)" fill="#4B81B5"/>
<ellipse cx="101.861" cy="111.011" rx="10" ry="10" transform="rotate(-146.125 101.861 111.011)" fill="#2B9126"/>
<ellipse cx="99.0751" cy="115.162" rx="5" ry="5" transform="rotate(-146.125 99.0751 115.162)" fill="#40AB30"/>
<g filter="url(#filter17_f_312_495)">
<ellipse cx="101.94" cy="110.916" rx="10" ry="10" transform="rotate(-147.451 101.94 110.916)" fill="#2B9126"/>
</g>
<ellipse cx="101.94" cy="110.916" rx="10" ry="10" transform="rotate(-147.451 101.94 110.916)" fill="#2B9126"/>
<ellipse cx="101.94" cy="110.916" rx="10" ry="10" transform="rotate(-147.451 101.94 110.916)" fill="#2B9126"/>
<ellipse cx="99.2503" cy="115.129" rx="5" ry="5" transform="rotate(-147.451 99.2503 115.129)" fill="#40AB30"/>
<ellipse rx="10.1268" ry="10.0005" transform="matrix(-0.999164 0.040885 -0.0424471 -0.999099 867.778 237.774)" fill="#208D0F"/>
<ellipse rx="5.06338" ry="5.00025" transform="matrix(-0.999164 0.040885 -0.0424471 -0.999099 867.991 242.769)" fill="#39A528"/>
<ellipse rx="10.1267" ry="10.0006" transform="matrix(-0.997933 0.0637102 -0.0658521 -0.997866 867.785 237.649)" fill="#208D0F"/>
<ellipse rx="10.1267" ry="10.0006" transform="matrix(-0.997933 0.0637102 -0.0658521 -0.997866 867.785 237.649)" fill="#3E6C9A"/>
<ellipse rx="5.06335" ry="5.00028" transform="matrix(-0.997933 0.0637102 -0.0658521 -0.997866 868.115 242.638)" fill="#4B81B5"/>
<circle cx="868.114" cy="237.981" r="10" transform="rotate(-146.125 868.114 237.981)" fill="#2B9126"/>
<circle cx="865.328" cy="242.132" r="5" transform="rotate(-146.125 865.328 242.132)" fill="#40AB30"/>
<g filter="url(#filter18_f_312_495)">
<circle cx="868.192" cy="237.886" r="10" transform="rotate(-147.451 868.192 237.886)" fill="#2B9126"/>
</g>
<circle cx="868.192" cy="237.886" r="10" transform="rotate(-147.451 868.192 237.886)" fill="#2B9126"/>
<circle cx="868.192" cy="237.886" r="10" transform="rotate(-147.451 868.192 237.886)" fill="#2B9126"/>
<circle cx="865.503" cy="242.099" r="5" transform="rotate(-147.451 865.503 242.099)" fill="#40AB30"/>
<ellipse rx="10.1268" ry="10.0005" transform="matrix(-0.999164 0.040885 -0.0424471 -0.999099 1068.78 223.775)" fill="#208D0F"/>
<ellipse rx="5.06338" ry="5.00025" transform="matrix(-0.999164 0.040885 -0.0424471 -0.999099 1068.99 228.77)" fill="#39A528"/>
<ellipse rx="10.1267" ry="10.0006" transform="matrix(-0.997933 0.0637102 -0.0658521 -0.997866 1068.78 223.649)" fill="#208D0F"/>
<ellipse rx="10.1267" ry="10.0006" transform="matrix(-0.997933 0.0637102 -0.0658521 -0.997866 1068.78 223.649)" fill="#3E6C9A"/>
<ellipse rx="5.06335" ry="5.00028" transform="matrix(-0.997933 0.0637102 -0.0658521 -0.997866 1069.11 228.638)" fill="#4B81B5"/>
<circle cx="1069.11" cy="223.981" r="10" transform="rotate(-146.125 1069.11 223.981)" fill="#2B9126"/>
<circle cx="1066.33" cy="228.132" r="5" transform="rotate(-146.125 1066.33 228.132)" fill="#40AB30"/>
<g filter="url(#filter19_f_312_495)">
<circle cx="1069.19" cy="223.886" r="10" transform="rotate(-147.451 1069.19 223.886)" fill="#2B9126"/>
</g>
<circle cx="1069.19" cy="223.886" r="10" transform="rotate(-147.451 1069.19 223.886)" fill="#2B9126"/>
<circle cx="1069.19" cy="223.886" r="10" transform="rotate(-147.451 1069.19 223.886)" fill="#2B9126"/>
<circle cx="1066.5" cy="228.099" r="5" transform="rotate(-147.451 1066.5 228.099)" fill="#40AB30"/>
<ellipse rx="10.1136" ry="10.0138" transform="matrix(-0.952185 0.305522 -0.312976 -0.949761 1278.08 184.011)" fill="#208D0F"/>
<ellipse rx="5.0568" ry="5.00691" transform="matrix(-0.952185 0.305522 -0.312976 -0.949761 1279.65 188.765)" fill="#39A528"/>
<ellipse rx="10.1135" ry="10.0139" transform="matrix(-0.944763 0.327207 -0.335147 -0.94236 1278.06 183.892)" fill="#208D0F"/>
<ellipse rx="10.1135" ry="10.0139" transform="matrix(-0.944763 0.327207 -0.335147 -0.94236 1278.06 183.892)" fill="#3E6C9A"/>
<ellipse rx="5.05677" ry="5.00693" transform="matrix(-0.944763 0.327207 -0.335147 -0.94236 1279.73 188.609)" fill="#4B81B5"/>
<circle cx="1278.11" cy="183.978" r="10" transform="rotate(-146.125 1278.11 183.978)" fill="#2B9126"/>
<circle cx="1275.33" cy="188.129" r="5" transform="rotate(-146.125 1275.33 188.129)" fill="#40AB30"/>
<g filter="url(#filter20_f_312_495)">
<circle cx="1278.19" cy="183.883" r="10" transform="rotate(-147.451 1278.19 183.883)" fill="#2B9126"/>
</g>
<circle cx="1278.19" cy="183.883" r="10" transform="rotate(-147.451 1278.19 183.883)" fill="#2B9126"/>
<circle cx="1278.19" cy="183.883" r="10" transform="rotate(-147.451 1278.19 183.883)" fill="#2B9126"/>
<circle cx="1275.5" cy="188.096" r="5" transform="rotate(-147.451 1275.5 188.096)" fill="#40AB30"/>
<ellipse rx="10.1136" ry="10.0138" transform="matrix(-0.952185 0.305522 -0.312976 -0.949761 1479.06 111.16)" fill="#208D0F"/>
<ellipse rx="5.0568" ry="5.00691" transform="matrix(-0.952185 0.305522 -0.312976 -0.949761 1480.62 115.915)" fill="#39A528"/>
<ellipse rx="10.1135" ry="10.0139" transform="matrix(-0.944763 0.327207 -0.335147 -0.94236 1479.03 111.04)" fill="#208D0F"/>
<ellipse rx="10.1135" ry="10.0139" transform="matrix(-0.944763 0.327207 -0.335147 -0.94236 1479.03 111.04)" fill="#3E6C9A"/>
<ellipse rx="5.05677" ry="5.00693" transform="matrix(-0.944763 0.327207 -0.335147 -0.94236 1480.71 115.757)" fill="#4B81B5"/>
<circle cx="1479.09" cy="111.126" r="10" transform="rotate(-146.125 1479.09 111.126)" fill="#2B9126"/>
<circle cx="1476.3" cy="115.277" r="5" transform="rotate(-146.125 1476.3 115.277)" fill="#40AB30"/>
<g filter="url(#filter21_f_312_495)">
<circle cx="1479.17" cy="111.03" r="10" transform="rotate(-147.451 1479.17 111.03)" fill="#2B9126"/>
</g>
<circle cx="1479.17" cy="111.03" r="10" transform="rotate(-147.451 1479.17 111.03)" fill="#2B9126"/>
<circle cx="1479.17" cy="111.03" r="10" transform="rotate(-147.451 1479.17 111.03)" fill="#2B9126"/>
<circle cx="1476.48" cy="115.244" r="5" transform="rotate(-147.451 1476.48 115.244)" fill="#40AB30"/>
<g filter="url(#filter22_f_312_495)">
<ellipse rx="10.0985" ry="10.0291" transform="matrix(0.890917 -0.454167 0.463574 0.886058 1561.65 16.4728)" fill="#FCAF34"/>
</g>
<ellipse rx="10.0985" ry="10.0291" transform="matrix(0.890917 -0.454167 0.463574 0.886058 1561.65 16.4728)" fill="#FCAF34"/>
<ellipse rx="5.04923" ry="5.01454" transform="matrix(0.890917 -0.454167 0.463574 0.886058 1559.32 12.0308)" fill="#FFE336"/>
<ellipse rx="10.1273" ry="10" transform="matrix(0.977772 0.209671 -0.209816 0.977741 17.0008 17.9018)" fill="#E64939"/>
<g filter="url(#filter23_f_312_495)">
<ellipse rx="10.1273" ry="10" transform="matrix(0.977772 0.209671 -0.209816 0.977741 17.0008 17.9018)" fill="#E64939"/>
</g>
<ellipse rx="5.06363" ry="5" transform="matrix(0.977772 0.209671 -0.209816 0.977741 18.0499 13.0119)" fill="#F26652"/>
</g>
<defs>
<filter id="filter0_f_312_495" x="987.48" y="217.443" width="28.2598" height="28.0059" filterUnits="userSpaceOnUse" color-interpolation-filters="sRGB">
<feFlood flood-opacity="0" result="BackgroundImageFix"/>
<feBlend mode="normal" in="SourceGraphic" in2="BackgroundImageFix" result="shape"/>
<feGaussianBlur stdDeviation="2" result="effect1_foregroundBlur_312_495"/>
</filter>
<filter id="filter1_f_312_495" x="1191.52" y="187.47" width="28.2588" height="28.0039" filterUnits="userSpaceOnUse" color-interpolation-filters="sRGB">
<feFlood flood-opacity="0" result="BackgroundImageFix"/>
<feBlend mode="normal" in="SourceGraphic" in2="BackgroundImageFix" result="shape"/>
<feGaussianBlur stdDeviation="2" result="effect1_foregroundBlur_312_495"/>
</filter>
<filter id="filter2_f_312_495" x="1403.52" y="126.47" width="28.2588" height="28.0039" filterUnits="userSpaceOnUse" color-interpolation-filters="sRGB">
<feFlood flood-opacity="0" result="BackgroundImageFix"/>
<feBlend mode="normal" in="SourceGraphic" in2="BackgroundImageFix" result="shape"/>
<feGaussianBlur stdDeviation="2" result="effect1_foregroundBlur_312_495"/>
</filter>
<filter id="filter3_f_312_495" x="629.44" y="222.439" width="28.2549" height="28" filterUnits="userSpaceOnUse" color-interpolation-filters="sRGB">
<feFlood flood-opacity="0" result="BackgroundImageFix"/>
<feBlend mode="normal" in="SourceGraphic" in2="BackgroundImageFix" result="shape"/>
<feGaussianBlur stdDeviation="2" result="effect1_foregroundBlur_312_495"/>
</filter>
<filter id="filter4_f_312_495" x="434.704" y="200.685" width="28.2583" height="28.0039" filterUnits="userSpaceOnUse" color-interpolation-filters="sRGB">
<feFlood flood-opacity="0" result="BackgroundImageFix"/>
<feBlend mode="normal" in="SourceGraphic" in2="BackgroundImageFix" result="shape"/>
<feGaussianBlur stdDeviation="2" result="effect1_foregroundBlur_312_495"/>
</filter>
<filter id="filter5_f_312_495" x="226.97" y="155.965" width="28.2495" height="28.0156" filterUnits="userSpaceOnUse" color-interpolation-filters="sRGB">
<feFlood flood-opacity="0" result="BackgroundImageFix"/>
<feBlend mode="normal" in="SourceGraphic" in2="BackgroundImageFix" result="shape"/>
<feGaussianBlur stdDeviation="2" result="effect1_foregroundBlur_312_495"/>
</filter>
<filter id="filter6_f_312_495" x="30.9702" y="56.9648" width="28.2495" height="28.0156" filterUnits="userSpaceOnUse" color-interpolation-filters="sRGB">
<feFlood flood-opacity="0" result="BackgroundImageFix"/>
<feBlend mode="normal" in="SourceGraphic" in2="BackgroundImageFix" result="shape"/>
<feGaussianBlur stdDeviation="2" result="effect1_foregroundBlur_312_495"/>
</filter>
<filter id="filter7_f_312_495" x="568.261" y="217.268" width="28.2544" height="28" filterUnits="userSpaceOnUse" color-interpolation-filters="sRGB">
<feFlood flood-opacity="0" result="BackgroundImageFix"/>
<feBlend mode="normal" in="SourceGraphic" in2="BackgroundImageFix" result="shape"/>
<feGaussianBlur stdDeviation="2" result="effect1_foregroundBlur_312_495"/>
</filter>
<filter id="filter8_f_312_495" x="372.261" y="190.267" width="28.2544" height="28" filterUnits="userSpaceOnUse" color-interpolation-filters="sRGB">
<feFlood flood-opacity="0" result="BackgroundImageFix"/>
<feBlend mode="normal" in="SourceGraphic" in2="BackgroundImageFix" result="shape"/>
<feGaussianBlur stdDeviation="2" result="effect1_foregroundBlur_312_495"/>
</filter>
<filter id="filter9_f_312_495" x="155.878" y="128.895" width="28.2485" height="28.0146" filterUnits="userSpaceOnUse" color-interpolation-filters="sRGB">
<feFlood flood-opacity="0" result="BackgroundImageFix"/>
<feBlend mode="normal" in="SourceGraphic" in2="BackgroundImageFix" result="shape"/>
<feGaussianBlur stdDeviation="2" result="effect1_foregroundBlur_312_495"/>
</filter>
<filter id="filter10_f_312_495" x="921.944" y="221.915" width="28.2588" height="28.0049" filterUnits="userSpaceOnUse" color-interpolation-filters="sRGB">
<feFlood flood-opacity="0" result="BackgroundImageFix"/>
<feBlend mode="normal" in="SourceGraphic" in2="BackgroundImageFix" result="shape"/>
<feGaussianBlur stdDeviation="2" result="effect1_foregroundBlur_312_495"/>
</filter>
<filter id="filter11_f_312_495" x="1124.16" y="199.114" width="28.2593" height="28.0059" filterUnits="userSpaceOnUse" color-interpolation-filters="sRGB">
<feFlood flood-opacity="0" result="BackgroundImageFix"/>
<feBlend mode="normal" in="SourceGraphic" in2="BackgroundImageFix" result="shape"/>
<feGaussianBlur stdDeviation="2" result="effect1_foregroundBlur_312_495"/>
</filter>
<filter id="filter12_f_312_495" x="1336.16" y="150.115" width="28.2593" height="28.0059" filterUnits="userSpaceOnUse" color-interpolation-filters="sRGB">
<feFlood flood-opacity="0" result="BackgroundImageFix"/>
<feBlend mode="normal" in="SourceGraphic" in2="BackgroundImageFix" result="shape"/>
<feGaussianBlur stdDeviation="2" result="effect1_foregroundBlur_312_495"/>
</filter>
<filter id="filter13_f_312_495" x="1518.16" y="54.1152" width="28.2593" height="28.0059" filterUnits="userSpaceOnUse" color-interpolation-filters="sRGB">
<feFlood flood-opacity="0" result="BackgroundImageFix"/>
<feBlend mode="normal" in="SourceGraphic" in2="BackgroundImageFix" result="shape"/>
<feGaussianBlur stdDeviation="2" result="effect1_foregroundBlur_312_495"/>
</filter>
<filter id="filter14_f_312_495" x="695.19" y="224.885" width="28.0024" height="28.002" filterUnits="userSpaceOnUse" color-interpolation-filters="sRGB">
<feFlood flood-opacity="0" result="BackgroundImageFix"/>
<feBlend mode="normal" in="SourceGraphic" in2="BackgroundImageFix" result="shape"/>
<feGaussianBlur stdDeviation="2" result="effect1_foregroundBlur_312_495"/>
</filter>
<filter id="filter15_f_312_495" x="502.19" y="210.885" width="28.0024" height="28.002" filterUnits="userSpaceOnUse" color-interpolation-filters="sRGB">
<feFlood flood-opacity="0" result="BackgroundImageFix"/>
<feBlend mode="normal" in="SourceGraphic" in2="BackgroundImageFix" result="shape"/>
<feGaussianBlur stdDeviation="2" result="effect1_foregroundBlur_312_495"/>
</filter>
<filter id="filter16_f_312_495" x="306.19" y="177.884" width="28.0024" height="28.002" filterUnits="userSpaceOnUse" color-interpolation-filters="sRGB">
<feFlood flood-opacity="0" result="BackgroundImageFix"/>
<feBlend mode="normal" in="SourceGraphic" in2="BackgroundImageFix" result="shape"/>
<feGaussianBlur stdDeviation="2" result="effect1_foregroundBlur_312_495"/>
</filter>
<filter id="filter17_f_312_495" x="87.9385" y="96.915" width="28.0024" height="28.002" filterUnits="userSpaceOnUse" color-interpolation-filters="sRGB">
<feFlood flood-opacity="0" result="BackgroundImageFix"/>
<feBlend mode="normal" in="SourceGraphic" in2="BackgroundImageFix" result="shape"/>
<feGaussianBlur stdDeviation="2" result="effect1_foregroundBlur_312_495"/>
</filter>
<filter id="filter18_f_312_495" x="854.191" y="223.885" width="28.0024" height="28.002" filterUnits="userSpaceOnUse" color-interpolation-filters="sRGB">
<feFlood flood-opacity="0" result="BackgroundImageFix"/>
<feBlend mode="normal" in="SourceGraphic" in2="BackgroundImageFix" result="shape"/>
<feGaussianBlur stdDeviation="2" result="effect1_foregroundBlur_312_495"/>
</filter>
<filter id="filter19_f_312_495" x="1055.19" y="209.885" width="28.0024" height="28.002" filterUnits="userSpaceOnUse" color-interpolation-filters="sRGB">
<feFlood flood-opacity="0" result="BackgroundImageFix"/>
<feBlend mode="normal" in="SourceGraphic" in2="BackgroundImageFix" result="shape"/>
<feGaussianBlur stdDeviation="2" result="effect1_foregroundBlur_312_495"/>
</filter>
<filter id="filter20_f_312_495" x="1264.19" y="169.882" width="28.0024" height="28.002" filterUnits="userSpaceOnUse" color-interpolation-filters="sRGB">
<feFlood flood-opacity="0" result="BackgroundImageFix"/>
<feBlend mode="normal" in="SourceGraphic" in2="BackgroundImageFix" result="shape"/>
<feGaussianBlur stdDeviation="2" result="effect1_foregroundBlur_312_495"/>
</filter>
<filter id="filter21_f_312_495" x="1465.16" y="97.0293" width="28.0024" height="28.002" filterUnits="userSpaceOnUse" color-interpolation-filters="sRGB">
<feFlood flood-opacity="0" result="BackgroundImageFix"/>
<feBlend mode="normal" in="SourceGraphic" in2="BackgroundImageFix" result="shape"/>
<feGaussianBlur stdDeviation="2" result="effect1_foregroundBlur_312_495"/>
</filter>
<filter id="filter22_f_312_495" x="1547.52" y="2.4707" width="28.2588" height="28.0039" filterUnits="userSpaceOnUse" color-interpolation-filters="sRGB">
<feFlood flood-opacity="0" result="BackgroundImageFix"/>
<feBlend mode="normal" in="SourceGraphic" in2="BackgroundImageFix" result="shape"/>
<feGaussianBlur stdDeviation="2" result="effect1_foregroundBlur_312_495"/>
</filter>
<filter id="filter23_f_312_495" x="2.87646" y="3.89453" width="28.2485" height="28.0146" filterUnits="userSpaceOnUse" color-interpolation-filters="sRGB">
<feFlood flood-opacity="0" result="BackgroundImageFix"/>
<feBlend mode="normal" in="SourceGraphic" in2="BackgroundImageFix" result="shape"/>
<feGaussianBlur stdDeviation="2" result="effect1_foregroundBlur_312_495"/>
</filter>
<clipPath id="clip0_312_495">
<rect width="1578" height="260" fill="white"/>
</clipPath>
</defs>
</svg>
