<svg width="78" height="77" viewBox="0 0 78 77" fill="none" xmlns="http://www.w3.org/2000/svg">
<g clip-path="url(#clip0_301_118)">
<path d="M70.486 36.7837C70.1921 35.3178 69.8982 33.8518 69.6511 32.3925C69.0069 29.8518 69.1281 27.2632 70.0045 24.8465C62.6955 23.8098 56.196 18.919 48.8747 18.8111C47.354 18.8957 45.8912 19.2312 44.5768 19.7968C38.8527 21.7386 32.4646 22.4658 26.8056 24.4548C26.05 24.7274 25.3178 25.0034 24.5804 25.3166L23.0922 26.036C26.4624 26.9721 29.7435 28.1363 32.8985 29.5157C34.5842 30.2675 36.2332 31.1091 37.9189 31.8609C42.2462 33.8118 46.8817 35.2316 51.6605 36.0697C53.558 36.3388 55.4556 36.608 57.3531 36.8771C62.0662 37.6368 66.7095 38.7404 71.224 40.1737C70.9397 39.1459 70.7024 37.9539 70.486 36.7837Z" fill="#E64939"/>
<path d="M71.1041 50.7932C71.3623 49.7301 71.5159 48.647 71.5635 47.554C67.2774 47.6964 62.9439 47.0818 58.8665 45.7532C54.7161 44.5189 50.7409 42.8916 46.6272 41.5676C36.3025 38.2042 25.1281 36.6193 15.4905 32.119C13.7447 34.2069 12.4904 36.5488 11.7848 39.0378C11.7848 39.0378 11.7611 39.2053 11.7584 39.2239C11.7558 39.2425 11.9148 39.1321 11.7584 39.2239C20.0874 43.589 29.2947 46.6623 38.8654 48.2718C43.9255 48.9894 49.1658 49.4478 53.8173 51.3609C58.4689 53.274 62.2975 56.6086 67.1602 58.3807C69.1156 56.1232 70.4569 53.5426 71.1041 50.7932Z" fill="#E64939"/>
<path d="M46.5832 41.5429C50.6969 42.867 54.6589 44.5874 58.8225 45.7286C62.8999 47.0573 67.2334 47.6719 71.5195 47.5294C71.6431 45.122 71.4831 42.6959 71.0416 40.2832C66.5271 38.8499 61.8837 37.7463 57.1707 36.9866C55.2731 36.7175 53.3756 36.4484 51.4781 36.1792C46.6993 35.3411 42.0638 33.9213 37.7365 31.9704C36.0508 31.2186 34.4018 30.3771 32.7161 29.6252C29.561 28.2458 26.2799 27.0816 22.9098 26.1455C19.8944 27.6956 17.3254 29.7247 15.3475 32.1184C25.1491 36.6419 36.3235 38.2268 46.5832 41.5429Z" fill="#4B81B5"/>
<path d="M30.0986 31.0569C29.5499 32.0616 28.9544 33.0596 28.2938 34.0104" stroke="#F2F2FF" stroke-width="0.5" stroke-linecap="round" stroke-linejoin="round"/>
<path d="M28.3408 31.4922L30.1383 33.6462" stroke="#F2F2FF" stroke-width="0.5" stroke-linecap="round" stroke-linejoin="round"/>
<path d="M27.5181 32.7416C28.6481 32.6342 29.7601 32.4554 30.844 32.2067" stroke="#F2F2FF" stroke-width="0.5" stroke-linecap="round" stroke-linejoin="round"/>
<path d="M29.7272 30.6426L30.0153 31.1392L30.5649 30.9703" stroke="#F2F2FF" stroke-width="0.5" stroke-linecap="round" stroke-linejoin="round"/>
<path d="M29.9748 34.1161L30.1945 33.5776L30.8007 33.8534" stroke="#F2F2FF" stroke-width="0.5" stroke-linecap="round" stroke-linejoin="round"/>
<path d="M31.2135 31.9559C31.0363 32.0488 30.9134 32.194 30.869 32.3628C31.0947 32.4328 31.2937 32.5535 31.4411 32.7098" stroke="#F2F2FF" stroke-width="0.5" stroke-linecap="round" stroke-linejoin="round"/>
<path d="M27.6041 34.1599L28.1459 34.0467L28.2831 34.427" stroke="#F2F2FF" stroke-width="0.5" stroke-linecap="round" stroke-linejoin="round"/>
<path d="M26.9636 32.2646C27.0958 32.4394 27.2691 32.5932 27.473 32.7167C27.4572 32.8284 27.2305 32.9102 27.1183 33.0272" stroke="#F2F2FF" stroke-width="0.5" stroke-linecap="round" stroke-linejoin="round"/>
<path d="M27.6943 31.3238C27.8893 31.3894 28.0978 31.419 28.3034 31.4101L28.3641 30.9819" stroke="#F2F2FF" stroke-width="0.5" stroke-linecap="round" stroke-linejoin="round"/>
<path d="M37.9955 33.3368C37.6055 34.4019 37.1686 35.4604 36.6667 36.4717" stroke="#F2F2FF" stroke-width="0.5" stroke-linecap="round" stroke-linejoin="round"/>
<path d="M36.3334 33.9346C37.0299 34.5841 37.7264 35.2336 38.4437 35.905" stroke="#F2F2FF" stroke-width="0.5" stroke-linecap="round" stroke-linejoin="round"/>
<path d="M35.6909 35.2678C36.8002 35.0672 37.8792 34.7881 38.9159 34.4339" stroke="#F2F2FF" stroke-width="0.5" stroke-linecap="round" stroke-linejoin="round"/>
<path d="M37.5931 32.9746L37.9567 33.4439L38.4414 33.2279" stroke="#F2F2FF" stroke-width="0.5" stroke-linecap="round" stroke-linejoin="round"/>
<path d="M38.3467 36.4247L38.4286 35.8477L39.0661 36.071" stroke="#F2F2FF" stroke-width="0.5" stroke-linecap="round" stroke-linejoin="round"/>
<path d="M39.2444 34.1393C39.0866 34.2569 38.9879 34.4173 38.965 34.5934C39.1987 34.6408 39.4162 34.7372 39.5944 34.8725" stroke="#F2F2FF" stroke-width="0.5" stroke-linecap="round" stroke-linejoin="round"/>
<path d="M36.0134 36.701L36.4928 36.5221L36.7031 36.8939" stroke="#F2F2FF" stroke-width="0.5" stroke-linecap="round" stroke-linejoin="round"/>
<path d="M35.0829 34.8398C35.2367 35.0102 35.4387 35.1498 35.6706 35.246L35.3601 35.5818" stroke="#F2F2FF" stroke-width="0.5" stroke-linecap="round" stroke-linejoin="round"/>
<path d="M35.7282 33.8285C35.9099 33.9094 36.1169 33.9387 36.3139 33.9116C36.3463 33.7708 36.3666 33.6277 36.3746 33.4835" stroke="#F2F2FF" stroke-width="0.5" stroke-linecap="round" stroke-linejoin="round"/>
<path d="M46.3712 36.2884C45.8693 37.2997 45.2972 38.301 44.6781 39.2957" stroke="#F2F2FF" stroke-width="0.5" stroke-linecap="round" stroke-linejoin="round"/>
<path d="M44.6344 36.7461L46.4787 38.9067" stroke="#F2F2FF" stroke-width="0.5" stroke-linecap="round" stroke-linejoin="round"/>
<path d="M43.8561 38.022C44.9838 37.8982 46.0909 37.6995 47.1664 37.428" stroke="#F2F2FF" stroke-width="0.5" stroke-linecap="round" stroke-linejoin="round"/>
<path d="M46.0001 35.875L46.3117 36.3749L46.8378 36.2027" stroke="#F2F2FF" stroke-width="0.5" stroke-linecap="round" stroke-linejoin="round"/>
<path d="M46.3649 39.3642C46.394 39.1594 46.4203 38.9733 46.5639 38.8037L47.1725 39.061" stroke="#F2F2FF" stroke-width="0.5" stroke-linecap="round" stroke-linejoin="round"/>
<path d="M47.5156 37.1557C47.355 37.267 47.2423 37.4162 47.1919 37.5845C47.4233 37.6486 47.6309 37.7638 47.79 37.9162" stroke="#F2F2FF" stroke-width="0.5" stroke-linecap="round" stroke-linejoin="round"/>
<path d="M44.0112 39.4489L44.5088 39.3106L44.6696 39.6941" stroke="#F2F2FF" stroke-width="0.5" stroke-linecap="round" stroke-linejoin="round"/>
<path d="M43.2756 37.5605C43.4234 37.7328 43.6033 37.8866 43.8085 38.016L43.4799 38.3112" stroke="#F2F2FF" stroke-width="0.5" stroke-linecap="round" stroke-linejoin="round"/>
<path d="M43.9866 36.5972C44.1788 36.6719 44.3903 36.7019 44.5957 36.6836C44.6286 36.5428 44.6489 36.3997 44.6565 36.2553" stroke="#F2F2FF" stroke-width="0.5" stroke-linecap="round" stroke-linejoin="round"/>
<path d="M56.4786 39.1659C56.1832 40.2526 55.816 41.3225 55.3787 42.3712" stroke="#F2F2FF" stroke-width="0.5" stroke-linecap="round" stroke-linejoin="round"/>
<path d="M54.769 39.7598L56.8978 41.5999" stroke="#F2F2FF" stroke-width="0.5" stroke-linecap="round" stroke-linejoin="round"/>
<path d="M54.2305 41.2029C55.314 40.946 56.361 40.6116 57.3594 40.2034" stroke="#F2F2FF" stroke-width="0.5" stroke-linecap="round" stroke-linejoin="round"/>
<path d="M55.9321 38.8047L56.3218 39.2588L56.8091 39.0241" stroke="#F2F2FF" stroke-width="0.5" stroke-linecap="round" stroke-linejoin="round"/>
<path d="M56.9282 42.2304L57.01 41.6533L57.666 41.7464" stroke="#F2F2FF" stroke-width="0.5" stroke-linecap="round" stroke-linejoin="round"/>
<path d="M57.6414 39.9003C57.5067 40.0288 57.4257 40.1893 57.4088 40.3611C57.651 40.3963 57.8792 40.4883 58.0643 40.625" stroke="#F2F2FF" stroke-width="0.5" stroke-linecap="round" stroke-linejoin="round"/>
<path d="M54.6289 42.6073L55.111 42.4098L55.3238 42.7628" stroke="#F2F2FF" stroke-width="0.5" stroke-linecap="round" stroke-linejoin="round"/>
<path d="M53.5691 40.8047C53.7423 40.9606 53.9523 41.0874 54.1854 41.1769L53.8957 41.5346" stroke="#F2F2FF" stroke-width="0.5" stroke-linecap="round" stroke-linejoin="round"/>
<path d="M54.0063 39.7456C54.1939 39.8086 54.3943 39.8371 54.592 39.8287C54.6248 39.6815 54.6459 39.5323 54.6554 39.3819" stroke="#F2F2FF" stroke-width="0.5" stroke-linecap="round" stroke-linejoin="round"/>
<path d="M22.034 28.109C21.1055 28.9269 20.1535 29.7414 19.1679 30.4562" stroke="#F2F2FF" stroke-width="0.5" stroke-linecap="round" stroke-linejoin="round"/>
<path d="M20.1488 28.0879L21.0969 30.5012" stroke="#F2F2FF" stroke-width="0.5" stroke-linecap="round" stroke-linejoin="round"/>
<path d="M18.886 29.0679C20.0273 29.2491 21.1792 29.3554 22.3301 29.3855" stroke="#F2F2FF" stroke-width="0.5" stroke-linecap="round" stroke-linejoin="round"/>
<path d="M21.8129 27.6416L21.9264 28.1894L22.5044 28.1574" stroke="#F2F2FF" stroke-width="0.5" stroke-linecap="round" stroke-linejoin="round"/>
<path d="M20.7698 30.9499L21.1924 30.4971C21.36 30.6243 21.5164 30.7608 21.6603 30.9053" stroke="#F2F2FF" stroke-width="0.5" stroke-linecap="round" stroke-linejoin="round"/>
<path d="M22.7606 29.219C22.5663 29.2836 22.402 29.3918 22.2862 29.5314C22.4809 29.6512 22.6324 29.8111 22.7227 29.9922" stroke="#F2F2FF" stroke-width="0.5" stroke-linecap="round" stroke-linejoin="round"/>
<path d="M18.4303 30.4277L18.9925 30.5075C18.9925 30.5075 18.9925 30.5074 18.9793 30.6005L18.9265 30.9729" stroke="#F2F2FF" stroke-width="0.5" stroke-linecap="round" stroke-linejoin="round"/>
<path d="M66.8391 41.6034C66.5124 42.6711 66.1459 43.7396 65.7393 44.8087" stroke="#F2F2FF" stroke-width="0.5" stroke-linecap="round" stroke-linejoin="round"/>
<path d="M65.2125 42.2852L67.3413 44.1253" stroke="#F2F2FF" stroke-width="0.5" stroke-linecap="round" stroke-linejoin="round"/>
<path d="M64.6872 43.6355C65.7745 43.3814 66.828 43.0545 67.837 42.6579" stroke="#F2F2FF" stroke-width="0.5" stroke-linecap="round" stroke-linejoin="round"/>
<path d="M66.3896 41.2383L66.7793 41.6924L67.2666 41.4577" stroke="#F2F2FF" stroke-width="0.5" stroke-linecap="round" stroke-linejoin="round"/>
<path d="M67.3827 44.6826L67.4672 44.0869L68.123 44.1799" stroke="#F2F2FF" stroke-width="0.5" stroke-linecap="round" stroke-linejoin="round"/>
<path d="M68.1211 42.3361C67.9792 42.4609 67.8972 42.6233 67.8884 42.7969C68.1179 42.8457 68.334 42.9348 68.5206 43.0575" stroke="#F2F2FF" stroke-width="0.5" stroke-linecap="round" stroke-linejoin="round"/>
<path d="M65.205 45.036L65.7105 44.8418L65.9206 45.2135" stroke="#F2F2FF" stroke-width="0.5" stroke-linecap="round" stroke-linejoin="round"/>
<path d="M64.0504 43.2402C64.213 43.4001 64.4143 43.5322 64.6407 43.6278L64.3772 43.9702" stroke="#F2F2FF" stroke-width="0.5" stroke-linecap="round" stroke-linejoin="round"/>
<path d="M64.5573 42.1908C64.7417 42.264 64.9455 42.2929 65.143 42.2739C65.1749 42.133 65.1952 41.99 65.2037 41.8458" stroke="#F2F2FF" stroke-width="0.5" stroke-linecap="round" stroke-linejoin="round"/>
<path d="M3.97695 48.0898L1.51517 56.6851C1.41358 56.895 1.38091 57.1254 1.42013 57.3553C1.59173 57.7382 1.94117 58.0608 2.39217 58.2528C8.21039 61.3758 15.498 61.3839 22.1576 62.9551C29.6866 64.6307 36.4594 68.2689 43.868 70.2881C49.5929 71.8787 55.8325 72.5357 60.8259 75.4088C61.0993 75.6094 61.4451 75.7323 61.8043 75.7565C62.1009 75.7297 62.3699 75.6202 62.5651 75.4466C64.0976 74.157 64.9897 72.4513 65.0896 70.6202C65.3537 68.7586 65.1983 66.9895 65.5689 65.219C66.0237 63.0236 67.2149 61.0278 67.8779 58.8809C68.0016 58.5983 68.0449 58.2932 68.0046 57.9873C67.8614 57.5842 67.5604 57.2214 67.1475 56.9542C65.7252 55.9524 64.1607 55.0923 62.4919 54.3949C57.6976 52.054 52.6211 50.1426 47.3603 48.6976C41.1016 47.1643 34.4993 46.8736 28.3085 45.1979C25.7979 44.4395 23.3366 43.5641 20.9376 42.5763L13.7286 39.6548C12.1676 39.0346 10.7191 38.1266 9.23067 39.0169C6.02943 41.0316 4.86826 45.0068 3.97695 48.0898Z" fill="#F2F2FF"/>
<path d="M12.3174 39.3204C10.3828 43.3568 8.38537 47.4983 6.77078 51.6371C5.6886 54.0345 5.11711 56.5837 5.07917 59.1832" stroke="#FCAF34" stroke-width="0.4" stroke-linecap="round" stroke-linejoin="round"/>
<path d="M15.4257 40.6554C12.9552 47.1226 10.7787 53.7075 8.88323 60.3321" stroke="#FCAF34" stroke-width="0.4" stroke-linecap="round" stroke-linejoin="round"/>
<path d="M20.0033 42.4252C18.6048 48.9752 16.3003 55.3353 13.1314 61.3905" stroke="#FCAF34" stroke-width="0.4" stroke-linecap="round" stroke-linejoin="round"/>
<path d="M24.3661 44.1831C23.4842 50.4008 19.943 55.8237 18.4313 61.9331" stroke="#FCAF34" stroke-width="0.4" stroke-linecap="round" stroke-linejoin="round"/>
<path d="M28.7583 45.5657C28.9306 51.933 23.9811 57.175 22.8831 63.4001" stroke="#FCAF34" stroke-width="0.4" stroke-linecap="round" stroke-linejoin="round"/>
<path d="M33.6065 46.595C32.7458 52.6638 27.8119 57.965 27.1152 64.057" stroke="#FCAF34" stroke-width="0.4" stroke-linecap="round" stroke-linejoin="round"/>
<path d="M37.1699 47.0805C35.7182 53.4341 33.4804 59.6175 30.489 65.5412" stroke="#FCAF34" stroke-width="0.4" stroke-linecap="round" stroke-linejoin="round"/>
<path d="M40.6294 47.6294C40.015 54.364 38.0945 60.9141 34.9362 67.0466" stroke="#FCAF34" stroke-width="0.4" stroke-linecap="round" stroke-linejoin="round"/>
<path d="M44.5133 48.2177C44.2831 54.0531 41.3459 59.4286 38.9087 64.8181C38.264 65.9556 37.9939 67.2227 38.123 68.5047" stroke="#FCAF34" stroke-width="0.4" stroke-linecap="round" stroke-linejoin="round"/>
<path d="M49.4053 49.4433C48.3238 56.5581 45.5268 63.3505 41.1671 69.4492" stroke="#FCAF34" stroke-width="0.4" stroke-linecap="round" stroke-linejoin="round"/>
<path d="M52.7353 50.5617C51.2853 57.549 48.2877 64.1957 43.8807 70.1953" stroke="#FCAF34" stroke-width="0.4" stroke-linecap="round" stroke-linejoin="round"/>
<path d="M55.9541 51.7971C54.7306 58.6974 52.4005 65.3869 49.0204 71.7031" stroke="#FCAF34" stroke-width="0.4" stroke-linecap="round" stroke-linejoin="round"/>
<path d="M59.4662 53.3214C58.3138 57.9871 56.6058 62.5265 54.365 66.8787C53.5581 68.6757 53.0342 70.5592 52.8048 72.4875" stroke="#FCAF34" stroke-width="0.4" stroke-linecap="round" stroke-linejoin="round"/>
<path d="M62.4055 54.6678C61.2481 61.0968 58.9917 67.3125 55.6986 73.1437" stroke="#FCAF34" stroke-width="0.4" stroke-linecap="round" stroke-linejoin="round"/>
<path d="M65.4307 56.0841C65.5271 62.6495 60.0718 68.2566 59.4341 74.7748" stroke="#FCAF34" stroke-width="0.4" stroke-linecap="round" stroke-linejoin="round"/>
<path d="M55.8662 9.65137C54.285 11.2179 53.0916 13.1743 52.3953 15.3416C51.699 17.5089 51.522 19.8178 51.8807 22.0566C52.0127 22.9347 52.2911 23.778 52.7029 24.547C53.3753 25.5789 54.2296 26.4607 55.2196 27.1448C56.6712 28.4144 58.3563 29.3513 60.1719 29.8981C61.0875 30.0727 62.0181 30.1538 62.9513 30.1404C64.8168 30.2832 66.6954 29.9508 68.4316 29.1706C70.2806 28.0389 71.728 26.2837 72.5398 24.1889C73.652 21.7755 74.1129 19.0913 73.8704 16.4397C73.7454 15.1207 73.3731 13.8465 72.7752 12.6919C72.1774 11.5374 71.3661 10.526 70.3893 9.71719C67.8432 7.70391 65.0918 8.01633 62.1255 7.70957C61.0215 7.4705 59.8744 7.52235 58.7838 7.8607C57.6931 8.19906 56.6917 8.81371 55.8662 9.65137Z" fill="#F2F2FF"/>
</g>
<defs>
<clipPath id="clip0_301_118">
<rect width="77.0312" height="76.5732" fill="white" transform="translate(-0.000976562)"/>
</clipPath>
</defs>
</svg>
