<svg width="93" height="113" viewBox="0 0 93 113" fill="none" xmlns="http://www.w3.org/2000/svg">
<g clip-path="url(#clip0_301_556)">
<path d="M18.5379 27.669C17.636 36.706 15.2423 45.531 11.4543 53.7851C8.33872 59.8587 4.01955 65.3749 2.42099 71.8858C1.52248 76.6515 1.53262 81.5442 2.4508 86.3062C3.30472 91.9154 4.6835 97.719 8.35476 102.043C12.6625 107.128 19.4401 109.37 25.978 110.506C44.107 113.556 62.727 109.942 78.3991 100.332C82.5696 98.0665 86.0646 94.7352 88.5274 90.678C90.5733 86.2411 91.346 81.323 90.7594 76.4724C89.9063 63.6198 85.517 51.2531 78.0765 40.7386C75.7126 37.2076 72.7706 34.1001 69.3742 31.5466C57.9419 23.5273 42.0688 25.8852 29.4234 19.9547C30.698 15.816 31.0376 11.4459 30.4179 7.1599C30.4234 6.93232 30.3823 6.70604 30.2969 6.49502C30.2115 6.284 30.0837 6.0928 29.9214 5.93319C29.1595 5.31646 28.1306 6.35853 27.6269 7.11638C27.1232 7.87424 26.4262 9.06546 25.4833 8.74244C24.6767 5.96662 22.8607 3.59304 20.3924 2.0885C19.9054 1.74429 19.3368 1.53375 18.7431 1.4776C17.0708 1.44184 16.0364 3.41976 16.0653 5.07672C16.3603 6.72846 16.5437 8.39818 16.6144 10.0745C16.5813 10.6066 16.3211 11.2382 15.793 11.318C13.9218 8.52608 11.6017 5.47615 8.23765 5.22691C7.88963 5.16372 7.53094 5.19516 7.19927 5.31807C6.8676 5.44097 6.57507 5.65079 6.35226 5.9255C6.15007 6.33923 6.10069 6.81117 6.21289 7.25778C6.81829 10.6696 10.7969 12.6417 11.5369 16.0443C10.9552 16.0404 10.3802 16.1688 9.85547 16.4198C9.3307 16.6709 8.86977 17.0379 8.50777 17.4933C8.26969 18.0238 8.21353 18.6181 8.34792 19.1838C8.48231 19.7495 8.79975 20.2549 9.25097 20.6217C10.1802 21.3353 11.2417 21.8578 12.3741 22.1589C13.9792 22.7128 15.5409 23.3855 17.0461 24.1715C17.6056 24.4287 18.0913 24.8229 18.458 25.3177C18.8552 25.8387 19.064 27.2933 18.5379 27.669Z" fill="#E64939"/>
<path d="M47.0036 60.0104C45.0001 65.4816 42.7559 70.9186 40.1779 76.1133" stroke="#F2F2FF" stroke-width="2.75802" stroke-linecap="round" stroke-linejoin="round"/>
<path d="M38.4652 63.0801C42.0429 66.4164 45.6207 69.7528 49.3052 73.2018" stroke="#F2F2FF" stroke-width="2.75802" stroke-linecap="round" stroke-linejoin="round"/>
<path d="M35.1657 69.9321C40.8634 68.9014 46.4061 67.4681 51.7312 65.6484" stroke="#F2F2FF" stroke-width="2.75802" stroke-linecap="round" stroke-linejoin="round"/>
<path d="M44.9364 58.1543L46.804 60.565L49.2938 59.4552" stroke="#F2F2FF" stroke-width="2.75802" stroke-linecap="round" stroke-linejoin="round"/>
<path d="M48.807 75.8784L49.2274 72.9141L52.5022 74.0614" stroke="#F2F2FF" stroke-width="2.75802" stroke-linecap="round" stroke-linejoin="round"/>
<path d="M53.418 64.1379C52.6074 64.742 52.1007 65.5662 51.9828 66.4707C53.1836 66.7142 54.3006 67.2094 55.2162 67.9046" stroke="#F2F2FF" stroke-width="2.75802" stroke-linecap="round" stroke-linejoin="round"/>
<path d="M36.8219 77.2959L39.2846 76.377L40.3646 78.2866" stroke="#F2F2FF" stroke-width="2.75802" stroke-linecap="round" stroke-linejoin="round"/>
<path d="M32.0421 67.7363C32.8323 68.6114 33.8699 69.3284 35.0608 69.8226L33.4661 71.5475" stroke="#F2F2FF" stroke-width="2.75802" stroke-linecap="round" stroke-linejoin="round"/>
<path d="M35.3566 62.5429C36.2896 62.9582 37.3532 63.1091 38.3649 62.9696C38.5316 62.2462 38.6358 61.5116 38.6768 60.7704" stroke="#F2F2FF" stroke-width="2.75802" stroke-linecap="round" stroke-linejoin="round"/>
<path d="M25.5394 24.618C26.3873 27.5283 26.4513 30.611 25.7249 33.5541C25.0066 36.483 24.5415 39.4683 24.3348 42.4769C24.2315 43.4754 24.47 44.4794 25.0113 45.3248C25.6295 45.9043 26.4478 46.2223 27.2951 46.2122C28.1423 46.2021 28.9528 45.8647 29.5569 45.2706C30.7268 43.9548 31.3992 42.271 31.4577 40.5113" stroke="#001C47" stroke-width="1.5" stroke-linecap="round" stroke-linejoin="round"/>
<path d="M27.0917 23.9512C28.7209 27.5918 31.3235 30.712 34.6127 32.9679" stroke="#001C47" stroke-width="1.5" stroke-linecap="round" stroke-linejoin="round"/>
<path d="M27.3616 22.8848C29.3302 25.3794 32.0848 27.1349 35.1775 27.8656" stroke="#001C47" stroke-width="1.5" stroke-linecap="round" stroke-linejoin="round"/>
<path d="M18.2496 25.6861C18.1417 25.7117 18.3111 25.945 18.5587 25.9318C20.7837 25.8234 22.9625 25.2576 24.9592 24.2695C26.9558 23.2815 28.7273 21.8924 30.1632 20.1892" stroke="#F2F2FF" stroke-width="1.5" stroke-linecap="round" stroke-linejoin="round"/>
<path d="M13.0077 27.7969C12.2432 28.3425 11.6403 29.0845 11.2629 29.9445C10.8854 30.8045 10.7475 31.7506 10.8635 32.6826C10.8458 32.9016 10.8978 33.1205 11.0121 33.3082C11.4053 33.7162 12.1019 33.4823 12.5787 33.1867C14.6908 31.8922 16.4867 30.1417 17.8346 28.0633C18.0651 27.7795 18.234 27.451 18.3307 27.0984C18.4275 26.7458 18.4498 26.377 18.3965 26.0154C17.5498 28.4957 16.314 30.681 15.5064 33.0381C14.4503 35.3745 14.0697 37.96 14.4076 40.5016C14.4416 40.893 14.6015 41.2628 14.8633 41.5558C15.1304 41.79 15.4779 41.9116 15.8328 41.8953C16.3449 41.8319 16.8353 41.651 17.2659 41.3669C17.6966 41.0827 18.0559 40.7029 18.3155 40.257C19.6086 38.253 20.2211 35.8854 20.062 33.5057C20.0023 31.7193 19.9363 28.1795 18.4834 26.8608C17.0305 25.5422 14.283 26.833 13.0077 27.7969Z" stroke="#F2F2FF" stroke-width="1.5" stroke-linecap="round" stroke-linejoin="round"/>
</g>
<defs>
<clipPath id="clip0_301_556">
<rect width="93" height="113" fill="white"/>
</clipPath>
</defs>
</svg>
