<svg width="63" height="69" viewBox="0 0 63 69" fill="none" xmlns="http://www.w3.org/2000/svg">
<g clip-path="url(#clip0_301_135)">
<path d="M24.7489 62.961C23.4071 65.6784 21.8902 68.3058 20.2077 70.8265C20.1205 71.0122 19.9914 71.1751 19.8307 71.3025C19.67 71.4299 19.482 71.5183 19.2815 71.5608C19.0612 71.5408 18.849 71.4676 18.6633 71.3475C16.3172 70.1326 14.0651 68.7443 11.9257 67.1942C11.7699 67.0999 11.6406 66.9675 11.5499 66.8096C11.2693 66.3842 11.5369 65.7965 11.8141 65.3579L16.1226 58.2679C16.1952 58.1422 16.3301 57.9088 16.5094 58.0123C19.28 59.4683 21.9923 61.2737 24.7489 62.961Z" fill="#001C47"/>
<path d="M6.57358 51.0302C4.03234 48.3495 2.09291 45.1563 0.884753 41.664C0.325033 40.0129 0.142999 38.2567 0.352192 36.5251C0.561385 34.7935 1.15641 33.1305 2.09336 31.6589C2.17568 31.4256 2.31393 31.216 2.49592 31.0484C2.67791 30.8808 2.89807 30.7603 3.13726 30.6975C3.37645 30.6348 3.62737 30.6317 3.86793 30.6885C4.10848 30.7452 4.33135 30.86 4.51713 31.023C7.5318 33.0553 10.8346 34.6233 14.3153 35.6744C16.1381 36.1361 18.0447 36.1585 19.8787 35.7397C21.7127 35.321 23.4218 34.4731 24.8655 33.2656C22.0488 31.5253 20.0196 28.7567 19.2069 25.545C18.654 23.6686 18.7824 21.6563 19.5692 19.864C19.7088 19.4985 19.9433 19.1768 20.2486 18.9321C20.5538 18.6874 20.9186 18.5286 21.3055 18.4721C21.736 18.4941 22.1534 18.6278 22.5165 18.86C25.341 20.5748 28.4627 21.7435 31.7193 22.3056C33.4248 22.5157 35.1559 22.2693 36.7361 21.5916C38.3163 20.914 39.6891 19.8293 40.7144 18.4481C38.8976 17.988 37.2337 17.0585 35.8892 15.7529C34.5447 14.4472 33.5666 12.811 33.0527 11.0077C32.6667 9.56374 32.9182 7.55398 34.374 7.26915C34.7715 7.20911 35.1767 7.22381 35.5687 7.31245C39.2807 7.89271 43.0722 7.72069 46.7181 6.80659C50.3639 5.89249 53.7898 4.25498 56.7924 1.99121C56.9812 1.82411 57.2177 1.72056 57.4683 1.69519C57.719 1.66982 57.9712 1.72392 58.1893 1.84985C58.4074 1.97577 58.5803 2.16711 58.6837 2.39689C58.7871 2.62667 58.8156 2.88323 58.7653 3.13029C57.4007 10.5002 58.5797 18.1126 62.109 24.7186C62.2263 24.9137 62.3046 25.1296 62.3397 25.3546C62.4025 26.1571 61.378 26.5233 60.5939 26.5974C56.3434 26.8366 52.1331 25.6758 48.6074 23.2925C47.9085 29.4736 52.8006 35.2909 58.0062 37.4584C58.1537 37.4939 58.2916 37.5607 58.4109 37.6543C58.5301 37.7479 58.6278 37.8662 58.6973 38.001C58.7609 38.2286 58.7396 38.4716 58.6374 38.6848C58.0111 40.2413 56.9789 41.6015 55.6485 42.6234C54.3182 43.6453 52.7384 44.2914 51.0742 44.4943C47.3897 44.8792 43.6875 43.9692 40.6028 41.9204C39.4162 45.4255 41.0875 49.8624 43.5157 52.9882C46.2085 56.0713 49.4803 58.5948 53.1458 60.4158C53.267 60.4618 53.3757 60.5357 53.4631 60.6315C53.5505 60.7272 53.6142 60.8423 53.6491 60.9672C53.6839 61.0921 53.689 61.2235 53.6639 61.3508C53.6388 61.4781 53.5841 61.5978 53.5044 61.7002C51.3337 64.2055 48.469 66.01 45.2736 66.8849C39.6526 68.6678 29.736 66.127 24.9785 63.7633C18.1396 60.6397 11.9084 56.3288 6.57358 51.0302V51.0302Z" fill="#F2F2FF"/>
<path d="M47.8257 15.0367C48.0822 15.2465 48.3879 15.3873 48.7141 15.4457C49.0403 15.5041 49.3762 15.4783 49.6897 15.3706C49.9994 15.2617 50.2833 15.0899 50.5236 14.866C50.7639 14.6422 50.9555 14.3711 51.0863 14.0699C51.2121 13.7969 51.2625 13.4952 51.232 13.1963C50.7384 10.1577 45.4822 12.9654 47.8257 15.0367Z" fill="#E64939"/>
<path d="M41.948 25.6721C42.1835 25.9673 42.5013 26.1858 42.8612 26.2998C43.2212 26.4138 43.607 26.4183 43.9697 26.3126C44.4441 26.121 44.8429 25.7794 45.1052 25.34C45.3069 25.023 45.4189 24.6573 45.4291 24.2819C45.3272 23.7164 45.0227 23.2078 44.5728 22.8511C44.1229 22.4943 43.5582 22.3139 42.9847 22.3438C42.6507 22.4367 42.3453 22.6119 42.0963 22.8534C41.8474 23.0949 41.6629 23.395 41.5598 23.7261C41.4566 24.0572 41.4381 24.4088 41.5059 24.7488C41.5737 25.0888 41.7258 25.4063 41.948 25.6721V25.6721Z" fill="#E64939"/>
<path d="M44.1033 36.0644C44.3428 36.3596 44.6662 36.5753 45.0307 36.6832C45.3952 36.791 45.7838 36.7861 46.1457 36.6689C46.5564 36.5425 46.9177 36.2915 47.1797 35.9507C47.4418 35.6099 47.5915 35.1961 47.6083 34.7666C47.6251 34.3372 47.5081 33.9133 47.2735 33.5536C47.0389 33.1938 46.6983 32.9161 46.2988 32.7587C44.6621 32.1969 43.1105 34.6772 44.1033 36.0644Z" fill="#E64939"/>
<path d="M27.3384 59.8832C27.5827 60.1749 27.9089 60.3867 28.2747 60.4913C28.6406 60.5958 29.0294 60.5883 29.3912 60.4698C29.8019 60.3433 30.1632 60.0923 30.4252 59.7515C30.6873 59.4107 30.8371 58.997 30.8539 58.5675C30.8708 58.1381 30.7537 57.7141 30.5191 57.3543C30.2844 56.9946 29.9438 56.7168 29.5443 56.5595C27.8255 55.9742 26.3636 58.5063 27.3384 59.8832Z" fill="#E64939"/>
<path d="M29.5754 27.6763C29.238 28.1211 29.038 28.6548 28.9998 29.2116C29.0186 29.5743 29.1405 29.9239 29.3511 30.2195C29.5618 30.515 29.8525 30.7441 30.189 30.8798C30.5287 31.0072 30.8934 31.0546 31.2545 31.0181C31.6157 30.9816 31.9637 30.8623 32.2715 30.6695C32.6815 30.4152 33.0066 30.0445 33.2051 29.6047C33.4037 29.1649 33.4667 28.6759 33.3861 28.2003C33.2865 27.7983 33.0688 27.4354 32.761 27.1586C32.4532 26.8817 32.0695 26.7037 31.6593 26.6472C31.2492 26.5908 30.8314 26.6587 30.46 26.8422C30.0885 27.0256 29.7804 27.3161 29.5754 27.6763Z" fill="#E64939"/>
<path d="M34.434 35.8683C34.2286 36.1408 34.0936 36.4597 34.0408 36.7968C33.9881 37.1339 34.0192 37.4787 34.1315 37.8006C34.3938 38.2918 34.7866 38.7009 35.2666 38.9827C35.4293 39.1128 35.6107 39.2175 35.8047 39.2934C36.0634 39.3354 36.3284 39.3162 36.5784 39.2373C36.9404 39.1306 37.2742 38.9448 37.5559 38.6933C37.8376 38.4419 38.06 38.131 38.2071 37.7833C38.3481 37.4327 38.3999 37.0527 38.3578 36.6773C38.3157 36.302 38.1811 35.943 37.966 35.6328C37.7467 35.365 37.4667 35.1535 37.1492 35.0159C36.8317 34.8783 36.4859 34.8185 36.1405 34.8416C35.7951 34.8646 35.46 34.9698 35.1632 35.1483C34.8664 35.3269 34.6164 35.5737 34.434 35.8683V35.8683Z" fill="#E64939"/>
<path d="M23.2913 39.8024C23.1484 40.2226 23.1441 40.6776 23.2789 41.1003C23.4137 41.5229 23.6806 41.8909 24.0402 42.1502C24.3907 42.4396 24.815 42.6255 25.2655 42.6867C25.7159 42.748 26.1747 42.6823 26.5901 42.4971C30.3117 40.8147 24.7371 35.8483 23.2913 39.8024Z" fill="#E64939"/>
<path d="M34.8196 53.4275C35.0277 53.5521 35.2607 53.6294 35.502 53.6539C35.7927 53.6338 36.0759 53.5525 36.3332 53.4155C36.7526 53.246 37.1232 52.9743 37.4112 52.6252C38.4077 51.1893 36.6299 48.5107 34.912 49.2908C34.4992 49.4513 34.1432 49.7308 33.889 50.0937C33.6347 50.4566 33.4938 50.8867 33.4838 51.3296C33.4739 51.7725 33.5956 52.2083 33.8333 52.5817C34.0711 52.9551 34.4143 53.2495 34.8196 53.4275Z" fill="#E64939"/>
<path d="M24.3386 48.2613C24.218 48.6104 24.1928 48.9853 24.2656 49.3472C24.3383 49.7091 24.5063 50.0449 24.7523 50.3199C25.0052 50.5963 25.3372 50.788 25.703 50.8688C26.0896 50.9075 26.4791 50.827 26.8189 50.638C27.1588 50.4491 27.4329 50.1608 27.6046 49.8117C27.8509 49.4213 27.9423 48.9529 27.8605 48.4988C27.8044 48.0878 27.6084 47.7089 27.3055 47.4258C27.0026 47.1428 26.6114 46.9731 26.1977 46.9452C25.784 46.9173 25.3732 47.0329 25.0346 47.2727C24.6959 47.5124 24.4501 47.8615 24.3386 48.2613V48.2613Z" fill="#E64939"/>
<path d="M16.5193 51.8644C19.0535 51.2444 18.2531 46.8316 15.7747 47.6035C13.2962 48.3754 13.702 52.5604 16.5193 51.8644Z" fill="#E64939"/>
<path d="M6.79016 41.4593C7.01918 41.7959 7.34233 42.0574 7.71922 42.2112C8.11283 42.343 8.53923 42.3394 8.93092 42.2012C9.32262 42.0631 9.65714 41.7981 9.88148 41.4483C10.0832 41.1096 10.1843 40.7205 10.1729 40.3266C10.1615 39.9327 10.0381 39.5503 9.81724 39.2243C9.59637 38.8982 9.28722 38.6421 8.92586 38.4857C8.5645 38.3294 8.16591 38.2794 7.77695 38.3417C6.11427 38.3634 5.95805 40.3324 6.79016 41.4593Z" fill="#E64939"/>
</g>
<defs>
<clipPath id="clip0_301_135">
<rect width="63" height="69" fill="white"/>
</clipPath>
</defs>
</svg>
