<svg width="37" height="76" viewBox="0 0 37 76" fill="none" xmlns="http://www.w3.org/2000/svg">
<g clip-path="url(#clip0_301_555)">
<path d="M34.5375 47.2077L34.6269 52.7011C32.0841 54.8441 29.0938 56.3908 25.8754 57.2277L25.5452 48.0954C28.7603 47.1751 31.7464 45.5902 34.3105 43.4433C34.4234 44.7259 34.4944 45.9668 34.5375 47.2077Z" fill="#F2F2FF"/>
<path d="M34.9297 61.971C35.1953 64.9718 35.2031 67.9899 34.9529 70.9921C34.4962 74.2412 28.9483 75.5298 27.1743 72.4502C26.8182 71.7059 26.6317 70.8917 26.6281 70.0666C26.5153 68.8676 26.4583 67.6685 26.3874 66.4834C29.2359 65.681 31.8975 64.323 34.2191 62.4876C34.456 62.334 34.6928 62.1525 34.9297 61.971Z" fill="#F2F2FF"/>
<path d="M33.7845 34.2821C31.2375 36.3565 28.2706 37.8533 25.0887 38.6692C24.9325 36.0341 24.6509 33.3573 24.3414 30.7085C27.4534 29.3661 30.3318 27.537 32.8688 25.2898C33.2484 28.2592 33.5583 31.2706 33.7845 34.2821Z" fill="#F2F2FF"/>
<path d="M7.48578 5.03155C8.84606 3.70396 10.4723 2.67982 12.2573 2.02665C14.0424 1.37348 15.9455 1.1061 17.8414 1.2422C18.2546 1.30392 18.6642 1.38734 19.0686 1.49197C19.4928 5.13378 19.0228 8.82404 17.6995 12.2433C16.9521 11.9641 16.1332 11.9405 15.371 12.1761C14.8594 12.3532 14.3899 12.6337 13.9915 13.0001C12.8448 9.65184 10.5369 6.82497 7.48578 5.03155V5.03155Z" fill="#F2F2FF"/>
<path d="M11.32 17.9375C11.1747 18.4717 11.0773 19.0177 11.0289 19.5692C10.891 21.0194 10.9625 22.6785 9.88989 23.6696C9.52963 23.9749 9.10793 24.1991 8.65338 24.3271C8.19883 24.4551 7.72206 24.4838 7.25543 24.4113C5.92493 24.1602 4.70083 23.5144 3.74242 22.558C2.78401 21.6016 2.13571 20.3789 1.88187 19.0489C1.54553 17.3696 1.61542 15.6342 2.08573 13.9874C3.85094 13.9559 5.59599 14.3663 7.16216 15.1812C8.62924 15.9713 10.021 16.8939 11.32 17.9375V17.9375Z" fill="#F2F2FF"/>
<path d="M27.6501 7.51998C28.1408 8.19722 28.5886 8.90457 28.9908 9.63789C30.0753 11.7001 30.8928 13.8919 31.4236 16.1606C29.0646 18.7876 26.24 20.9556 23.0925 22.5552C22.8961 21.4678 22.7137 20.3665 22.4756 19.2931C22.2198 18.0335 21.8306 16.8046 21.3145 15.6274C24.0157 13.4421 26.1825 10.6693 27.6501 7.51998V7.51998Z" fill="#F2F2FF"/>
<path d="M34.3519 43.485C31.7879 45.6319 28.8017 47.2168 25.5866 48.1371C25.4579 44.9722 25.3151 41.8212 25.0888 38.6704C28.2707 37.8545 31.2376 36.3577 33.7846 34.2833C34.0248 37.3365 34.2093 40.4177 34.3519 43.485Z" fill="#E64939"/>
<path d="M34.8259 59.1999C34.8408 60.1061 34.8835 61.0403 34.8287 61.9885C34.6198 62.1978 34.4109 62.4072 34.1182 62.5051C31.7966 64.3404 29.135 65.6984 26.2865 66.5009C26.0463 63.4755 25.9454 60.3664 25.8168 57.2851C29.0351 56.4482 32.0254 54.9015 34.5682 52.7585C34.7238 54.8916 34.7958 57.0527 34.8259 59.1999Z" fill="#E64939"/>
<path d="M7.48486 5.03178C10.536 6.8252 12.8439 9.65207 13.9906 13.0003C13.4336 13.4835 12.9586 14.0538 12.5841 14.6889C11.9991 15.6946 11.5635 16.78 11.2907 17.9111C9.97676 16.8798 8.57099 15.9712 7.09109 15.1966C5.52493 14.3816 3.77987 13.9712 2.01466 14.0027C2.25823 13.0502 2.57421 12.1176 2.95986 11.2132C4.03258 8.86669 5.57224 6.76344 7.48486 5.03178V5.03178Z" fill="#E64939"/>
<path d="M32.699 23.5058C32.7833 24.0914 32.8396 24.6769 32.896 25.2624C30.359 27.5096 27.4805 29.3387 24.3686 30.6812C24.059 27.9487 23.624 25.2302 23.1192 22.5259C26.2668 20.9263 29.0913 18.7583 31.4504 16.1313C32.0128 18.5624 32.4298 21.025 32.699 23.5058V23.5058Z" fill="#E64939"/>
<path d="M19.1233 1.54793C22.5919 2.44644 25.6194 4.56742 27.6486 7.52056C26.1811 10.6699 24.0142 13.4427 21.3131 15.628C21.0578 15.0875 20.749 14.574 20.3912 14.0952C19.7065 13.2518 18.7898 12.6275 17.7542 12.2993C19.0775 8.88004 19.5474 5.18975 19.1233 1.54793V1.54793Z" fill="#E64939"/>
</g>
<defs>
<clipPath id="clip0_301_555">
<rect width="37" height="76" fill="white"/>
</clipPath>
</defs>
</svg>
