<svg width="238" height="188" viewBox="0 0 238 188" fill="none" xmlns="http://www.w3.org/2000/svg">
<g clip-path="url(#clip0_301_136)">
<path d="M41.7028 168.937L43.0972 172.064C42.1634 173.914 40.8273 175.532 39.1869 176.799L36.7647 171.644C38.3828 170.331 39.7072 168.692 40.6522 166.834C41.0306 167.542 41.3747 168.236 41.7028 168.937Z" fill="#F2F2FF"/>
<path d="M45.5375 177.305C46.4235 178.961 47.1659 180.689 47.7566 182.471C48.2892 184.446 45.4237 186.541 43.6537 185.209C43.2676 184.869 42.9616 184.448 42.7577 183.976C42.3999 183.316 42.074 182.643 41.7436 181.981C43.1804 180.824 44.3743 179.395 45.2565 177.775C45.3547 177.629 45.4461 177.467 45.5375 177.305Z" fill="#F2F2FF"/>
<path d="M38.1108 161.711C37.1579 163.523 35.8229 165.107 34.1982 166.353C33.4644 164.88 32.6485 163.415 31.8234 161.972C33.2792 160.441 34.4822 158.689 35.3872 156.78C36.3308 158.39 37.2448 160.04 38.1108 161.711Z" fill="#F2F2FF"/>
<path d="M15.8819 151.371C16.3371 150.277 17.019 149.292 17.8827 148.482C18.7463 147.671 19.772 147.052 20.8922 146.666C21.1441 146.601 21.3994 146.549 21.6568 146.51C22.7904 148.494 23.4233 150.724 23.5007 153.008C23.0039 153.031 22.5287 153.217 22.1493 153.539C21.8994 153.765 21.6987 154.041 21.5599 154.349C20.0839 152.709 18.0696 151.653 15.8819 151.371V151.371Z" fill="#F2F2FF"/>
<path d="M21.2356 157.832C21.2829 158.174 21.3605 158.511 21.4677 158.839C21.7432 159.704 22.1898 160.638 21.8172 161.468C21.6854 161.731 21.4984 161.963 21.2691 162.148C21.0398 162.332 20.7735 162.465 20.4883 162.538C19.6641 162.719 18.8045 162.648 18.0212 162.334C17.2379 162.02 16.5672 161.478 16.0965 160.777C15.4931 159.897 15.1088 158.885 14.9758 157.826C15.9801 157.376 17.0808 157.185 18.178 157.269C19.2122 157.363 20.2357 157.552 21.2356 157.832V157.832Z" fill="#F2F2FF"/>
<path d="M28.0502 147.867C28.4972 148.136 28.9268 148.432 29.3367 148.754C30.4627 149.671 31.4673 150.727 32.3263 151.898C31.6162 153.981 30.527 155.915 29.1136 157.601C28.7352 157.026 28.3614 156.439 27.9624 155.882C27.5078 155.222 26.9842 154.613 26.4005 154.064C27.4147 152.151 27.979 150.032 28.0502 147.867V147.867Z" fill="#F2F2FF"/>
<path d="M40.6866 166.847C39.7416 168.705 38.4172 170.343 36.799 171.657C35.9513 169.874 35.0991 168.103 34.1989 166.352C35.8236 165.106 37.1585 163.522 38.1115 161.71C38.9957 163.402 39.8549 165.123 40.6866 166.847Z" fill="#E64939"/>
<path d="M44.8006 175.74C45.0308 176.256 45.2837 176.781 45.4841 177.338C45.4155 177.509 45.3469 177.68 45.2031 177.808C44.3209 179.428 43.1271 180.857 41.6902 182.014C40.8128 180.338 39.9948 178.58 39.1676 176.845C40.808 175.579 42.1442 173.961 43.0779 172.11C43.6887 173.295 44.2584 174.517 44.8006 175.74Z" fill="#E64939"/>
<path d="M15.8816 151.371C18.0693 151.654 20.0836 152.71 21.5597 154.349C21.3585 154.762 21.2256 155.205 21.1662 155.661C21.0768 156.381 21.0925 157.109 21.2126 157.824C20.2072 157.555 19.1791 157.377 18.1413 157.295C17.0442 157.211 15.9434 157.402 14.9391 157.852C14.8458 157.246 14.799 156.634 14.7989 156.022C14.8402 154.414 15.2086 152.832 15.8816 151.371V151.371Z" fill="#E64939"/>
<path d="M34.8539 155.797C35.0454 156.112 35.2209 156.434 35.3964 156.756C34.4914 158.664 33.2884 160.417 31.8326 161.947C30.987 160.457 30.0729 159.005 29.1223 157.578C30.5357 155.891 31.6249 153.957 32.335 151.875C33.2519 153.131 34.093 154.441 34.8539 155.797V155.797Z" fill="#E64939"/>
<path d="M21.7019 146.527C23.9101 146.194 26.1644 146.67 28.0498 147.867C27.9785 150.031 27.4142 152.151 26.4 154.064C26.1215 153.817 25.8189 153.598 25.4967 153.411C24.898 153.095 24.2198 152.961 23.5458 153.026C23.4684 150.742 22.8355 148.512 21.7019 146.527V146.527Z" fill="#E64939"/>
<g clip-path="url(#clip1_301_136)">
<ellipse cx="122.261" cy="226.677" rx="164.363" ry="73.0024" transform="rotate(-6.68974 122.261 226.677)" fill="#F2F2FF"/>
</g>
<path d="M222.909 144.974C220.596 145.594 216.77 144.624 216.77 144.624C216.77 144.624 217.95 140.726 219.918 138.995C220.959 138.079 223.338 136.028 224.625 137.344C225.913 138.66 226.813 140.196 227.102 141.567C227.391 142.939 224.343 144.59 222.909 144.974Z" fill="#2B9126"/>
<path d="M222.957 144.344C220.725 145.202 216.82 144.636 216.82 144.636C216.82 144.636 217.576 140.634 219.346 138.706C220.283 137.686 222.427 135.397 223.847 136.572C225.267 137.746 226.326 139.181 226.76 140.516C227.194 141.851 224.342 143.812 222.957 144.344Z" fill="#40AB30"/>
<path d="M211.381 141.888C213.075 143.581 216.873 144.654 216.873 144.654C216.873 144.654 217.799 140.688 216.961 138.206C216.517 136.892 215.482 133.926 213.71 134.422C211.937 134.918 210.389 135.798 209.453 136.841C208.517 137.885 210.331 140.839 211.381 141.888Z" fill="#2B9126"/>
<path d="M211.654 141.319C213.158 143.178 216.823 144.641 216.823 144.641C216.823 144.641 218.169 140.797 217.6 138.242C217.299 136.89 216.586 133.835 214.769 134.143C212.952 134.45 211.318 135.163 210.275 136.102C209.232 137.041 210.721 140.166 211.654 141.319Z" fill="#40AB30"/>
<rect x="202.464" y="145.779" width="27.0476" height="13.1285" transform="rotate(15 202.464 145.779)" fill="#FCAF34"/>
<rect x="202.692" y="140.666" width="29.2555" height="5.00135" transform="rotate(15 202.692 140.666)" fill="#FFE336"/>
<rect x="217.62" y="144.663" width="18.1299" height="1.65597" transform="rotate(105 217.62 144.663)" fill="#40AB30"/>
<path style="mix-blend-mode:multiply" opacity="0.39" d="M176.933 16.9395C177.129 17.5525 177.518 18.0845 178.041 18.4546Z" fill="url(#paint0_linear_301_136)"/>
<path d="M134.363 30.7236L152.536 166.553L161.655 165.642L153.207 28.8409L134.363 30.7236Z" fill="#2B9126"/>
<path d="M148.589 137.073L149.747 145.718C153.964 151.073 158.39 150.571 160.675 149.786L160.321 144.112C156.6 147.031 151.476 141.135 148.589 137.073Z" fill="#F26652"/>
<path d="M141.151 81.4961L142.336 90.3314C146.969 96.6171 153.758 97.3568 157.428 97.2499L156.978 89.8707C150.341 91.3133 144.63 85.952 141.151 81.4961Z" fill="#E64939"/>
<path d="M134.468 31.626L136.149 44.1758C138.402 47.0788 141.215 49.4926 144.417 51.2717C147.619 53.0507 151.144 54.1581 154.78 54.5272L154.437 49.0377C137.998 43.3006 135.022 34.4438 134.468 31.626Z" fill="#F26652"/>
<path d="M137.833 56.6807L139.259 67.3405C145.087 72.6975 152.655 74.3097 156.045 74.7803L155.628 68.0288C148.737 66.0563 142.556 62.1149 137.833 56.6807V56.6807Z" fill="#F26652"/>
<path d="M144.058 103.218L145.301 112.485C148.906 116.048 153.693 118.136 158.734 118.345L158.305 111.327C151.483 112.833 146.826 107.856 144.058 103.218Z" fill="#F26652"/>
<path d="M150.487 151.279L151.438 158.364C155.206 163.362 159.391 162.506 161.411 161.651L161.081 156.279C156.902 159.258 152.778 154.681 150.487 151.279Z" fill="#F26652"/>
<path d="M146.613 122.303L147.665 130.186C152.723 135.041 157.43 134.407 159.685 133.685L159.316 127.782C155.117 130.852 150.193 126.674 146.613 122.303Z" fill="#F26652"/>
<path d="M161.502 162.778C158.858 163.948 154.436 164.427 152.113 163.575C151.491 163.87 150.989 164.374 150.695 165.001C148.512 170.416 167.148 167.559 163.005 163.385C162.561 163.061 162.044 162.853 161.502 162.778V162.778Z" fill="#4B81B5"/>
<path d="M133.234 33.3536C135.411 35.5416 152.491 36.6267 155.031 31.1759C159.21 22.2279 126.154 26.2285 133.234 33.3536Z" fill="#3E6C9A"/>
<path d="M141.018 5.80418C133.443 8.47639 128.456 14.6394 133.648 23.5643C138.839 32.4893 152.362 28.0423 153.724 20.1627C155.087 12.283 148.961 2.99854 141.018 5.80418Z" fill="#4B81B5"/>
<path d="M134.779 8.95199C137.365 11.0323 142.209 12.4266 145.303 9.63784C145.303 9.63784 149.976 9.76485 149.25 6.77119C148.524 3.77753 141.091 2.48591 137.526 4.97289C133.96 7.45987 133.666 8.05351 134.779 8.95199Z" fill="url(#paint1_linear_301_136)"/>
<path style="mix-blend-mode:screen" opacity="0.81" d="M139.647 4.02578C137.567 4.27819 137.021 6.84953 140.548 6.33384C144.075 5.81815 144.558 3.43124 139.647 4.02578Z" fill="url(#paint2_linear_301_136)"/>
<path style="mix-blend-mode:multiply" opacity="0.42" d="M145.675 116.087C145.675 116.087 154 129.109 158.734 118.346C163.467 107.583 145.675 116.087 145.675 116.087Z" fill="url(#paint3_linear_301_136)"/>
<path d="M156.68 132.363C156.68 132.363 160.214 142.968 160.612 137.375C161.01 131.782 164.196 145.466 164.541 140.516C164.886 135.567 167.232 144.606 167.226 141.228C167.22 137.851 169.834 136.379 170.309 140.103C170.784 143.828 172.5 143.983 172.602 146.111C172.705 148.239 173.63 152.2 174.536 151.686C175.442 151.172 176.152 146.714 175.818 144.401C175.484 142.088 177.365 141.388 177.573 139.86C177.781 138.332 180.997 143.913 181.134 139.022C181.271 134.13 183.201 134.361 183.11 127.116C183.02 119.872 156.68 132.363 156.68 132.363Z" fill="#F2F2FF"/>
<path d="M156.68 132.363C156.68 132.363 160.214 142.968 160.612 137.375C161.01 131.782 164.196 145.466 164.541 140.516C164.886 135.567 167.232 144.606 167.226 141.228C167.22 137.851 169.834 136.379 170.309 140.103C170.784 143.828 172.5 143.983 172.602 146.111C172.705 148.239 173.63 152.2 174.536 151.686C175.442 151.172 176.152 146.714 175.818 144.401C175.484 142.088 177.365 141.388 177.573 139.86C177.781 138.332 180.997 143.913 181.134 139.022C181.271 134.13 183.201 134.361 183.11 127.116C183.02 119.872 156.68 132.363 156.68 132.363Z" fill="#F2F2FF"/>
<path d="M121.198 117.971C121.198 117.971 130.958 105.118 136.598 102.624L142.555 102.771C142.555 102.771 140.732 107.593 141.191 109.752C141.191 109.752 163.141 111.101 188.166 110.434L182.15 135.112L175.09 138.141L141.985 129.57C141.985 129.57 142.039 133.722 143.223 134.584L137.043 135.81C137.043 135.81 128.683 127.373 121.198 117.971Z" fill="#FCAF34"/>
<path d="M142.593 102.781L136.636 102.634C136.636 102.634 133.387 109.098 134.379 110.551L166.468 110.574C151.725 110.399 141.228 109.755 141.228 109.755C140.768 107.581 142.593 102.781 142.593 102.781Z" fill="#A96F12"/>
<path d="M141.993 129.569L136.801 128.232C136.801 128.232 136.126 132.531 137.043 135.81L143.223 134.584C142.048 133.736 141.993 129.569 141.993 129.569Z" fill="#A96F12"/>
<path d="M180.118 110.578C180.118 110.578 175.266 129.958 175.097 138.141L182.157 135.112L188.173 110.434C185.405 110.51 182.67 110.553 180.001 110.582L180.118 110.578Z" fill="#A96F12"/>
<path d="M136.524 114.183L136.106 115.309L135.221 114.707C135.067 114.91 134.955 115.144 134.892 115.393C134.81 115.685 134.753 115.984 134.724 116.286C134.688 116.587 134.692 116.891 134.733 117.191C134.766 117.461 134.817 117.729 134.887 117.992C134.956 118.245 135.04 118.489 135.121 118.711C135.202 118.933 135.294 119.191 135.362 119.429C135.495 119.907 135.6 120.392 135.677 120.883C135.756 121.43 135.767 121.985 135.709 122.535C135.655 123.449 135.405 124.341 134.976 125.147C134.581 125.845 133.954 126.379 133.205 126.653L132.955 124.154C133.17 124.087 133.365 123.968 133.524 123.808C133.676 123.643 133.803 123.458 133.904 123.257C134.003 123.047 134.077 122.825 134.125 122.597C134.168 122.37 134.205 122.143 134.227 121.926C134.26 121.603 134.258 121.277 134.218 120.954C134.18 120.615 134.114 120.278 134.022 119.949C133.934 119.654 133.854 119.365 133.767 119.084C133.68 118.803 133.607 118.521 133.541 118.23C133.474 117.934 133.43 117.633 133.407 117.331C133.356 116.998 133.339 116.661 133.358 116.326C133.392 115.983 133.454 115.644 133.544 115.312C133.638 114.932 133.766 114.561 133.927 114.205C134.091 113.863 134.291 113.539 134.523 113.24C134.704 112.958 134.951 112.727 135.243 112.566L136.524 114.183Z" fill="#F2F2FF"/>
<path d="M138.622 112.414C138.533 113.069 138.452 113.664 138.388 114.197C138.323 114.731 138.277 115.225 138.236 115.697C138.195 116.169 138.149 116.671 138.125 117.089C138.1 117.508 138.082 117.918 138.069 118.305C138.057 118.692 138.052 119.086 138.046 119.466C138.039 119.845 138.043 120.253 138.048 120.668C138.225 120.079 138.378 119.551 138.507 119.078C138.637 118.605 138.752 118.133 138.85 117.641C138.948 117.148 139.028 116.628 139.104 116.063C139.181 115.499 139.26 114.815 139.337 114.043L140.915 114.145C140.857 114.522 140.821 114.897 140.785 115.198C140.749 115.498 140.715 115.821 140.692 116.105C140.645 116.593 140.608 117.034 140.589 117.437C140.57 117.84 140.56 118.182 140.564 118.583C140.567 118.984 140.579 119.324 140.593 119.686C140.607 120.049 140.671 120.465 140.671 120.911C140.817 120.458 140.948 120 141.065 119.55C141.182 119.1 141.282 118.623 141.373 118.131C141.463 117.639 141.551 117.118 141.615 116.577C141.679 116.036 141.752 115.443 141.813 114.805C141.843 114.439 141.878 114.056 141.918 113.644C141.958 113.232 141.983 112.821 142.021 112.387L143.902 112.132C143.787 113.331 143.643 114.548 143.471 115.776C143.299 117.003 143.06 118.222 142.768 119.424C142.473 120.601 142.097 121.755 141.641 122.878C141.22 123.949 140.685 124.971 140.046 125.925C139.915 125.543 139.812 125.151 139.737 124.753C139.657 124.323 139.583 123.87 139.522 123.409C139.461 122.947 139.428 122.468 139.38 121.99C139.332 121.512 139.288 121.071 139.289 120.641C139.177 121.06 139.044 121.504 138.878 121.974C138.711 122.443 138.542 122.89 138.351 123.333C138.16 123.775 137.972 124.18 137.739 124.582C137.589 124.928 137.419 125.265 137.229 125.59C137.023 124.875 136.86 124.147 136.739 123.412C136.612 122.621 136.532 121.824 136.5 121.023C136.46 120.173 136.455 119.238 136.492 118.218C136.53 117.197 136.616 116.06 136.738 114.778C136.765 114.456 136.799 114.133 136.832 113.803C136.865 113.473 136.904 113.128 136.949 112.767L138.622 112.414Z" fill="#F2F2FF"/>
<path d="M145.174 124.054L147.85 124.529L147.512 126.969L143.06 126.107C143.117 125.5 143.175 124.893 143.239 124.285C143.303 123.677 143.366 123.047 143.426 122.395C143.572 120.861 143.712 119.315 143.846 117.758C143.98 116.2 144.097 114.649 144.198 113.105L148.782 112.706L148.676 115.181L145.982 115.339C145.955 115.797 145.924 116.231 145.891 116.64C145.852 117.06 145.812 117.539 145.755 118.079L148.18 118.245L147.947 120.63L145.544 120.38L145.174 124.054Z" fill="#F2F2FF"/>
<path d="M150.679 124.247L153.643 124.805L153.391 127.443L148.229 126.4C148.49 124.102 148.751 121.799 149.011 119.491C149.271 117.184 149.493 114.855 149.675 112.506L154.852 112.144L154.794 114.808L151.699 114.932C151.662 115.373 151.618 115.816 151.582 116.265C151.546 116.714 151.492 117.209 151.437 117.764L154.322 117.973L154.05 120.48L151.153 120.22L150.679 124.247Z" fill="#F2F2FF"/>
<path d="M155.552 113.254L162.626 113.542L162.082 116.425L160.05 116.272C159.881 117.462 159.735 118.575 159.597 119.621C159.458 120.667 159.326 121.705 159.207 122.726L158.864 125.849L158.468 129.252L155.73 128.523C155.886 127.364 156.027 126.266 156.144 125.304C156.262 124.342 156.404 123.333 156.528 122.363C156.652 121.393 156.767 120.409 156.887 119.402C157.008 118.395 157.118 117.285 157.233 116.078L155.009 115.929L155.552 113.254Z" fill="#F2F2FF"/>
<path d="M169.254 114.513L168.387 116.152L166.366 115.084C166.066 115.342 165.844 115.681 165.727 116.061C165.572 116.469 165.471 116.896 165.427 117.331C165.382 117.76 165.405 118.194 165.497 118.616C165.586 119.008 165.713 119.391 165.876 119.758C166.037 120.121 166.212 120.467 166.41 120.826C166.607 121.185 166.782 121.531 166.943 121.887C167.251 122.581 167.496 123.302 167.673 124.041C167.838 124.767 167.883 125.515 167.806 126.255C167.75 126.891 167.618 127.517 167.411 128.121C167.21 128.69 166.934 129.229 166.592 129.724C166.211 130.259 165.764 130.742 165.263 131.164C164.694 131.646 164.09 132.085 163.458 132.48L161.499 129.528C161.995 129.259 162.456 128.931 162.874 128.552C163.218 128.245 163.52 127.892 163.771 127.504C163.987 127.168 164.151 126.802 164.259 126.416C164.353 126.059 164.42 125.695 164.459 125.327C164.517 124.804 164.484 124.275 164.362 123.763C164.261 123.325 164.122 122.897 163.947 122.483C163.763 122.048 163.575 121.636 163.38 121.233C163.184 120.842 163.011 120.441 162.862 120.03C162.718 119.623 162.61 119.204 162.538 118.778C162.459 118.313 162.447 117.839 162.501 117.371C162.55 116.892 162.649 116.419 162.794 115.961C162.968 115.422 163.195 114.901 163.471 114.408C163.634 114.128 163.819 113.861 164.025 113.61C164.24 113.333 164.478 113.073 164.735 112.834C164.981 112.598 165.242 112.379 165.516 112.177C165.755 111.997 166.018 111.853 166.298 111.75L169.254 114.513Z" fill="#F2F2FF"/>
<path d="M149.743 118.2C148.046 118.229 147.034 121.441 149.51 123.235C151.987 125.029 153.56 118.153 149.743 118.2Z" fill="#4B81B5"/>
<path d="M150.151 120.951C150.151 120.951 150.844 119.783 150.439 119.267C150.034 118.75 149.755 120.82 149.755 120.82C149.755 120.82 148.891 119.54 148.596 119.763C148.302 119.985 148.276 120.537 149.472 121.16C149.472 121.16 149.005 122.157 149.236 122.483C149.468 122.809 149.86 121.359 149.86 121.359C149.86 121.359 150.595 122.674 150.984 122.367C151.374 122.061 150.547 121.082 150.151 120.951Z" fill="#F2F2FF"/>
<path d="M122.312 41.7671L115.891 43.0174C115.891 43.0174 109.768 54.5354 105.929 58.5568L106.756 60.7979C106.756 60.7979 120.349 70.6876 125.044 75.2299L134.171 74.318C134.171 74.318 131.056 68.6379 130.252 66.6393C130.252 66.6393 157.294 55.8748 164.589 54.9009L164.173 41.0072C164.173 41.0072 143.377 45.1638 123.211 44.7286L122.312 41.7671Z" fill="#FCAF34"/>
<path d="M128.829 69.7072C121.827 64.1852 111.873 57.4066 111.873 57.4066C111.873 57.4066 108.369 60.3626 106.754 60.7764C106.754 60.7764 120.347 70.666 125.042 75.2083L134.169 74.2964C132.479 72.6632 130.696 71.1308 128.829 69.7072V69.7072Z" fill="#A96F12"/>
<path d="M111.875 57.4281C116.994 54.051 122.312 41.7671 122.312 41.7671L115.891 43.0174C115.891 43.0174 109.768 54.5354 105.929 58.5568C105.929 58.5568 106.675 60.9604 107.113 60.9604C107.674 61.6673 107.988 60.5227 108.864 59.6473C110.614 58.7719 110.319 58.5568 111.875 57.4281Z" fill="#A96F12"/>
<path d="M131.91 48.0767L131.649 49.5208L129.861 49.0164C129.665 49.2921 129.557 49.6213 129.55 49.9606C129.518 50.3505 129.538 50.743 129.608 51.1279C129.686 51.5159 129.82 51.8903 130.006 52.2389C130.185 52.5661 130.393 52.8758 130.629 53.1641C130.855 53.4467 131.096 53.7175 131.35 53.9755C131.604 54.2322 131.835 54.4838 132.059 54.7361C132.461 55.2331 132.828 55.757 133.159 56.3042C133.496 56.8948 133.73 57.5395 133.85 58.21C134.084 59.3646 134.011 60.5608 133.636 61.6762C133.136 62.934 132.289 64.0207 131.196 64.8081L129.62 61.929C129.975 61.7116 130.286 61.4287 130.538 61.0949C130.74 60.8138 130.893 60.4997 130.99 60.1662C131.082 59.8617 131.125 59.544 131.116 59.2255C131.109 58.9273 131.079 58.6299 131.028 58.3361C130.95 57.9219 130.809 57.5226 130.608 57.153C130.386 56.7455 130.121 56.3637 129.816 56.0145C129.534 55.6938 129.252 55.3731 128.985 55.0582C128.718 54.7434 128.427 54.416 128.151 54.0799C127.899 53.7323 127.675 53.3649 127.481 52.9811C127.28 52.5718 127.135 52.1367 127.05 51.6878C126.97 51.2296 126.946 50.7633 126.978 50.2993C127 49.7714 127.089 49.2486 127.242 48.7435C127.389 48.2427 127.607 47.7659 127.888 47.3278C128.15 46.9077 128.521 46.5678 128.961 46.3445L131.91 48.0767Z" fill="#F2F2FF"/>
<path d="M138.742 60.3863C138.702 59.982 138.664 59.5998 138.626 59.2249C138.589 58.85 138.553 58.4898 138.519 58.1517L136.554 58.4593C136.588 58.7901 136.665 59.1239 136.715 59.4753C136.765 59.8266 136.839 60.2053 136.909 60.5324C136.921 60.65 136.932 60.7676 136.944 60.8852C136.956 61.0028 136.968 61.1278 137.025 61.2558L134.718 61.7461C134.413 60.1475 134.215 58.5304 134.124 56.9055C134.046 55.4852 134.068 54.0613 134.192 52.6446C134.298 51.4414 134.516 50.2511 134.845 49.0899C135.129 48.1138 135.53 47.1762 136.039 46.298C136.558 46.9474 137.041 47.6253 137.486 48.3287C137.945 49.0692 138.35 49.8427 138.696 50.6429C139.09 51.5477 139.429 52.4758 139.71 53.4222C140.003 54.4324 140.281 55.5925 140.524 56.8452C140.568 57.2936 140.687 57.742 140.77 58.2089C140.854 58.6757 140.933 59.1726 141.005 59.6703L138.742 60.3863ZM136.535 51.1855C136.216 52.7896 136.12 54.4307 136.249 56.0621L138.059 55.8293C137.873 54.9891 137.643 54.1596 137.369 53.3443C137.12 52.6194 136.841 51.8973 136.535 51.1855Z" fill="#F2F2FF"/>
<path d="M141.128 46.094L141.262 46.6226C141.458 46.2477 141.742 45.9264 142.089 45.6862C142.387 45.4751 142.734 45.3457 143.097 45.3108C143.268 45.2967 143.44 45.307 143.608 45.3414C143.806 45.3937 143.987 45.4987 144.131 45.6455C144.329 45.8475 144.489 46.0827 144.606 46.3405C144.787 46.7372 144.915 47.1563 144.988 47.5867C145.127 48.3152 145.259 49.0445 145.412 49.92C145.566 50.7956 145.702 51.6432 145.852 52.5489C146.001 53.4546 146.151 54.3602 146.308 55.2726C146.465 56.1849 146.61 57.0464 146.758 57.8632L144.82 58.5839C144.753 57.9076 144.647 57.2129 144.539 56.5035C144.431 55.7942 144.319 55.0407 144.199 54.3548C144.079 53.6689 143.955 52.9463 143.828 52.2611C143.7 51.5759 143.576 50.9202 143.463 50.3005C143.393 49.9733 143.332 49.6528 143.264 49.3404C143.196 49.0279 143.144 48.7287 143.087 48.4523C143.07 48.2583 142.983 48.077 142.844 47.942C142.795 47.8995 142.739 47.8675 142.677 47.8481C142.616 47.8287 142.551 47.8223 142.487 47.8292C142.335 47.8576 142.195 47.9339 142.089 48.0471C142.029 48.1068 141.981 48.1779 141.948 48.2563C141.916 48.3348 141.899 48.419 141.899 48.5041C142.057 49.5723 142.249 50.7558 142.481 52.0467C142.713 53.3376 142.952 54.6205 143.198 55.9025C143.241 56.3363 143.363 56.7472 143.448 57.1545C143.533 57.5618 143.61 57.9625 143.687 58.3631L141.553 59.1182C141.48 58.3831 141.326 57.6561 141.22 57.0356C141.114 56.4152 141.008 55.7947 140.913 55.2176C140.819 54.6405 140.721 54.101 140.625 53.5834L140.339 52.0528C140.172 51.1934 140.005 50.3267 139.823 49.4614C139.641 48.5961 139.439 47.614 139.215 46.5524L141.128 46.094Z" fill="#F2F2FF"/>
<path d="M144.894 45.0272L149.421 44.3522L149.915 46.2776L148.586 46.5293C148.673 47.404 148.83 48.2347 148.953 49.0316C149.077 49.8285 149.207 50.6099 149.336 51.384C149.465 52.1581 149.603 52.9535 149.742 53.7563C149.881 54.559 150.023 55.3912 150.179 56.2815L148.427 56.8796C148.286 55.9806 148.157 55.1323 148.038 54.3126C147.919 53.493 147.794 52.6814 147.67 51.8771C147.545 51.0729 147.405 50.2628 147.264 49.438C147.123 48.6132 146.97 47.7523 146.806 46.8481L145.448 47.1026L144.894 45.0272Z" fill="#F2F2FF"/>
<path d="M153.834 56.2436C153.802 55.9202 153.77 55.6041 153.739 55.2954C153.709 54.994 153.68 54.7 153.652 54.4206L152.337 54.5966C152.364 54.8685 152.428 55.1442 152.479 55.4287C152.529 55.7132 152.535 55.9948 152.631 56.2896C152.641 56.3851 152.65 56.4807 152.66 56.5763C152.669 56.6718 152.679 56.7747 152.69 56.8776L151.16 57.1864C150.915 55.8903 150.74 54.5818 150.636 53.2668C150.544 52.1284 150.519 50.9857 150.559 49.8445C150.59 48.8828 150.702 47.9255 150.891 46.9826C151.041 46.2107 151.274 45.4579 151.587 44.7378C151.95 45.2708 152.293 45.8304 152.616 46.4168C152.95 47.0339 153.245 47.6715 153.499 48.3257C153.769 49.0411 154.018 49.7587 154.251 50.6189C154.484 51.4791 154.693 52.3937 154.893 53.4354C154.93 53.8029 155.032 54.1639 155.101 54.5579C155.17 54.952 155.239 55.346 155.303 55.7702L153.834 56.2436ZM152.088 48.7191C151.924 50.026 151.908 51.3477 152.04 52.6588L153.25 52.5379C153.082 51.8123 152.899 51.0881 152.716 50.5051C152.532 49.922 152.337 49.2956 152.11 48.7169L152.088 48.7191Z" fill="#F2F2FF"/>
<path d="M148.934 47.6524C150.596 47.3453 152.227 50.3302 150.158 52.5414C148.09 54.7527 145.165 48.3259 148.934 47.6524Z" fill="#4B81B5"/>
<path d="M149.068 50.3928C149.068 50.3928 148.15 49.3858 148.445 48.7995C148.739 48.2132 149.423 50.1866 149.423 50.1866C149.423 50.1866 150.016 48.7612 150.356 48.9203C150.696 49.0794 150.823 49.6161 149.774 50.4633C149.774 50.4633 150.422 51.3489 150.267 51.7133C150.112 52.0777 149.433 50.735 149.433 50.735C149.433 50.735 148.973 52.1693 148.523 51.9469C148.074 51.7245 148.705 50.5998 149.068 50.3928Z" fill="#F2F2FF"/>
<path d="M111.5 50.6497C112.61 51.3838 113.96 51.6506 115.261 51.3929C116.562 51.1352 117.71 50.3736 118.46 49.2713C120.608 46.1612 123.154 48.8023 123.154 48.8023C123.154 48.8023 123.426 46.6592 126.489 47.1773C129.552 47.6953 136.64 44.4258 136.64 44.4258C136.64 44.4258 133.5 39.5 131.474 39.2252C129.449 38.9505 129.099 42.5733 125.524 40.6884C121.949 38.8034 108.952 39.3744 112.132 43.4148C112.132 43.4148 107.889 48.1819 111.5 50.6497Z" fill="#F2F2FF"/>
<path d="M186.874 88.9753L171.538 106.522L163.435 106.477L165.006 98.9854C165.006 98.9854 142.264 94.5757 129.006 94.1483L127.7 81.0785C127.7 81.0785 162.766 77.8199 167.565 76.1154L168.117 71.9101L174.096 72.2853" fill="#FCAF34"/>
<path d="M173.961 72.2873L167.982 71.9121C167.982 71.9121 175.491 81.9909 181.401 87.002C181.901 87.502 186.197 89.064 186.901 89.002" fill="#A96F12"/>
<path d="M163.413 106.479L171.517 106.523L186.852 88.9766C184.932 88.5443 183.093 87.803 181.405 86.7813C181.405 86.7813 171.25 100.981 163.413 106.479Z" fill="#A96F12"/>
<path d="M147.795 81.4761L152.121 80.5613L152.325 82.5975L150.879 82.8608C150.864 83.7457 150.853 84.5932 150.852 85.3951C150.851 86.197 150.849 86.9842 150.854 87.7707C150.859 88.5572 150.871 89.3429 150.877 90.1441C150.884 90.9452 150.902 91.7898 150.91 92.6799L149.191 92.718C149.195 91.8786 149.203 91.0687 149.206 90.2962C149.21 89.5237 149.222 88.7578 149.226 87.9853C149.23 87.2128 149.219 86.4417 149.214 85.6553C149.209 84.8688 149.184 84.0323 149.164 83.1657L147.979 83.3881L147.795 81.4761Z" fill="#F2F2FF"/>
<path d="M153.814 80.1097C154.304 80.5916 154.744 81.1222 155.128 81.6934C155.52 82.2759 155.854 82.8968 156.123 83.5465C156.396 84.2068 156.605 84.892 156.747 85.5927C156.881 86.303 156.953 87.0237 156.962 87.7464C157.002 89.0141 156.853 90.2803 156.52 91.5027C156.208 92.6809 155.702 93.7979 155.025 94.8075C154.098 93.8562 153.382 92.7183 152.924 91.4686C152.455 90.1988 152.197 88.86 152.16 87.5061C152.137 86.2705 152.261 85.0368 152.529 83.8314C152.814 82.5448 153.245 81.296 153.814 80.1097V80.1097ZM154.226 84.2335C154.069 84.7071 153.96 85.1956 153.9 85.6915C153.752 86.8054 153.815 87.9379 154.086 89.0286C154.237 89.6256 154.461 90.2018 154.751 90.744C155.012 89.7642 155.136 88.7523 155.121 87.7374C155.104 87.1317 155.017 86.5299 154.86 85.9445C154.71 85.3546 154.502 84.781 154.24 84.232L154.226 84.2335Z" fill="#F2F2FF"/>
<path d="M158.841 79.6598C158.87 81.1393 159.017 82.6143 159.282 84.0703C159.535 85.3907 159.857 86.6967 160.247 87.9829C160.472 86.8232 160.623 85.65 160.699 84.4707C160.796 83.0801 160.836 81.569 160.82 79.9372L163.29 79.4529C163.318 81.0611 163.267 82.6105 163.151 84.1069C163.041 85.5546 162.838 86.9934 162.543 88.4143C162.267 89.742 161.882 91.0443 161.394 92.3081C160.935 93.5026 160.361 94.649 159.682 95.731L157.854 93.7235C157.989 93.5317 158.123 93.318 158.261 93.0814C158.399 92.8449 158.536 92.5936 158.661 92.299C158.786 92.0044 158.917 91.7612 159.032 91.5195L159.324 90.748C158.966 90.0413 158.637 89.2575 158.36 88.4759C158.053 87.6702 157.787 86.8494 157.562 86.0165C157.323 85.1644 157.129 84.2631 156.961 83.3148C156.804 82.3042 156.702 81.2858 156.656 80.2642L158.841 79.6598Z" fill="#F2F2FF"/>
<path d="M169.214 80.1595L168.632 81.7025L166.816 81.1415C166.58 81.4144 166.42 81.7454 166.352 82.101C166.259 82.4862 166.216 82.8825 166.227 83.2791C166.251 83.6762 166.342 84.0664 166.497 84.4326C166.626 84.7769 166.784 85.1088 166.972 85.4246C167.16 85.7368 167.364 86.0386 167.585 86.3285C167.806 86.6257 168.012 86.9243 168.204 87.217C168.554 87.8012 168.861 88.4108 169.122 89.0407C169.395 89.7212 169.543 90.4463 169.557 91.18C169.625 92.3969 169.319 93.6047 168.68 94.6382C167.954 95.678 166.892 96.43 165.675 96.7648L164.624 93.6179C164.982 93.5186 165.314 93.341 165.596 93.0977C165.833 92.8859 166.029 92.6323 166.176 92.3492C166.314 92.0751 166.406 91.7799 166.45 91.4756C166.485 91.1835 166.499 90.8892 166.494 90.595C166.481 90.1728 166.405 89.7549 166.267 89.3556C166.115 88.9189 165.916 88.5005 165.672 88.1084L165.015 87.0604C164.797 86.7252 164.598 86.3783 164.418 86.0213C164.241 85.6676 164.093 85.3 163.976 84.9221C163.855 84.5163 163.788 84.0959 163.778 83.6723C163.773 83.2292 163.815 82.787 163.904 82.3531C164.004 81.8432 164.157 81.3452 164.359 80.8673C164.57 80.3695 164.84 79.8989 165.161 79.4656C165.48 79.0334 165.886 78.6741 166.352 78.4112L169.214 80.1595Z" fill="#F2F2FF"/>
<path d="M142.841 84.2128C141.15 84.2333 140.143 87.4893 142.608 89.2475C145.073 91.0057 146.674 84.1862 142.841 84.2128Z" fill="#4B81B5"/>
<path d="M143.255 86.956C143.255 86.956 143.956 85.7873 143.551 85.2783C143.147 84.7693 142.867 86.8315 142.867 86.8315C142.867 86.8315 142.002 85.5444 141.701 85.7676C141.399 85.9907 141.38 86.542 142.577 87.1649C142.577 87.1649 142.117 88.1685 142.341 88.4877C142.564 88.8069 142.965 87.3711 142.965 87.3711C142.965 87.3711 143.7 88.6859 144.097 88.3791C144.493 88.0722 143.652 87.0946 143.255 86.956Z" fill="#F2F2FF"/>
<path d="M179.437 84.6251C173.358 81.0378 171.638 77.3788 171.638 77.3788C171.638 77.3788 164.954 81.6696 162.255 79.2665C159.556 76.8635 152.513 78.4432 152.513 78.4432C152.513 78.4432 160.631 75.9023 160.052 73.7181C160.052 73.7181 164.15 75.0162 165.778 71.1191C167.406 67.2221 175.311 67.9393 175.984 70.0994C175.984 70.0994 180.081 67.4108 181.672 71.9885C183.263 76.5662 183.362 79.5482 186.196 82.3388" fill="#F2F2FF"/>
<path d="M95.5466 133.261C92.8035 135.937 86.7039 137.582 86.7039 137.582C86.7039 137.582 85.2973 131.217 86.6871 127.26C87.4226 125.166 89.1351 120.439 91.9628 121.267C94.7906 122.094 97.2511 123.532 98.7291 125.22C100.207 126.908 97.2478 131.601 95.5466 133.261Z" fill="#FCAF34"/>
<path d="M95.1217 132.344C92.6784 135.29 86.7847 137.562 86.7847 137.562C86.7847 137.562 84.7041 131.384 85.6638 127.306C86.1717 125.148 87.3702 120.273 90.2726 120.8C93.175 121.327 95.7772 122.498 97.4285 124.022C99.0798 125.545 96.637 130.517 95.1217 132.344Z" fill="#FFE336"/>
<path d="M77.0412 137.985C80.7313 139.02 86.8733 137.542 86.8733 137.542C86.8733 137.542 85.0584 131.281 81.9425 128.473C80.2935 126.987 76.5259 123.659 74.4403 125.74C72.3547 127.821 70.8837 130.262 70.3953 132.452C69.9068 134.642 74.7526 137.343 77.0412 137.985Z" fill="#FCAF34"/>
<path d="M76.975 136.977C80.5312 138.392 86.7927 137.562 86.7927 137.562C86.7927 137.562 85.6589 131.142 82.8629 128.023C81.3832 126.372 77.9953 122.667 75.7002 124.52C73.4051 126.374 71.6824 128.649 70.9628 130.777C70.2431 132.905 74.7695 136.099 76.975 136.977Z" fill="#FFE336"/>
<rect x="67.6495" y="150.412" width="43.2911" height="21.013" transform="rotate(-14.3138 67.6495 150.412)" fill="#F26652"/>
<rect x="63.9591" y="143.094" width="46.8251" height="8.00494" transform="rotate(-14.3138 63.9591 143.094)" fill="#E64939"/>
<rect x="87.9264" y="136.979" width="29.0179" height="2.65048" transform="rotate(75.6862 87.9264 136.979)" fill="#FFE336"/>
</g>
<defs>
<linearGradient id="paint0_linear_301_136" x1="177.931" y1="16.8376" x2="176.867" y2="16.9439" gradientUnits="userSpaceOnUse">
<stop offset="0.24" stop-color="#F2F6FC"/>
<stop offset="0.26" stop-color="#ECF2FB"/>
<stop offset="0.62" stop-color="#96B7EA"/>
<stop offset="0.88" stop-color="#6191DF"/>
<stop offset="1" stop-color="#4C83DB"/>
</linearGradient>
<linearGradient id="paint1_linear_301_136" x1="9223.92" y1="1751.18" x2="9238.38" y2="1827.04" gradientUnits="userSpaceOnUse">
<stop stop-color="#F9FFFF"/>
<stop offset="0.27" stop-color="#D0EDFF"/>
<stop offset="0.6" stop-color="#A3DBFF"/>
<stop offset="0.85" stop-color="#88CFFF"/>
<stop offset="1" stop-color="#7ECBFF"/>
</linearGradient>
<linearGradient id="paint2_linear_301_136" x1="140.649" y1="4.69358" x2="140.828" y2="8.07804" gradientUnits="userSpaceOnUse">
<stop stop-color="white"/>
<stop offset="0.23" stop-color="#A1A1A1"/>
<stop offset="0.46" stop-color="#4B4B4B"/>
<stop offset="0.62" stop-color="#151515"/>
<stop offset="0.69"/>
</linearGradient>
<linearGradient id="paint3_linear_301_136" x1="8745.76" y1="4172.39" x2="8733.67" y2="4051.38" gradientUnits="userSpaceOnUse">
<stop stop-color="#900040"/>
<stop offset="0.27" stop-color="#910242"/>
<stop offset="0.41" stop-color="#940A48"/>
<stop offset="0.51" stop-color="#9A1752"/>
<stop offset="0.61" stop-color="#A22A60"/>
<stop offset="0.69" stop-color="#AD4372"/>
<stop offset="0.76" stop-color="#BA6189"/>
<stop offset="0.83" stop-color="#CA86A4"/>
<stop offset="0.9" stop-color="#DCAFC3"/>
<stop offset="0.96" stop-color="#F0DDE6"/>
<stop offset="1" stop-color="white"/>
</linearGradient>
<clipPath id="clip0_301_136">
<rect width="238" height="188" fill="white"/>
</clipPath>
<clipPath id="clip1_301_136">
<rect width="427" height="91" fill="white" transform="translate(-189 97)"/>
</clipPath>
</defs>
</svg>
