<svg width="349" height="197" viewBox="0 0 349 197" fill="none" xmlns="http://www.w3.org/2000/svg">
<g clip-path="url(#clip0_301_211)">
<ellipse cx="209" cy="265.5" rx="140" ry="101.5" fill="#F2F2FF"/>
<path d="M254.691 165.765C253.252 166.91 250.261 167.4 250.261 167.4C250.261 167.4 249.898 164.294 250.752 162.473C251.204 161.509 252.25 159.336 253.56 159.867C254.869 160.399 255.974 161.204 256.598 162.081C257.222 162.958 255.583 165.055 254.691 165.765Z" fill="#F26652"/>
<path d="M254.532 165.306C253.224 166.594 250.301 167.394 250.301 167.394C250.301 167.394 249.606 164.344 250.261 162.444C250.608 161.439 251.416 159.17 252.775 159.562C254.135 159.953 255.321 160.638 256.035 161.445C256.75 162.252 255.344 164.507 254.532 165.306Z" fill="#E64939"/>
<path d="M245.631 167.124C247.342 167.797 250.345 167.388 250.345 167.388C250.345 167.388 249.781 164.312 248.429 162.821C247.714 162.032 246.077 160.262 244.981 161.154C243.885 162.047 243.065 163.141 242.726 164.162C242.387 165.184 244.569 166.707 245.631 167.124Z" fill="#F26652"/>
<path d="M245.647 166.639C247.276 167.486 250.305 167.393 250.305 167.393C250.305 167.393 250.074 164.274 248.89 162.65C248.264 161.791 246.826 159.858 245.641 160.632C244.456 161.406 243.524 162.408 243.077 163.389C242.631 164.37 244.637 166.113 245.647 166.639Z" fill="#E64939"/>
<rect x="240.548" y="172.604" width="20.768" height="10.0805" transform="rotate(-8.53469 240.548 172.604)" fill="#40AB30"/>
<rect x="239.14" y="168.932" width="22.4634" height="3.8402" transform="rotate(-8.53469 239.14 168.932)" fill="#2B9126"/>
<rect x="250.875" y="167.171" width="13.9207" height="1.27151" transform="rotate(81.4653 250.875 167.171)" fill="#E64939"/>
<path d="M279.328 172.175L278.144 174.831C278.937 176.402 280.072 177.776 281.465 178.852L283.521 174.475C282.147 173.359 281.023 171.967 280.22 170.39C279.899 170.991 279.607 171.58 279.328 172.175Z" fill="#F2F2FF"/>
<path d="M276.072 179.282C275.32 180.688 274.69 182.155 274.188 183.669C273.736 185.345 276.169 187.124 277.672 185.993C278 185.705 278.26 185.347 278.433 184.946C278.737 184.386 279.013 183.814 279.294 183.252C278.074 182.27 277.06 181.056 276.311 179.681C276.228 179.557 276.15 179.419 276.072 179.282Z" fill="#F2F2FF"/>
<path d="M282.379 166.041C283.188 167.579 284.321 168.924 285.701 169.982C286.324 168.731 287.017 167.487 287.718 166.262C286.481 164.962 285.46 163.474 284.691 161.853C283.89 163.22 283.114 164.622 282.379 166.041Z" fill="#F2F2FF"/>
<path d="M301.254 157.26C300.867 156.331 300.288 155.495 299.555 154.806C298.822 154.118 297.951 153.593 297 153.265C296.786 153.209 296.569 153.165 296.35 153.132C295.388 154.817 294.85 156.711 294.785 158.65C295.206 158.669 295.61 158.828 295.932 159.101C296.144 159.293 296.315 159.527 296.433 159.788C297.686 158.396 299.396 157.5 301.254 157.26V157.26Z" fill="#F2F2FF"/>
<path d="M296.708 162.746C296.668 163.037 296.602 163.323 296.511 163.601C296.277 164.336 295.898 165.129 296.214 165.834C296.326 166.057 296.485 166.254 296.68 166.411C296.874 166.567 297.1 166.68 297.343 166.742C298.042 166.896 298.772 166.836 299.438 166.569C300.103 166.302 300.672 165.842 301.072 165.247C301.584 164.499 301.911 163.64 302.024 162.741C301.171 162.359 300.236 162.196 299.304 162.268C298.426 162.348 297.557 162.508 296.708 162.746V162.746Z" fill="#F2F2FF"/>
<path d="M290.921 154.285C290.542 154.513 290.177 154.764 289.829 155.038C288.873 155.816 288.02 156.714 287.29 157.708C287.893 159.476 288.818 161.118 290.018 162.55C290.34 162.062 290.657 161.564 290.996 161.091C291.382 160.53 291.826 160.013 292.322 159.547C291.461 157.923 290.982 156.123 290.921 154.285V154.285Z" fill="#F2F2FF"/>
<path d="M280.191 170.402C280.994 171.98 282.118 173.371 283.492 174.487C284.212 172.973 284.936 171.469 285.7 169.982C284.321 168.924 283.187 167.579 282.378 166.041C281.627 167.477 280.897 168.939 280.191 170.402Z" fill="#E64939"/>
<path d="M276.698 177.954C276.503 178.392 276.288 178.838 276.118 179.31C276.176 179.456 276.234 179.601 276.356 179.709C277.105 181.085 278.119 182.299 279.339 183.281C280.084 181.858 280.779 180.365 281.481 178.892C280.088 177.816 278.954 176.443 278.161 174.871C277.642 175.877 277.158 176.915 276.698 177.954Z" fill="#E64939"/>
<path d="M301.254 157.261C299.397 157.501 297.686 158.398 296.433 159.79C296.604 160.141 296.716 160.517 296.767 160.904C296.843 161.515 296.829 162.134 296.727 162.741C297.581 162.512 298.454 162.361 299.335 162.291C300.267 162.22 301.202 162.382 302.055 162.764C302.134 162.25 302.174 161.73 302.174 161.21C302.139 159.845 301.826 158.501 301.254 157.261V157.261Z" fill="#E64939"/>
<path d="M285.144 161.019C284.981 161.287 284.832 161.56 284.683 161.834C285.452 163.454 286.473 164.942 287.709 166.242C288.427 164.976 289.204 163.743 290.011 162.531C288.811 161.099 287.886 159.457 287.283 157.689C286.504 158.755 285.79 159.868 285.144 161.019V161.019Z" fill="#E64939"/>
<path d="M296.312 153.148C294.437 152.865 292.523 153.269 290.922 154.286C290.982 156.123 291.461 157.923 292.323 159.548C292.559 159.338 292.816 159.152 293.089 158.993C293.598 158.725 294.174 158.611 294.746 158.666C294.812 156.727 295.349 154.833 296.312 153.148V153.148Z" fill="#E64939"/>
<path d="M220.498 120.083V213.286H195.889V176.815H182.5V213.286H157.703L159.4 120.083L191.646 78.209L220.498 120.083Z" fill="#F26652"/>
<rect x="-1" y="1" width="17" height="26" transform="matrix(-1 0 0 1 198 126)" fill="#001C47" stroke="#F2F2FF" stroke-width="2"/>
<rect x="-0.5" y="0.5" width="1" height="25" transform="matrix(-1 0 0 1 191 126)" fill="#001C47" stroke="#F2F2FF"/>
<rect x="-0.5" y="-0.5" width="1" height="17" transform="matrix(8.84539e-09 -1 -1 -1.60765e-08 199 140)" fill="#001C47" stroke="#F2F2FF"/>
<rect x="-1" y="1" width="17" height="41" transform="matrix(-1 0 0 1 198 172)" fill="#001C47" stroke="#F2F2FF" stroke-width="2"/>
<circle r="1.5" transform="matrix(-1 0 0 1 194.5 189.5)" fill="#F2F2FF"/>
<path d="M104.243 120.083H159.4L157.703 213.286L104.243 212.61V120.083Z" fill="#E64939"/>
<rect width="0.999999" height="57.6327" transform="matrix(1.19249e-08 -1 -1 -1.19249e-08 158.633 165)" fill="#E64939"/>
<rect width="0.999999" height="61.8487" transform="matrix(1.19249e-08 -1 -1 -1.19249e-08 220.481 165)" fill="#E64939"/>
<path d="M222.951 118.521L222.125 119.047C221.217 119.625 220.015 119.381 219.404 118.494L193.204 80.4686C192.434 79.3517 190.8 79.3085 189.972 80.3831L160.001 119.303C159.622 119.794 159.037 120.082 158.416 120.082H103.898C102.269 120.082 101.323 118.239 102.273 116.916L133.345 73.6392C133.72 73.1159 134.325 72.8057 134.969 72.8057H191.474C192.115 72.8057 192.718 73.1135 193.094 73.6334L223.497 115.661C224.172 116.594 223.922 117.902 222.951 118.521Z" fill="#F2F2FF"/>
<rect width="9" height="18" transform="matrix(-1 0 0 1 172 67)" fill="#E64939"/>
<rect width="13" height="5" transform="matrix(-1 0 0 1 174 62)" fill="#F2F2FF"/>
<rect x="-1" y="1" width="20.0631" height="15.5599" transform="matrix(-1 0 0 1 137.884 136.292)" fill="#001C47" stroke="#F2F2FF" stroke-width="2"/>
<rect x="-0.5" y="0.5" width="1" height="19" transform="matrix(-1 0 0 1 126 135)" fill="#001C47" stroke="#F2F2FF"/>
<rect x="-0.5" y="-0.5" width="1" height="23" transform="matrix(1.19249e-08 -1 -1 -1.19249e-08 138 145)" fill="#001C47" stroke="#F2F2FF"/>
<rect x="-1" y="1" width="20.0631" height="15.5599" transform="matrix(-1 0 0 1 137.884 179.517)" fill="#001C47" stroke="#F2F2FF" stroke-width="2"/>
<rect x="-0.5" y="0.5" width="1" height="19" transform="matrix(-1 0 0 1 126 179)" fill="#001C47" stroke="#F2F2FF"/>
<rect x="-0.5" y="-0.5" width="1" height="23" transform="matrix(1.19249e-08 -1 -1 -1.19249e-08 138 189)" fill="#001C47" stroke="#F2F2FF"/>
<circle r="4.5" transform="matrix(-1 0 0 1 191 104)" fill="#001C47" stroke="#F2F2FF"/>
<circle r="4.5" transform="matrix(-1 0 0 1 191 104)" fill="#001C47" stroke="#F2F2FF"/>
<rect x="-0.178571" y="0.178571" width="0.357143" height="8.21429" transform="matrix(-1 0 0 1 191 99.7139)" fill="#001C47" stroke="#F2F2FF" stroke-width="0.357143"/>
<rect x="-0.178571" y="-0.178571" width="0.357143" height="8.92857" transform="matrix(1.19249e-08 -1 -1 -1.19249e-08 195.286 104)" fill="#001C47" stroke="#F2F2FF" stroke-width="0.357143"/>
<path d="M131.004 87.4485V197.285H102.003V154.306H89.5V197.285H57.0021L59.0021 87.4485L97.0031 38.1016L131.004 87.4485Z" fill="#4B81B5"/>
<rect x="-1" y="1" width="17" height="43" transform="matrix(-1 0 0 1 104 154)" fill="#001C47" stroke="#F2F2FF" stroke-width="2"/>
<circle r="1.5" transform="matrix(-1 0 0 1 100.5 177.5)" fill="#F2F2FF"/>
<path d="M-6.00066 87.4492H59.001L57.0009 197.286L-6.00066 196.49V87.4492Z" fill="#3E6C9A"/>
<path d="M134.214 85.4048L132.631 86.4128C131.723 86.9909 130.52 86.7468 129.91 85.8605L98.56 40.3616C97.7905 39.2447 96.156 39.2015 95.3285 40.2761L59.6024 86.6689C59.2238 87.1606 58.6384 87.4487 58.0178 87.4487H-7.10175C-8.73071 87.4487 -9.67642 85.6055 -8.72638 84.2822L28.4028 32.5679C28.7785 32.0447 29.3832 31.7344 30.0274 31.7344H96.9813C97.623 31.7344 98.2257 32.0422 98.6018 32.5621L134.76 82.5455C135.435 83.4782 135.185 84.7865 134.214 85.4048Z" fill="#F2F2FF"/>
<rect width="12" height="20" transform="matrix(-1 0 0 1 75 25)" fill="#4B81B5"/>
<rect width="16" height="6" transform="matrix(-1 0 0 1 77 19)" fill="#F2F2FF"/>
<rect x="-1" y="1" width="24.0007" height="18.6939" transform="matrix(-1 0 0 1 34.001 106.551)" fill="#001C47" stroke="#F2F2FF" stroke-width="2"/>
<rect x="-1" y="1" width="17" height="34" transform="matrix(-1 0 0 1 104 92)" fill="#001C47" stroke="#F2F2FF" stroke-width="2"/>
<rect x="-0.5" y="0.5" width="1" height="19" transform="matrix(-1 0 0 1 23 107)" fill="#001C47" stroke="#F2F2FF"/>
<rect x="-0.5" y="0.5" width="1" height="33" transform="matrix(-1 0 0 1 97 92)" fill="#001C47" stroke="#F2F2FF"/>
<rect x="-0.5" y="-0.5" width="1" height="23" transform="matrix(1.19249e-08 -1 -1 -1.19249e-08 35 117)" fill="#001C47" stroke="#F2F2FF"/>
<rect x="-0.5" y="-0.5" width="1" height="17" transform="matrix(6.87975e-09 -1 -1 -2.06698e-08 105 110)" fill="#001C47" stroke="#F2F2FF"/>
<rect width="0.999999" height="58" transform="matrix(1.19249e-08 -1 -1 -1.19249e-08 58 142)" fill="#4B81B5"/>
<rect width="0.999999" height="73" transform="matrix(1.19249e-08 -1 -1 -1.19249e-08 131 142)" fill="#3E6C9A"/>
<rect x="-1" y="1" width="24.0007" height="18.6939" transform="matrix(-1 0 0 1 34.001 157.49)" fill="#001C47" stroke="#F2F2FF" stroke-width="2"/>
<rect x="-0.5" y="0.5" width="1" height="19" transform="matrix(-1 0 0 1 23 158)" fill="#001C47" stroke="#F2F2FF"/>
<rect x="-0.5" y="-0.5" width="1" height="23" transform="matrix(1.19249e-08 -1 -1 -1.19249e-08 35 168)" fill="#001C47" stroke="#F2F2FF"/>
<circle r="6.5" transform="matrix(-1 0 0 1 96 68)" fill="#001C47" stroke="#F2F2FF"/>
<rect x="-0.25" y="0.25" width="0.5" height="11.5" transform="matrix(-1 0 0 1 96 62)" fill="#001C47" stroke="#F2F2FF" stroke-width="0.5"/>
<rect x="-0.25" y="-0.25" width="0.5" height="12.5" transform="matrix(1.19249e-08 -1 -1 -1.19249e-08 102 68)" fill="#001C47" stroke="#F2F2FF" stroke-width="0.5"/>
</g>
<defs>
<clipPath id="clip0_301_211">
<rect width="349" height="197" fill="white"/>
</clipPath>
</defs>
</svg>
