<svg width="114" height="110" viewBox="0 0 114 110" fill="none" xmlns="http://www.w3.org/2000/svg">
<path d="M57.5584 72.2114C60.0518 75.0871 63.1237 77.4045 66.5735 79.0123C67.2853 75.517 68.0128 72.0058 68.7878 68.5737C65.3772 67.0731 62.3295 64.8561 59.8517 62.0733C59.0293 65.3947 58.2702 68.7794 57.5584 72.2114Z" fill="#E64939"/>
<path d="M56.6884 76.338C56.2771 78.3941 55.9134 80.466 55.5338 82.5221C57.9963 85.3777 61.0655 87.6472 64.5172 89.1649L66.5418 78.9793C63.0919 77.3715 60.02 75.0541 57.5266 72.1784C57.2578 73.586 56.9573 74.962 56.6884 76.338Z" fill="#F2F2FF"/>
<path d="M53.5107 92.8677C52.6743 96.1826 52.1291 99.5643 51.8816 102.974C51.7392 106.723 57.781 109.127 60.3115 105.995C60.8509 105.232 61.208 104.355 61.3554 103.433C61.6875 102.12 61.9247 100.839 62.2252 99.3996C59.1818 97.9925 56.4461 95.9985 54.175 93.5319C53.9852 93.3421 53.748 93.1049 53.5107 92.8677Z" fill="#F2F2FF"/>
<path d="M59.8682 61.9937C62.346 64.7765 65.3937 66.9934 68.8042 68.4941C69.4843 65.5365 70.2434 62.6262 71.0659 59.7161C67.8249 57.6298 64.9278 55.0527 62.4779 52.077C61.5448 55.3509 60.659 58.6723 59.8682 61.9937Z" fill="#F2F2FF"/>
<path d="M94.522 34.0465C93.2406 32.3126 91.6046 30.8714 89.723 29.8187C87.8413 28.7661 85.7572 28.1261 83.609 27.9415C83.1187 27.9257 82.6442 27.9573 82.1697 27.9889C81.056 31.9896 80.9258 36.2003 81.7901 40.2621C82.6798 40.089 83.6017 40.2112 84.4156 40.6101C84.961 40.8916 85.4365 41.2915 85.8073 41.7805C87.7011 38.2491 90.7906 35.5073 94.522 34.0465Z" fill="#F2F2FF"/>
<path d="M87.8941 47.7284C87.9574 48.3642 87.9732 49.0039 87.9415 49.6421C87.815 51.287 87.5303 53.2165 88.4634 54.4343C88.8185 54.8352 89.2542 55.1565 89.7421 55.3773C90.23 55.5981 90.759 55.7133 91.2945 55.7154C92.8294 55.6932 94.3218 55.2069 95.5752 54.3205C96.8286 53.4341 97.7844 52.1891 98.3168 50.7493C98.9774 48.9342 99.1995 46.9886 98.9653 45.0713C96.9895 44.7249 94.959 44.8661 93.0501 45.4825C91.2716 46.0855 89.5469 46.8368 87.8941 47.7284Z" fill="#F2F2FF"/>
<path d="M71.5565 33.161C70.8796 33.8162 70.2506 34.5192 69.6745 35.2645C68.085 37.3824 66.7722 39.6944 65.7679 42.1445C67.9352 45.509 70.7077 48.4424 73.9447 50.7959C74.3718 49.6097 74.7513 48.4393 75.2416 47.2531C75.748 45.887 76.4059 44.582 77.2029 43.3624C74.5686 40.4361 72.6374 36.947 71.5565 33.161Z" fill="#F2F2FF"/>
<path d="M54.1905 89.7201C54.0165 90.7482 53.7952 91.7604 53.5737 92.8043C53.811 93.0415 54.0481 93.2787 54.2854 93.5159C56.5565 95.9825 59.2923 97.9766 62.3357 99.3837C63.1265 95.9569 63.8541 92.5513 64.5184 89.1667C61.0666 87.649 57.9974 85.3794 55.5349 82.5239C55.0763 84.9437 54.6175 87.3319 54.1905 89.7201Z" fill="#E64939"/>
<path d="M94.5217 34.0468C90.7817 35.5084 87.686 38.2564 85.7912 41.7966C86.3292 42.4386 86.7567 43.1654 87.0564 43.9475C87.541 45.1657 87.8345 46.4515 87.9264 47.7593C89.5883 46.8552 91.3236 46.0933 93.114 45.4818C95.0229 44.8654 97.0533 44.7242 99.0292 45.0706C98.9345 43.9596 98.744 42.859 98.4598 41.7809C97.6872 38.9617 96.3472 36.3299 94.5217 34.0468Z" fill="#E64939"/>
<path d="M63.0148 50.1158L62.4771 52.077C64.927 55.0527 67.8241 57.6298 71.0651 59.7161C71.9192 56.7111 72.8998 53.7377 73.9437 50.7959C70.7066 48.4425 67.9341 45.5091 65.7668 42.1445C64.6989 44.7472 63.7801 47.4087 63.0148 50.1158Z" fill="#E64939"/>
<path d="M82.2477 28.0681C78.1926 28.4497 74.4149 30.2936 71.6194 33.2557C72.6978 37.0346 74.6234 40.5181 77.2498 43.4412C77.6209 42.8763 78.0561 42.3562 78.5467 41.8913C79.4541 41.0551 80.5974 40.5194 81.8206 40.3571C80.9691 36.2863 81.1157 32.0699 82.2477 28.0681Z" fill="#E64939"/>
<path d="M53.9673 54.2105C51.4739 57.0861 48.402 59.4035 44.9522 61.0113C44.2405 57.516 43.513 54.0047 42.738 50.5727C46.1486 49.0721 49.1963 46.8551 51.6742 44.0724C52.4966 47.3937 53.2556 50.7784 53.9673 54.2105Z" fill="#E64939"/>
<path d="M54.8372 58.337C55.2484 60.3931 55.6121 62.4651 55.9917 64.5212C53.5292 67.3767 50.46 69.6462 47.0082 71.1638L44.9838 60.9783C48.4336 59.3705 51.5056 57.0531 53.999 54.1775C54.2678 55.5851 54.5683 56.961 54.8372 58.337Z" fill="#F2F2FF"/>
<path d="M58.0149 74.8667C58.8513 78.1816 59.3964 81.5633 59.6439 84.9732C59.7862 88.7216 53.7445 91.1255 51.2139 87.9939C50.6746 87.231 50.3175 86.3543 50.1701 85.4316C49.838 84.1189 49.6008 82.8378 49.3003 81.3986C52.3438 79.9915 55.0795 77.9975 57.3506 75.5309C57.5404 75.3412 57.7776 75.1039 58.0149 74.8667Z" fill="#F2F2FF"/>
<path d="M51.6578 43.9927C49.18 46.7755 46.1322 48.9924 42.7217 50.493C42.0416 47.5354 41.2826 44.6252 40.4602 41.715C43.7012 39.6287 46.5983 37.0517 49.0482 34.076C49.9813 37.3499 50.867 40.6713 51.6578 43.9927Z" fill="#F2F2FF"/>
<path d="M17.0043 16.0455C18.2857 14.3115 19.9217 12.8703 21.8033 11.8177C23.685 10.7651 25.7692 10.1252 27.9173 9.94051C28.4076 9.9247 28.8821 9.95633 29.3566 9.98797C30.4703 13.9887 30.6005 18.1993 29.7361 22.2612C28.8464 22.0881 27.9245 22.2103 27.1106 22.6091C26.5652 22.8906 26.0897 23.2905 25.7188 23.7796C23.8251 20.2481 20.7357 17.5063 17.0043 16.0455Z" fill="#F2F2FF"/>
<path d="M23.6319 29.7275C23.5687 30.3633 23.5529 31.003 23.5845 31.6412C23.711 33.2861 23.9957 35.2156 23.0625 36.4334C22.7075 36.8343 22.2717 37.1556 21.7839 37.3764C21.296 37.5971 20.767 37.7124 20.2315 37.7145C18.6965 37.6922 17.2042 37.2059 15.9508 36.3195C14.6974 35.4331 13.7416 34.1881 13.2092 32.7483C12.5487 30.9331 12.3265 28.9876 12.5608 27.0703C14.5366 26.7239 16.5671 26.8651 18.476 27.4815C20.2544 28.0846 21.9791 28.8358 23.6319 29.7275Z" fill="#F2F2FF"/>
<path d="M39.9698 15.1601C40.6468 15.8152 41.2757 16.5182 41.8519 17.2636C43.4413 19.3815 44.7541 21.6935 45.7584 24.1436C43.5911 27.5081 40.8185 30.4415 37.5814 32.7949C37.1544 31.6087 36.7749 30.4383 36.2846 29.2521C35.7782 27.886 35.1204 26.5809 34.3234 25.3613C36.9577 22.4351 38.8889 18.946 39.9698 15.1601Z" fill="#F2F2FF"/>
<path d="M57.3353 71.7192C57.5093 72.7472 57.7306 73.7595 57.952 74.8033C57.7148 75.0406 57.4776 75.2777 57.2404 75.515C54.9692 77.9816 52.2334 79.9756 49.19 81.3827C48.3992 77.9559 47.6717 74.5502 47.0074 71.1656C50.4592 69.6479 53.5284 67.3784 55.9909 64.5229C56.4496 66.9428 56.9083 69.331 57.3353 71.7192Z" fill="#E64939"/>
<path d="M17.0044 16.0459C20.7444 17.5075 23.8401 20.2555 25.7348 23.7957C25.1968 24.4377 24.7693 25.1645 24.4696 25.9466C23.985 27.1648 23.6915 28.4506 23.5996 29.7584C21.9377 28.8543 20.2023 28.0924 18.412 27.4808C16.5031 26.8644 14.4727 26.7232 12.4968 27.0695C12.5915 25.9586 12.782 24.858 13.0662 23.7799C13.8388 20.9607 15.1789 18.3289 17.0044 16.0459Z" fill="#E64939"/>
<path d="M48.5114 32.1149L49.0491 34.0761C46.5992 37.0518 43.7021 39.6288 40.4611 41.7151C39.6071 38.71 38.6264 35.7367 37.5826 32.7949C40.8197 30.4415 43.5922 27.5081 45.7595 24.1436C46.8274 26.7463 47.7462 29.4077 48.5114 32.1149Z" fill="#E64939"/>
<path d="M29.2784 10.0671C33.3335 10.4487 37.1111 12.2927 39.9067 15.2548C38.8282 19.0337 36.9026 22.5171 34.2761 25.4403C33.905 24.8754 33.4698 24.3552 32.9792 23.8903C32.0718 23.0541 30.9286 22.5184 29.7054 22.3561C30.5569 18.2854 30.4104 14.0689 29.2784 10.0671Z" fill="#E64939"/>
</svg>
