<svg width="32" height="32" viewBox="0 0 32 32" fill="none" xmlns="http://www.w3.org/2000/svg">
<g clip-path="url(#clip0_301_154)">
<path fill-rule="evenodd" clip-rule="evenodd" d="M20.8725 21.1079C25.2087 16.2932 28.9911 10.9901 29.009 9.70086C29.0205 8.86959 28.5439 8.31637 27.698 8.17866C26.687 8.0142 26.1822 8.39052 24.5087 10.5568C22.9724 12.5452 17.2932 18.4094 16.1705 19.1663C15.6222 19.536 15.5919 19.5247 14.8782 18.6879C12.4548 15.846 10.1785 12.814 9.31125 11.2724C7.3922 7.8619 5.45497 6.62498 3.98595 7.87227C2.66193 8.99643 2.60826 10.6669 3.82879 12.7514C5.10072 14.9234 8.01486 18.7028 11.0227 22.0814C13.7662 25.1629 14.0747 25.4575 14.6836 25.5763C16.2882 25.8893 17.0842 25.3144 20.8725 21.1079Z" fill="#E64939"/>
</g>
<defs>
<clipPath id="clip0_301_154">
<rect width="32" height="32" fill="white"/>
</clipPath>
</defs>
</svg>
