<svg width="82" height="82" viewBox="0 0 82 82" fill="none" xmlns="http://www.w3.org/2000/svg">
<g clip-path="url(#clip0_303_268)">
<path d="M42.1675 18.6643C39.3437 23.5446 31.3556 28.2955 31.3556 28.2955C31.3556 28.2955 26.8369 19.8365 27.2354 13.6789C27.4462 10.4202 27.9966 3.04503 32.3309 3.09515C36.6652 3.14528 40.7213 4.20536 43.4851 6.01047C46.2488 7.81558 43.9187 15.6376 42.1675 18.6643Z" fill="#FCAF34"/>
<path d="M41.2015 17.5333C38.9094 22.6766 31.4616 28.2335 31.4616 28.2335C31.4616 28.2335 26.0624 20.3068 25.8038 14.1496C25.6669 10.891 25.4301 3.50862 29.7509 3.10342C34.0716 2.69821 38.2229 3.32525 41.1667 4.82788C44.1105 6.3305 42.623 14.3435 41.2015 17.5333Z" fill="#FFE336"/>
<path d="M17.8255 32.6982C23.4639 32.7003 31.5783 28.1684 31.5783 28.1684C31.5783 28.1684 26.5225 20.019 20.9943 17.2781C18.0686 15.8275 11.4105 12.6079 9.28185 16.3838C7.15318 20.1597 6.03791 24.201 6.21501 27.4973C6.39211 30.7935 14.3287 32.697 17.8255 32.6982Z" fill="#FCAF34"/>
<path d="M17.3311 31.2953C22.9307 31.8892 31.4717 28.2288 31.4717 28.2288C31.4717 28.2288 27.3179 19.5842 22.1192 16.2749C19.3679 14.5235 13.0981 10.619 10.5821 14.155C8.06622 17.691 6.52852 21.5976 6.35362 24.8981C6.17872 28.1986 13.8584 30.9269 17.3311 31.2953Z" fill="#FFE336"/>
<rect x="9.45337" y="54.0312" width="63.6888" height="30.9137" transform="rotate(-29.9626 9.45337 54.0312)" fill="#F26652"/>
<rect x="1.32153" y="45.1299" width="68.8879" height="11.7767" transform="rotate(-29.9626 1.32153 45.1299)" fill="#E64939"/>
<rect x="32.8479" y="26.9551" width="42.6904" height="3.89931" transform="rotate(60.0374 32.8479 26.9551)" fill="#FFE336"/>
</g>
<defs>
<clipPath id="clip0_303_268">
<rect width="82" height="82" fill="white"/>
</clipPath>
</defs>
</svg>
