<svg width="92" height="92" viewBox="0 0 92 92" fill="none" xmlns="http://www.w3.org/2000/svg">
<g clip-path="url(#clip0_303_264)">
<path d="M67.0402 54.1959C70.7732 55.1966 74.6716 55.3983 78.4806 54.7878C77.0779 51.4411 75.6792 48.0722 74.3656 44.7427C70.6507 45.4212 66.8301 45.2902 63.1632 44.3587C64.3738 47.622 65.6736 50.9025 67.0402 54.1959Z" fill="#FCAF34"/>
<path d="M68.6691 58.1684C69.5005 60.1328 70.3807 62.0835 71.2386 64.0298C74.9343 65.0313 78.8029 65.1942 82.5621 64.5067L78.4328 54.7827C74.6237 55.3932 70.7254 55.1916 66.9924 54.1908C67.5722 55.5284 68.1074 56.8574 68.6691 58.1684Z" fill="#F3F3FF"/>
<path d="M75.4549 73.8951C76.6501 77.161 78.1275 80.3174 79.8702 83.3279C81.8948 86.5636 88.3304 85.1477 88.6591 81.0717C88.6746 80.1226 88.4724 79.1816 88.0681 78.3212C87.5955 77.0273 87.0616 75.8141 86.4902 74.4318C83.1362 74.98 79.7043 74.8591 76.3912 74.076C76.1236 74.0243 75.7893 73.9597 75.4549 73.8951Z" fill="#F3F3FF"/>
<path d="M63.1346 44.2794C66.8014 45.2109 70.622 45.3418 74.3368 44.6634C73.2151 41.7873 72.1866 38.9062 71.2112 35.9891C67.3034 36.0781 63.4031 35.5584 59.6493 34.4486C60.74 37.7349 61.8975 41.0342 63.1346 44.2794Z" fill="#F3F3FF"/>
<path d="M76.1844 1.01882C74.1193 0.288943 71.9246 0.00723268 69.7463 0.19243C67.568 0.377628 65.4561 1.02546 63.551 2.09289C63.1312 2.35868 62.7519 2.6554 62.3725 2.95213C63.7277 6.95328 66.0269 10.5713 69.0741 13.4979C69.7204 12.8457 70.5625 12.4238 71.4724 12.2962C72.0903 12.2226 72.7173 12.2885 73.3077 12.489C72.8743 8.4387 73.8941 4.37245 76.1844 1.01882Z" fill="#F3F3FF"/>
<path d="M78.4502 16.3082C78.8669 16.8074 79.246 17.3368 79.5845 17.892C80.4193 19.3485 81.2845 21.1346 82.7628 21.6284C83.2895 21.7637 83.8383 21.7861 84.3733 21.6941C84.9083 21.6022 85.4174 21.3981 85.8672 21.095C87.1404 20.2024 88.1124 18.9436 88.6554 17.484C89.1984 16.0243 89.287 14.4323 88.9095 12.9173C88.4247 11.0135 87.498 9.24947 86.2051 7.76905C84.3518 8.60233 82.7315 9.87708 81.4849 11.4826C80.3399 13.0026 79.3248 14.6168 78.4502 16.3082Z" fill="#F3F3FF"/>
<path d="M56.4401 13.353C56.2478 14.2898 56.123 15.2394 56.0666 16.1947C55.9465 18.8818 56.1691 21.5748 56.7291 24.2085C60.4687 25.8064 64.4687 26.697 68.5262 26.835C68.2055 25.5936 67.854 24.3925 67.5863 23.1152C67.2292 21.6772 67.0339 20.2044 67.004 18.7244C63.1239 17.7612 59.5107 15.9241 56.4401 13.353Z" fill="#F3F3FF"/>
<path d="M74.2267 70.8552C74.6689 71.8194 75.0623 72.7972 75.4738 73.8017C75.8082 73.8663 76.1425 73.9309 76.4769 73.9955C79.7898 74.7786 83.2217 74.8995 86.5756 74.3513C85.2782 71.0174 83.94 67.7372 82.5608 64.5108C78.8016 65.1983 74.933 65.0354 71.2373 64.0339C72.237 66.3314 73.2186 68.6023 74.2267 70.8552Z" fill="#FCAF34"/>
<path d="M76.1792 1.01803C73.8822 4.37722 72.8606 8.45241 73.2982 12.5107C74.1161 12.7448 74.8899 13.1131 75.5883 13.6008C76.691 14.3503 77.6722 15.2654 78.4972 16.3137C79.3723 14.6067 80.3903 12.9776 81.5403 11.4437C82.7868 9.83823 84.407 8.56353 86.2603 7.73027C85.5456 6.84912 84.7565 6.03122 83.9018 5.28561C81.6421 3.35262 79.0142 1.90042 76.1792 1.01803Z" fill="#FCAF34"/>
<path d="M58.9792 32.4885L59.6503 34.445C63.4041 35.5547 67.3044 36.0744 71.2122 35.9854C70.2091 32.9704 69.33 29.91 68.522 26.8402C64.4648 26.7022 60.465 25.8117 56.7256 24.2139C57.3195 27.012 58.072 29.7747 58.9792 32.4885Z" fill="#FCAF34"/>
<path d="M62.4841 2.9777C59.3053 5.60733 57.1954 9.30983 56.5478 13.3944C59.6125 15.961 63.218 17.7967 67.0901 18.7619C67.0779 18.0751 67.145 17.3896 67.29 16.719C67.5719 15.4987 68.2232 14.397 69.1551 13.5641C66.1135 10.6226 63.8247 6.99033 62.4841 2.9777Z" fill="#FCAF34"/>
<path d="M53.7477 41.0938C53.3037 44.9337 52.0557 48.6331 50.0852 51.9505C47.4897 49.4136 44.8719 46.8723 42.2595 44.4247C44.2584 41.22 45.5436 37.6189 46.0277 33.8659C48.6165 36.1934 51.1884 38.6101 53.7477 41.0938Z" fill="#E64939"/>
<path d="M56.8322 44.0726C58.3528 45.5692 59.8427 47.1061 61.3367 48.6206C60.9071 52.4261 59.6339 56.0837 57.6103 59.3263L50.0882 51.9055C52.0587 48.5881 53.3067 44.8887 53.7507 41.0487C54.7811 42.0804 55.8199 43.0675 56.8322 44.0726Z" fill="#F3F3FF"/>
<path d="M68.9393 56.1772C71.536 58.4911 73.9269 61.027 76.0846 63.7561C78.3478 66.83 74.6614 72.2929 70.7504 71.0977C69.8621 70.7626 69.0616 70.228 68.4104 69.5353C67.3813 68.6195 66.4499 67.6763 65.3749 66.6359C67.1197 63.7191 68.271 60.4834 68.7628 57.1144C68.8132 56.8466 68.8762 56.5119 68.9393 56.1772Z" fill="#F3F3FF"/>
<path d="M45.9728 33.806C45.4887 37.559 44.2035 41.1602 42.2046 44.3649C39.9431 42.2626 37.6425 40.2452 35.2889 38.2639C36.8108 34.6626 37.7639 30.8441 38.1142 26.9447C40.7686 29.1691 43.4105 31.4606 45.9728 33.806Z" fill="#F3F3FF"/>
<path d="M0.973174 30.0145C1.05493 27.8257 1.60105 25.6815 2.57522 23.7245C3.54939 21.7674 4.92927 20.0424 6.6231 18.6642C7.02476 18.3717 7.44032 18.1283 7.85587 17.8848C11.0769 20.6179 13.5942 24.0876 15.1933 27.9982C14.349 28.359 13.6466 28.9866 13.193 29.7856C12.8971 30.333 12.7275 30.9403 12.6966 31.5629C9.09042 29.6688 4.9344 29.1199 0.973174 30.0145Z" fill="#F3F3FF"/>
<path d="M14.3461 37.7631C14.6568 38.3342 15.0094 38.8816 15.4009 39.4007C16.4476 40.713 17.7895 42.1748 17.7043 43.7308C17.6362 44.2703 17.455 44.7887 17.1726 45.2522C16.8902 45.7157 16.513 46.1138 16.0657 46.4204C14.7672 47.2754 13.239 47.7156 11.6822 47.6831C10.1254 47.6506 8.61282 47.1468 7.34335 46.2382C5.75202 45.0866 4.45327 43.5757 3.55297 41.8288C5.00989 40.4126 6.79141 39.3757 8.74288 38.8079C10.5775 38.303 12.4518 37.9536 14.3461 37.7631Z" fill="#F3F3FF"/>
<path d="M19.6987 16.193C20.6406 16.3591 21.5695 16.5927 22.4785 16.8921C25.0214 17.7698 27.4435 18.9684 29.6862 20.4589C29.795 24.5245 29.1502 28.5719 27.7845 32.3955C26.7483 31.6402 25.7609 30.8711 24.6717 30.1518C23.4662 29.2903 22.1686 28.5664 20.8034 27.9936C21.3365 24.0311 20.9587 19.9949 19.6987 16.193Z" fill="#F3F3FF"/>
<path d="M66.5748 53.9153C67.3086 54.6816 68.073 55.4076 68.8556 56.1602C68.7926 56.4949 68.7295 56.8296 68.6665 57.1643C68.1746 60.5335 67.0233 63.7694 65.2785 66.6865C62.6559 64.2523 60.0983 61.7999 57.6059 59.3292C59.6295 56.0866 60.9026 52.429 61.3323 48.6235C63.1007 50.3992 64.851 52.1482 66.5748 53.9153Z" fill="#E64939"/>
<path d="M0.97179 30.019C4.94048 29.1202 9.10528 29.6708 12.7172 31.5717C12.6337 32.4182 12.6912 33.2733 12.8875 34.1021C13.1783 35.4032 13.6678 36.6524 14.3388 37.8053C12.4296 37.9905 10.5402 38.3371 8.69079 38.8415C6.73926 39.4093 4.95768 40.4463 3.50071 41.8625C2.94463 40.8737 2.47473 39.839 2.09621 38.7698C1.13104 35.9574 0.748402 32.9796 0.97179 30.019Z" fill="#E64939"/>
<path d="M36.5472 25.6019L38.1195 26.9465C37.7691 30.846 36.816 34.6645 35.2942 38.2658C32.8598 36.2226 30.3375 34.2781 27.7803 32.3962C29.1461 28.5724 29.7909 24.5249 29.6821 20.459C32.0655 22.0418 34.3576 23.7589 36.5472 25.6019Z" fill="#E64939"/>
<path d="M7.83415 17.9943C11.4492 16.0072 15.6681 15.4087 19.7039 16.3104C20.9618 20.1046 21.3411 24.1324 20.8128 28.0877C20.1789 27.8235 19.5169 27.6334 18.84 27.5214C17.6017 27.3342 16.3376 27.5341 15.2202 28.0938C13.6053 24.1831 11.0711 20.718 7.83415 17.9943Z" fill="#E64939"/>
</g>
<defs>
<clipPath id="clip0_303_264">
<rect width="92" height="92" fill="white"/>
</clipPath>
</defs>
</svg>
