<svg width="1307" height="2173" viewBox="0 0 1307 2173" fill="none" xmlns="http://www.w3.org/2000/svg">
<g clip-path="url(#clip0_301_142)">
<mask id="mask0_301_142" style="mask-type:alpha" maskUnits="userSpaceOnUse" x="-767" y="0" width="2776" height="2489">
<rect x="-767" width="2776" height="2489" fill="white"/>
</mask>
<g mask="url(#mask0_301_142)">
</g>
<mask id="mask1_301_142" style="mask-type:alpha" maskUnits="userSpaceOnUse" x="-744" y="26" width="2776" height="2458">
<rect x="-744" y="26" width="2776" height="2458" fill="white"/>
</mask>
<g mask="url(#mask1_301_142)">
</g>
<mask id="mask2_301_142" style="mask-type:alpha" maskUnits="userSpaceOnUse" x="-591" y="0" width="2776" height="2442">
<rect x="-591" width="2776" height="2442" fill="white"/>
</mask>
<g mask="url(#mask2_301_142)">
<path d="M1854.06 -423.548C1824.69 -411.341 1798.06 -387.604 1768.7 -376.752L1667.29 -337.415C1595.55 -314.157 1522.47 -305.734 1449.58 -312.322C1384.19 -312.322 1318.81 -327.924 1253.81 -331.993C1296.4 -367.02 1340.06 -398.036 1384.59 -424.906C1442.15 -461.529 1502.05 -489.333 1560 -523.921C1609.9 -555.84 1656.45 -601.656 1697.83 -659.561V-659.561C1741.49 -707.072 1783.7 -758.459 1824.3 -813.514C1825.8 -815.382 1826.92 -818.04 1827.48 -821.094C1828.05 -824.148 1828.03 -827.436 1827.43 -830.47V-830.47C1785.54 -830.47 1743.64 -775.537 1709.97 -739.593C1667.87 -694.996 1623.74 -656.436 1578.01 -624.298C1577.63 -624.094 1577.22 -624.042 1576.82 -624.144C1576.42 -624.247 1576.03 -624.5 1575.7 -624.89C1575.36 -625.279 1575.07 -625.791 1574.87 -626.392C1574.66 -626.993 1574.53 -627.669 1574.49 -628.367C1574.49 -773.502 1613.64 -911.176 1645.75 -1042.75C1660.24 -1103.79 1675.51 -1163.47 1688.82 -1224.5C1702.13 -1285.54 1722.1 -1348.61 1739.33 -1410.33C1743.25 -1425.25 1733.07 -1427.29 1728.76 -1419.15C1702.55 -1365.82 1681.64 -1305.31 1666.89 -1240.1C1650.84 -1180.42 1634.4 -1120.06 1620.3 -1058.34C1614.03 -1039.35 1607.77 -1019.69 1601.9 -1000.02C1595.24 -958.65 1589.37 -915.923 1583.49 -873.197C1583.31 -872.471 1583.01 -871.855 1582.63 -871.421C1582.25 -870.987 1581.8 -870.754 1581.34 -870.754C1580.88 -870.754 1580.44 -870.987 1580.05 -871.421C1579.67 -871.855 1579.37 -872.471 1579.19 -873.197C1571.75 -965.432 1540.03 -1049.53 1540.03 -1144.48C1542.66 -1210.33 1552.77 -1274.63 1569.79 -1333.69C1573.69 -1359.25 1573.69 -1386.13 1569.79 -1411.69H1562.74C1541.99 -1314.05 1527.93 -1212.53 1520.85 -1109.21C1520.99 -1081.33 1522.96 -1053.58 1526.72 -1026.47C1527.09 -1017.11 1527.88 -1007.81 1529.07 -998.662C1540.82 -909.818 1543.16 -624.296 1469.55 -584.282C1430.4 -562.579 1430.4 -570.718 1391.24 -550.372C1371.27 -540.877 1352.09 -531.384 1332.12 -518.498C1312.15 -505.612 1284.74 -477.127 1260.46 -458.137C1267.12 -485.265 1273.78 -512.395 1280.04 -540.201C1289.15 -591.815 1295.7 -644.678 1299.62 -698.219C1304.81 -754.888 1313.61 -810.387 1325.85 -863.701C1339.17 -917.957 1352.87 -971.538 1365.01 -1027.83C1381.81 -1143.13 1394.88 -1259.96 1404.17 -1377.78C1410.82 -1432.04 1421.39 -1485.61 1429.61 -1539.87C1440 -1578.83 1448.51 -1619.2 1455.07 -1660.59C1455.07 -1676.86 1446.45 -1674.15 1441.36 -1666.69C1412.17 -1615.19 1391.25 -1551.36 1380.67 -1481.55C1373.1 -1435.85 1367.08 -1389.43 1362.66 -1342.51C1356.4 -1291.65 1344.65 -1243.5 1338.38 -1191.95C1336.03 -1175.68 1334.47 -1158.72 1332.9 -1141.77C1331.34 -1124.81 1325.07 -1115.99 1320.76 -1103.79C1295.27 -1011.44 1276.08 -914.247 1263.6 -814.193C1262.46 -807.28 1261.54 -800.261 1260.86 -793.169C1260.67 -792.443 1260.37 -791.823 1259.99 -791.389C1259.61 -790.955 1259.16 -790.727 1258.7 -790.727C1258.25 -790.727 1257.8 -790.955 1257.41 -791.389C1257.03 -791.823 1256.73 -792.443 1256.55 -793.169C1254.99 -835.33 1251.06 -877.123 1244.8 -917.956C1240.37 -956.106 1238.66 -995.057 1239.71 -1033.93C1239.71 -1050.89 1239.71 -1068.52 1242.45 -1085.47C1241.63 -1108.3 1242.95 -1131.2 1246.37 -1153.29C1258.87 -1207.72 1267.29 -1264.71 1271.43 -1322.84C1283.4 -1368.5 1286.69 -1419.56 1280.83 -1468.66C1280.83 -1478.15 1272.21 -1477.47 1267.9 -1474.76H1265.16C1235.16 -1339.89 1214.91 -1199.12 1204.86 -1055.63C1198.21 -968.823 1220.92 -894.222 1222.88 -810.803C1218.26 -750.192 1209.05 -690.9 1195.47 -634.468C1189.03 -576.329 1175.7 -521.139 1156.31 -472.381C1133.04 -427.419 1105.66 -389.383 1075.26 -359.797C1007.04 -284.116 943.526 -196.386 885.75 -98.0123C859.859 -57.1125 835.778 -12.9045 813.706 34.2379C809.399 43.7327 805.874 53.9053 802.35 63.4001C802.35 20.6734 802.352 -22.7297 806.659 -66.1347C806.659 -83.0897 809.007 -100.724 810.573 -118.358C807.83 -188.358 807.83 -258.602 810.573 -328.603C813.816 -416.518 821.149 -503.836 832.5 -589.709C832.5 -639.217 837.59 -688.047 841.897 -737.556C841.897 -746.373 845.421 -755.19 847.379 -763.328C857.578 -810.971 876.217 -851.801 900.629 -879.977C947.615 -937.624 1003.61 -968.824 1050.59 -1027.15C1091.44 -1082.27 1126.87 -1148.45 1155.53 -1223.15C1163.36 -1241.46 1207.21 -1344.55 1175.11 -1358.79C1149.26 -1367.6 1119.12 -1299.11 1105.02 -1269.27C1093.04 -1242.56 1082.56 -1213.95 1073.7 -1183.81C1063.52 -1169.57 1054.12 -1152.62 1044.33 -1137.02C1018.13 -1094.14 989.387 -1056.18 958.58 -1023.76C929.606 -991.884 896.716 -972.892 868.132 -941.017C878.044 -1000.75 890.342 -1059.22 904.938 -1115.99C919.549 -1161.45 938.027 -1202.83 959.754 -1238.75C982.072 -1283.51 1003.61 -1330.31 1024.75 -1374.39C1045.9 -1418.47 1067.04 -1469.34 1089.36 -1515.46C1111.08 -1554.16 1129.89 -1597.45 1145.35 -1644.31C1164.66 -1733.17 1181.26 -1823.72 1195.08 -1915.59C1191.94 -1923.05 1183.72 -1921.7 1178.24 -1915.59C1167.47 -1904.32 1157.82 -1890.12 1149.66 -1873.54L1136.74 -1831.5C1128 -1801.56 1120.29 -1770.76 1113.63 -1739.26C1109.21 -1713.97 1103.45 -1689.45 1096.4 -1666.01C1087.92 -1644.64 1078.63 -1624.25 1068.61 -1604.97C1056.08 -1577.85 1044.33 -1549.36 1032.97 -1520.88C1013.4 -1470.01 993.82 -1419.15 973.068 -1371C973.068 -1371 969.934 -1371 969.543 -1371C959.388 -1418.14 953.831 -1467.87 953.098 -1518.17C951.077 -1571.77 951.995 -1625.59 955.839 -1678.9C963.826 -1787.3 981.665 -1892.82 1008.7 -1991.55C1001.62 -1993.57 994.362 -1991.67 987.947 -1986.12C973.068 -1918.3 956.231 -1856.59 943.701 -1790.13C936.257 -1754.42 931.263 -1717.31 928.822 -1679.58C926.865 -1643.63 926.865 -1607.01 926.865 -1571.06C926.865 -1535.12 926.864 -1503.25 923.732 -1463.91C920.208 -1375.75 940.96 -1328.27 908.461 -1247.57C884.576 -1185.85 849.336 -1139.73 827.41 -1074.62C800.023 -989.504 779.598 -898.204 766.72 -803.344C759.383 -716.014 746.244 -630.444 727.565 -548.339C723.725 -584.968 717.823 -620.855 709.945 -655.492C702.897 -705.001 709.945 -761.97 705.246 -812.157C698.261 -911.635 697.342 -1012.11 702.505 -1111.92C708.436 -1293.88 728.454 -1473.63 762.021 -1646.35C774.943 -1733.5 782.036 -1822.93 783.164 -1912.88C783.164 -1948.15 755.757 -1912.88 753.017 -1897.28C738.138 -1812.5 724.824 -1727.05 710.728 -1641.6C692.717 -1533.77 661.392 -1427.29 658.26 -1313.35C652.479 -1209.58 641.74 -1106.82 626.152 -1006.13C616.317 -1049.21 612.17 -1095.55 614.014 -1141.77C612.445 -1194.69 606.104 -1246.86 595.221 -1296.39C572.119 -1404.23 554.109 -1514.77 530.224 -1621.93C506.34 -1729.09 479.322 -1825.39 461.311 -1931.87C442.529 -2015.16 442.529 -2107.65 461.311 -2190.94C447.74 -2190.4 434.392 -2184.85 422.156 -2174.67C410.888 -2130.09 403.751 -2082.71 401.011 -2034.28C396.29 -1960.99 405.355 -1887.01 426.854 -1823.36C436.643 -1770.46 447.999 -1718.24 459.354 -1667.37C438.993 -1688.4 417.065 -1707.39 397.096 -1725.7C361.857 -1758.93 326.225 -1793.52 291.769 -1826.75C275.276 -1842.93 259.445 -1861.06 244.391 -1881C233.513 -1898.77 219.926 -1910.77 205.235 -1915.59C201.087 -1915.34 197.037 -1913.36 193.425 -1909.81C189.813 -1906.27 186.746 -1901.28 184.485 -1895.25C184.485 -1883.72 184.485 -1872.86 191.924 -1867.44C201.784 -1857.82 210.758 -1845.71 218.549 -1831.5C230.687 -1814.54 243.608 -1798.26 257.704 -1782.66C304.072 -1728.78 352.769 -1681.16 403.362 -1640.24C425.54 -1622.59 446.22 -1599.77 464.834 -1572.42C482.527 -1543.5 496.647 -1508.66 506.338 -1470.01C528.638 -1381.75 545.058 -1289.37 555.282 -1194.66C565.07 -1107.85 568.986 -1018.33 574.859 -929.488C577.992 -884.727 588.173 -842.678 590.914 -797.917C591.509 -769.595 590.723 -741.236 588.565 -713.142C570.162 -751.799 549.409 -785.03 529.44 -822.331C501.64 -875.231 472.667 -926.097 442.517 -975.606C383.393 -1073.95 320.744 -1166.18 258.096 -1257.74C237.344 -1300.46 218.942 -1345.9 200.148 -1393.38C170.932 -1453.31 148.602 -1522.37 134.365 -1596.84C131.624 -1613.79 117.53 -1592.09 116.747 -1583.95C115.964 -1575.81 113.223 -1552.75 112.049 -1537.83C122.229 -1470.01 161.775 -1402.19 179.786 -1341.83C193.023 -1285.3 211.252 -1232.68 233.82 -1185.85C251.761 -1157.72 268.756 -1127.82 284.721 -1096.32C257.224 -1132.29 226.364 -1159.82 193.489 -1177.71C95.9934 -1227.9 -2.28551 -1272.66 -97.4323 -1333.69C-113.427 -1343.02 -128.684 -1355.78 -142.851 -1371.67C-150.291 -1381.17 -162.822 -1364.89 -161.647 -1349.97C-160.497 -1338.96 -158.928 -1328.08 -156.949 -1317.42L-152.64 -1305.89C-144.417 -1285.54 -129.147 -1287.58 -116.226 -1283.51C-53.0989 -1256.23 7.99521 -1216.4 65.8436 -1164.82C94.617 -1143.57 124.517 -1127.22 155.118 -1115.99C210.671 -1064.54 263.136 -1003.66 311.738 -934.236C374.97 -852.547 426.651 -747.024 462.876 -625.651C488.649 -551.992 501.442 -466.899 499.682 -380.821C503.256 -283.288 501.29 -185.383 493.81 -88.5165C459.745 -106.15 446.431 -176.006 420.98 -212.629C389.72 -258.181 356.175 -298.806 320.743 -334.025C307.822 -347.589 294.509 -359.121 281.588 -370.651L273.367 -386.248C257.583 -412.559 242.68 -440.41 228.73 -469.666C214.658 -506.652 203.589 -546.817 195.839 -589.03C177.436 -669.736 156.684 -745.696 132.8 -823.689C117.959 -892.318 93.7832 -953.732 62.321 -1002.73C53.7069 -1013.58 41.176 -993.24 43.9169 -976.963C56.7277 -922.956 73.1547 -871.74 92.8607 -824.368C109.517 -760.541 123.265 -694.552 133.975 -627.009C134.145 -625.668 134.145 -624.28 133.975 -622.94C141.545 -569.928 151.092 -517.824 162.558 -466.954L145.721 -481.198C67.4114 -549.018 -67.6729 -663.634 -105.653 -811.482C-121.707 -875.233 -129.147 -941.694 -148.333 -1004.09C-196.142 -1135.71 -249.817 -1260.65 -308.868 -1377.78C-313.567 -1387.95 -326.489 -1371.68 -322.182 -1361.5C-296.339 -1293.68 -275.588 -1217.05 -251.703 -1145.84L-243.872 -1122.77C-224.291 -1072.69 -206.255 -1020.85 -189.838 -967.468C-170.26 -905.073 -154.99 -838.607 -136.587 -774.856C-136.587 -769.431 -139.72 -763.329 -142.07 -768.076C-172.105 -820.086 -203.875 -868.998 -237.216 -914.566C-269.168 -960.91 -303.064 -1003.08 -338.626 -1040.71C-389.528 -1090.9 -449.435 -1113.96 -495.246 -1172.28C-503.077 -1161.43 -506.994 -1146.51 -501.121 -1132.27C-454.935 -1043.38 -399.558 -970.229 -337.845 -916.602C-308.479 -885.405 -279.111 -848.779 -250.527 -816.226C-281.851 -829.112 -313.568 -837.928 -344.892 -846.067C-398.783 -851.941 -452.326 -865.094 -505.035 -885.404C-561.733 -921 -614.65 -972.558 -661.655 -1038C-665.571 -1044.1 -676.143 -1029.86 -672.228 -1022.4C-638.01 -962.766 -600.795 -908.521 -561.027 -860.311C-514.603 -813.233 -462.095 -787.114 -408.323 -784.352C-350.563 -775.387 -293.332 -758.146 -237.216 -732.808C-206.026 -715.676 -175.654 -694.361 -146.376 -669.057C-116.618 -612.088 4.37193 -490.689 72.5017 -405.236C107.583 -373.105 143.66 -344.354 180.57 -319.107C208.37 -300.117 236.562 -285.196 263.578 -262.815C285.739 -244.723 306.517 -221.943 325.442 -194.995C355.145 -165.366 382.856 -130.11 408.061 -89.8742C434.214 -56.2365 457.311 -16.0015 476.582 29.49C496.779 65.236 510.404 110.549 515.737 159.704C515.737 166.486 515.737 173.267 515.737 180.049C518.869 280.423 522.392 383.51 524.35 481.171C524.35 495.413 524.35 509.659 524.35 523.223C533.169 630.062 533.169 738.53 524.35 845.369C511.82 1072.57 530.225 1302.48 503.599 1527.64C491.614 1630 483.115 1733.49 478.147 1837.57C477.406 1929.87 456.079 2018.09 418.631 2083.76C314.479 2252.63 155.118 2211.95 27.0805 2294.69H12.9853C9.85287 2294.69 6.32787 2304.86 9.46027 2307.57C6.71942 2313.68 5.54477 2323.85 9.46027 2320.46L27.0805 2312.99C64.1015 2325.45 102.024 2327.74 139.455 2319.78C181.254 2308.14 223.654 2304.27 265.928 2308.25C254.964 2317.74 243.216 2325.2 232.253 2332.67C212.747 2348.22 191.8 2357.63 170.389 2360.47C163.341 2360.47 149.636 2383.53 159.425 2391.67C159.425 2391.67 159.425 2398.45 159.425 2399.81H171.171C243.999 2440.5 318.004 2363.18 392.79 2373.36C434.931 2384.08 477.451 2389.75 520.044 2390.31C561.682 2384.96 602.958 2373.16 643.38 2355.04C637.899 2365.22 631.636 2374.04 625.763 2383.53C619.889 2393.03 617.54 2411.34 625.763 2412.01C650.674 2413.42 675.479 2405.8 698.59 2389.63C721.3 2376.07 741.66 2377.42 758.496 2346.23C769.46 2324.52 804.701 2372 816.447 2381.49C835.136 2392.98 855.152 2396.48 874.788 2391.67C879.487 2391.67 885.752 2379.46 884.969 2371.32C883.739 2360.42 881.903 2349.74 879.487 2339.45L898.28 2354.37C912.731 2363.58 927.924 2368.84 943.309 2369.97C979.225 2373.14 1015.22 2367.44 1050.2 2353.01C1090.61 2341.92 1131.45 2336.25 1172.37 2336.06C1211.58 2331.47 1250.96 2334.2 1289.83 2344.19C1297.27 2344.19 1309.41 2323.85 1302.75 2312.99C1267.48 2257.58 1223.93 2220.46 1177.06 2205.84C1117.57 2174.21 1059.79 2133.58 1004.39 2084.44C959.222 2054.34 920.521 2000.81 893.582 1931.17C888.618 1915.63 884.929 1898.96 882.62 1881.66C873.892 1849.85 867.322 1816.4 863.042 1781.97C851.291 1678.82 846.169 1573.73 847.771 1468.63C847.771 1271.28 832.892 1075.28 823.495 878.6C815.273 702.946 808.224 523.899 810.181 346.888C835.552 262.155 867.717 184.067 905.72 114.944C957.875 13.5255 1017.36 -75.8276 1082.7 -150.91C1096.96 -175.092 1112.72 -196.473 1129.69 -214.661L1174.32 -264.173C1192.49 -268.944 1210.97 -268.944 1229.14 -264.173C1262.81 -255.356 1296.88 -246.54 1330.55 -239.079C1368.19 -233.659 1405.95 -231.619 1443.71 -232.974C1515.4 -227.574 1587.16 -240.369 1656.71 -270.953C1689.99 -287.908 1722.89 -308.254 1755.38 -329.956C1787.88 -351.659 1817.64 -384.89 1850.92 -405.236C1858.36 -405.914 1862.28 -426.261 1854.06 -423.548Z" fill="#8C5518"/>
<g style="mix-blend-mode:multiply" opacity="0.6">
<path d="M1860 -418.89L1820.83 -396.508C1789.49 -377.515 1758.94 -357.162 1727.21 -342.239C1692.04 -326.605 1656.32 -315.047 1620.27 -307.644L1513.32 -285.262C1481.18 -276.145 1448.73 -270.707 1416.18 -268.983C1350.35 -271.12 1284.78 -283.836 1220.32 -306.969C1220.32 -306.969 1220.32 -311.036 1220.32 -313.071C1234.43 -334.86 1252.07 -348.598 1270.85 -352.415L1285.73 -357.843C1318.25 -382.263 1351.54 -404.648 1385.23 -425.676C1442.82 -462.306 1502.75 -490.114 1560.72 -524.709C1610.64 -556.634 1657.22 -602.458 1698.61 -660.374C1742.29 -707.893 1784.52 -759.29 1825.14 -814.356C1827.03 -817.393 1828.28 -821.46 1828.66 -825.886C1796.3 -799.445 1764.79 -770.009 1734.26 -737.704C1706.46 -704.752 1677.26 -675.502 1646.9 -650.202C1617.24 -632.418 1588.64 -609.701 1561.51 -582.369C1561.09 -581.739 1560.55 -581.42 1560 -581.483C1559.45 -581.547 1558.93 -581.989 1558.57 -582.709C1558.21 -583.428 1558.02 -584.367 1558.06 -585.321C1558.09 -586.275 1558.35 -587.163 1558.77 -587.793C1565.28 -604.779 1570.67 -622.986 1574.83 -642.062C1584.28 -783.954 1608.29 -921.781 1645.73 -1049.06C1660.22 -1110.11 1675.5 -1169.8 1688.82 -1230.85C1702.14 -1291.9 1722.11 -1354.98 1739.35 -1416.71C1743.27 -1431.63 1733.08 -1433.67 1728.77 -1425.53C1702.55 -1372.19 1681.63 -1311.67 1666.88 -1246.45C1650.82 -1186.76 1634.37 -1126.39 1620.27 -1064.66C1614 -1045.67 1607.73 -1025.99 1601.85 -1006.32C1595.19 -964.945 1589.32 -922.211 1583.44 -879.477C1583.26 -878.75 1582.96 -878.13 1582.58 -877.696C1582.19 -877.262 1581.75 -877.03 1581.29 -877.03C1580.83 -877.03 1580.38 -877.262 1580 -877.696C1579.62 -878.13 1579.32 -878.75 1579.14 -879.477C1571.69 -971.729 1539.96 -1055.84 1539.96 -1150.81C1542.59 -1216.67 1552.71 -1280.98 1569.73 -1340.06C1573.63 -1365.62 1573.63 -1392.5 1569.73 -1418.07H1562.68C1541.92 -1320.41 1527.85 -1218.87 1520.77 -1115.53C1520.91 -1087.65 1522.88 -1059.89 1526.64 -1032.77C1527.01 -1023.41 1527.8 -1014.12 1528.99 -1004.97C1529.22 -1000.68 1529.22 -996.364 1528.99 -992.077C1533.69 -968.336 1538.39 -943.916 1542.7 -920.175C1560.76 -838.347 1561.87 -748.207 1545.84 -665.123C1536.21 -629.732 1520.65 -600.184 1501.18 -580.332C1478.69 -556.023 1454.96 -535.362 1430.28 -518.606C1369.56 -475.193 1308.06 -435.849 1246.17 -398.541C1246.17 -398.541 1242.65 -398.542 1243.43 -403.29C1248.8 -431.976 1255.48 -459.874 1263.41 -486.723C1268.11 -507.073 1273.2 -526.744 1277.51 -546.416C1286.62 -598.04 1293.17 -650.916 1297.1 -704.467C1302.29 -761.146 1311.09 -816.655 1323.34 -869.979C1336.66 -924.245 1350.37 -977.832 1362.51 -1034.13C1379.32 -1149.45 1392.4 -1266.31 1401.68 -1384.15C1408.34 -1438.42 1418.92 -1492 1427.15 -1546.27C1437.54 -1585.23 1446.05 -1625.62 1452.61 -1667.01C1452.97 -1668.52 1453.16 -1670.13 1453.16 -1671.76C1453.16 -1673.39 1452.97 -1675.01 1452.61 -1676.51C1396.2 -1557.12 1386.02 -1395.68 1367.21 -1249.16C1356.74 -1160.56 1343.66 -1072.95 1328.04 -986.649C1311.2 -901.18 1288.87 -821.816 1271.63 -736.347C1260.66 -680.045 1250.87 -622.391 1238.73 -566.09C1232.46 -537.6 1225.02 -509.788 1219.14 -480.62C1213.27 -451.452 1211.7 -439.241 1206.61 -419.569C1193.84 -377.094 1174.07 -342.15 1149.81 -319.178C1123.95 -287.975 1096.53 -260.843 1071.46 -230.997C1046.39 -201.15 1022.11 -166.555 997.427 -132.638C972.749 -98.7221 951.203 -70.9098 928.484 -38.3501C880.836 23.9405 840.877 102.131 810.967 191.604C810.967 194.995 806.659 191.604 806.659 191.604C806.659 148.191 806.659 104.1 806.659 60.6873C806.659 17.9527 806.658 -25.4626 810.967 -68.8755C810.967 -85.8337 813.319 -103.467 814.885 -121.104C812.141 -191.117 812.141 -261.374 814.885 -331.388C818.13 -419.319 825.466 -506.653 836.822 -592.542C836.822 -642.059 841.914 -690.899 846.223 -740.416C846.223 -749.235 849.749 -758.053 851.707 -766.193C861.911 -813.844 880.558 -854.686 904.981 -882.867C951.988 -940.525 1008 -971.727 1055.01 -1030.06C1095.87 -1085.19 1131.32 -1151.39 1159.99 -1226.1C1167.83 -1244.42 1211.7 -1347.52 1179.58 -1361.77C1153.73 -1370.58 1123.56 -1302.07 1109.46 -1272.23C1097.48 -1245.52 1086.98 -1216.9 1078.12 -1186.76C1067.94 -1172.51 1058.54 -1155.55 1048.74 -1139.95C1022.53 -1097.07 993.775 -1059.1 962.955 -1026.67C933.968 -994.791 901.063 -975.796 872.468 -943.914C882.383 -1003.66 894.687 -1062.14 909.289 -1118.92C923.907 -1164.38 942.395 -1205.77 964.131 -1241.7C986.46 -1286.47 1008 -1333.27 1029.16 -1377.37C1050.31 -1421.46 1071.46 -1472.33 1093.79 -1518.46C1115.52 -1557.17 1134.34 -1600.47 1149.81 -1647.34C1169.13 -1736.21 1185.73 -1826.78 1199.56 -1918.67C1196.42 -1926.13 1188.19 -1924.77 1182.71 -1918.67C1171.94 -1907.39 1162.29 -1893.19 1154.12 -1876.61L1141.19 -1834.56C1132.45 -1804.61 1124.74 -1773.81 1118.08 -1742.31C1113.66 -1717.01 1107.89 -1692.49 1100.84 -1669.05C1092.35 -1647.67 1083.06 -1627.28 1073.03 -1608C1060.49 -1580.87 1048.74 -1552.38 1037.38 -1523.89C1017.8 -1473.01 998.21 -1422.14 977.449 -1373.98C977.449 -1373.98 974.316 -1373.98 973.925 -1373.98C963.765 -1421.12 958.204 -1470.87 957.47 -1521.17C955.448 -1574.79 956.366 -1628.62 960.213 -1681.93C968.203 -1790.35 986.052 -1895.89 1013.1 -1994.65C1006.02 -1996.67 998.753 -1994.77 992.334 -1989.22C977.449 -1921.39 960.605 -1859.66 948.07 -1793.18C940.622 -1757.46 935.625 -1720.35 933.184 -1682.61C931.56 -1651.27 930.907 -1619.79 931.226 -1588.32C931.226 -1567.97 931.226 -1547.63 931.226 -1527.96C931.226 -1496.75 933.968 -1466.9 935.926 -1435.7C937.885 -1404.5 942.194 -1367.87 942.977 -1339.38C941.028 -1281.85 929.003 -1226.72 908.505 -1181.33C872.898 -1086.05 844.837 -982.932 825.071 -874.728C814.796 -820.961 807.065 -765.835 801.958 -709.895C796.474 -651.559 794.124 -591.863 787.857 -532.849C771.476 -412.977 761.121 -290.874 756.909 -167.909C760.048 -48.4354 758.085 71.274 751.035 190.246C751.035 194.994 747.118 190.246 746.334 190.246C735.828 119.652 732.514 46.4257 736.541 -26.1404C736.541 -109.575 733.799 -192.329 734.191 -275.085C734.233 -313.808 736.463 -352.431 740.849 -390.402C747.604 -430.456 749.34 -472.547 745.942 -513.858C743.458 -532.265 740.319 -550.388 736.541 -568.123L731.841 -551.844C727.999 -588.479 722.094 -624.377 714.213 -659.021C707.162 -708.538 714.213 -765.518 709.512 -815.714C702.524 -915.21 701.605 -1015.7 706.77 -1115.53C712.703 -1297.52 732.73 -1477.3 766.312 -1650.05C779.239 -1737.22 786.336 -1826.67 787.464 -1916.64C787.464 -1940.38 775.321 -1932.92 765.92 -1916.64C762.425 -1827.81 752.556 -1740.09 736.541 -1655.48C715.836 -1547.08 698.575 -1436.8 684.833 -1325.13C664.602 -1087.29 661.182 -846.065 674.648 -606.788C674.465 -606.062 674.163 -605.442 673.78 -605.008C673.398 -604.574 672.952 -604.345 672.494 -604.345C672.037 -604.345 671.588 -604.574 671.205 -605.008C670.823 -605.442 670.523 -606.062 670.34 -606.788C649.385 -739.817 636.261 -876.177 631.168 -1013.78V-1004.97C621.328 -1048.05 617.179 -1094.41 619.025 -1140.63C617.454 -1193.57 611.108 -1245.75 600.22 -1295.29C577.108 -1403.15 559.09 -1513.71 535.195 -1620.89C511.3 -1728.06 484.271 -1824.39 466.252 -1930.88C447.461 -2014.19 447.461 -2106.69 466.252 -2190C453.901 -2189.97 441.716 -2185.1 430.606 -2175.76C427.612 -2068.25 434.621 -1960.6 451.366 -1856.94C470.952 -1746.38 508.166 -1649.38 529.711 -1540.17C529.868 -1539.29 529.85 -1538.36 529.663 -1537.5C529.475 -1536.65 529.13 -1535.93 528.678 -1535.46C528.226 -1534.99 527.694 -1534.8 527.172 -1534.92C526.649 -1535.03 526.164 -1535.45 525.794 -1536.1C500.332 -1586.97 472.128 -1634.45 447.45 -1684.65L403.577 -1724.67C368.322 -1757.91 332.675 -1792.5 298.204 -1825.74C281.704 -1841.92 265.866 -1860.06 250.805 -1880.01C239.922 -1897.78 226.329 -1909.78 211.632 -1914.6C207.482 -1914.34 203.428 -1912.36 199.814 -1908.82C196.201 -1905.28 193.135 -1900.28 190.872 -1894.25C190.872 -1882.72 190.873 -1871.87 198.315 -1866.44C208.179 -1856.82 217.157 -1844.7 224.952 -1830.49C237.095 -1813.53 250.022 -1797.25 264.124 -1781.65C310.512 -1727.75 359.229 -1680.13 409.844 -1639.2C432.031 -1621.54 452.722 -1598.72 471.344 -1571.37C489.046 -1542.44 503.172 -1507.6 512.867 -1468.94C535.177 -1380.66 551.604 -1288.27 561.832 -1193.54C571.625 -1106.72 575.543 -1017.17 581.418 -928.314C584.552 -883.545 594.736 -841.488 597.478 -796.719C598.073 -768.391 597.287 -740.027 595.128 -711.928C576.717 -750.592 555.957 -783.829 535.979 -821.137C508.167 -874.047 479.179 -924.922 449.016 -974.44C389.866 -1072.8 327.19 -1165.05 264.514 -1256.63C243.753 -1299.36 225.343 -1344.81 206.54 -1392.29C177.311 -1452.24 154.974 -1521.31 140.731 -1595.79C140.731 -1605.96 133.289 -1602.57 128.98 -1595.79C152.402 -1477.36 186.945 -1366.43 231.219 -1267.48C292.327 -1144.02 361.271 -1033.46 424.729 -913.393C425.006 -912.682 425.146 -911.836 425.129 -910.979C425.112 -910.122 424.94 -909.296 424.636 -908.619C424.332 -907.943 423.911 -907.451 423.436 -907.212C422.96 -906.972 422.453 -906.997 421.987 -907.286C367.328 -978.561 315.139 -1055.35 265.69 -1137.24C273.275 -1124.33 280.466 -1110.74 287.235 -1096.54C259.725 -1132.51 228.852 -1160.05 195.963 -1177.94C98.4238 -1228.13 0.101875 -1272.9 -95.0866 -1333.95C-111.088 -1343.28 -126.352 -1356.05 -140.525 -1371.94C-147.968 -1381.43 -160.502 -1365.16 -159.327 -1350.24C-158.152 -1335.31 -159.327 -1341.42 -159.327 -1336.67C-109.904 -1300.69 -58.7951 -1272.09 -6.55707 -1251.2C23.2138 -1232.88 50.6357 -1205.75 80.4066 -1187.44C110.177 -1169.12 145.824 -1151.48 177.945 -1131.13C235.21 -1092.63 288.215 -1037.33 334.634 -967.658C381.64 -899.826 423.946 -819.103 468.602 -745.844C506.174 -693.877 534.434 -624.473 550.081 -545.737C568.1 -431.778 557.131 -309.682 558.698 -192.331C565.043 -68.9533 575.112 53.7683 588.861 175.325C598.059 290.599 600.421 407.2 595.912 523.306C595.912 524.386 595.664 525.421 595.223 526.184C594.782 526.947 594.185 527.376 593.562 527.376C592.938 527.376 592.341 526.947 591.9 526.184C591.459 525.421 591.211 524.386 591.211 523.306C584.777 381.09 568.334 240.765 542.246 105.455C525.844 29.2541 503.434 -42.6531 475.653 -108.219C455.675 -136.709 443.142 -184.191 423.555 -212.68C392.282 -258.241 358.719 -298.874 323.272 -334.099C310.345 -347.666 297.027 -359.2 284.1 -370.732L275.875 -386.332C260.085 -412.648 245.174 -440.503 231.219 -469.765C217.14 -506.758 206.069 -546.931 198.315 -589.151C179.904 -669.872 159.141 -745.846 135.246 -823.853C120.399 -892.495 96.2127 -953.921 64.7367 -1002.93C63.4266 -1004.24 61.941 -1004.93 60.4283 -1004.93C58.9155 -1004.93 57.43 -1004.24 56.1199 -1002.93L109.001 -823.853C128.804 -765.783 146.088 -705.243 160.709 -642.737C170.138 -582.374 183.27 -523.934 199.881 -468.411C218.542 -418.352 239.64 -371.148 262.948 -327.318C263.225 -326.607 263.364 -325.761 263.347 -324.904C263.33 -324.047 263.159 -323.221 262.855 -322.544C262.551 -321.867 262.13 -321.376 261.655 -321.136C261.179 -320.897 260.672 -320.922 260.206 -321.211C215.443 -374.426 172.541 -432.184 131.722 -494.183C51.419 -562.016 -67.2728 -672.585 -103.311 -809.607C-119.372 -873.37 -126.816 -939.847 -146.01 -1002.25C-193.84 -1133.9 -247.538 -1258.86 -306.615 -1376.01C-308.966 -1380.76 -313.667 -1376.01 -317.192 -1376.01C-297.998 -1327.85 -276.061 -1283.76 -255.3 -1240.34C-229.142 -1185 -206.915 -1124.43 -189.099 -1059.91C-170.759 -988.374 -149.691 -919.031 -126.032 -852.342C-102.993 -803.337 -85.575 -747.159 -74.7163 -686.83C-74.6159 -686.108 -74.6318 -685.352 -74.7617 -684.644C-74.8917 -683.936 -75.1299 -683.303 -75.4527 -682.814C-75.7755 -682.325 -76.1707 -681.999 -76.5931 -681.87C-77.0156 -681.741 -77.4508 -681.813 -77.8508 -682.081C-118.795 -721.396 -154.13 -776.097 -181.264 -842.165C-198.108 -867.942 -214.952 -893.043 -232.579 -917.463C-264.545 -963.816 -298.458 -1005.99 -334.036 -1043.63C-379.476 -1089.08 -432.357 -1111.46 -477.405 -1158.27C-467.221 -1143.34 -457.428 -1127.07 -448.026 -1112.14C-421.948 -1065.01 -392.761 -1023.34 -361.065 -988.007C-290.835 -926.408 -226.279 -847.084 -169.512 -752.63C-169.512 -752.63 -169.512 -745.166 -171.863 -746.523C-208.356 -767.435 -243.635 -794.233 -277.236 -826.565C-299.172 -833.348 -321.111 -840.134 -342.655 -845.56C-396.57 -851.436 -450.136 -864.587 -502.868 -884.9C-559.591 -920.503 -612.531 -972.07 -659.557 -1037.52C-659.557 -1037.52 -664.65 -1037.52 -667 -1037.52C-656.927 -1015.11 -645.355 -994.851 -632.528 -977.156C-613.038 -948.225 -592.495 -921.485 -571.028 -897.11C-543.509 -869.126 -513.223 -850.267 -481.716 -841.49C-449.987 -829.959 -419.039 -815.033 -387.31 -804.858C-355.58 -794.683 -318.369 -785.868 -283.897 -773.658C-255.306 -765.256 -227.501 -750.194 -201.242 -728.886C-184.12 -713.832 -167.743 -696.362 -152.277 -676.653L-144.052 -669.872L-135.433 -655.626L-93.5182 -600.681C-43.3778 -540.31 27.9152 -465.016 74.9218 -406.002C110.018 -373.865 146.112 -345.109 183.038 -319.857C210.85 -300.864 239.054 -285.94 266.082 -263.555C288.253 -245.46 309.043 -222.675 327.975 -195.722C357.691 -166.088 385.412 -130.826 410.628 -90.5825C436.127 -56.4741 458.569 -16.0125 477.221 29.4827C493.745 62.233 506.151 100.579 513.651 142.083C531.492 201.884 544.665 265.528 552.823 331.339C564.657 424.475 572.382 519.034 575.934 614.2C584.805 739.302 588.602 865.328 587.295 991.349C583.979 1051.36 578.482 1110.94 570.841 1169.75C564.173 1230.91 559.857 1292.78 557.916 1354.93L555.566 1422.76C560.554 1509.84 557.645 1597.73 546.947 1683.24C539.896 1745.65 531.279 1806.7 521.486 1867.75C514.043 1917.26 507.775 1968.14 498.373 2016.98C493.293 2049.4 483.123 2078.75 468.994 2101.77C447.175 2132.89 422.737 2158.06 396.526 2176.39C369.502 2198.84 340.734 2214.38 311.129 2222.51C277.441 2232.01 243.362 2232.69 209.674 2242.86C152.008 2263.22 95 2288.8 38.884 2319.51C71.8404 2330.11 105.565 2331.49 138.773 2323.58C180.59 2311.94 223.006 2308.07 265.298 2312.05C254.33 2321.55 242.579 2329.01 231.611 2336.47C212.097 2352.03 191.138 2361.45 169.718 2364.28C162.667 2364.28 148.958 2387.35 158.751 2395.49C158.751 2395.49 158.751 2402.27 158.751 2403.63H170.502C243.362 2444.33 317.397 2367 392.216 2377.17C434.376 2387.9 476.914 2393.57 519.526 2394.13C561.182 2388.78 602.479 2376.97 642.919 2358.86C637.435 2369.03 631.167 2377.85 625.291 2387.35C619.415 2396.84 617.065 2415.16 625.291 2415.84C650.213 2417.24 675.029 2409.62 698.151 2393.45C720.871 2379.88 741.241 2381.24 758.085 2350.04C769.054 2328.33 804.308 2375.81 816.059 2385.31C834.756 2396.8 854.781 2400.3 874.426 2395.49C879.126 2395.49 885.394 2383.28 884.611 2375.14C883.381 2364.23 881.544 2353.55 879.126 2343.25L897.931 2358.18C912.388 2367.4 927.585 2372.66 942.977 2373.78C978.908 2376.96 1014.92 2371.25 1049.92 2356.82C1090.35 2345.73 1131.21 2340.06 1172.14 2339.86C1211.36 2335.27 1250.76 2338 1289.65 2348C1297.1 2348 1309.24 2327.65 1302.58 2316.8C1267.29 2261.38 1223.72 2224.24 1176.84 2209.63C1117.31 2177.98 1061.42 2134.65 1006 2085.5C956 2054.5 914.5 1988 896.5 1938.5C890.5 1923.5 884 1897 882.5 1880.5C873.5 1850 867.782 1819.94 863.5 1785.5C851.743 1682.33 845.794 1577.4 847.397 1472.28C847.397 1274.89 832.512 1078.85 823.11 882.14C814.884 706.453 808.041 524.543 810 347.5C835.382 262.751 867.354 187.479 905.373 118.343C957.551 16.906 1017.06 -72.4635 1082.43 -147.56C1096.7 -171.747 1112.46 -193.131 1129.44 -211.322L1174.09 -260.843C1192.27 -265.615 1210.76 -265.615 1228.94 -260.843C1262.62 -252.025 1296.7 -243.203 1330.39 -235.741C1368.04 -230.319 1405.83 -228.284 1443.6 -229.639C1515.32 -224.237 1587.11 -237.035 1656.7 -267.625C1689.99 -284.583 1722.9 -304.932 1755.41 -326.639C1787.92 -348.345 1817.69 -381.582 1850.99 -401.932C1853.45 -402.274 1855.74 -404.212 1857.41 -407.356C1859.08 -410.5 1860.01 -414.618 1860 -418.89ZM715.779 1607.27C709.119 1778.21 683.658 1953.9 608.839 2074.64C608.429 2075.12 607.94 2075.36 607.445 2075.33C606.951 2075.3 606.474 2075 606.083 2074.47C605.692 2073.95 605.408 2073.22 605.27 2072.4C605.131 2071.58 605.146 2070.7 605.313 2069.89C646.782 1933.75 667.417 1781.49 665.247 1627.62C665.247 1521.12 662.898 1415.3 660.939 1309.48C658.589 1193.49 655.845 1078.18 651.928 962.182C641.611 749.022 642.661 534.668 655.062 321.842C640.958 122.475 634.677 -78.3169 636.26 -279.155C636.26 -280.234 636.508 -281.269 636.949 -282.032C637.39 -282.796 637.987 -283.225 638.611 -283.225C639.234 -283.225 639.831 -282.796 640.272 -282.032C640.713 -281.269 640.961 -280.234 640.961 -279.155C669.165 163.114 700.502 602.671 709.12 1049.01C709.12 1143.98 713.428 1238.94 715.779 1333.22C718.716 1424.5 718.716 1515.99 715.779 1607.27ZM803.916 2110.59C803.916 2113.98 801.567 2117.37 800 2113.98C717.347 1928.12 738.891 1685.28 746.334 1466.86C746.334 1462.11 750.642 1462.11 750.642 1466.86C749.272 1532.23 750.057 1597.68 752.993 1662.89C767.878 1813.48 790.598 1960.68 803.916 2110.59Z" fill="#91571A"/>
</g>
<g style="mix-blend-mode:multiply" opacity="0.3">
<path d="M480.497 2149.55C451.131 2173.28 421.765 2199.06 390.833 2217.37Z" fill="#91571A"/>
</g>
<g style="mix-blend-mode:multiply" opacity="0.6">
<path d="M724.039 2165.15C732.261 2091.45 732.261 2015.71 724.039 1942.02C719.34 1880.3 724.041 1817.91 720.908 1756.87C711.902 1835.54 717.776 1916.25 708.77 1994.92C696.9 2067.75 675.456 2134.83 646.121 2190.92C625.368 2237.04 606.966 2298.75 572.901 2318.42C553.144 2328.91 532.8 2335.73 512.211 2338.77C493.826 2344.51 474.997 2344.51 456.612 2338.77C456.192 2338.45 455.835 2337.93 455.584 2337.27C455.333 2336.61 455.202 2335.83 455.202 2335.04C455.202 2334.24 455.333 2333.47 455.584 2332.81C455.835 2332.14 456.192 2331.62 456.612 2331.31C487.106 2309.14 513.031 2271.56 531.005 2223.47C548.73 2181.49 563.455 2135.94 574.858 2087.83C600.868 1971.04 617.088 1848.4 623.021 1723.64C601.485 1824.01 592.087 1931.17 568.203 2029.51C558.274 2076.04 542.337 2118.03 521.608 2152.26C501.035 2181.59 478.722 2207.05 455.044 2228.22C429.956 2254.18 403.779 2276.86 376.734 2296.04C348.934 2314.35 319.96 2327.91 292.16 2346.23C253.005 2373.35 201.321 2409.98 160.6 2372.68C160.6 2378.78 158.25 2385.56 162.557 2388.95C166.864 2392.34 162.557 2395.73 162.557 2397.09H174.303C247.131 2437.78 321.136 2360.47 395.922 2370.64C438.063 2381.37 480.583 2387.04 523.176 2387.6C564.814 2382.25 606.091 2370.44 646.513 2352.33L634.375 2372.68" fill="#91571A"/>
</g>
<g style="mix-blend-mode:multiply" opacity="0.3">
<path d="M588.173 1158.02C596.445 1108.59 601.049 1057.54 601.876 1006.1Z" fill="#91571A"/>
</g>
<g style="mix-blend-mode:multiply" opacity="0.3">
<path d="M800.784 232.951C832.108 175.982 857.56 110.197 887.71 51.1934Z" fill="#91571A"/>
</g>
<g style="mix-blend-mode:multiply" opacity="0.3">
<path d="M626.544 534.072C626.544 595.111 630.459 655.47 633.592 715.83Z" fill="#91571A"/>
</g>
<g style="mix-blend-mode:multiply" opacity="0.6">
<path d="M361.856 2371.33C395.653 2365.11 428.83 2351.2 460.527 2329.95C483.889 2309.15 504.596 2280.41 521.413 2245.46C538.23 2210.5 550.814 2170.05 558.415 2126.49C517.982 2231.45 457.342 2308.12 387.307 2342.84C341.496 2361.83 294.119 2363.86 248.699 2386.92C220.107 2405.05 189.083 2408.35 159.425 2396.42C159.425 2396.42 159.425 2403.2 159.425 2404.56H171.171C224.03 2434.4 277.282 2404.55 331.316 2384.89L361.856 2371.33Z" fill="#91571A"/>
</g>
<g style="mix-blend-mode:multiply" opacity="0.6">
<path d="M1253.81 2329.95C1230.49 2313.12 1205.46 2304.59 1180.2 2304.86C1153.96 2304.86 1128.12 2304.86 1101.89 2304.86C1075.65 2304.86 1053.33 2300.79 1029.06 2300.11C1006.76 2300.91 984.465 2297.96 962.495 2291.29C944.139 2284.55 926.632 2272.14 910.81 2254.67C885.622 2229.92 863.208 2197.53 844.638 2159.05C855.862 2227.57 873.024 2292.73 895.539 2352.33L901.805 2357.08C916.256 2366.3 931.446 2371.56 946.832 2372.68C982.747 2375.86 1018.74 2370.15 1053.73 2355.72C1094.14 2344.63 1134.98 2338.97 1175.89 2338.77C1207.7 2335.04 1239.62 2335.04 1271.43 2338.77L1253.81 2329.95Z" fill="#91571A"/>
</g>
<g style="mix-blend-mode:multiply" opacity="0.6">
<path d="M820.753 1733.13C824.845 1819.35 838.121 1903.51 859.909 1981.36Z" fill="#91571A"/>
</g>
<g style="mix-blend-mode:multiply" opacity="0.6">
<path d="M781.991 -89.1934C771.588 16.7368 776.292 125.465 795.694 227.526Z" fill="#91571A"/>
</g>
<g style="mix-blend-mode:multiply" opacity="0.6">
<path d="M721.69 198.363C719.335 240.26 720.523 282.53 725.215 323.833Z" fill="#91571A"/>
</g>
<g style="mix-blend-mode:multiply" opacity="0.6">
<path d="M844.637 2390.31C828.898 2379.97 815.276 2361.8 805.482 2338.09C790.523 2286.5 781.734 2230.22 779.641 2172.61C774.159 2214.65 779.639 2259.42 770.634 2300.11C763.614 2333.28 749.633 2360.64 731.479 2376.74L727.172 2381.49C739.923 2377.05 751.635 2366.2 760.845 2350.29C771.808 2328.59 807.05 2376.07 818.796 2385.56C830.191 2393.81 842.473 2397.74 854.818 2397.09L844.637 2390.31Z" fill="#91571A"/>
</g>
<g style="mix-blend-mode:multiply" opacity="0.6">
<path d="M693.108 2300.11C704.037 2280.69 712.564 2257.61 718.168 2232.29C742.052 2124.46 727.173 2001.7 715.427 1893.19" fill="#91571A"/>
</g>
<g style="mix-blend-mode:screen" opacity="0.3">
<path d="M507.513 2108.85C560.005 1999.97 590.77 1864.6 595.22 1722.96Z" fill="#F0B785"/>
</g>
<g style="mix-blend-mode:screen" opacity="0.3">
<path d="M695.849 154.955C692.325 99.3424 689.975 43.0537 687.625 -12.5588C686.603 -69.5638 683.597 -126.411 678.62 -182.788" fill="#F0B785"/>
</g>
<g style="mix-blend-mode:screen" opacity="0.3">
<path d="M565.462 169.879C561.395 123.427 554.303 77.9233 544.319 34.2383Z" fill="#F0B785"/>
</g>
<g style="mix-blend-mode:screen" opacity="0.3">
<path d="M412.759 2138.7C432.408 2111.54 447.653 2076.03 457.004 2035.61Z" fill="#F0B785"/>
</g>
<g style="mix-blend-mode:screen" opacity="0.3">
<path d="M791.388 2162.44C794.45 2198.29 802.813 2232.17 815.664 2260.78Z" fill="#F0B785"/>
</g>
<g style="mix-blend-mode:screen" opacity="0.3">
<path d="M998.517 2262.13C953.053 2242.64 913.495 2194.22 887.71 2126.49Z" fill="#F0B785"/>
</g>
</g>
</g>
<defs>
<clipPath id="clip0_301_142">
<rect width="1307" height="2173" fill="white"/>
</clipPath>
</defs>
</svg>
