<svg width="48" height="53" viewBox="0 0 48 53" fill="none" xmlns="http://www.w3.org/2000/svg">
<circle cx="24" cy="29" r="24" fill="#E64939"/>
<path d="M32.8608 23.6374H27.2884V25.0406H32.8828L32.8608 23.6374ZM31.6848 33.2903C31.2621 33.5439 30.7628 33.6725 30.256 33.6585C29.9204 33.6901 29.5813 33.6588 29.2598 33.5663C28.9383 33.4738 28.6413 33.3223 28.3875 33.1211C27.9182 32.6393 27.6738 32.0114 27.706 31.3697H34.9821C35.0346 30.7015 34.9715 30.03 34.7953 29.3794C34.6248 28.7604 34.3264 28.1763 33.916 27.6578C33.5028 27.1549 32.9693 26.7432 32.3552 26.4537C31.6721 26.1487 30.9186 25.9952 30.157 26.0059C29.4408 26.0011 28.7307 26.1263 28.0687 26.3741C27.4626 26.6054 26.9133 26.9437 26.4531 27.3692C25.9941 27.8032 25.6386 28.3181 25.4089 28.8818C25.1624 29.4904 25.0395 30.1343 25.0462 30.7825C25.0349 31.4399 25.154 32.0938 25.3979 32.7131C25.6051 33.2739 25.9339 33.7915 26.3651 34.2356C26.8113 34.6717 27.3596 35.0117 27.9698 35.2308C28.6503 35.4655 29.374 35.5804 30.1021 35.5691C31.1236 35.598 32.1322 35.3558 33.0037 34.8725C33.884 34.3062 34.5178 33.4789 34.7953 32.534H32.3662C32.2362 32.8466 31.9969 33.1121 31.6848 33.2903ZM27.9149 29.1903C28.0004 28.9422 28.1424 28.7131 28.3317 28.5177C28.521 28.3223 28.7534 28.165 29.014 28.0558C29.359 27.9152 29.7348 27.8472 30.1131 27.8568C30.3863 27.8357 30.6614 27.8683 30.9194 27.9525C31.1774 28.0367 31.4123 28.1704 31.6079 28.3444C31.9813 28.7584 32.221 29.2578 32.3003 29.7874H27.739C27.7568 29.5852 27.7973 29.3851 27.8599 29.1903H27.9149ZM22.1006 28.7126C22.66 28.5017 23.1461 28.1579 23.5074 27.7175C23.8396 27.2498 24.0046 26.7008 23.9801 26.1452C24.0016 25.6385 23.8925 25.1342 23.6613 24.6724C23.4671 24.2723 23.1554 23.9281 22.7601 23.6773C22.3409 23.4165 21.865 23.2401 21.3642 23.1598C20.7716 23.0472 20.1671 22.9939 19.5617 23.0006H13V35.5194H19.7045C20.3164 35.5198 20.9258 35.4495 21.5181 35.3104C22.0794 35.1789 22.6113 34.96 23.0898 34.6635C23.5533 34.3727 23.9308 33.9831 24.1889 33.5291C24.4746 33.0214 24.6144 32.4567 24.5956 31.8871C24.6164 31.1813 24.3977 30.4867 23.9691 29.8969C23.5081 29.3037 22.8244 28.8827 22.0456 28.7126H22.1006ZM16.0445 25.1401H18.8912C19.1527 25.1398 19.4138 25.1598 19.6716 25.1998C19.9089 25.2317 20.1369 25.3061 20.342 25.4187C20.5402 25.5203 20.7009 25.6726 20.8036 25.8566C20.9309 26.0772 20.9916 26.3244 20.9795 26.5731C21 26.7873 20.9638 27.0028 20.874 27.2018C20.7841 27.4008 20.6432 27.5776 20.4629 27.7175C20.0696 27.9623 19.5989 28.0846 19.122 28.0658H16.0445V25.1401ZM21.3642 32.5439C21.2513 32.7467 21.0805 32.9185 20.8696 33.0415C20.6501 33.1651 20.4083 33.2527 20.1552 33.3002C19.8739 33.3572 19.5861 33.3839 19.2979 33.3798H16.0006V29.9466H19.2979C19.8637 29.9242 20.4225 30.0672 20.8916 30.3546C21.1035 30.5268 21.2677 30.7418 21.3708 30.9821C21.4739 31.2224 21.513 31.4813 21.4851 31.7379C21.5148 32.0114 21.4734 32.2874 21.3642 32.5439Z" fill="#F2F2FF"/>
<rect x="28.4413" y="0.853516" width="9" height="5" transform="rotate(17.3094 28.4413 0.853516)" fill="#FFE336"/>
</svg>
