<svg width="145" height="207" viewBox="0 0 145 207" fill="none" xmlns="http://www.w3.org/2000/svg">
<g clip-path="url(#clip0_303_209)">
<path d="M62.9078 125.419C65.7231 129.272 66.2353 134.414 64.0815 138.659L52.1124 164.681C46.6146 176.441 50.1974 190.506 60.49 198.428C69.5469 205.304 81.5879 205.95 90.9657 200.703C94.0918 198.954 97.0106 196.454 99.2293 193.475L135.511 146.468C143.368 136.209 144.962 122.506 139.799 110.63L112.73 48.2555L37.7114 90.2248L62.9078 125.419Z" fill="#E64939"/>
<path d="M96.6499 3.67798L8.27269 53.0196C3.13285 55.8892 1.16353 62.4546 4.16245 67.7774L17 90.563C19.9047 95.7186 26.4868 97.7295 31.7934 94.7668L120.171 45.4252C125.31 42.5556 127.28 35.9902 124.281 30.6674L111.442 7.88245C108.443 2.55961 101.79 0.80837 96.6499 3.67798Z" fill="#F3F3FF"/>
<path fill-rule="evenodd" clip-rule="evenodd" d="M89.4601 81.2789C89.255 81.366 89.0561 81.5325 88.9599 81.6975C88.9182 81.769 88.8876 82.3472 88.867 83.454L88.8362 85.104L87.6217 84.1764C86.9538 83.6662 86.3466 83.225 86.2724 83.1961C85.9021 83.0512 85.3536 83.1957 85.1392 83.4946C85.0198 83.6611 84.9014 84.0463 84.9357 84.157C84.9481 84.1971 84.9725 84.2958 84.9898 84.3765C85.0072 84.4571 85.093 84.6057 85.1804 84.7066C85.2679 84.8077 86.1308 85.4938 87.0981 86.2315L88.8567 87.5726L88.8498 90.3565C88.8435 92.8893 88.8352 93.1373 88.7574 93.1066C88.7103 93.088 87.6316 92.4359 86.3603 91.6575C84.1768 90.3206 84.0472 90.2326 84.0201 90.0695C84.0044 89.9745 83.8977 88.9488 83.783 87.79C83.5587 85.5245 83.529 85.3867 83.2169 85.1605C82.6109 84.7212 81.7481 85.0726 81.6686 85.7911C81.6547 85.9165 81.704 86.6092 81.778 87.3305C81.8521 88.0518 81.9125 88.7085 81.9123 88.7899C81.912 88.934 81.8765 88.9161 80.582 88.1184C79.1793 87.2541 79.0075 87.1819 78.6371 87.3009C78.4168 87.3717 78.1514 87.5754 78.0609 87.7433C77.8686 88.1002 77.9254 88.5866 78.1924 88.8696C78.2851 88.9678 78.9339 89.3985 79.6342 89.8266C80.4943 90.3525 80.8835 90.6181 80.8335 90.6454C80.7929 90.6676 80.1583 90.9254 79.4234 91.2183C78.6119 91.5417 78.0269 91.8062 77.9335 91.8921C77.2934 92.4803 77.7179 93.5589 78.5927 93.5672C78.8083 93.5692 79.2217 93.4172 81.7069 92.4215L83.0181 91.8962L85.446 93.3781C86.7814 94.1932 87.874 94.8721 87.8739 94.8868C87.8739 94.9015 86.778 95.5597 85.4386 96.3494L83.0035 97.7852L81.695 97.235C79.2148 96.1923 78.8022 96.0324 78.5866 96.0303C78.039 96.0251 77.6217 96.4374 77.6204 96.985C77.6197 97.2616 77.7242 97.5093 77.9191 97.6929C78.012 97.7805 78.5957 98.0561 79.4056 98.3949C80.139 98.7017 80.7723 98.9715 80.8128 98.9945C80.8626 99.0227 80.4814 99.2761 79.6362 99.7764C78.9485 100.184 78.3227 100.566 78.2455 100.626C77.9454 100.859 77.8244 101.447 78.0039 101.798C78.1105 102.007 78.359 102.215 78.5999 102.297C78.9746 102.425 79.1494 102.355 80.5542 101.516C81.8654 100.734 81.8827 100.725 81.8823 100.877C81.8821 100.961 81.8205 101.604 81.7453 102.304C81.5802 103.842 81.5788 103.931 81.715 104.201C82.0262 104.819 82.916 104.908 83.3348 104.363C83.5179 104.125 83.54 103.989 83.7761 101.649C83.8843 100.575 83.9838 99.6441 83.997 99.5808C84.015 99.495 84.6099 99.1167 86.3378 98.0923C87.6119 97.337 88.6949 96.7038 88.7443 96.6852C88.8278 96.6539 88.8337 96.8491 88.8273 99.4354L88.8204 102.219L87.0551 103.527C86.0842 104.246 85.2179 104.916 85.13 105.015C85.042 105.115 84.9556 105.262 84.9378 105.342C84.92 105.422 84.8952 105.521 84.8826 105.56C84.8477 105.67 84.9641 106.058 85.0828 106.227C85.2957 106.53 85.8435 106.684 86.2145 106.547C86.2888 106.519 86.8981 106.089 87.5685 105.592L88.7875 104.687L88.8101 106.347C88.8316 107.926 88.8382 108.015 88.944 108.16C89.3817 108.758 90.2317 108.747 90.5915 108.139C90.6942 107.965 90.7038 107.843 90.7324 106.336L90.7631 104.72L91.829 105.537C93.2795 106.648 93.3073 106.665 93.6547 106.669C93.9916 106.672 94.1795 106.588 94.4061 106.332C94.6687 106.035 94.7072 105.489 94.4874 105.182C94.4325 105.105 93.5674 104.414 92.5651 103.645L90.7425 102.248L90.7494 99.4646C90.7532 97.9337 90.7705 96.6814 90.7879 96.6815C90.8207 96.6818 95.4448 99.4989 95.5146 99.5611C95.5365 99.5807 95.6478 100.548 95.7619 101.711C95.984 103.976 96.021 104.213 96.1897 104.453C96.5236 104.928 97.3597 104.942 97.7267 104.479C97.9603 104.185 97.9649 104.058 97.7997 102.424C97.7147 101.584 97.6498 100.891 97.6554 100.885C97.661 100.879 98.2643 101.24 98.996 101.688C99.7277 102.135 100.404 102.517 100.5 102.536C101.3 102.695 101.918 101.803 101.504 101.088C101.386 100.884 101.221 100.766 100.105 100.084C99.4086 99.6594 98.8074 99.2867 98.7686 99.256C98.6752 99.1819 98.6911 99.1744 100.176 98.5906C100.852 98.3247 101.487 98.0442 101.587 97.9672C102.045 97.6137 102.102 96.9707 101.713 96.5528C101.506 96.3308 101.316 96.2459 101.023 96.2431C100.812 96.2411 100.377 96.3947 98.662 97.0772L96.56 97.9136L94.1428 96.4319C92.8134 95.6169 91.7256 94.9381 91.7256 94.9233C91.7255 94.9086 92.817 94.2506 94.151 93.4611L96.5767 92.0257L98.6734 92.9016C100.926 93.8426 101.045 93.8763 101.432 93.6823C101.677 93.5594 101.789 93.4389 101.896 93.1855C102.061 92.7933 101.934 92.3117 101.6 92.0606C101.501 91.9867 100.868 91.697 100.194 91.4169C98.6968 90.7954 98.6974 90.7957 98.7898 90.7245C98.8288 90.6945 99.4303 90.334 100.127 89.9234C101.546 89.0867 101.622 89.0152 101.655 88.4877C101.671 88.252 101.649 88.146 101.552 87.9766C101.34 87.6077 100.931 87.4067 100.537 87.4776C100.442 87.4948 99.7631 87.8636 99.0292 88.2973C98.2954 88.731 97.6903 89.0806 97.6847 89.0742C97.6791 89.0679 97.7475 88.3766 97.8366 87.5381C97.9635 86.3445 97.9864 85.9714 97.942 85.8194C97.7146 85.0399 96.6465 84.8674 96.1995 85.538C96.0682 85.7349 96.0489 85.8618 95.8196 88.0338C95.6867 89.2925 95.5599 90.338 95.5377 90.3573C95.4676 90.4183 90.8296 93.1477 90.7966 93.1474C90.7793 93.1473 90.7682 91.8946 90.772 90.3637L90.7789 87.5803L92.6083 86.2178C93.6145 85.4684 94.4829 84.7934 94.5382 84.7177C94.7596 84.4147 94.7237 83.868 94.4626 83.5665C94.2373 83.3062 94.0498 83.2184 93.7129 83.2152C93.3655 83.2119 93.3376 83.2286 91.8817 84.3123L90.8118 85.1087L90.7891 83.492C90.77 82.126 90.7529 81.8502 90.6788 81.7137C90.4421 81.2768 89.9109 81.0873 89.4601 81.2789Z" fill="white"/>
</g>
<defs>
<clipPath id="clip0_303_209">
<rect width="145" height="207" fill="white"/>
</clipPath>
</defs>
</svg>
