<svg width="48" height="52" viewBox="0 0 48 52" fill="none" xmlns="http://www.w3.org/2000/svg">
<circle cx="24" cy="28" r="24" fill="#FCAF34"/>
<path fill-rule="evenodd" clip-rule="evenodd" d="M19.0648 19.2144C19.0648 20.4454 18.0871 21.4303 16.5173 21.4303H16.4885C14.9771 21.4303 14 20.4454 14 19.2144C14 17.9574 15.0069 17 16.547 17C18.0871 17 19.0355 17.9574 19.0648 19.2144ZM18.7687 23.1755V35.9955H14.2666V23.1755H18.7687ZM34.9998 35.9997L35 28.649C35 24.7113 32.779 22.8786 29.8165 22.8786C27.4262 22.8786 26.356 24.1229 25.7585 24.9958V23.18H21.2559C21.3153 24.3829 21.2559 36 21.2559 36H25.7585V28.8402C25.7585 28.4571 25.7877 28.0749 25.9068 27.8006C26.2321 27.0351 26.973 26.2426 28.2168 26.2426C29.8465 26.2426 30.498 27.4182 30.498 29.1409V35.9997H34.9998Z" fill="#F2F2FF" stroke="#FCAF34" stroke-width="0.5"/>
<rect x="20" width="9" height="5" fill="#FFE336"/>
</svg>
