<svg width="85" height="85" viewBox="0 0 85 85" fill="none" xmlns="http://www.w3.org/2000/svg">
<g clip-path="url(#clip0_303_267)">
<path d="M58.2305 67.5619C60.0484 70.3148 61.6865 73.1825 63.1344 76.1469C63.261 76.3308 63.3435 76.5414 63.3755 76.7622C63.4075 76.983 63.3881 77.208 63.3188 77.4195C63.1801 77.6152 62.996 77.774 62.7822 77.8822C60.3656 79.415 57.8376 80.7643 55.2191 81.919C55.0459 82.0133 54.8514 82.0618 54.6538 82.0601C54.1022 82.0894 53.6967 81.5152 53.4363 81.014L49.133 73.0738C49.0547 72.9366 48.9092 72.6817 49.1039 72.5704C51.9777 70.7718 55.1474 69.2201 58.2305 67.5619Z" fill="#132E36"/>
<path d="M37.143 78.0516C33.2455 78.9616 29.195 79.0252 25.2622 78.2384C23.4091 77.8556 21.663 77.0607 20.153 75.9123C18.6429 74.7639 17.4074 73.2914 16.5374 71.6033C16.3634 71.3977 16.2421 71.1528 16.184 70.8899C16.1259 70.627 16.1328 70.3542 16.2041 70.0954C16.2755 69.8365 16.4093 69.5994 16.5934 69.4049C16.7776 69.2105 17.0066 69.0645 17.2606 68.9799C20.8078 67.2692 24.0764 65.0329 26.9571 62.3456C28.3824 60.8895 29.4415 59.1132 30.0472 57.1625C30.653 55.2117 30.7883 53.1422 30.4419 51.1239C27.2764 52.8094 23.5753 53.1907 20.1208 52.1871C18.0601 51.6741 16.2429 50.4472 14.9905 48.7235C14.7237 48.3916 14.5497 47.9947 14.4864 47.5738C14.4231 47.1529 14.4727 46.7234 14.6303 46.3294C14.8854 45.9376 15.238 45.6195 15.6534 45.4066C18.7993 43.6997 21.5949 41.4139 23.895 38.6679C25.0205 37.1835 25.732 35.424 25.9567 33.569C26.1815 31.714 25.9117 29.8298 25.1746 28.1085C23.754 29.5599 21.9765 30.6097 20.0201 31.1531C18.0636 31.6964 15.9967 31.7143 14.0258 31.2049C12.4615 30.7731 10.7136 29.4321 11.2391 27.9097C11.3992 27.5038 11.6336 27.1318 11.9301 26.8128C14.4952 23.6495 16.3981 19.9981 17.5257 16.0753C18.6534 12.1524 18.9829 8.0382 18.4946 3.97671C18.4407 3.70771 18.4723 3.42894 18.585 3.17983C18.6977 2.93072 18.8857 2.72389 19.1226 2.58852C19.3594 2.45315 19.633 2.39613 19.9047 2.4255C20.1765 2.45487 20.4327 2.56915 20.637 2.7522C26.8055 8.08469 34.5864 11.1643 42.7029 11.4858C42.9497 11.483 43.1948 11.5283 43.4249 11.6191C44.2117 12.0014 43.9974 13.1639 43.6399 13.9402C41.5502 18.0592 38.1694 21.3706 34.0148 23.3677C39.431 27.4219 47.5499 26.0313 52.4166 22.3396C52.5302 22.2208 52.6679 22.1282 52.8206 22.0678C52.9734 22.0074 53.1375 21.9807 53.3018 21.9897C53.5498 22.0552 53.7661 22.2088 53.9104 22.4219C55.0291 23.8653 55.7427 25.5815 55.9768 27.3914C56.2108 29.2013 55.9567 31.0386 55.241 32.7113C53.5959 36.3795 50.7269 39.3522 47.1262 41.1195C49.7673 44.1599 54.8381 45.0316 59.0915 44.4724C63.4488 43.6416 67.5966 41.9598 71.2999 39.5224C71.4091 39.434 71.5376 39.3727 71.675 39.3433C71.8123 39.314 71.9549 39.3175 72.091 39.3535C72.2272 39.3895 72.3532 39.4569 72.4589 39.5505C72.5646 39.6441 72.6471 39.7611 72.6997 39.8923C73.8674 43.3061 74.0001 46.9858 73.0809 50.4644C71.6926 56.7179 63.911 64.6237 59.1042 67.7871C52.4516 72.4853 45.0164 75.9604 37.143 78.0516Z" fill="#2B9126"/>
<path d="M25.8451 19.5617C26.1814 19.4365 26.4799 19.2271 26.7123 18.9532C26.9446 18.6794 27.1033 18.3501 27.173 17.9967C27.2394 17.6463 27.2329 17.2856 27.1538 16.937C27.0748 16.5885 26.9248 16.2597 26.7135 15.9714C26.526 15.7032 26.2705 15.4901 25.9736 15.3543C22.8553 14.1467 22.6267 20.6213 25.8451 19.5617Z" fill="#F3F3FF"/>
<path d="M32.6204 30.9238C33.0255 30.8653 33.4033 30.6873 33.7062 30.4123C34.0091 30.1373 34.2234 29.7778 34.3217 29.3794C34.4003 28.8291 34.2971 28.2672 34.0278 27.7795C33.8404 27.4159 33.5584 27.1098 33.2118 26.8938C32.6261 26.6785 31.9833 26.6844 31.4039 26.9104C30.8244 27.1363 30.3478 27.5668 30.0635 28.1213C29.9688 28.4857 29.9669 28.8685 30.0578 29.2348C30.1487 29.6011 30.3297 29.9392 30.5841 30.218C30.8385 30.4969 31.1581 30.7076 31.5139 30.8309C31.8696 30.9542 32.2501 30.9861 32.6204 30.9238V30.9238Z" fill="#FCAF34"/>
<path d="M43.5401 34.617C43.9474 34.5546 44.3257 34.3698 44.6253 34.0872C44.9249 33.8046 45.1319 33.4372 45.219 33.0334C45.324 32.5786 45.2853 32.1017 45.1084 31.6684C44.9315 31.2352 44.6249 30.8672 44.2314 30.6153C43.8378 30.3634 43.3765 30.2401 42.9114 30.2624C42.4463 30.2847 42.0004 30.4515 41.6354 30.7398C40.2174 31.9662 41.6987 34.7855 43.5401 34.617Z" fill="#F3F3FF"/>
<path d="M62.9954 53.9308C63.402 53.862 63.7782 53.6725 64.0754 53.3868C64.3726 53.101 64.5773 52.7321 64.6631 52.3275C64.7681 51.8728 64.7294 51.3958 64.5525 50.9626C64.3755 50.5294 64.0691 50.1613 63.6755 49.9094C63.2819 49.6575 62.8206 49.5342 62.3555 49.5565C61.8904 49.5788 61.4445 49.7456 61.0794 50.0339C59.5948 51.3245 61.1735 54.0881 62.9954 53.9308Z" fill="#FCAF34"/>
<path d="M27.7652 43.6317C27.9987 44.1928 28.3903 44.6739 28.8917 45.0158C29.242 45.1976 29.6363 45.2756 30.0281 45.2404C30.4199 45.2053 30.793 45.0586 31.1035 44.8175C31.408 44.5688 31.6509 44.2528 31.8133 43.894C31.9757 43.5351 32.0533 43.143 32.04 42.7483C32.0248 42.2238 31.8542 41.715 31.5498 41.2869C31.2454 40.8588 30.8212 40.5309 30.3313 40.345C29.9001 40.2173 29.4412 40.222 29.014 40.3586C28.5869 40.4951 28.2109 40.7572 27.9347 41.1109C27.6585 41.4647 27.4948 41.8939 27.4645 42.3432C27.4343 42.7926 27.5391 43.2413 27.7652 43.6317Z" fill="#F3F3FF"/>
<path d="M38.0931 43.5789C38.2368 43.9214 38.4624 44.2234 38.7498 44.4583C39.0372 44.6931 39.3774 44.8535 39.7405 44.9251C40.344 44.9491 40.9414 44.8056 41.4671 44.5103C41.6776 44.4292 41.8746 44.3166 42.0513 44.1763C42.2316 43.9568 42.3578 43.6976 42.42 43.4197C42.517 43.0214 42.5245 42.6061 42.442 42.2036C42.3595 41.8011 42.1892 41.4215 41.9431 41.0923C41.6911 40.7672 41.3629 40.5097 40.988 40.3428C40.6131 40.1759 40.2031 40.1048 39.7951 40.136C39.4246 40.1945 39.0738 40.3409 38.7719 40.5631C38.47 40.7853 38.2257 41.0768 38.0593 41.4135C37.8928 41.7502 37.809 42.1224 37.8149 42.499C37.8208 42.8756 37.9162 43.2458 38.0931 43.5789V43.5789Z" fill="#F3F3FF"/>
<path d="M35.7175 56.195C36.0339 56.5602 36.4582 56.8144 36.9279 56.9203C37.3977 57.0262 37.8881 56.9782 38.3271 56.7834C38.7893 56.6137 39.1945 56.3179 39.4972 55.929C39.7999 55.5401 39.988 55.0736 40.0405 54.5821C40.4889 50.1659 32.7967 52.6646 35.7175 56.195Z" fill="#FCAF34"/>
<path d="M54.7703 52.8738C55.0004 52.747 55.1998 52.5709 55.3542 52.3581C55.4936 52.0743 55.5715 51.764 55.5831 51.4473C55.6525 50.9606 55.5995 50.4636 55.4289 50.0014C54.6248 48.2771 51.145 48.472 50.9413 50.5124C50.8671 50.988 50.9353 51.4756 51.1373 51.9137C51.3392 52.3517 51.6658 52.7205 52.0757 52.9733C52.4857 53.2261 52.9606 53.3516 53.4402 53.3339C53.9199 53.3162 54.3828 53.1561 54.7703 52.8738Z" fill="#F3F3FF"/>
<path d="M44.2206 59.8642C44.4824 60.1693 44.8202 60.399 45.1993 60.5298C45.5783 60.6606 45.9846 60.6876 46.3764 60.608C46.7733 60.5228 47.1338 60.3168 47.4087 60.018C47.6555 59.6766 47.7921 59.267 47.7999 58.8442C47.8078 58.4215 47.6866 58.0059 47.4527 57.6529C47.2207 57.2071 46.8312 56.8639 46.3608 56.691C45.9449 56.5175 45.4828 56.493 45.0524 56.6215C44.6221 56.7501 44.2499 57.0238 43.9985 57.3965C43.7472 57.7692 43.632 58.2182 43.6725 58.6677C43.7129 59.1172 43.9065 59.5398 44.2206 59.8642V59.8642Z" fill="#F3F3FF"/>
<path d="M40.9825 66.0667C41.9611 63.6642 37.7292 62.5877 36.913 65.0031C36.0969 67.4186 39.9003 68.7401 40.9825 66.0667Z" fill="#F3F3FF"/>
<path d="M28.2879 72.5834C28.7283 72.5536 29.1494 72.3942 29.4988 72.1252C29.8367 71.8284 30.0655 71.4265 30.1492 70.9831C30.2328 70.5396 30.1665 70.0801 29.9606 69.6773C29.7527 69.3019 29.4429 68.9931 29.0673 68.7872C28.6918 68.5813 28.2659 68.4868 27.8399 68.5147C27.4139 68.5427 27.0054 68.6918 26.6621 68.9449C26.3187 69.1979 26.0549 69.5443 25.9015 69.9434C25.0167 71.5151 26.7781 72.7443 28.2879 72.5834Z" fill="#FCAF34"/>
</g>
<defs>
<clipPath id="clip0_303_267">
<rect width="85" height="85" fill="white"/>
</clipPath>
</defs>
</svg>
