<svg width="1920" height="302" viewBox="0 0 1920 302" fill="none" xmlns="http://www.w3.org/2000/svg">
<g clip-path="url(#clip0_303_215)">
<path opacity="0.2" d="M1928 287C1720.5 326.5 1567.5 101.837 1230 89.8164C996.5 81.4998 836 280.001 608.5 280.001C487.5 280.001 375 136.924 298 97.0004C214.5 53.7067 92 49.5 0 49.5" stroke="#F2F2FF" stroke-width="5"/>
</g>
<g filter="url(#filter0_f_303_215)">
<circle cx="422.774" cy="191.774" r="10" transform="rotate(19.5857 422.774 191.774)" fill="#FCAF34"/>
</g>
<circle cx="422.774" cy="191.774" r="10" transform="rotate(19.5857 422.774 191.774)" fill="#FCAF34"/>
<circle cx="424.449" cy="187.065" r="5" transform="rotate(19.5857 424.449 187.065)" fill="#FFE336"/>
<g filter="url(#filter1_f_303_215)">
<circle cx="220.792" cy="69.0626" r="10" transform="rotate(19.5857 220.792 69.0626)" fill="#FCAF34"/>
</g>
<circle cx="220.792" cy="69.0626" r="10" transform="rotate(19.5857 220.792 69.0626)" fill="#FCAF34"/>
<circle cx="222.468" cy="64.3536" r="5" transform="rotate(19.5857 222.468 64.3536)" fill="#FFE336"/>
<g filter="url(#filter2_f_303_215)">
<circle cx="14.7736" cy="48.7736" r="10" transform="rotate(19.5857 14.7736 48.7736)" fill="#FCAF34"/>
</g>
<circle cx="14.7736" cy="48.7736" r="10" transform="rotate(19.5857 14.7736 48.7736)" fill="#FCAF34"/>
<circle cx="16.4492" cy="44.0645" r="5" transform="rotate(19.5857 16.4492 44.0645)" fill="#FFE336"/>
<g filter="url(#filter3_f_303_215)">
<circle cx="1179.43" cy="90.7502" r="10" transform="rotate(8.9491 1179.43 90.7502)" fill="#FCAF34"/>
</g>
<circle cx="1179.43" cy="90.7502" r="10" transform="rotate(8.9491 1179.43 90.7502)" fill="#FCAF34"/>
<circle cx="1180.21" cy="85.8126" r="5" transform="rotate(8.9491 1180.21 85.8126)" fill="#FFE336"/>
<g filter="url(#filter4_f_303_215)">
<circle cx="1375.43" cy="107.434" r="10" transform="rotate(8.9491 1375.43 107.434)" fill="#FCAF34"/>
</g>
<circle cx="1375.43" cy="107.434" r="10" transform="rotate(8.9491 1375.43 107.434)" fill="#FCAF34"/>
<circle cx="1376.21" cy="102.496" r="5" transform="rotate(8.9491 1376.21 102.496)" fill="#FFE336"/>
<g filter="url(#filter5_f_303_215)">
<circle cx="1572.43" cy="179.434" r="10" transform="rotate(8.9491 1572.43 179.434)" fill="#FCAF34"/>
</g>
<circle cx="1572.43" cy="179.434" r="10" transform="rotate(8.9491 1572.43 179.434)" fill="#FCAF34"/>
<circle cx="1573.21" cy="174.496" r="5" transform="rotate(8.9491 1573.21 174.496)" fill="#FFE336"/>
<g filter="url(#filter6_f_303_215)">
<circle cx="1769.43" cy="270.434" r="10" transform="rotate(8.9491 1769.43 270.434)" fill="#FCAF34"/>
</g>
<circle cx="1769.43" cy="270.434" r="10" transform="rotate(8.9491 1769.43 270.434)" fill="#FCAF34"/>
<circle cx="1770.21" cy="265.496" r="5" transform="rotate(8.9491 1770.21 265.496)" fill="#FFE336"/>
<g filter="url(#filter7_f_303_215)">
<circle cx="982.434" cy="149.434" r="10" transform="rotate(8.9491 982.434 149.434)" fill="#FCAF34"/>
</g>
<circle cx="982.434" cy="149.434" r="10" transform="rotate(8.9491 982.434 149.434)" fill="#FCAF34"/>
<circle cx="983.212" cy="144.496" r="5" transform="rotate(8.9491 983.212 144.496)" fill="#FFE336"/>
<g filter="url(#filter8_f_303_215)">
<circle cx="356.187" cy="137.187" r="10" transform="rotate(23.8255 356.187 137.187)" fill="#E64939"/>
</g>
<circle cx="356.188" cy="137.187" r="10" transform="rotate(23.8255 356.188 137.187)" fill="#E64939"/>
<circle cx="358.208" cy="132.613" r="5" transform="rotate(23.8255 358.208 132.613)" fill="#F26652"/>
<g filter="url(#filter9_f_303_215)">
<circle cx="154.189" cy="58.1873" r="10" transform="rotate(23.8255 154.189 58.1873)" fill="#E64939"/>
</g>
<circle cx="154.189" cy="58.1873" r="10" transform="rotate(23.8255 154.189 58.1873)" fill="#E64939"/>
<circle cx="156.209" cy="53.6132" r="5" transform="rotate(23.8255 156.209 53.6132)" fill="#F26652"/>
<g filter="url(#filter10_f_303_215)">
<circle cx="1115.02" cy="100.334" r="10" transform="rotate(13.1889 1115.02 100.334)" fill="#E64939"/>
</g>
<circle cx="1115.02" cy="100.334" r="10" transform="rotate(13.1889 1115.02 100.334)" fill="#E64939"/>
<circle cx="1116.16" cy="95.466" r="5" transform="rotate(13.1889 1116.16 95.466)" fill="#F26652"/>
<g filter="url(#filter11_f_303_215)">
<circle cx="918.018" cy="181.018" r="10" transform="rotate(13.1889 918.018 181.018)" fill="#E64939"/>
</g>
<circle cx="918.018" cy="181.018" r="10" transform="rotate(13.1889 918.018 181.018)" fill="#E64939"/>
<circle cx="919.159" cy="176.15" r="5" transform="rotate(13.1889 919.159 176.15)" fill="#F26652"/>
<g filter="url(#filter12_f_303_215)">
<circle cx="1312.01" cy="95.3343" r="10" transform="rotate(13.1889 1312.01 95.3343)" fill="#E64939"/>
</g>
<circle cx="1312.01" cy="95.3343" r="10" transform="rotate(13.1889 1312.01 95.3343)" fill="#E64939"/>
<circle cx="1313.15" cy="90.466" r="5" transform="rotate(13.1889 1313.15 90.466)" fill="#F26652"/>
<g filter="url(#filter13_f_303_215)">
<circle cx="1508.02" cy="151.018" r="10" transform="rotate(13.1889 1508.02 151.018)" fill="#E64939"/>
</g>
<circle cx="1508.02" cy="151.018" r="10" transform="rotate(13.1889 1508.02 151.018)" fill="#E64939"/>
<circle cx="1509.16" cy="146.15" r="5" transform="rotate(13.1889 1509.16 146.15)" fill="#F26652"/>
<g filter="url(#filter14_f_303_215)">
<circle cx="1705.02" cy="245.018" r="10" transform="rotate(13.1889 1705.02 245.018)" fill="#E64939"/>
</g>
<circle cx="1705.02" cy="245.018" r="10" transform="rotate(13.1889 1705.02 245.018)" fill="#E64939"/>
<circle cx="1706.16" cy="240.15" r="5" transform="rotate(13.1889 1706.16 240.15)" fill="#F26652"/>
<circle cx="490.137" cy="241.288" r="10" transform="rotate(-146.125 490.137 241.288)" fill="#2B9126"/>
<circle cx="487.351" cy="245.439" r="5" transform="rotate(-146.125 487.351 245.439)" fill="#40AB30"/>
<g filter="url(#filter15_f_303_215)">
<circle cx="490.216" cy="241.192" r="10" transform="rotate(-147.451 490.216 241.192)" fill="#2B9126"/>
</g>
<circle cx="490.216" cy="241.192" r="10" transform="rotate(-147.451 490.216 241.192)" fill="#2B9126"/>
<circle cx="490.216" cy="241.192" r="10" transform="rotate(-147.451 490.216 241.192)" fill="#2B9126"/>
<circle cx="487.527" cy="245.406" r="5" transform="rotate(-147.451 487.527 245.406)" fill="#40AB30"/>
<circle cx="288.136" cy="91.274" r="10" transform="rotate(-146.125 288.136 91.274)" fill="#2B9126"/>
<circle cx="285.35" cy="95.4251" r="5" transform="rotate(-146.125 285.35 95.4251)" fill="#40AB30"/>
<g filter="url(#filter16_f_303_215)">
<circle cx="288.215" cy="91.1788" r="10" transform="rotate(-147.451 288.215 91.1788)" fill="#2B9126"/>
</g>
<circle cx="288.215" cy="91.1788" r="10" transform="rotate(-147.451 288.215 91.1788)" fill="#2B9126"/>
<circle cx="288.215" cy="91.1788" r="10" transform="rotate(-147.451 288.215 91.1788)" fill="#2B9126"/>
<circle cx="285.525" cy="95.3921" r="5" transform="rotate(-147.451 285.525 95.3921)" fill="#40AB30"/>
<circle cx="86.1148" cy="51.2857" r="10" transform="rotate(-146.125 86.1148 51.2857)" fill="#2B9126"/>
<circle cx="83.3288" cy="55.4368" r="5" transform="rotate(-146.125 83.3288 55.4368)" fill="#40AB30"/>
<g filter="url(#filter17_f_303_215)">
<circle cx="86.1938" cy="51.1905" r="10" transform="rotate(-147.451 86.1938 51.1905)" fill="#2B9126"/>
</g>
<circle cx="86.1938" cy="51.1905" r="10" transform="rotate(-147.451 86.1938 51.1905)" fill="#2B9126"/>
<circle cx="86.1938" cy="51.1905" r="10" transform="rotate(-147.451 86.1938 51.1905)" fill="#2B9126"/>
<circle cx="83.5047" cy="55.4038" r="5" transform="rotate(-147.451 83.5047 55.4038)" fill="#40AB30"/>
<circle cx="1048.12" cy="123.606" r="10" transform="rotate(-146.125 1048.12 123.606)" fill="#2B9126"/>
<circle cx="1045.33" cy="127.757" r="5" transform="rotate(-146.125 1045.33 127.757)" fill="#40AB30"/>
<g filter="url(#filter18_f_303_215)">
<circle cx="1048.2" cy="123.511" r="10" transform="rotate(-147.451 1048.2 123.511)" fill="#2B9126"/>
</g>
<circle cx="1048.2" cy="123.511" r="10" transform="rotate(-147.451 1048.2 123.511)" fill="#2B9126"/>
<circle cx="1048.2" cy="123.511" r="10" transform="rotate(-147.451 1048.2 123.511)" fill="#2B9126"/>
<circle cx="1045.51" cy="127.724" r="5" transform="rotate(-147.451 1045.51 127.724)" fill="#40AB30"/>
<circle cx="1245.11" cy="90.2857" r="10" transform="rotate(-146.125 1245.11 90.2857)" fill="#2B9126"/>
<circle cx="1242.32" cy="94.4368" r="5" transform="rotate(-146.125 1242.32 94.4368)" fill="#40AB30"/>
<g filter="url(#filter19_f_303_215)">
<circle cx="1245.19" cy="90.1905" r="10" transform="rotate(-147.451 1245.19 90.1905)" fill="#2B9126"/>
</g>
<circle cx="1245.19" cy="90.1905" r="10" transform="rotate(-147.451 1245.19 90.1905)" fill="#2B9126"/>
<circle cx="1245.19" cy="90.1905" r="10" transform="rotate(-147.451 1245.19 90.1905)" fill="#2B9126"/>
<circle cx="1242.5" cy="94.4038" r="5" transform="rotate(-147.451 1242.5 94.4038)" fill="#40AB30"/>
<circle cx="1441.11" cy="125.999" r="10" transform="rotate(-146.125 1441.11 125.999)" fill="#2B9126"/>
<circle cx="1438.33" cy="130.15" r="5" transform="rotate(-146.125 1438.33 130.15)" fill="#40AB30"/>
<g filter="url(#filter20_f_303_215)">
<circle cx="1441.19" cy="125.903" r="10" transform="rotate(-147.451 1441.19 125.903)" fill="#2B9126"/>
</g>
<circle cx="1441.19" cy="125.903" r="10" transform="rotate(-147.451 1441.19 125.903)" fill="#2B9126"/>
<circle cx="1441.19" cy="125.903" r="10" transform="rotate(-147.451 1441.19 125.903)" fill="#2B9126"/>
<circle cx="1438.51" cy="130.117" r="5" transform="rotate(-147.451 1438.51 130.117)" fill="#40AB30"/>
<circle cx="1638.11" cy="213.999" r="10" transform="rotate(-146.125 1638.11 213.999)" fill="#2B9126"/>
<circle cx="1635.33" cy="218.15" r="5" transform="rotate(-146.125 1635.33 218.15)" fill="#40AB30"/>
<g filter="url(#filter21_f_303_215)">
<circle cx="1638.19" cy="213.903" r="10" transform="rotate(-147.451 1638.19 213.903)" fill="#2B9126"/>
</g>
<circle cx="1638.19" cy="213.903" r="10" transform="rotate(-147.451 1638.19 213.903)" fill="#2B9126"/>
<circle cx="1638.19" cy="213.903" r="10" transform="rotate(-147.451 1638.19 213.903)" fill="#2B9126"/>
<circle cx="1635.51" cy="218.117" r="5" transform="rotate(-147.451 1635.51 218.117)" fill="#40AB30"/>
<circle cx="1835.12" cy="287.288" r="10" transform="rotate(-146.125 1835.12 287.288)" fill="#2B9126"/>
<circle cx="1832.33" cy="291.439" r="5" transform="rotate(-146.125 1832.33 291.439)" fill="#40AB30"/>
<g filter="url(#filter22_f_303_215)">
<circle cx="1835.19" cy="287.192" r="10" transform="rotate(-147.451 1835.19 287.192)" fill="#2B9126"/>
</g>
<circle cx="1835.19" cy="287.192" r="10" transform="rotate(-147.451 1835.19 287.192)" fill="#2B9126"/>
<circle cx="1835.19" cy="287.192" r="10" transform="rotate(-147.451 1835.19 287.192)" fill="#2B9126"/>
<circle cx="1832.51" cy="291.406" r="5" transform="rotate(-147.451 1832.51 291.406)" fill="#40AB30"/>
<defs>
<filter id="filter0_f_303_215" x="408.771" y="177.771" width="28.0056" height="28.0039" filterUnits="userSpaceOnUse" color-interpolation-filters="sRGB">
<feFlood flood-opacity="0" result="BackgroundImageFix"/>
<feBlend mode="normal" in="SourceGraphic" in2="BackgroundImageFix" result="shape"/>
<feGaussianBlur stdDeviation="2" result="effect1_foregroundBlur_303_215"/>
</filter>
<filter id="filter1_f_303_215" x="206.789" y="55.0605" width="28.0056" height="28.0039" filterUnits="userSpaceOnUse" color-interpolation-filters="sRGB">
<feFlood flood-opacity="0" result="BackgroundImageFix"/>
<feBlend mode="normal" in="SourceGraphic" in2="BackgroundImageFix" result="shape"/>
<feGaussianBlur stdDeviation="2" result="effect1_foregroundBlur_303_215"/>
</filter>
<filter id="filter2_f_303_215" x="0.770752" y="34.7715" width="28.0056" height="28.0039" filterUnits="userSpaceOnUse" color-interpolation-filters="sRGB">
<feFlood flood-opacity="0" result="BackgroundImageFix"/>
<feBlend mode="normal" in="SourceGraphic" in2="BackgroundImageFix" result="shape"/>
<feGaussianBlur stdDeviation="2" result="effect1_foregroundBlur_303_215"/>
</filter>
<filter id="filter3_f_303_215" x="1165.43" y="76.748" width="28.0028" height="28.0039" filterUnits="userSpaceOnUse" color-interpolation-filters="sRGB">
<feFlood flood-opacity="0" result="BackgroundImageFix"/>
<feBlend mode="normal" in="SourceGraphic" in2="BackgroundImageFix" result="shape"/>
<feGaussianBlur stdDeviation="2" result="effect1_foregroundBlur_303_215"/>
</filter>
<filter id="filter4_f_303_215" x="1361.43" y="93.4316" width="28.0028" height="28.0039" filterUnits="userSpaceOnUse" color-interpolation-filters="sRGB">
<feFlood flood-opacity="0" result="BackgroundImageFix"/>
<feBlend mode="normal" in="SourceGraphic" in2="BackgroundImageFix" result="shape"/>
<feGaussianBlur stdDeviation="2" result="effect1_foregroundBlur_303_215"/>
</filter>
<filter id="filter5_f_303_215" x="1558.43" y="165.432" width="28.0028" height="28.0039" filterUnits="userSpaceOnUse" color-interpolation-filters="sRGB">
<feFlood flood-opacity="0" result="BackgroundImageFix"/>
<feBlend mode="normal" in="SourceGraphic" in2="BackgroundImageFix" result="shape"/>
<feGaussianBlur stdDeviation="2" result="effect1_foregroundBlur_303_215"/>
</filter>
<filter id="filter6_f_303_215" x="1755.43" y="256.432" width="28.0029" height="28.0039" filterUnits="userSpaceOnUse" color-interpolation-filters="sRGB">
<feFlood flood-opacity="0" result="BackgroundImageFix"/>
<feBlend mode="normal" in="SourceGraphic" in2="BackgroundImageFix" result="shape"/>
<feGaussianBlur stdDeviation="2" result="effect1_foregroundBlur_303_215"/>
</filter>
<filter id="filter7_f_303_215" x="968.433" y="135.432" width="28.0028" height="28.0039" filterUnits="userSpaceOnUse" color-interpolation-filters="sRGB">
<feFlood flood-opacity="0" result="BackgroundImageFix"/>
<feBlend mode="normal" in="SourceGraphic" in2="BackgroundImageFix" result="shape"/>
<feGaussianBlur stdDeviation="2" result="effect1_foregroundBlur_303_215"/>
</filter>
<filter id="filter8_f_303_215" x="342.185" y="123.186" width="28.0051" height="28.0039" filterUnits="userSpaceOnUse" color-interpolation-filters="sRGB">
<feFlood flood-opacity="0" result="BackgroundImageFix"/>
<feBlend mode="normal" in="SourceGraphic" in2="BackgroundImageFix" result="shape"/>
<feGaussianBlur stdDeviation="2" result="effect1_foregroundBlur_303_215"/>
</filter>
<filter id="filter9_f_303_215" x="140.186" y="44.1855" width="28.0051" height="28.0039" filterUnits="userSpaceOnUse" color-interpolation-filters="sRGB">
<feFlood flood-opacity="0" result="BackgroundImageFix"/>
<feBlend mode="normal" in="SourceGraphic" in2="BackgroundImageFix" result="shape"/>
<feGaussianBlur stdDeviation="2" result="effect1_foregroundBlur_303_215"/>
</filter>
<filter id="filter10_f_303_215" x="1101.02" y="86.332" width="28.0045" height="28.0039" filterUnits="userSpaceOnUse" color-interpolation-filters="sRGB">
<feFlood flood-opacity="0" result="BackgroundImageFix"/>
<feBlend mode="normal" in="SourceGraphic" in2="BackgroundImageFix" result="shape"/>
<feGaussianBlur stdDeviation="2" result="effect1_foregroundBlur_303_215"/>
</filter>
<filter id="filter11_f_303_215" x="904.016" y="167.016" width="28.0045" height="28.0039" filterUnits="userSpaceOnUse" color-interpolation-filters="sRGB">
<feFlood flood-opacity="0" result="BackgroundImageFix"/>
<feBlend mode="normal" in="SourceGraphic" in2="BackgroundImageFix" result="shape"/>
<feGaussianBlur stdDeviation="2" result="effect1_foregroundBlur_303_215"/>
</filter>
<filter id="filter12_f_303_215" x="1298.01" y="81.332" width="28.0045" height="28.0039" filterUnits="userSpaceOnUse" color-interpolation-filters="sRGB">
<feFlood flood-opacity="0" result="BackgroundImageFix"/>
<feBlend mode="normal" in="SourceGraphic" in2="BackgroundImageFix" result="shape"/>
<feGaussianBlur stdDeviation="2" result="effect1_foregroundBlur_303_215"/>
</filter>
<filter id="filter13_f_303_215" x="1494.02" y="137.016" width="28.0045" height="28.0039" filterUnits="userSpaceOnUse" color-interpolation-filters="sRGB">
<feFlood flood-opacity="0" result="BackgroundImageFix"/>
<feBlend mode="normal" in="SourceGraphic" in2="BackgroundImageFix" result="shape"/>
<feGaussianBlur stdDeviation="2" result="effect1_foregroundBlur_303_215"/>
</filter>
<filter id="filter14_f_303_215" x="1691.02" y="231.016" width="28.0045" height="28.0039" filterUnits="userSpaceOnUse" color-interpolation-filters="sRGB">
<feFlood flood-opacity="0" result="BackgroundImageFix"/>
<feBlend mode="normal" in="SourceGraphic" in2="BackgroundImageFix" result="shape"/>
<feGaussianBlur stdDeviation="2" result="effect1_foregroundBlur_303_215"/>
</filter>
<filter id="filter15_f_303_215" x="476.215" y="227.191" width="28.0024" height="28.002" filterUnits="userSpaceOnUse" color-interpolation-filters="sRGB">
<feFlood flood-opacity="0" result="BackgroundImageFix"/>
<feBlend mode="normal" in="SourceGraphic" in2="BackgroundImageFix" result="shape"/>
<feGaussianBlur stdDeviation="2" result="effect1_foregroundBlur_303_215"/>
</filter>
<filter id="filter16_f_303_215" x="274.213" y="77.1777" width="28.0024" height="28.002" filterUnits="userSpaceOnUse" color-interpolation-filters="sRGB">
<feFlood flood-opacity="0" result="BackgroundImageFix"/>
<feBlend mode="normal" in="SourceGraphic" in2="BackgroundImageFix" result="shape"/>
<feGaussianBlur stdDeviation="2" result="effect1_foregroundBlur_303_215"/>
</filter>
<filter id="filter17_f_303_215" x="72.1926" y="37.1895" width="28.0024" height="28.002" filterUnits="userSpaceOnUse" color-interpolation-filters="sRGB">
<feFlood flood-opacity="0" result="BackgroundImageFix"/>
<feBlend mode="normal" in="SourceGraphic" in2="BackgroundImageFix" result="shape"/>
<feGaussianBlur stdDeviation="2" result="effect1_foregroundBlur_303_215"/>
</filter>
<filter id="filter18_f_303_215" x="1034.19" y="109.51" width="28.0026" height="28.002" filterUnits="userSpaceOnUse" color-interpolation-filters="sRGB">
<feFlood flood-opacity="0" result="BackgroundImageFix"/>
<feBlend mode="normal" in="SourceGraphic" in2="BackgroundImageFix" result="shape"/>
<feGaussianBlur stdDeviation="2" result="effect1_foregroundBlur_303_215"/>
</filter>
<filter id="filter19_f_303_215" x="1231.19" y="76.1895" width="28.0026" height="28.002" filterUnits="userSpaceOnUse" color-interpolation-filters="sRGB">
<feFlood flood-opacity="0" result="BackgroundImageFix"/>
<feBlend mode="normal" in="SourceGraphic" in2="BackgroundImageFix" result="shape"/>
<feGaussianBlur stdDeviation="2" result="effect1_foregroundBlur_303_215"/>
</filter>
<filter id="filter20_f_303_215" x="1427.19" y="111.902" width="28.0026" height="28.002" filterUnits="userSpaceOnUse" color-interpolation-filters="sRGB">
<feFlood flood-opacity="0" result="BackgroundImageFix"/>
<feBlend mode="normal" in="SourceGraphic" in2="BackgroundImageFix" result="shape"/>
<feGaussianBlur stdDeviation="2" result="effect1_foregroundBlur_303_215"/>
</filter>
<filter id="filter21_f_303_215" x="1624.19" y="199.902" width="28.0026" height="28.002" filterUnits="userSpaceOnUse" color-interpolation-filters="sRGB">
<feFlood flood-opacity="0" result="BackgroundImageFix"/>
<feBlend mode="normal" in="SourceGraphic" in2="BackgroundImageFix" result="shape"/>
<feGaussianBlur stdDeviation="2" result="effect1_foregroundBlur_303_215"/>
</filter>
<filter id="filter22_f_303_215" x="1821.19" y="273.191" width="28.0025" height="28.002" filterUnits="userSpaceOnUse" color-interpolation-filters="sRGB">
<feFlood flood-opacity="0" result="BackgroundImageFix"/>
<feBlend mode="normal" in="SourceGraphic" in2="BackgroundImageFix" result="shape"/>
<feGaussianBlur stdDeviation="2" result="effect1_foregroundBlur_303_215"/>
</filter>
<clipPath id="clip0_303_215">
<rect width="1920" height="294" fill="white"/>
</clipPath>
</defs>
</svg>
