<svg width="208" height="209" viewBox="0 0 208 209" fill="none" xmlns="http://www.w3.org/2000/svg">
<g opacity="0.4" filter="url(#filter0_f_303_269)">
<path fill-rule="evenodd" clip-rule="evenodd" d="M135.307 89.1752C124.349 101.222 120.126 117.439 123.804 133.382C124.375 135.866 121.504 137.54 119.624 135.82C107.559 124.768 91.3638 120.457 75.4825 124.063C73.0082 124.624 71.3242 121.736 73.0304 119.859C83.9909 107.815 88.2136 91.5976 84.5334 75.6523C83.9622 73.1682 86.8332 71.4939 88.714 73.2143C100.78 84.269 116.976 88.5796 132.855 84.9707C135.329 84.4102 137.013 87.2977 135.307 89.1752Z" fill="#FFE336"/>
</g>
<path fill-rule="evenodd" clip-rule="evenodd" d="M133.767 102.585C125.395 111.789 122.169 124.179 124.979 136.359C125.415 138.256 123.222 139.535 121.785 138.221C112.568 129.778 100.195 126.485 88.0616 129.239C86.1712 129.668 84.8846 127.462 86.1882 126.027C94.5619 116.826 97.788 104.436 94.9764 92.2539C94.5399 90.3561 96.7333 89.077 98.1703 90.3913C107.389 98.837 119.762 102.13 131.894 99.3731C133.784 98.9449 135.071 101.151 133.767 102.585Z" fill="#FFE336"/>
<g opacity="0.4" filter="url(#filter1_f_303_269)">
<path fill-rule="evenodd" clip-rule="evenodd" d="M83.896 82.2369C77.2246 89.5705 74.6539 99.4435 76.8932 109.149C77.241 110.661 75.4932 111.68 74.3482 110.633C67.0035 103.905 57.1442 101.281 47.4761 103.476C45.9698 103.817 44.9446 102.059 45.9833 100.916C52.6558 93.5846 55.2265 83.7115 52.986 74.0044C52.6383 72.4921 54.386 71.4729 55.5311 72.5202C62.8769 79.25 72.7361 81.8743 82.4032 79.6773C83.9095 79.3361 84.9347 81.0939 83.896 82.2369Z" fill="#FFE336"/>
</g>
<path fill-rule="evenodd" clip-rule="evenodd" d="M82.9584 90.4C77.8615 96.0028 75.8975 103.546 77.6084 110.96C77.8741 112.116 76.5388 112.895 75.664 112.094C70.0527 106.954 62.5203 104.949 55.1339 106.626C53.9831 106.887 53.1999 105.544 53.9934 104.671C59.0911 99.0696 61.0551 91.5267 59.3435 84.1105C59.0778 82.9552 60.413 82.1765 61.2878 82.9766C66.9 88.1181 74.4324 90.1231 81.8179 88.4445C82.9687 88.1839 83.7519 89.5268 82.9584 90.4Z" fill="#FFE336"/>
<g opacity="0.4" filter="url(#filter2_f_303_269)">
<path fill-rule="evenodd" clip-rule="evenodd" d="M74.755 118.693C71.3097 122.48 69.982 127.579 71.1385 132.591C71.3181 133.372 70.4155 133.899 69.8241 133.358C66.0311 129.883 60.9393 128.528 55.9463 129.661C55.1684 129.838 54.6389 128.93 55.1753 128.34C58.6213 124.553 59.9489 119.454 58.7919 114.441C58.6123 113.66 59.5149 113.134 60.1062 113.675C63.8999 117.15 68.9916 118.505 73.9841 117.371C74.762 117.195 75.2914 118.102 74.755 118.693Z" fill="#FFE336"/>
</g>
<path fill-rule="evenodd" clip-rule="evenodd" d="M74.2706 122.909C71.6384 125.802 70.6241 129.698 71.5076 133.527C71.6448 134.123 70.9552 134.526 70.5035 134.112C67.6056 131.458 63.7155 130.422 59.9009 131.289C59.3066 131.423 58.9021 130.73 59.3119 130.279C61.9446 127.386 62.9589 123.49 62.0749 119.66C61.9377 119.064 62.6273 118.662 63.079 119.075C65.9774 121.73 69.8674 122.765 73.6816 121.899C74.2759 121.764 74.6804 122.458 74.2706 122.909Z" fill="#FFE336"/>
<defs>
<filter id="filter0_f_303_269" x="0.638824" y="0.812164" width="207.06" height="207.41" filterUnits="userSpaceOnUse" color-interpolation-filters="sRGB">
<feFlood flood-opacity="0" result="BackgroundImageFix"/>
<feBlend mode="normal" in="SourceGraphic" in2="BackgroundImageFix" result="shape"/>
<feGaussianBlur stdDeviation="35.8493" result="effect1_foregroundBlur_303_269"/>
</filter>
<filter id="filter1_f_303_269" x="1.9138" y="28.4441" width="126.052" height="126.265" filterUnits="userSpaceOnUse" color-interpolation-filters="sRGB">
<feFlood flood-opacity="0" result="BackgroundImageFix"/>
<feBlend mode="normal" in="SourceGraphic" in2="BackgroundImageFix" result="shape"/>
<feGaussianBlur stdDeviation="21.8239" result="effect1_foregroundBlur_303_269"/>
</filter>
<filter id="filter2_f_303_269" x="32.416" y="90.9116" width="65.0984" height="65.209" filterUnits="userSpaceOnUse" color-interpolation-filters="sRGB">
<feFlood flood-opacity="0" result="BackgroundImageFix"/>
<feBlend mode="normal" in="SourceGraphic" in2="BackgroundImageFix" result="shape"/>
<feGaussianBlur stdDeviation="11.2708" result="effect1_foregroundBlur_303_269"/>
</filter>
</defs>
</svg>
