<svg width="48" height="53" viewBox="0 0 48 53" fill="none" xmlns="http://www.w3.org/2000/svg">
<circle cx="24" cy="28.4766" r="24" fill="#E64939"/>
<rect x="28.4413" width="9" height="5" transform="rotate(17.3094 28.4413 0)" fill="#FCAF34"/>
<path d="M24 17C21.8244 17 19.6977 17.6451 17.8887 18.8538C16.0798 20.0625 14.6699 21.7805 13.8373 23.7905C13.0048 25.8005 12.7869 28.0122 13.2114 30.146C13.6358 32.2798 14.6835 34.2398 16.2218 35.7782C17.7602 37.3165 19.7202 38.3642 21.854 38.7886C23.9878 39.2131 26.1995 38.9952 28.2095 38.1627C30.2195 37.3301 31.9375 35.9202 33.1462 34.1113C34.3549 32.3023 35 30.1756 35 28C35 26.5555 34.7155 25.1251 34.1627 23.7905C33.6099 22.4559 32.7996 21.2433 31.7782 20.2218C30.7567 19.2004 29.5441 18.3901 28.2095 17.8373C26.8749 17.2845 25.4445 17 24 17ZM24 19.2C26.2602 19.1991 28.4327 20.0744 30.061 21.642C28.3802 22.6278 26.5992 23.4317 24.748 24.04C23.8267 22.4525 22.7705 20.9473 21.591 19.541C22.3742 19.3155 23.185 19.2007 24 19.2ZM19.479 20.465C20.6315 21.7834 21.6658 23.2005 22.57 24.7C20.4108 25.2361 18.1948 25.5095 15.97 25.514H15.574C16.1979 23.4016 17.5913 21.6 19.479 20.465ZM17.4 33.841C15.9686 32.2336 15.1847 30.1523 15.2 28C15.2 27.89 15.2 27.78 15.2 27.681H15.948C18.5521 27.6577 21.1415 27.2878 23.648 26.581C24 27.252 24.33 27.945 24.649 28.66C22.9346 29.2644 21.338 30.1613 19.93 31.311L19.6 31.575C18.8158 32.2793 18.0808 33.0364 17.4 33.841ZM24 36.8C22.2467 36.8039 20.533 36.2787 19.083 35.293C19.6185 34.6787 20.1916 34.0983 20.799 33.555L21.151 33.258C22.4525 32.1634 23.9439 31.317 25.551 30.761C26.2125 32.5496 26.7275 34.389 27.091 36.261C26.1008 36.6225 25.0541 36.8051 24 36.8ZM29.093 35.161C28.7331 33.4962 28.2627 31.8573 27.685 30.255H28.059C28.1023 30.2443 28.1477 30.2443 28.191 30.255H28.312H28.422H28.95C30.1076 30.2583 31.2565 30.4554 32.349 30.838C31.7488 32.5874 30.6087 34.1011 29.093 35.161ZM28.95 28C28.719 28 28.488 28 28.268 28C28.1256 27.9821 27.9814 27.9821 27.839 28C27.54 28.0184 27.2425 28.0551 26.948 28.11H26.838C26.519 27.373 26.189 26.658 25.826 25.91C27.7957 25.2336 29.6874 24.3485 31.469 23.27C32.3528 24.6883 32.8144 26.3289 32.8 28C32.8 28.187 32.8 28.374 32.8 28.561C31.5534 28.1762 30.2546 27.987 28.95 28Z" fill="#F2F2FF"/>
</svg>
