<svg width="48" height="53" viewBox="0 0 48 53" fill="none" xmlns="http://www.w3.org/2000/svg">
<rect x="11" y="16" width="28" height="26" fill="white"/>
<path fill-rule="evenodd" clip-rule="evenodd" d="M24 52.3301C37.2548 52.3301 48 41.5849 48 28.3301C48 15.0752 37.2548 4.33008 24 4.33008C10.7452 4.33008 0 15.0752 0 28.3301C0 41.5849 10.7452 52.3301 24 52.3301ZM28.407 21.8453C28.6142 21.7069 28.8578 21.633 29.107 21.633C29.4412 21.633 29.7617 21.7657 29.998 22.002C30.2342 22.2383 30.367 22.5588 30.367 22.893C30.367 23.1422 30.2931 23.3858 30.1546 23.593C30.0162 23.8002 29.8194 23.9617 29.5892 24.0571C29.3589 24.1525 29.1056 24.1774 28.8612 24.1288C28.6168 24.0802 28.3923 23.9602 28.216 23.784C28.0398 23.6077 27.9198 23.3832 27.8712 23.1388C27.8226 22.8944 27.8475 22.6411 27.9429 22.4108C28.0383 22.1806 28.1998 21.9838 28.407 21.8453ZM33.454 21.6225C33.7534 22.4409 33.9166 23.3028 33.937 24.174C34 25.287 34 25.644 34 28.5C34 30.2583 33.9761 31.0694 33.9578 31.6929C33.9463 32.0821 33.937 32.3982 33.937 32.826C33.9166 33.6972 33.7534 34.5591 33.454 35.3775C33.1898 36.0791 32.7739 36.7137 32.236 37.236C31.7161 37.7742 31.0805 38.1871 30.3775 38.4435C29.5613 38.752 28.6984 38.9189 27.826 38.937C26.713 39 26.356 39 23.5 39C20.644 39 20.287 39 19.174 38.937C18.3016 38.9189 17.4387 38.752 16.6225 38.4435C15.9208 38.1845 15.2858 37.772 14.764 37.236C14.2258 36.7161 13.8129 36.0805 13.5565 35.3775C13.248 34.5613 13.0811 33.6984 13.063 32.826C13 31.713 13 31.356 13 28.5C13 25.644 13 25.287 13.063 24.174C13.0811 23.3016 13.248 22.4387 13.5565 21.6225C13.8129 20.9195 14.2258 20.2839 14.764 19.764C15.2858 19.228 15.9208 18.8155 16.6225 18.5565C17.4387 18.248 18.3016 18.0811 19.174 18.063C20.287 18 20.644 18 23.5 18C26.356 18 26.713 18 27.826 18.063C28.6984 18.0811 29.5613 18.248 30.3775 18.5565C31.0805 18.8129 31.7161 19.2258 32.236 19.764C32.7715 20.2882 33.187 20.9223 33.454 21.6225ZM31.69 34.653C31.9186 34.0269 32.0394 33.3665 32.047 32.7C32.0995 31.65 32.11 31.2615 32.11 28.5C32.11 25.7385 32.0995 25.35 32.047 24.3C32.0442 23.6194 31.9234 22.9444 31.69 22.305C31.5154 21.8669 31.2466 21.4725 30.9025 21.15C30.5584 20.775 30.1302 20.4871 29.653 20.31C29.0269 20.0814 28.3665 19.9606 27.7 19.953C26.65 19.89 26.2615 19.89 23.5 19.89C21.7918 19.89 20.9916 19.9141 20.3812 19.9325C20.0048 19.9438 19.7005 19.953 19.3 19.953C18.6196 19.9583 17.945 20.079 17.305 20.31C16.8633 20.5023 16.469 20.789 16.15 21.15C15.7891 21.4667 15.5053 21.8618 15.3205 22.305C15.0821 22.9433 14.9577 23.6186 14.953 24.3C14.89 25.35 14.89 25.7385 14.89 28.5C14.89 30.2082 14.9141 31.0084 14.9325 31.6188C14.9438 31.9952 14.953 32.2995 14.953 32.7C14.9745 33.3845 15.1166 34.0599 15.373 34.695C15.5356 35.152 15.8015 35.5652 16.15 35.9025C16.4769 36.2414 16.8701 36.5095 17.305 36.69C17.9608 36.9114 18.6499 37.018 19.342 37.005C20.392 37.068 20.7805 37.068 23.542 37.068C26.3035 37.068 26.692 37.0575 27.742 37.005C28.4085 36.9974 29.0689 36.8766 29.695 36.648C30.1499 36.4763 30.5619 36.2075 30.9025 35.8605C31.2531 35.5228 31.5223 35.11 31.69 34.653ZM20.5103 24.0264C21.3947 23.4333 22.4351 23.1156 23.5 23.1135C24.2086 23.1107 24.9108 23.2481 25.5662 23.5177C26.2215 23.7873 26.8171 24.1838 27.3187 24.6844C27.8203 25.1849 28.2179 25.7798 28.4888 26.4346C28.7597 27.0894 28.8984 27.7914 28.897 28.5C28.897 29.5649 28.5813 30.6059 27.9899 31.4915C27.3985 32.3771 26.5579 33.0675 25.5742 33.4755C24.5906 33.8835 23.5081 33.9907 22.4635 33.7838C21.4189 33.5768 20.4591 33.0648 19.7054 32.3125C18.9516 31.5603 18.4378 30.6015 18.2288 29.5573C18.0198 28.5131 18.1249 27.4304 18.531 26.4459C18.9371 25.4615 19.6259 24.6195 20.5103 24.0264ZM21.5574 31.4072C22.1324 31.7914 22.8085 31.9965 23.5 31.9965C23.9592 31.9965 24.4138 31.9061 24.8381 31.7303C25.2623 31.5546 25.6477 31.2971 25.9724 30.9724C26.2971 30.6477 26.5546 30.2623 26.7303 29.8381C26.9061 29.4138 26.9965 28.9592 26.9965 28.5C26.9965 27.8085 26.7914 27.1324 26.4072 26.5574C26.023 25.9825 25.477 25.5343 24.8381 25.2697C24.1992 25.005 23.4961 24.9358 22.8179 25.0707C22.1396 25.2056 21.5166 25.5386 21.0276 26.0276C20.5386 26.5166 20.2056 27.1396 20.0707 27.8179C19.9358 28.4961 20.005 29.1992 20.2697 29.8381C20.5343 30.477 20.9825 31.023 21.5574 31.4072Z" fill="#40AB30"/>
<path d="M19.8352 1.62721e-05L11.2668 2.75391L12.7968 7.51408L21.3651 4.76019L19.8352 1.62721e-05Z" fill="#FCAF34"/>
</svg>
