<svg width="1662" height="44" viewBox="0 0 1662 44" fill="none" xmlns="http://www.w3.org/2000/svg">
<g clip-path="url(#clip0_401_353)">
<ellipse cx="316" cy="109.5" rx="140" ry="101.5" fill="#F2F2FF"/>
<ellipse cx="420" cy="120.5" rx="104" ry="101.5" fill="#F2F2FF"/>
<ellipse cx="502.5" cy="123" rx="104.5" ry="112" fill="#F2F2FF"/>
<ellipse cx="588.5" cy="135" rx="119.5" ry="114" fill="#F2F2FF"/>
<ellipse cx="661" cy="105" rx="95" ry="90" fill="#F2F2FF"/>
<ellipse cx="79" cy="93.5" rx="103" ry="74.5" fill="#F2F2FF"/>
<ellipse cx="165" cy="108.5" rx="103" ry="74.5" fill="#F2F2FF"/>
<ellipse cx="358" cy="106.5" rx="103" ry="74.5" fill="#F2F2FF"/>
<g clip-path="url(#clip1_401_353)">
<ellipse cx="1431.26" cy="82.6765" rx="164.363" ry="73.0024" transform="rotate(-6.68974 1431.26 82.6765)" fill="#F2F2FF"/>
</g>
<ellipse cx="1070.5" cy="116" rx="88.5" ry="95" fill="#F2F2FF"/>
<ellipse cx="992" cy="116.5" rx="108" ry="104.5" fill="#F2F2FF"/>
<ellipse cx="1172" cy="123" rx="122" ry="114" fill="#F2F2FF"/>
<ellipse cx="1288" cy="100.5" rx="118" ry="79.5" fill="#F2F2FF"/>
<ellipse cx="865.5" cy="116" rx="88.5" ry="95" fill="#F2F2FF"/>
<ellipse cx="765.5" cy="116" rx="88.5" ry="95" fill="#F2F2FF"/>
</g>
<defs>
<clipPath id="clip0_401_353">
<rect width="1662" height="44" fill="white"/>
</clipPath>
<clipPath id="clip1_401_353">
<rect width="468" height="91" fill="white" transform="translate(1120 -47)"/>
</clipPath>
</defs>
</svg>
