<svg width="1302" height="3142" viewBox="0 0 1302 3142" fill="none" xmlns="http://www.w3.org/2000/svg">
<path d="M651 0L1302 3142H0L651 0Z" fill="#2B9126"/>
<path opacity="0.4" d="M829.5 868.999C829.5 868.999 703 941 602 944.5C501 948 457.5 935.499 457.5 935.499" stroke="#F2F2FF" stroke-width="3"/>
<circle cx="689.93" cy="927.81" r="10" transform="rotate(-24.8251 689.93 927.81)" fill="#FCAF34"/>
<circle cx="687.832" cy="923.274" r="5" transform="rotate(-24.8251 687.832 923.274)" fill="#FFE336"/>
<circle cx="611.933" cy="946.008" r="10" transform="rotate(-17.5961 611.933 946.008)" fill="#E64939"/>
<circle cx="610.422" cy="941.241" r="5" transform="rotate(-17.5961 610.422 941.241)" fill="#F26652"/>
<circle cx="765.443" cy="898.245" r="10" transform="rotate(155.175 765.443 898.245)" fill="#2B9126"/>
<circle cx="767.543" cy="902.781" r="5" transform="rotate(155.175 767.543 902.781)" fill="#40AB30"/>
<circle cx="765.403" cy="898.127" r="10" transform="rotate(153.849 765.403 898.127)" fill="#2B9126"/>
<circle cx="765.403" cy="898.127" r="10" transform="rotate(153.849 765.403 898.127)" fill="#3E6C9A"/>
<circle cx="767.607" cy="902.615" r="5" transform="rotate(153.849 767.607 902.615)" fill="#4B81B5"/>
<circle cx="534.387" cy="944.477" r="10" transform="rotate(-176.151 534.387 944.477)" fill="#2B9126"/>
<circle cx="534.052" cy="949.465" r="5" transform="rotate(-176.151 534.052 949.465)" fill="#40AB30"/>
<circle cx="534.408" cy="944.355" r="10" transform="rotate(-177.477 534.408 944.355)" fill="#2B9126"/>
<circle cx="534.408" cy="944.355" r="10" transform="rotate(-177.477 534.408 944.355)" fill="#3E6C9A"/>
<circle cx="534.188" cy="949.349" r="5" transform="rotate(-177.477 534.188 949.349)" fill="#4B81B5"/>
<path opacity="0.4" d="M1099.5 2167.5C1099.5 2167.5 828.435 2247.14 648.953 2250.2C413.991 2254.2 195 2204.5 195 2204.5" stroke="#F2F2FF" stroke-width="3"/>
<circle cx="701.176" cy="2246.66" r="10" transform="rotate(-5.58284 701.176 2246.66)" fill="#FCAF34"/>
<circle cx="700.69" cy="2241.69" r="5" transform="rotate(-5.58284 700.69 2241.69)" fill="#FFE336"/>
<circle cx="896.01" cy="2217.78" r="10" transform="rotate(-21.2081 896.01 2217.78)" fill="#FCAF34"/>
<circle cx="894.202" cy="2213.12" r="5" transform="rotate(-21.2081 894.202 2213.12)" fill="#FFE336"/>
<circle cx="512.045" cy="2246.85" r="10" transform="rotate(13.657 512.045 2246.85)" fill="#FCAF34"/>
<circle cx="513.225" cy="2241.99" r="5" transform="rotate(13.657 513.225 2241.99)" fill="#FFE336"/>
<circle cx="324.771" cy="2228.92" r="10" transform="rotate(13.657 324.771 2228.92)" fill="#FCAF34"/>
<circle cx="325.952" cy="2224.06" r="5" transform="rotate(13.657 325.952 2224.06)" fill="#FFE336"/>
<circle cx="449.738" cy="2242.78" r="10" transform="rotate(4.44424 449.738 2242.78)" fill="#E64939"/>
<circle cx="450.126" cy="2237.8" r="5" transform="rotate(4.44424 450.126 2237.8)" fill="#F26652"/>
<circle cx="261.745" cy="2217.75" r="10" transform="rotate(4.44424 261.745 2217.75)" fill="#E64939"/>
<circle cx="262.133" cy="2212.77" r="5" transform="rotate(4.44424 262.133 2212.77)" fill="#F26652"/>
<circle cx="387.94" cy="2236.24" r="10" transform="rotate(-171.294 387.94 2236.24)" fill="#2B9126"/>
<circle cx="387.184" cy="2241.18" r="5" transform="rotate(-171.294 387.184 2241.18)" fill="#40AB30"/>
<circle cx="387.971" cy="2236.12" r="10" transform="rotate(-172.62 387.971 2236.12)" fill="#2B9126"/>
<circle cx="387.971" cy="2236.12" r="10" transform="rotate(-172.62 387.971 2236.12)" fill="#3E6C9A"/>
<circle cx="387.329" cy="2241.08" r="5" transform="rotate(-172.62 387.329 2241.08)" fill="#4B81B5"/>
<circle cx="575.445" cy="2250.18" r="10" transform="rotate(-171.294 575.445 2250.18)" fill="#2B9126"/>
<circle cx="574.689" cy="2255.12" r="5" transform="rotate(-171.294 574.689 2255.12)" fill="#40AB30"/>
<circle cx="575.477" cy="2250.06" r="10" transform="rotate(-172.62 575.477 2250.06)" fill="#2B9126"/>
<circle cx="575.477" cy="2250.06" r="10" transform="rotate(-172.62 575.477 2250.06)" fill="#3E6C9A"/>
<circle cx="574.835" cy="2255.02" r="5" transform="rotate(-172.62 574.835 2255.02)" fill="#4B81B5"/>
<circle cx="764.35" cy="2240.16" r="10" transform="rotate(-171.294 764.35 2240.16)" fill="#2B9126"/>
<circle cx="763.594" cy="2245.11" r="5" transform="rotate(-171.294 763.594 2245.11)" fill="#40AB30"/>
<circle cx="764.381" cy="2240.04" r="10" transform="rotate(-172.62 764.381 2240.04)" fill="#2B9126"/>
<circle cx="764.381" cy="2240.04" r="10" transform="rotate(-172.62 764.381 2240.04)" fill="#3E6C9A"/>
<circle cx="763.739" cy="2245" r="5" transform="rotate(-172.62 763.739 2245)" fill="#4B81B5"/>
<circle cx="962.549" cy="2204.39" r="10" transform="rotate(173.081 962.549 2204.39)" fill="#2B9126"/>
<circle cx="963.152" cy="2209.35" r="5" transform="rotate(173.081 963.152 2209.35)" fill="#40AB30"/>
<circle cx="962.546" cy="2204.27" r="10" transform="rotate(171.755 962.546 2204.27)" fill="#2B9126"/>
<circle cx="962.546" cy="2204.27" r="10" transform="rotate(171.755 962.546 2204.27)" fill="#3E6C9A"/>
<circle cx="963.263" cy="2209.21" r="5" transform="rotate(171.755 963.263 2209.21)" fill="#4B81B5"/>
<circle cx="638.208" cy="2250.35" r="10" transform="rotate(-1.34301 638.208 2250.35)" fill="#E64939"/>
<circle cx="638.091" cy="2245.36" r="5" transform="rotate(-1.34301 638.091 2245.36)" fill="#F26652"/>
<circle cx="829.753" cy="2230.55" r="10" transform="rotate(-16.9683 829.753 2230.55)" fill="#E64939"/>
<circle cx="828.293" cy="2225.77" r="5" transform="rotate(-16.9683 828.293 2225.77)" fill="#F26652"/>
<circle cx="1026.48" cy="2186.49" r="10" transform="rotate(-16.9683 1026.48 2186.49)" fill="#E64939"/>
<circle cx="1025.02" cy="2181.71" r="5" transform="rotate(-16.9683 1025.02 2181.71)" fill="#F26652"/>
<path opacity="0.4" d="M1258.88 2934.57C1258.88 2934.57 833 3033 646 3033C288.674 3033 40.3027 2938.14 40.3027 2938.14" stroke="#F2F2FF" stroke-width="3"/>
<circle cx="927.423" cy="3000.38" r="10" transform="rotate(-8.71972 927.423 3000.38)" fill="#FCAF34"/>
<circle cx="926.665" cy="2995.44" r="5" transform="rotate(-8.71972 926.665 2995.44)" fill="#FFE336"/>
<circle cx="1120.38" cy="2962.87" r="10" transform="rotate(-24.345 1120.38 2962.87)" fill="#FCAF34"/>
<circle cx="1118.32" cy="2958.32" r="5" transform="rotate(-24.345 1118.32 2958.32)" fill="#FFE336"/>
<circle cx="738.584" cy="3025.91" r="10" transform="rotate(10.5201 738.584 3025.91)" fill="#FCAF34"/>
<circle cx="739.497" cy="3021" r="5" transform="rotate(10.5201 739.497 3021)" fill="#FFE336"/>
<circle cx="550.609" cy="3029.25" r="10" transform="rotate(10.5201 550.609 3029.25)" fill="#FCAF34"/>
<circle cx="551.522" cy="3024.34" r="5" transform="rotate(10.5201 551.522 3024.34)" fill="#FFE336"/>
<circle cx="362.833" cy="3012.23" r="10" transform="rotate(13.024 362.833 3012.23)" fill="#FCAF34"/>
<circle cx="363.959" cy="3007.36" r="5" transform="rotate(13.024 363.959 3007.36)" fill="#FFE336"/>
<circle cx="174.754" cy="2973.74" r="10" transform="rotate(13.024 174.754 2973.74)" fill="#FCAF34"/>
<circle cx="175.88" cy="2968.87" r="5" transform="rotate(13.024 175.88 2968.87)" fill="#FFE336"/>
<circle cx="676.147" cy="3032.26" r="10" transform="rotate(1.30735 676.147 3032.26)" fill="#E64939"/>
<circle cx="676.262" cy="3027.26" r="5" transform="rotate(1.30735 676.262 3027.26)" fill="#F26652"/>
<circle cx="487.945" cy="3024.72" r="10" transform="rotate(3.81129 487.945 3024.72)" fill="#E64939"/>
<circle cx="488.278" cy="3019.73" r="5" transform="rotate(3.81129 488.278 3019.73)" fill="#F26652"/>
<circle cx="299.349" cy="3002.35" r="10" transform="rotate(8.38032 299.349 3002.35)" fill="#E64939"/>
<circle cx="300.078" cy="2997.4" r="5" transform="rotate(8.38032 300.078 2997.4)" fill="#F26652"/>
<circle cx="112.601" cy="2959.05" r="10" transform="rotate(8.38032 112.601 2959.05)" fill="#E64939"/>
<circle cx="113.33" cy="2954.11" r="5" transform="rotate(8.38032 113.33 2954.11)" fill="#F26652"/>
<circle cx="614.084" cy="3031.11" r="10" transform="rotate(-174.43 614.084 3031.11)" fill="#2B9126"/>
<circle cx="613.6" cy="3036.08" r="5" transform="rotate(-174.43 613.6 3036.08)" fill="#40AB30"/>
<circle cx="614.108" cy="3030.99" r="10" transform="rotate(-175.757 614.108 3030.99)" fill="#2B9126"/>
<circle cx="614.108" cy="3030.99" r="10" transform="rotate(-175.757 614.108 3030.99)" fill="#3E6C9A"/>
<circle cx="613.739" cy="3035.97" r="5" transform="rotate(-175.757 613.739 3035.97)" fill="#4B81B5"/>
<circle cx="426.079" cy="3019.87" r="10" transform="rotate(-171.926 426.079 3019.87)" fill="#2B9126"/>
<circle cx="425.377" cy="3024.82" r="5" transform="rotate(-171.926 425.377 3024.82)" fill="#40AB30"/>
<circle cx="426.108" cy="3019.75" r="10" transform="rotate(-173.253 426.108 3019.75)" fill="#2B9126"/>
<circle cx="426.108" cy="3019.75" r="10" transform="rotate(-173.253 426.108 3019.75)" fill="#3E6C9A"/>
<circle cx="425.521" cy="3024.72" r="5" transform="rotate(-173.253 425.521 3024.72)" fill="#4B81B5"/>
<circle cx="238.259" cy="2990.36" r="10" transform="rotate(-167.357 238.259 2990.36)" fill="#2B9126"/>
<circle cx="237.166" cy="2995.23" r="5" transform="rotate(-167.357 237.166 2995.23)" fill="#40AB30"/>
<circle cx="238.298" cy="2990.24" r="10" transform="rotate(-168.684 238.298 2990.24)" fill="#2B9126"/>
<circle cx="238.298" cy="2990.24" r="10" transform="rotate(-168.684 238.298 2990.24)" fill="#3E6C9A"/>
<circle cx="237.318" cy="2995.14" r="5" transform="rotate(-168.684 237.318 2995.14)" fill="#4B81B5"/>
<circle cx="802.072" cy="3018.77" r="10" transform="rotate(-174.43 802.072 3018.77)" fill="#2B9126"/>
<circle cx="801.588" cy="3023.75" r="5" transform="rotate(-174.43 801.588 3023.75)" fill="#40AB30"/>
<circle cx="802.096" cy="3018.65" r="10" transform="rotate(-175.757 802.096 3018.65)" fill="#2B9126"/>
<circle cx="802.096" cy="3018.65" r="10" transform="rotate(-175.757 802.096 3018.65)" fill="#3E6C9A"/>
<circle cx="801.727" cy="3023.63" r="5" transform="rotate(-175.757 801.727 3023.63)" fill="#4B81B5"/>
<circle cx="990.146" cy="2989.43" r="10" transform="rotate(-174.43 990.146 2989.43)" fill="#2B9126"/>
<circle cx="989.661" cy="2994.41" r="5" transform="rotate(-174.43 989.661 2994.41)" fill="#40AB30"/>
<circle cx="990.17" cy="2989.31" r="10" transform="rotate(-175.757 990.17 2989.31)" fill="#2B9126"/>
<circle cx="990.17" cy="2989.31" r="10" transform="rotate(-175.757 990.17 2989.31)" fill="#3E6C9A"/>
<circle cx="989.801" cy="2994.29" r="5" transform="rotate(-175.757 989.801 2994.29)" fill="#4B81B5"/>
<circle cx="1186.09" cy="2950.86" r="10" transform="rotate(169.944 1186.09 2950.86)" fill="#2B9126"/>
<circle cx="1186.96" cy="2955.78" r="5" transform="rotate(169.944 1186.96 2955.78)" fill="#40AB30"/>
<circle cx="1186.08" cy="2950.74" r="10" transform="rotate(168.618 1186.08 2950.74)" fill="#2B9126"/>
<circle cx="1186.08" cy="2950.74" r="10" transform="rotate(168.618 1186.08 2950.74)" fill="#3E6C9A"/>
<circle cx="1187.07" cy="2955.64" r="5" transform="rotate(168.618 1187.07 2955.64)" fill="#4B81B5"/>
<circle cx="864.751" cy="3010.51" r="10" transform="rotate(-4.47989 864.751 3010.51)" fill="#E64939"/>
<circle cx="864.36" cy="3005.52" r="5" transform="rotate(-4.47989 864.36 3005.52)" fill="#F26652"/>
<circle cx="1054.92" cy="2976.24" r="10" transform="rotate(-20.1052 1054.92 2976.24)" fill="#E64939"/>
<circle cx="1053.21" cy="2971.55" r="5" transform="rotate(-20.1052 1053.21 2971.55)" fill="#F26652"/>
<path d="M716.896 371.112C722.844 387.453 715.068 422.557 715.068 422.557C715.068 422.557 686.546 400.664 680.599 384.323C674.651 367.982 677.955 351.777 687.978 348.129C698.001 344.481 710.949 354.771 716.896 371.112Z" fill="#E64939"/>
<path d="M684.592 338.826C682.842 339.463 681.817 341.076 682.306 342.421C682.796 343.767 684.618 344.343 686.368 343.706C688.118 343.07 689.143 341.457 688.653 340.111C688.164 338.766 686.341 338.189 684.592 338.826ZM686.812 344.927C684.187 345.882 681.454 345.018 680.719 342.999C679.985 340.98 681.523 338.561 684.148 337.606C686.773 336.65 689.505 337.515 690.24 339.534C690.975 341.552 689.437 343.971 686.812 344.927Z" fill="#D9D3D3"/>
<path d="M691.575 347.827L685.03 350.209C683.715 350.687 682.351 350.256 681.983 349.245L681.235 347.188C680.867 346.177 681.634 344.97 682.949 344.491L689.494 342.109C690.808 341.631 692.172 342.062 692.54 343.073L693.289 345.13C693.657 346.141 692.889 347.348 691.575 347.827Z" fill="#D9D3D3"/>
<path d="M677.787 371.701L710.937 359.636C710.198 358.593 709.431 357.601 708.638 356.673L677.644 367.954C677.633 369.174 677.683 370.427 677.787 371.701Z" fill="#FFEED6"/>
<path d="M684.936 392.417L718.776 380.1C718.649 378.853 718.485 377.643 718.28 376.481L682.99 389.325C683.58 390.348 684.232 391.38 684.936 392.417Z" fill="#FFEED6"/>
<path d="M696.508 406.073L718.691 397.999C718.796 396.71 718.886 395.409 718.957 394.103L693.8 403.259C694.694 404.214 695.599 405.153 696.508 406.073" fill="#FFEED6"/>
<path d="M706.597 391.568C706.98 392.62 706.181 393.878 704.811 394.377C703.442 394.875 702.021 394.425 701.638 393.373C701.255 392.32 702.054 391.062 703.424 390.564C704.793 390.066 706.214 390.515 706.597 391.568Z" fill="#FCAF34"/>
<path d="M698.465 394.528C698.848 395.58 698.049 396.838 696.68 397.337C695.31 397.835 693.889 397.385 693.506 396.333C693.123 395.28 693.922 394.022 695.292 393.524C696.661 393.026 698.082 393.475 698.465 394.528Z" fill="#FCAF34"/>
<path d="M709.77 390.414C710.153 391.466 711.574 391.916 712.943 391.418C714.313 390.919 715.112 389.661 714.729 388.609C714.345 387.556 712.925 387.107 711.555 387.605C710.186 388.104 709.387 389.361 709.77 390.414Z" fill="#FCAF34"/>
<path d="M707.279 380.484L694.362 365.669L693.99 385.321L707.279 380.484Z" fill="#FCAF34"/>
<path d="M680.801 384.851C681.37 386.307 682.111 387.806 682.989 389.325L693.99 385.321L681.073 370.505L680.801 384.851Z" fill="#FCAF34"/>
<path d="M707.651 360.831L707.279 380.483L718.28 376.479C717.977 374.751 717.581 373.127 717.081 371.646L707.651 360.831Z" fill="#FCAF34"/>
<path d="M596.023 1357.12C588.786 1377 554.082 1403.64 554.082 1403.64C554.082 1403.64 544.62 1360.93 551.857 1341.04C559.094 1321.16 574.848 1308.64 587.043 1313.08C599.239 1317.52 603.259 1337.23 596.023 1357.12Z" fill="#E64939"/>
<path d="M591.164 1301.76C589.035 1300.98 586.817 1301.68 586.222 1303.32C585.626 1304.96 586.873 1306.92 589.002 1307.7C591.132 1308.47 593.349 1307.77 593.945 1306.13C594.54 1304.5 593.293 1302.53 591.164 1301.76ZM588.462 1309.18C585.268 1308.02 583.397 1305.07 584.291 1302.62C585.185 1300.16 588.51 1299.11 591.704 1300.27C594.898 1301.44 596.769 1304.38 595.875 1306.83C594.981 1309.29 591.656 1310.34 588.462 1309.18Z" fill="#D9D3D3"/>
<path d="M590.633 1315.61L582.669 1312.71C581.069 1312.13 580.135 1310.66 580.583 1309.43L581.494 1306.93C581.942 1305.7 583.601 1305.17 585.201 1305.75L593.165 1308.65C594.764 1309.23 595.698 1310.7 595.251 1311.93L594.339 1314.44C593.892 1315.67 592.232 1316.19 590.633 1315.61Z" fill="#D9D3D3"/>
<path d="M559.107 1327.08L599.444 1341.76C599.57 1340.21 599.631 1338.68 599.618 1337.2L561.905 1323.47C560.94 1324.6 560.007 1325.81 559.107 1327.08Z" fill="#FFEED6"/>
<path d="M549.569 1351.98L590.745 1366.97C591.601 1365.7 592.395 1364.45 593.113 1363.2L550.172 1347.57C549.923 1348.99 549.723 1350.46 549.569 1351.98Z" fill="#FFEED6"/>
<path d="M549.674 1373.76L576.666 1383.58C577.772 1382.46 578.873 1381.32 579.961 1380.16L549.351 1369.02C549.437 1370.61 549.546 1372.19 549.674 1373.76" fill="#FFEED6"/>
<path d="M570.424 1368.13C569.958 1369.41 568.229 1369.96 566.563 1369.35C564.896 1368.74 563.924 1367.21 564.39 1365.93C564.857 1364.65 566.585 1364.11 568.251 1364.71C569.918 1365.32 570.89 1366.85 570.424 1368.13Z" fill="#FCAF34"/>
<path d="M560.528 1364.53C560.062 1365.81 558.334 1366.36 556.667 1365.75C555.001 1365.14 554.029 1363.61 554.495 1362.33C554.961 1361.05 556.689 1360.5 558.356 1361.11C560.022 1361.72 560.995 1363.25 560.528 1364.53Z" fill="#FCAF34"/>
<path d="M574.284 1369.53C573.818 1370.82 574.79 1372.35 576.456 1372.95C578.123 1373.56 579.851 1373.01 580.317 1371.73C580.784 1370.45 579.811 1368.92 578.145 1368.31C576.478 1367.71 574.75 1368.25 574.284 1369.53Z" fill="#FCAF34"/>
<path d="M579.728 1358.33L579.276 1334.42L563.559 1352.45L579.728 1358.33Z" fill="#FCAF34"/>
<path d="M551.632 1341.69C551.023 1343.49 550.542 1345.47 550.173 1347.57L563.558 1352.45L563.106 1328.53L551.632 1341.69Z" fill="#FCAF34"/>
<path d="M595.446 1340.3L579.729 1358.33L593.114 1363.2C594.183 1361.35 595.085 1359.53 595.776 1357.76L595.446 1340.3Z" fill="#FCAF34"/>
<path d="M919.93 1613.81C927.167 1633.69 917.705 1676.4 917.705 1676.4C917.705 1676.4 883.001 1649.77 875.764 1629.88C868.527 1610 872.548 1590.28 884.743 1585.84C896.939 1581.4 912.693 1593.92 919.93 1613.81Z" fill="#E64939"/>
<path d="M880.623 1574.52C878.494 1575.3 877.246 1577.26 877.842 1578.9C878.438 1580.53 880.655 1581.24 882.784 1580.46C884.913 1579.69 886.161 1577.72 885.565 1576.09C884.969 1574.45 882.752 1573.75 880.623 1574.52ZM883.324 1581.95C880.13 1583.11 876.805 1582.06 875.911 1579.6C875.017 1577.14 876.888 1574.2 880.082 1573.04C883.276 1571.88 886.602 1572.93 887.496 1575.38C888.39 1577.84 886.518 1580.78 883.324 1581.95Z" fill="#D9D3D3"/>
<path d="M889.119 1585.47L881.155 1588.37C879.556 1588.95 877.896 1588.43 877.448 1587.2L876.537 1584.7C876.09 1583.47 877.024 1582 878.623 1581.42L886.587 1578.52C888.186 1577.93 889.846 1578.46 890.294 1579.69L891.205 1582.19C891.652 1583.42 890.718 1584.89 889.119 1585.47Z" fill="#D9D3D3"/>
<path d="M872.343 1614.52L912.679 1599.84C911.779 1598.57 910.846 1597.37 909.881 1596.24L872.168 1609.96C872.155 1611.45 872.216 1612.97 872.343 1614.52Z" fill="#FFEED6"/>
<path d="M881.041 1639.73L922.217 1624.74C922.062 1623.23 921.862 1621.75 921.613 1620.34L878.672 1635.97C879.391 1637.21 880.184 1638.47 881.041 1639.73Z" fill="#FFEED6"/>
<path d="M895.121 1656.35L922.113 1646.52C922.241 1644.96 922.35 1643.37 922.436 1641.78L891.827 1652.92C892.914 1654.09 894.016 1655.23 895.121 1656.35" fill="#FFEED6"/>
<path d="M907.398 1638.7C907.864 1639.98 906.892 1641.51 905.226 1642.11C903.559 1642.72 901.831 1642.17 901.365 1640.89C900.898 1639.61 901.871 1638.08 903.537 1637.48C905.204 1636.87 906.932 1637.42 907.398 1638.7Z" fill="#FCAF34"/>
<path d="M897.504 1642.3C897.97 1643.58 896.998 1645.11 895.331 1645.72C893.665 1646.32 891.936 1645.78 891.47 1644.5C891.004 1643.21 891.976 1641.68 893.643 1641.08C895.309 1640.47 897.037 1641.02 897.504 1642.3Z" fill="#FCAF34"/>
<path d="M911.258 1637.29C911.724 1638.57 913.453 1639.12 915.119 1638.51C916.786 1637.91 917.758 1636.38 917.292 1635.1C916.825 1633.82 915.097 1633.27 913.431 1633.87C911.764 1634.48 910.792 1636.01 911.258 1637.29Z" fill="#FCAF34"/>
<path d="M908.228 1625.21L892.511 1607.18L892.059 1631.1L908.228 1625.21Z" fill="#FCAF34"/>
<path d="M876.01 1630.53C876.702 1632.3 877.604 1634.12 878.673 1635.97L892.058 1631.1L876.341 1613.07L876.01 1630.53Z" fill="#FCAF34"/>
<path d="M908.68 1601.3L908.228 1625.21L921.613 1620.34C921.244 1618.24 920.762 1616.26 920.154 1614.46L908.68 1601.3Z" fill="#FCAF34"/>
<path d="M266.982 2361.53C259.242 2381.22 223.871 2406.97 223.871 2406.97C223.871 2406.97 215.499 2364.03 223.24 2344.34C230.98 2324.65 247.048 2312.53 259.127 2317.28C271.205 2322.03 274.722 2341.84 266.982 2361.53Z" fill="#E64939"/>
<path d="M263.534 2306.07C261.425 2305.24 259.191 2305.88 258.553 2307.5C257.916 2309.13 259.113 2311.12 261.222 2311.95C263.331 2312.78 265.565 2312.13 266.202 2310.51C266.839 2308.89 265.642 2306.9 263.534 2306.07ZM260.644 2313.42C257.481 2312.18 255.685 2309.19 256.641 2306.75C257.597 2304.32 260.948 2303.35 264.112 2304.6C267.275 2305.84 269.071 2308.83 268.114 2311.26C267.158 2313.7 263.807 2314.66 260.644 2313.42Z" fill="#D9D3D3"/>
<path d="M262.65 2319.9L254.762 2316.8C253.178 2316.18 252.282 2314.68 252.76 2313.47L253.735 2310.99C254.214 2309.77 255.886 2309.29 257.47 2309.91L265.358 2313.01C266.942 2313.63 267.838 2315.12 267.36 2316.34L266.385 2318.82C265.906 2320.04 264.234 2320.52 262.65 2319.9Z" fill="#D9D3D3"/>
<path d="M230.844 2330.56L270.793 2346.27C270.959 2344.72 271.059 2343.2 271.083 2341.71L233.732 2327.03C232.738 2328.13 231.775 2329.32 230.844 2330.56Z" fill="#FFEED6"/>
<path d="M220.675 2355.21L261.456 2371.24C262.344 2370 263.169 2368.77 263.919 2367.54L221.39 2350.83C221.105 2352.23 220.868 2353.7 220.675 2355.21Z" fill="#FFEED6"/>
<path d="M220.225 2376.99L246.958 2387.5C248.092 2386.41 249.223 2385.29 250.339 2384.16L220.023 2372.24C220.069 2373.83 220.137 2375.42 220.225 2376.99" fill="#FFEED6"/>
<path d="M241.111 2371.89C240.613 2373.16 238.871 2373.66 237.22 2373.01C235.57 2372.36 234.637 2370.81 235.135 2369.54C235.634 2368.27 237.376 2367.77 239.026 2368.42C240.677 2369.07 241.61 2370.62 241.111 2371.89Z" fill="#FCAF34"/>
<path d="M231.311 2368.04C230.813 2369.31 229.071 2369.81 227.42 2369.16C225.77 2368.51 224.837 2366.96 225.336 2365.69C225.834 2364.42 227.576 2363.92 229.227 2364.57C230.877 2365.21 231.81 2366.77 231.311 2368.04Z" fill="#FCAF34"/>
<path d="M244.934 2373.39C244.436 2374.66 245.369 2376.22 247.019 2376.86C248.67 2377.51 250.412 2377.01 250.91 2375.74C251.409 2374.47 250.476 2372.92 248.825 2372.27C247.175 2371.62 245.433 2372.12 244.934 2373.39Z" fill="#FCAF34"/>
<path d="M250.662 2362.33L250.819 2338.42L234.647 2356.04L250.662 2362.33Z" fill="#FCAF34"/>
<path d="M222.998 2344.98C222.344 2346.77 221.812 2348.73 221.39 2350.83L234.647 2356.04L234.803 2332.12L222.998 2344.98Z" fill="#FCAF34"/>
<path d="M266.833 2344.71L250.662 2362.33L263.919 2367.54C265.035 2365.72 265.983 2363.92 266.719 2362.17L266.833 2344.71Z" fill="#FCAF34"/>
<path d="M766.846 968.207C763.517 969.419 761.798 973.108 763.009 976.435C764.22 979.762 767.908 981.483 771.237 980.272C774.562 979.061 776.284 975.371 775.073 972.044C773.862 968.717 770.171 966.997 766.846 968.207ZM772.334 983.288C767.344 985.104 761.809 982.523 759.993 977.533C758.177 972.543 760.758 967.008 765.748 965.191C770.736 963.376 776.273 965.956 778.089 970.946C779.906 975.936 777.323 981.472 772.334 983.288Z" fill="#D9D3D3"/>
<path d="M758.699 1000.57C761.678 1009.2 765.425 1021.1 758.001 1036.13C756.821 1038.52 757.696 1039.61 760.193 1038.7L817.248 1017.93C819.745 1017.02 819.714 1015.63 817.279 1014.56C801.927 1007.81 797.153 996.292 793.884 987.762C790.184 978.107 779.605 973.036 769.888 976.573C760.172 980.109 755.326 990.795 758.699 1000.57Z" fill="#FFEED6"/>
<path d="M761.145 1027.71L809.454 1010.12C807.335 1008.6 805.505 1006.97 803.919 1005.28L762.272 1020.44C762.146 1022.76 761.791 1025.18 761.145 1027.71" fill="#E64939"/>
<path d="M794.266 988.745C794.137 988.416 794.006 988.083 793.884 987.761C793.213 986.011 792.311 984.416 791.234 982.991L757.662 995.21C757.753 996.994 758.086 998.796 758.699 1000.57C758.812 1000.89 758.925 1001.23 759.038 1001.57L794.266 988.745" fill="#E64939"/>
<path d="M783.314 1002.75C784.005 1004.65 783.028 1006.76 781.128 1007.45C779.226 1008.14 777.126 1007.16 776.434 1005.26C775.743 1003.36 776.722 1001.26 778.623 1000.57C780.523 999.874 782.623 1000.86 783.314 1002.75Z" fill="#E64939"/>
<path d="M772.029 1006.86C772.721 1008.76 771.74 1010.86 769.84 1011.56C767.942 1012.25 765.839 1011.27 765.148 1009.37C764.457 1007.47 765.437 1005.37 767.336 1004.67C769.236 1003.98 771.338 1004.96 772.029 1006.86Z" fill="#E64939"/>
<path d="M787.716 1001.15C788.408 1003.05 790.51 1004.03 792.41 1003.34C794.31 1002.65 795.289 1000.55 794.597 998.647C793.906 996.748 791.806 995.767 789.906 996.459C788.005 997.151 787.025 999.253 787.716 1001.15Z" fill="#E64939"/>
<path d="M948.042 2484.45C944.684 2485.57 942.872 2489.22 943.998 2492.57C945.123 2495.93 948.767 2497.75 952.125 2496.62C955.48 2495.49 957.296 2491.85 956.17 2488.49C955.044 2485.14 951.397 2483.32 948.042 2484.45ZM953.146 2499.66C948.111 2501.35 942.643 2498.63 940.955 2493.6C939.266 2488.56 941.987 2483.09 947.022 2481.4C952.055 2479.72 957.524 2482.44 959.213 2487.47C960.901 2492.51 958.179 2497.97 953.146 2499.66Z" fill="#D9D3D3"/>
<path d="M939.075 2516.59C941.833 2525.3 945.276 2537.28 937.472 2552.12C936.232 2554.48 937.079 2555.59 939.599 2554.74L997.164 2535.44C999.683 2534.59 999.687 2533.2 997.28 2532.06C982.105 2524.93 977.626 2513.29 974.575 2504.68C971.122 2494.94 960.675 2489.6 950.872 2492.89C941.069 2496.18 935.952 2506.73 939.075 2516.59Z" fill="#FFEED6"/>
<path d="M940.829 2543.78L989.571 2527.43C987.491 2525.86 985.703 2524.19 984.161 2522.45L942.141 2536.55C941.957 2538.86 941.539 2541.27 940.829 2543.78" fill="#E64939"/>
<path d="M974.931 2505.68C974.811 2505.34 974.688 2505.01 974.575 2504.68C973.948 2502.92 973.087 2501.3 972.047 2499.85L938.175 2511.21C938.22 2512.99 938.508 2514.8 939.075 2516.59C939.179 2516.92 939.284 2517.26 939.389 2517.6L974.931 2505.68" fill="#E64939"/>
<path d="M963.626 2519.4C964.269 2521.32 963.239 2523.39 961.322 2524.04C959.403 2524.68 957.328 2523.65 956.685 2521.73C956.043 2519.81 957.074 2517.74 958.993 2517.09C960.91 2516.45 962.984 2517.49 963.626 2519.4Z" fill="#E64939"/>
<path d="M952.241 2523.22C952.884 2525.14 951.851 2527.21 949.933 2527.86C948.018 2528.5 945.941 2527.47 945.298 2525.55C944.656 2523.63 945.689 2521.56 947.605 2520.91C949.522 2520.27 951.598 2521.31 952.241 2523.22Z" fill="#E64939"/>
<path d="M968.069 2517.91C968.712 2519.83 970.788 2520.86 972.706 2520.22C974.623 2519.58 975.655 2517.5 975.012 2515.58C974.369 2513.67 972.294 2512.63 970.377 2513.28C968.46 2513.92 967.426 2516 968.069 2517.91Z" fill="#E64939"/>
<path d="M557.642 548.196C556.02 552.652 557.139 557.716 560.347 562.638C564.944 569.691 574.815 576.94 577.946 582.398C579.779 585.59 581.312 589.33 581.517 593.112C584.104 590.346 587.684 588.466 591.14 587.198C597.05 585.032 609.27 585.824 617.324 583.376C622.944 581.667 627.054 578.505 628.676 574.05C632.676 563.06 620.018 548.365 600.402 541.225C580.786 534.085 561.642 537.206 557.642 548.196" fill="#FCAF34"/>
<path d="M614.483 566.291C612.171 572.643 601.123 574.455 589.806 570.336C578.489 566.217 571.189 557.727 573.501 551.375C575.814 545.021 586.863 543.21 598.18 547.33C609.497 551.448 616.795 559.937 614.483 566.291Z" fill="#FFEED6"/>
<path d="M593.993 558.831C593.993 558.831 597.752 562.769 603.412 564.829C609.067 566.888 614.027 567.541 614.483 566.288C614.939 565.035 610.719 562.349 605.064 560.291C599.404 558.231 593.993 558.831 593.993 558.831Z" fill="#E64939"/>
<path d="M593.994 558.831C593.994 558.831 597.2 557.083 598.357 553.906C599.512 550.73 599.433 547.784 598.18 547.328C596.927 546.872 594.974 549.078 593.818 552.254C592.662 555.431 593.994 558.831 593.994 558.831Z" fill="#E64939"/>
<path d="M592.64 555.928C592.64 555.928 593.594 552.688 592.272 549.854C590.951 547.022 588.974 545.147 587.856 545.667C586.738 546.189 586.904 548.909 588.225 551.742C589.546 554.576 592.64 555.928 592.64 555.928Z" fill="#E64939"/>
<path d="M591.087 560.185C591.087 560.185 587.847 559.231 585.013 560.552C582.182 561.873 580.306 563.851 580.828 564.969C581.349 566.086 584.069 565.921 586.902 564.6C589.735 563.279 591.087 560.185 591.087 560.185Z" fill="#E64939"/>
<path d="M595.345 561.738C595.345 561.738 594.392 564.978 595.714 567.812C597.035 570.643 599.013 572.518 600.13 571.997C601.248 571.475 601.082 568.755 599.761 565.922C598.441 563.09 595.345 561.738 595.345 561.738" fill="#E64939"/>
<path d="M596.898 557.48C596.898 557.48 600.138 558.435 602.972 557.113C605.803 555.792 607.679 553.814 607.158 552.697C606.637 551.58 603.916 551.746 601.084 553.065C598.25 554.386 596.898 557.48 596.898 557.48Z" fill="#E64939"/>
<path d="M593.994 558.832C593.994 558.832 590.787 560.58 589.63 563.758C588.475 566.933 588.554 569.879 589.807 570.335C591.06 570.791 593.014 568.585 594.169 565.41C595.326 562.232 593.994 558.832 593.994 558.832Z" fill="#E64939"/>
<path d="M593.994 558.832C593.994 558.832 588.583 559.433 582.923 557.373C577.266 555.314 573.047 552.626 573.503 551.374C573.959 550.12 578.918 550.775 584.575 552.834C590.235 554.894 593.994 558.832 593.994 558.832Z" fill="#E64939"/>
<path d="M605.65 526.806C603.578 526.052 601.28 527.125 600.526 529.195C599.772 531.267 600.843 533.565 602.915 534.319C604.986 535.073 607.285 534.002 608.039 531.93C608.793 529.859 607.72 527.56 605.65 526.806ZM602.231 536.197C599.124 535.066 597.517 531.619 598.648 528.512C599.778 525.405 603.226 523.797 606.333 524.928C609.44 526.059 611.048 529.507 609.917 532.613C608.786 535.721 605.338 537.328 602.231 536.197Z" fill="#D9D3D3"/>
<path d="M603.812 543.906L596.064 541.086C594.508 540.52 593.706 538.798 594.273 537.243L595.425 534.075C595.992 532.519 597.712 531.717 599.268 532.284L607.016 535.104C608.571 535.67 609.374 537.39 608.808 538.946L607.655 542.114C607.089 543.669 605.367 544.472 603.812 543.906Z" fill="#D9D3D3"/>
<path d="M385.642 1474.2C384.02 1478.65 385.139 1483.72 388.347 1488.64C392.944 1495.69 402.815 1502.94 405.946 1508.4C407.779 1511.59 409.312 1515.33 409.517 1519.11C412.104 1516.35 415.684 1514.47 419.14 1513.2C425.05 1511.03 437.27 1511.82 445.324 1509.38C450.944 1507.67 455.054 1504.51 456.676 1500.05C460.676 1489.06 448.018 1474.36 428.402 1467.23C408.786 1460.09 389.642 1463.21 385.642 1474.2" fill="#FCAF34"/>
<path d="M442.483 1492.29C440.171 1498.64 429.123 1500.46 417.806 1496.34C406.489 1492.22 399.189 1483.73 401.501 1477.37C403.814 1471.02 414.863 1469.21 426.18 1473.33C437.497 1477.45 444.795 1485.94 442.483 1492.29Z" fill="#FFEED6"/>
<path d="M421.993 1484.83C421.993 1484.83 425.752 1488.77 431.412 1490.83C437.067 1492.89 442.027 1493.54 442.483 1492.29C442.939 1491.03 438.719 1488.35 433.064 1486.29C427.404 1484.23 421.993 1484.83 421.993 1484.83Z" fill="#E64939"/>
<path d="M421.994 1484.83C421.994 1484.83 425.2 1483.08 426.357 1479.91C427.512 1476.73 427.433 1473.78 426.18 1473.33C424.927 1472.87 422.974 1475.08 421.818 1478.25C420.662 1481.43 421.994 1484.83 421.994 1484.83Z" fill="#E64939"/>
<path d="M420.64 1481.93C420.64 1481.93 421.594 1478.69 420.272 1475.85C418.951 1473.02 416.974 1471.15 415.856 1471.67C414.738 1472.19 414.904 1474.91 416.225 1477.74C417.546 1480.58 420.64 1481.93 420.64 1481.93Z" fill="#E64939"/>
<path d="M419.087 1486.18C419.087 1486.18 415.847 1485.23 413.013 1486.55C410.182 1487.87 408.306 1489.85 408.828 1490.97C409.349 1492.09 412.069 1491.92 414.902 1490.6C417.735 1489.28 419.087 1486.18 419.087 1486.18Z" fill="#E64939"/>
<path d="M423.345 1487.74C423.345 1487.74 422.392 1490.98 423.714 1493.81C425.035 1496.64 427.013 1498.52 428.13 1498C429.248 1497.48 429.082 1494.75 427.761 1491.92C426.441 1489.09 423.345 1487.74 423.345 1487.74" fill="#E64939"/>
<path d="M424.898 1483.48C424.898 1483.48 428.138 1484.44 430.972 1483.11C433.803 1481.79 435.679 1479.81 435.158 1478.7C434.637 1477.58 431.916 1477.75 429.084 1479.06C426.25 1480.39 424.898 1483.48 424.898 1483.48Z" fill="#E64939"/>
<path d="M421.994 1484.83C421.994 1484.83 418.787 1486.58 417.63 1489.76C416.475 1492.93 416.554 1495.88 417.807 1496.33C419.06 1496.79 421.014 1494.58 422.169 1491.41C423.326 1488.23 421.994 1484.83 421.994 1484.83Z" fill="#E64939"/>
<path d="M421.994 1484.83C421.994 1484.83 416.583 1485.43 410.923 1483.37C405.266 1481.31 401.047 1478.63 401.503 1477.37C401.959 1476.12 406.918 1476.78 412.575 1478.83C418.235 1480.89 421.994 1484.83 421.994 1484.83Z" fill="#E64939"/>
<path d="M433.65 1452.81C431.578 1452.05 429.28 1453.12 428.526 1455.2C427.772 1457.27 428.843 1459.57 430.915 1460.32C432.986 1461.07 435.285 1460 436.039 1457.93C436.793 1455.86 435.72 1453.56 433.65 1452.81ZM430.231 1462.2C427.124 1461.07 425.517 1457.62 426.648 1454.51C427.778 1451.41 431.226 1449.8 434.333 1450.93C437.44 1452.06 439.048 1455.51 437.917 1458.61C436.786 1461.72 433.338 1463.33 430.231 1462.2Z" fill="#D9D3D3"/>
<path d="M431.812 1469.91L424.064 1467.09C422.508 1466.52 421.706 1464.8 422.273 1463.24L423.425 1460.08C423.992 1458.52 425.712 1457.72 427.268 1458.28L435.016 1461.1C436.571 1461.67 437.374 1463.39 436.808 1464.95L435.655 1468.11C435.089 1469.67 433.367 1470.47 431.812 1469.91Z" fill="#D9D3D3"/>
<path d="M696.245 2402.56C697.753 2407.05 701.784 2410.32 707.36 2412.17C715.35 2414.82 727.587 2414.34 733.437 2416.66C736.86 2418.01 740.389 2419.98 742.906 2422.81C743.206 2419.04 744.835 2415.34 746.747 2412.19C750.021 2406.81 760.072 2399.82 764.846 2392.89C768.176 2388.05 769.422 2383.01 767.914 2378.52C764.195 2367.43 745.138 2363.82 725.347 2370.46C705.555 2377.1 692.526 2391.47 696.245 2402.56" fill="#FCAF34"/>
<path d="M751.979 2381.29C754.128 2387.7 746.616 2396 735.198 2399.83C723.78 2403.66 712.78 2401.57 710.631 2395.16C708.481 2388.75 715.994 2380.45 727.413 2376.62C738.83 2372.79 749.829 2374.88 751.979 2381.29Z" fill="#FFEED6"/>
<path d="M731.304 2388.23C731.304 2388.23 736.698 2388.96 742.409 2387.05C748.115 2385.13 752.401 2382.56 751.977 2381.29C751.553 2380.03 746.579 2380.56 740.873 2382.47C735.162 2384.38 731.304 2388.23 731.304 2388.23Z" fill="#E64939"/>
<path d="M731.304 2388.23C731.304 2388.23 732.723 2384.86 731.648 2381.65C730.573 2378.45 728.675 2376.2 727.411 2376.62C726.147 2377.04 725.994 2379.99 727.068 2383.19C728.144 2386.4 731.304 2388.23 731.304 2388.23Z" fill="#E64939"/>
<path d="M728.436 2386.8C728.436 2386.8 727.164 2383.67 724.364 2382.28C721.566 2380.88 718.851 2380.65 718.301 2381.75C717.752 2382.86 719.577 2384.88 722.375 2386.28C725.174 2387.67 728.436 2386.8 728.436 2386.8Z" fill="#E64939"/>
<path d="M729.874 2391.1C729.874 2391.1 726.745 2392.37 725.353 2395.17C723.961 2397.97 723.726 2400.68 724.831 2401.23C725.935 2401.78 727.96 2399.96 729.352 2397.16C730.745 2394.36 729.874 2391.1 729.874 2391.1Z" fill="#E64939"/>
<path d="M734.172 2389.66C734.172 2389.66 735.445 2392.79 738.245 2394.18C741.042 2395.57 743.758 2395.8 744.307 2394.7C744.856 2393.6 743.031 2391.57 740.233 2390.18C737.436 2388.79 734.172 2389.66 734.172 2389.66" fill="#E64939"/>
<path d="M732.734 2385.36C732.734 2385.36 735.863 2384.09 737.256 2381.29C738.647 2378.49 738.882 2375.77 737.779 2375.23C736.674 2374.68 734.65 2376.5 733.257 2379.3C731.864 2382.1 732.734 2385.36 732.734 2385.36Z" fill="#E64939"/>
<path d="M731.305 2388.23C731.305 2388.23 729.886 2391.59 730.961 2394.8C732.035 2398 733.933 2400.26 735.197 2399.83C736.461 2399.41 736.615 2396.47 735.54 2393.26C734.465 2390.06 731.305 2388.23 731.305 2388.23Z" fill="#E64939"/>
<path d="M731.305 2388.23C731.305 2388.23 727.448 2392.07 721.737 2393.98C716.03 2395.9 711.055 2396.42 710.631 2395.16C710.207 2393.9 714.494 2391.32 720.201 2389.4C725.912 2387.49 731.305 2388.23 731.305 2388.23Z" fill="#E64939"/>
<path d="M720.467 2355.91C718.377 2356.61 717.247 2358.89 717.948 2360.98C718.649 2363.07 720.919 2364.2 723.009 2363.49C725.099 2362.79 726.229 2360.52 725.528 2358.43C724.828 2356.34 722.556 2355.21 720.467 2355.91ZM723.645 2365.39C720.51 2366.44 717.105 2364.75 716.053 2361.61C715.002 2358.48 716.696 2355.07 719.831 2354.02C722.966 2352.97 726.372 2354.66 727.423 2357.8C728.475 2360.93 726.78 2364.34 723.645 2365.39Z" fill="#D9D3D3"/>
<path d="M729.685 2370.43L721.868 2373.06C720.298 2373.58 718.598 2372.74 718.072 2371.17L717 2367.97C716.473 2366.4 717.319 2364.7 718.889 2364.17L726.706 2361.55C728.275 2361.03 729.976 2361.87 730.502 2363.44L731.574 2366.64C732.1 2368.21 731.254 2369.91 729.685 2370.43Z" fill="#D9D3D3"/>
<path d="M410.183 2865.59C407.929 2871.33 409.214 2877.94 413.22 2884.44C418.959 2893.76 431.543 2903.5 435.431 2910.7C437.707 2914.9 439.574 2919.81 439.716 2924.73C443.168 2921.23 447.882 2918.9 452.413 2917.37C460.163 2914.75 476.013 2916.18 486.558 2913.27C493.915 2911.23 499.36 2907.26 501.614 2901.53C507.174 2887.38 491.215 2867.87 465.967 2857.95C440.718 2848.02 415.743 2851.44 410.183 2865.59" fill="#FCAF34"/>
<path d="M483.433 2890.98C480.219 2899.16 465.805 2901.14 451.239 2895.42C436.672 2889.69 427.469 2878.42 430.683 2870.25C433.898 2862.07 448.312 2860.08 462.879 2865.81C477.445 2871.53 486.647 2882.8 483.433 2890.98Z" fill="#FFEED6"/>
<path d="M457.059 2880.61C457.059 2880.61 461.811 2885.85 469.097 2888.71C476.376 2891.58 482.798 2892.59 483.432 2890.98C484.066 2889.36 478.673 2885.73 471.393 2882.87C464.108 2880.01 457.059 2880.61 457.059 2880.61Z" fill="#E64939"/>
<path d="M457.059 2880.61C457.059 2880.61 461.283 2878.44 462.891 2874.35C464.497 2870.27 464.491 2866.44 462.879 2865.8C461.266 2865.17 458.655 2867.97 457.048 2872.06C455.441 2876.15 457.059 2880.61 457.059 2880.61Z" fill="#E64939"/>
<path d="M455.396 2876.79C455.396 2876.79 456.742 2872.61 455.118 2868.89C453.496 2865.17 450.989 2862.66 449.519 2863.3C448.05 2863.94 448.176 2867.48 449.798 2871.21C451.421 2874.93 455.396 2876.79 455.396 2876.79Z" fill="#E64939"/>
<path d="M453.238 2882.27C453.238 2882.27 449.06 2880.93 445.336 2882.55C441.614 2884.17 439.111 2886.68 439.752 2888.15C440.393 2889.62 443.932 2889.49 447.655 2887.87C451.38 2886.25 453.238 2882.27 453.238 2882.27Z" fill="#E64939"/>
<path d="M458.718 2884.43C458.718 2884.43 457.372 2888.61 458.996 2892.33C460.618 2896.06 463.127 2898.56 464.595 2897.92C466.064 2897.28 465.938 2893.74 464.317 2890.01C462.695 2886.29 458.718 2884.43 458.718 2884.43" fill="#E64939"/>
<path d="M460.877 2878.95C460.877 2878.95 465.054 2880.3 468.78 2878.67C472.502 2877.05 475.005 2874.54 474.365 2873.07C473.724 2871.6 470.184 2871.73 466.46 2873.35C462.735 2874.97 460.877 2878.95 460.877 2878.95Z" fill="#E64939"/>
<path d="M457.059 2880.61C457.059 2880.61 452.835 2882.77 451.227 2886.86C449.621 2890.95 449.627 2894.78 451.239 2895.42C452.852 2896.05 455.463 2893.25 457.069 2889.16C458.677 2885.07 457.059 2880.61 457.059 2880.61Z" fill="#E64939"/>
<path d="M457.058 2880.61C457.058 2880.61 450.009 2881.21 442.723 2878.35C435.443 2875.48 430.05 2871.85 430.684 2870.24C431.318 2868.63 437.739 2869.64 445.019 2872.5C452.305 2875.37 457.058 2880.61 457.058 2880.61Z" fill="#E64939"/>
<path d="M473.261 2839.39C470.594 2838.34 467.573 2839.66 466.525 2842.32C465.477 2844.99 466.793 2848.01 469.46 2849.06C472.125 2850.1 475.147 2848.79 476.196 2846.12C477.243 2843.46 475.926 2840.43 473.261 2839.39ZM468.51 2851.47C464.51 2849.9 462.535 2845.37 464.108 2841.37C465.679 2837.37 470.211 2835.4 474.211 2836.97C478.21 2838.54 480.185 2843.07 478.613 2847.07C477.041 2851.07 472.508 2853.05 468.51 2851.47Z" fill="#D9D3D3"/>
<path d="M470.309 2861.55L460.336 2857.63C458.333 2856.84 457.349 2854.58 458.135 2852.57L459.738 2848.5C460.525 2846.49 462.787 2845.51 464.79 2846.3L474.762 2850.22C476.764 2851 477.751 2853.26 476.963 2855.27L475.361 2859.34C474.574 2861.35 472.311 2862.33 470.309 2861.55Z" fill="#D9D3D3"/>
<path d="M299.432 1935.65C297.7 1940.41 298.895 1945.82 302.32 1951.07C307.229 1958.61 317.77 1966.35 321.114 1972.17C323.071 1975.58 324.708 1979.58 324.927 1983.62C327.689 1980.66 331.513 1978.65 335.203 1977.3C341.514 1974.99 354.563 1975.83 363.164 1973.22C369.165 1971.39 373.554 1968.02 375.285 1963.26C379.557 1951.52 366.04 1935.83 345.093 1928.21C324.146 1920.58 303.703 1923.92 299.432 1935.65" fill="#FCAF34"/>
<path d="M360.13 1954.97C357.661 1961.76 345.863 1963.69 333.779 1959.29C321.693 1954.9 313.899 1945.83 316.367 1939.05C318.837 1932.26 330.635 1930.33 342.721 1934.73C354.805 1939.13 362.599 1948.19 360.13 1954.97Z" fill="#FFEED6"/>
<path d="M338.25 1947.01C338.25 1947.01 342.264 1951.21 348.308 1953.41C354.347 1955.61 359.644 1956.31 360.131 1954.97C360.618 1953.63 356.112 1950.77 350.072 1948.57C344.028 1946.37 338.25 1947.01 338.25 1947.01Z" fill="#E64939"/>
<path d="M338.25 1947.01C338.25 1947.01 341.674 1945.14 342.909 1941.75C344.143 1938.36 344.058 1935.21 342.721 1934.72C341.383 1934.24 339.297 1936.59 338.062 1939.98C336.828 1943.38 338.25 1947.01 338.25 1947.01Z" fill="#E64939"/>
<path d="M336.804 1943.91C336.804 1943.91 337.823 1940.45 336.411 1937.42C335.001 1934.4 332.889 1932.4 331.695 1932.95C330.502 1933.51 330.679 1936.41 332.09 1939.44C333.5 1942.46 336.804 1943.91 336.804 1943.91Z" fill="#E64939"/>
<path d="M335.146 1948.45C335.146 1948.45 331.686 1947.44 328.66 1948.85C325.637 1950.26 323.634 1952.37 324.191 1953.56C324.748 1954.76 327.652 1954.58 330.677 1953.17C333.702 1951.76 335.146 1948.45 335.146 1948.45Z" fill="#E64939"/>
<path d="M339.693 1950.11C339.693 1950.11 338.675 1953.57 340.087 1956.6C341.497 1959.62 343.61 1961.62 344.803 1961.07C345.996 1960.51 345.819 1957.61 344.409 1954.58C342.999 1951.56 339.693 1950.11 339.693 1950.11" fill="#E64939"/>
<path d="M341.352 1945.57C341.352 1945.57 344.811 1946.59 347.837 1945.17C350.861 1943.76 352.864 1941.65 352.308 1940.46C351.751 1939.26 348.846 1939.44 345.821 1940.85C342.795 1942.26 341.352 1945.57 341.352 1945.57Z" fill="#E64939"/>
<path d="M338.25 1947.01C338.25 1947.01 334.826 1948.88 333.591 1952.27C332.357 1955.66 332.442 1958.8 333.779 1959.29C335.117 1959.78 337.203 1957.42 338.438 1954.03C339.672 1950.64 338.25 1947.01 338.25 1947.01Z" fill="#E64939"/>
<path d="M338.251 1947.01C338.251 1947.01 332.473 1947.65 326.428 1945.45C320.388 1943.25 315.883 1940.38 316.37 1939.04C316.857 1937.71 322.152 1938.4 328.192 1940.6C334.237 1942.8 338.251 1947.01 338.251 1947.01Z" fill="#E64939"/>
<path d="M350.697 1912.81C348.485 1912 346.031 1913.15 345.226 1915.36C344.421 1917.57 345.565 1920.03 347.777 1920.83C349.989 1921.64 352.444 1920.49 353.249 1918.28C354.054 1916.07 352.909 1913.61 350.697 1912.81ZM347.047 1922.84C343.729 1921.63 342.013 1917.95 343.22 1914.63C344.428 1911.31 348.109 1909.6 351.427 1910.8C354.745 1912.01 356.462 1915.69 355.255 1919.01C354.047 1922.33 350.365 1924.05 347.047 1922.84Z" fill="#D9D3D3"/>
<path d="M348.735 1931.07L340.462 1928.06C338.8 1927.46 337.944 1925.62 338.548 1923.96L339.779 1920.57C340.384 1918.91 342.221 1918.06 343.883 1918.66L352.156 1921.67C353.817 1922.28 354.675 1924.11 354.07 1925.78L352.839 1929.16C352.234 1930.82 350.396 1931.68 348.735 1931.07Z" fill="#D9D3D3"/>
<path d="M696.065 1811.26C697.797 1816.02 702.188 1819.39 708.191 1821.22C716.793 1823.83 729.843 1822.99 736.151 1825.3C739.841 1826.65 743.662 1828.66 746.426 1831.61C746.644 1827.58 748.282 1823.58 750.238 1820.17C753.586 1814.34 764.126 1806.6 769.034 1799.07C772.458 1793.82 773.65 1788.41 771.919 1783.65C767.647 1771.92 747.206 1768.58 726.259 1776.21C705.312 1783.83 691.794 1799.52 696.065 1811.26" fill="#FCAF34"/>
<path d="M754.983 1787.05C757.452 1793.83 749.658 1802.9 737.574 1807.29C725.488 1811.69 713.689 1809.76 711.22 1802.97C708.751 1796.19 716.546 1787.12 728.632 1782.73C740.716 1778.33 752.514 1780.26 754.983 1787.05Z" fill="#FFEED6"/>
<path d="M733.102 1795.01C733.102 1795.01 738.88 1795.65 744.924 1793.45C750.964 1791.25 755.469 1788.38 754.982 1787.04C754.495 1785.71 749.2 1786.4 743.16 1788.6C737.116 1790.8 733.102 1795.01 733.102 1795.01Z" fill="#E64939"/>
<path d="M733.102 1795.01C733.102 1795.01 734.525 1791.38 733.29 1787.98C732.056 1784.59 729.969 1782.24 728.631 1782.72C727.293 1783.21 727.209 1786.36 728.443 1789.75C729.678 1793.14 733.102 1795.01 733.102 1795.01Z" fill="#E64939"/>
<path d="M730.001 1793.56C730.001 1793.56 728.557 1790.26 725.53 1788.85C722.506 1787.44 719.601 1787.26 719.044 1788.45C718.488 1789.65 720.491 1791.76 723.516 1793.17C726.542 1794.58 730.001 1793.56 730.001 1793.56Z" fill="#E64939"/>
<path d="M731.654 1798.11C731.654 1798.11 728.348 1799.56 726.937 1802.58C725.528 1805.6 725.351 1808.51 726.545 1809.07C727.739 1809.62 729.851 1807.62 731.261 1804.6C732.672 1801.57 731.654 1798.11 731.654 1798.11Z" fill="#E64939"/>
<path d="M736.202 1796.46C736.202 1796.46 737.646 1799.76 740.673 1801.17C743.697 1802.58 746.602 1802.76 747.158 1801.57C747.714 1800.37 745.711 1798.26 742.686 1796.85C739.662 1795.44 736.202 1796.46 736.202 1796.46" fill="#E64939"/>
<path d="M734.55 1791.91C734.55 1791.91 737.855 1790.47 739.266 1787.44C740.675 1784.42 740.852 1781.51 739.659 1780.95C738.466 1780.4 736.354 1782.4 734.943 1785.42C733.532 1788.45 734.55 1791.91 734.55 1791.91Z" fill="#E64939"/>
<path d="M733.102 1795.01C733.102 1795.01 731.678 1798.64 732.913 1802.03C734.147 1805.42 736.235 1807.78 737.572 1807.29C738.91 1806.8 738.994 1803.66 737.76 1800.27C736.525 1796.87 733.102 1795.01 733.102 1795.01Z" fill="#E64939"/>
<path d="M733.101 1795.01C733.101 1795.01 729.088 1799.21 723.044 1801.41C717.003 1803.61 711.707 1804.31 711.22 1802.97C710.733 1801.63 715.239 1798.76 721.28 1796.57C727.324 1794.37 733.101 1795.01 733.101 1795.01Z" fill="#E64939"/>
<path d="M720.654 1760.81C718.442 1761.61 717.298 1764.07 718.103 1766.28C718.908 1768.49 721.362 1769.64 723.574 1768.83C725.785 1768.03 726.931 1765.57 726.126 1763.36C725.321 1761.15 722.865 1760 720.654 1760.81ZM724.304 1770.84C720.986 1772.05 717.305 1770.33 716.097 1767.01C714.89 1763.69 716.606 1760.01 719.924 1758.8C723.242 1757.6 726.924 1759.31 728.131 1762.63C729.339 1765.95 727.622 1769.63 724.304 1770.84Z" fill="#D9D3D3"/>
<path d="M730.889 1776.06L722.616 1779.07C720.954 1779.68 719.117 1778.82 718.512 1777.16L717.281 1773.77C716.676 1772.11 717.533 1770.28 719.195 1769.67L727.468 1766.66C729.129 1766.06 730.967 1766.91 731.572 1768.57L732.803 1771.96C733.407 1773.62 732.55 1775.46 730.889 1776.06Z" fill="#D9D3D3"/>
<path d="M529.103 1073.26C523.227 1089.41 505.377 1097.73 489.232 1091.86C473.087 1085.98 464.763 1068.13 470.639 1051.98C476.515 1035.84 494.366 1027.52 510.511 1033.39C526.656 1039.27 534.979 1057.12 529.103 1073.26Z" fill="#E64939"/>
<path d="M517.116 1015.24C514.243 1014.2 511.055 1015.69 510.009 1018.56C508.963 1021.43 510.45 1024.62 513.323 1025.67C516.195 1026.71 519.384 1025.22 520.43 1022.35C521.475 1019.48 519.988 1016.29 517.116 1015.24ZM512.375 1028.27C508.065 1026.7 505.835 1021.92 507.404 1017.61C508.972 1013.3 513.754 1011.07 518.064 1012.64C522.373 1014.21 524.603 1018.99 523.035 1023.3C521.466 1027.61 516.684 1029.84 512.375 1028.27Z" fill="#D9D3D3"/>
<path d="M514.569 1038.96L503.823 1035.05C501.664 1034.27 500.552 1031.88 501.337 1029.72L502.936 1025.33C503.722 1023.17 506.108 1022.06 508.266 1022.84L519.012 1026.76C521.169 1027.54 522.283 1029.93 521.498 1032.09L519.899 1036.48C519.113 1038.64 516.726 1039.75 514.569 1038.96Z" fill="#D9D3D3"/>
<path d="M479.688 1038.96L530.545 1057.47C530.213 1055.51 529.697 1053.59 529.005 1051.74L484.547 1035.56C482.829 1036.53 481.201 1037.67 479.688 1038.96Z" fill="#FCAF34"/>
<path d="M468.8 1064.25L522.63 1083.84C523.782 1082.61 524.836 1081.26 525.788 1079.83L468.96 1059.14C468.767 1060.85 468.711 1062.56 468.8 1064.25Z" fill="#FCAF34"/>
<path d="M506.212 1060.66C505.214 1063.4 502.181 1064.81 499.439 1063.81C496.696 1062.82 495.281 1059.78 496.279 1057.04C497.278 1054.3 500.311 1052.88 503.054 1053.88C505.796 1054.88 507.21 1057.91 506.212 1060.66Z" fill="#FCAF34"/>
<path d="M487.08 1053.7C486.491 1055.31 484.7 1056.15 483.082 1055.56C481.464 1054.97 480.629 1053.18 481.218 1051.56C481.807 1049.94 483.598 1049.11 485.216 1049.7C486.833 1050.29 487.669 1052.08 487.08 1053.7Z" fill="#FCAF34"/>
<path d="M515.411 1064.01C514.823 1065.63 515.658 1067.42 517.276 1068.01C518.893 1068.59 520.684 1067.76 521.273 1066.14C521.862 1064.52 521.027 1062.73 519.409 1062.14C517.791 1061.55 516.001 1062.39 515.411 1064.01Z" fill="#FCAF34"/>
<path d="M583.103 1670.26C577.227 1686.41 559.377 1694.73 543.232 1688.86C527.087 1682.98 518.763 1665.13 524.639 1648.98C530.515 1632.84 548.366 1624.52 564.511 1630.39C580.656 1636.27 588.979 1654.12 583.103 1670.26Z" fill="#E64939"/>
<path d="M571.116 1612.24C568.243 1611.2 565.055 1612.69 564.009 1615.56C562.963 1618.43 564.45 1621.62 567.323 1622.67C570.195 1623.71 573.384 1622.22 574.43 1619.35C575.475 1616.48 573.988 1613.29 571.116 1612.24ZM566.375 1625.27C562.065 1623.7 559.835 1618.92 561.404 1614.61C562.972 1610.3 567.754 1608.07 572.064 1609.64C576.373 1611.21 578.603 1615.99 577.035 1620.3C575.466 1624.61 570.684 1626.84 566.375 1625.27Z" fill="#D9D3D3"/>
<path d="M568.569 1635.96L557.823 1632.05C555.664 1631.27 554.552 1628.88 555.337 1626.72L556.936 1622.33C557.722 1620.17 560.108 1619.06 562.266 1619.84L573.012 1623.76C575.169 1624.54 576.283 1626.93 575.498 1629.09L573.899 1633.48C573.113 1635.64 570.726 1636.75 568.569 1635.96Z" fill="#D9D3D3"/>
<path d="M533.688 1635.96L584.545 1654.47C584.213 1652.51 583.697 1650.59 583.005 1648.74L538.547 1632.56C536.829 1633.53 535.201 1634.67 533.688 1635.96Z" fill="#FCAF34"/>
<path d="M522.8 1661.25L576.63 1680.84C577.782 1679.61 578.836 1678.26 579.788 1676.83L522.96 1656.14C522.767 1657.85 522.711 1659.56 522.8 1661.25Z" fill="#FCAF34"/>
<path d="M560.212 1657.66C559.214 1660.4 556.181 1661.81 553.439 1660.81C550.696 1659.82 549.281 1656.78 550.279 1654.04C551.278 1651.3 554.311 1649.88 557.054 1650.88C559.796 1651.88 561.21 1654.91 560.212 1657.66Z" fill="#FCAF34"/>
<path d="M541.08 1650.7C540.491 1652.31 538.7 1653.15 537.082 1652.56C535.464 1651.97 534.629 1650.18 535.218 1648.56C535.807 1646.94 537.598 1646.11 539.216 1646.7C540.833 1647.29 541.669 1649.08 541.08 1650.7Z" fill="#FCAF34"/>
<path d="M569.411 1661.01C568.823 1662.63 569.658 1664.42 571.276 1665.01C572.893 1665.59 574.684 1664.76 575.273 1663.14C575.862 1661.52 575.027 1659.73 573.409 1659.14C571.791 1658.55 570.001 1659.39 569.411 1661.01Z" fill="#FCAF34"/>
<path d="M492.103 2157.26C486.227 2173.41 468.377 2181.73 452.232 2175.86C436.087 2169.98 427.763 2152.13 433.639 2135.98C439.515 2119.84 457.366 2111.52 473.511 2117.39C489.656 2123.27 497.979 2141.12 492.103 2157.26Z" fill="#E64939"/>
<path d="M480.116 2099.24C477.243 2098.2 474.055 2099.69 473.009 2102.56C471.963 2105.43 473.45 2108.62 476.323 2109.67C479.195 2110.71 482.384 2109.22 483.43 2106.35C484.475 2103.48 482.988 2100.29 480.116 2099.24ZM475.375 2112.27C471.065 2110.7 468.835 2105.92 470.404 2101.61C471.972 2097.3 476.754 2095.07 481.064 2096.64C485.373 2098.21 487.603 2102.99 486.035 2107.3C484.466 2111.61 479.684 2113.84 475.375 2112.27Z" fill="#D9D3D3"/>
<path d="M477.569 2122.96L466.823 2119.05C464.664 2118.27 463.552 2115.88 464.337 2113.72L465.936 2109.33C466.722 2107.17 469.108 2106.06 471.266 2106.84L482.012 2110.76C484.169 2111.54 485.283 2113.93 484.498 2116.09L482.899 2120.48C482.113 2122.64 479.726 2123.75 477.569 2122.96Z" fill="#D9D3D3"/>
<path d="M442.688 2122.96L493.545 2141.47C493.213 2139.51 492.697 2137.59 492.005 2135.74L447.547 2119.56C445.829 2120.53 444.201 2121.67 442.688 2122.96Z" fill="#FCAF34"/>
<path d="M431.8 2148.25L485.63 2167.84C486.782 2166.61 487.836 2165.26 488.788 2163.83L431.96 2143.14C431.767 2144.85 431.711 2146.56 431.8 2148.25Z" fill="#FCAF34"/>
<path d="M469.212 2144.66C468.214 2147.4 465.181 2148.81 462.439 2147.81C459.696 2146.82 458.281 2143.78 459.279 2141.04C460.278 2138.3 463.311 2136.88 466.054 2137.88C468.796 2138.88 470.21 2141.91 469.212 2144.66Z" fill="#FCAF34"/>
<path d="M450.08 2137.7C449.491 2139.31 447.7 2140.15 446.082 2139.56C444.464 2138.97 443.629 2137.18 444.218 2135.56C444.807 2133.94 446.598 2133.11 448.216 2133.7C449.833 2134.29 450.669 2136.08 450.08 2137.7Z" fill="#FCAF34"/>
<path d="M478.411 2148.01C477.823 2149.63 478.658 2151.42 480.276 2152.01C481.893 2152.59 483.684 2151.76 484.273 2150.14C484.862 2148.52 484.027 2146.73 482.409 2146.14C480.791 2145.55 479.001 2146.39 478.411 2148.01Z" fill="#FCAF34"/>
<path d="M555.283 2572.27C548.998 2588.26 530.942 2596.12 514.952 2589.84C498.962 2583.55 491.095 2565.5 497.38 2549.51C503.665 2533.52 521.721 2525.65 537.712 2531.93C553.701 2538.22 561.568 2556.28 555.283 2572.27Z" fill="#E64939"/>
<path d="M544.776 2513.96C541.93 2512.84 538.706 2514.25 537.588 2517.09C536.469 2519.94 537.874 2523.16 540.72 2524.28C543.564 2525.4 546.79 2524 547.908 2521.15C549.026 2518.31 547.621 2515.08 544.776 2513.96ZM539.705 2526.86C535.436 2525.18 533.329 2520.35 535.007 2516.08C536.685 2511.81 541.522 2509.7 545.79 2511.38C550.058 2513.06 552.166 2517.9 550.488 2522.16C548.811 2526.43 543.973 2528.54 539.705 2526.86Z" fill="#D9D3D3"/>
<path d="M541.627 2537.61L530.984 2533.42C528.846 2532.58 527.794 2530.17 528.635 2528.03L530.344 2523.68C531.185 2521.54 533.598 2520.49 535.736 2521.33L546.379 2525.52C548.516 2526.36 549.569 2528.77 548.728 2530.91L547.018 2535.26C546.178 2537.4 543.763 2538.45 541.627 2537.61Z" fill="#D9D3D3"/>
<path d="M506.758 2536.71L557.127 2556.51C556.845 2554.54 556.378 2552.61 555.733 2550.75L511.701 2533.44C509.959 2534.37 508.303 2535.46 506.758 2536.71Z" fill="#FCAF34"/>
<path d="M495.229 2561.72L548.543 2582.68C549.726 2581.47 550.814 2580.15 551.802 2578.74L495.519 2556.62C495.282 2558.33 495.183 2560.03 495.229 2561.72Z" fill="#FCAF34"/>
<path d="M532.72 2559.08C531.652 2561.8 528.585 2563.13 525.869 2562.06C523.152 2561 521.815 2557.93 522.883 2555.21C523.951 2552.5 527.018 2551.16 529.735 2552.23C532.451 2553.3 533.788 2556.36 532.72 2559.08Z" fill="#FCAF34"/>
<path d="M513.772 2551.64C513.142 2553.24 511.33 2554.03 509.728 2553.4C508.126 2552.77 507.336 2550.96 507.966 2549.35C508.596 2547.75 510.408 2546.96 512.01 2547.59C513.612 2548.22 514.402 2550.03 513.772 2551.64Z" fill="#FCAF34"/>
<path d="M541.831 2562.66C541.202 2564.27 541.991 2566.08 543.593 2566.71C545.195 2567.34 547.007 2566.55 547.637 2564.95C548.267 2563.34 547.477 2561.53 545.875 2560.9C544.273 2560.27 542.462 2561.06 541.831 2562.66Z" fill="#FCAF34"/>
<path d="M917.28 2894.27C910.995 2910.26 892.939 2918.12 876.949 2911.84C860.959 2905.55 853.092 2887.5 859.377 2871.51C865.662 2855.52 883.718 2847.65 899.709 2853.93C915.698 2860.22 923.565 2878.28 917.28 2894.27Z" fill="#E64939"/>
<path d="M906.773 2835.96C903.927 2834.84 900.703 2836.25 899.585 2839.09C898.466 2841.94 899.871 2845.16 902.717 2846.28C905.561 2847.4 908.787 2846 909.905 2843.15C911.024 2840.31 909.618 2837.08 906.773 2835.96ZM901.702 2848.86C897.434 2847.18 895.326 2842.35 897.004 2838.08C898.682 2833.81 903.519 2831.7 907.788 2833.38C912.055 2835.06 914.163 2839.9 912.486 2844.16C910.808 2848.43 905.97 2850.54 901.702 2848.86Z" fill="#D9D3D3"/>
<path d="M903.624 2859.61L892.981 2855.42C890.843 2854.58 889.791 2852.17 890.632 2850.03L892.342 2845.68C893.182 2843.54 895.595 2842.49 897.733 2843.33L908.376 2847.52C910.513 2848.36 911.566 2850.77 910.725 2852.91L909.015 2857.26C908.175 2859.4 905.76 2860.45 903.624 2859.61Z" fill="#D9D3D3"/>
<path d="M868.755 2858.71L919.124 2878.51C918.842 2876.54 918.375 2874.61 917.73 2872.75L873.698 2855.44C871.956 2856.37 870.3 2857.46 868.755 2858.71Z" fill="#FCAF34"/>
<path d="M857.226 2883.72L910.54 2904.68C911.723 2903.47 912.811 2902.15 913.799 2900.74L857.516 2878.62C857.279 2880.33 857.18 2882.03 857.226 2883.72Z" fill="#FCAF34"/>
<path d="M894.717 2881.08C893.649 2883.8 890.582 2885.13 887.866 2884.06C885.149 2883 883.812 2879.93 884.88 2877.21C885.948 2874.5 889.015 2873.16 891.732 2874.23C894.448 2875.3 895.785 2878.36 894.717 2881.08Z" fill="#FCAF34"/>
<path d="M875.769 2873.64C875.139 2875.24 873.327 2876.03 871.725 2875.4C870.123 2874.77 869.333 2872.96 869.963 2871.35C870.594 2869.75 872.405 2868.96 874.007 2869.59C875.609 2870.22 876.399 2872.03 875.769 2873.64Z" fill="#FCAF34"/>
<path d="M903.828 2884.66C903.199 2886.27 903.988 2888.08 905.59 2888.71C907.192 2889.34 909.004 2888.55 909.634 2886.95C910.264 2885.34 909.474 2883.53 907.872 2882.9C906.27 2882.27 904.459 2883.06 903.828 2884.66Z" fill="#FCAF34"/>
<path d="M638.655 742.776C636.713 743.483 635.709 745.636 636.415 747.578C637.122 749.519 639.276 750.524 641.218 749.817C643.158 749.111 644.163 746.956 643.457 745.015C642.75 743.074 640.595 742.07 638.655 742.776ZM641.858 751.578C638.947 752.638 635.715 751.131 634.655 748.219C633.595 745.306 635.102 742.075 638.014 741.016C640.926 739.956 644.157 741.462 645.217 744.375C646.277 747.286 644.771 750.518 641.858 751.578Z" fill="#D9D3D3"/>
<path d="M652.843 780.149C652.553 780.577 651.971 780.689 651.542 780.401L623.165 761.26C622.737 760.971 622.623 760.39 622.912 759.96C623.202 759.531 623.784 759.418 624.212 759.708L652.591 778.848C653.019 779.137 653.132 779.719 652.843 780.149" fill="#FFEED6"/>
<path d="M625.129 758.346C626.311 759.142 626.622 760.745 625.826 761.926C625.03 763.107 623.428 763.418 622.247 762.621C621.066 761.824 620.755 760.222 621.551 759.041C622.346 757.861 623.95 757.549 625.129 758.346" fill="#FFEED6"/>
<path d="M652.804 779.047C653.123 779.455 653.05 780.044 652.643 780.363L625.67 801.436C625.263 801.753 624.675 801.683 624.355 801.275C624.037 800.866 624.109 800.279 624.518 799.96L651.49 778.885C651.898 778.568 652.485 778.64 652.804 779.047Z" fill="#FFEED6"/>
<path d="M623.506 798.666C624.628 797.788 626.248 797.988 627.125 799.109C628.002 800.232 627.803 801.852 626.681 802.729C625.558 803.606 623.938 803.407 623.061 802.286C622.184 801.163 622.383 799.542 623.506 798.666Z" fill="#FFEED6"/>
<path d="M651.744 778.744C652.231 778.566 652.768 778.818 652.945 779.304L664.652 811.468C664.829 811.954 664.581 812.491 664.093 812.669C663.606 812.845 663.069 812.595 662.892 812.109L651.184 779.944C651.007 779.457 651.259 778.921 651.744 778.744Z" fill="#FFEED6"/>
<path d="M661.349 812.672C660.861 811.333 661.553 809.853 662.889 809.366C664.228 808.879 665.708 809.568 666.195 810.907C666.682 812.246 665.993 813.725 664.654 814.213C663.317 814.7 661.835 814.009 661.349 812.672Z" fill="#FFEED6"/>
<path d="M651.131 779.657C651.112 779.141 651.517 778.707 652.034 778.689L686.243 777.494C686.758 777.477 687.193 777.879 687.211 778.397C687.228 778.916 686.824 779.348 686.308 779.365L652.098 780.561C651.581 780.579 651.149 780.176 651.131 779.657" fill="#FFEED6"/>
<path d="M686.364 781.007C684.94 781.057 683.746 779.944 683.696 778.521C683.646 777.098 684.759 775.903 686.183 775.854C687.607 775.804 688.799 776.917 688.851 778.341C688.901 779.763 687.787 780.958 686.364 781.007" fill="#FFEED6"/>
<path d="M651.808 780.524C651.31 780.381 651.022 779.863 651.166 779.365L660.601 746.462C660.743 745.966 661.259 745.676 661.759 745.818C662.257 745.963 662.543 746.482 662.4 746.978L652.966 779.882C652.823 780.38 652.306 780.666 651.808 780.524Z" fill="#FFEED6"/>
<path d="M663.978 747.433C663.587 748.801 662.157 749.593 660.79 749.201C659.42 748.808 658.628 747.382 659.021 746.012C659.413 744.642 660.84 743.851 662.211 744.243C663.579 744.636 664.371 746.064 663.978 747.433Z" fill="#FFEED6"/>
<path d="M648.607 753.567C649.968 757.307 652.066 779.624 652.066 779.624C652.066 779.624 639.329 761.179 637.968 757.439C636.607 753.7 637.884 749.801 640.822 748.732C643.761 747.662 647.246 749.828 648.607 753.567Z" fill="#E64939"/>
<path d="M626.215 774.861C630.192 774.723 652.065 779.624 652.065 779.624C652.065 779.624 630.587 786.037 626.611 786.176C622.633 786.315 619.32 783.895 619.211 780.77C619.103 777.645 622.238 775.001 626.215 774.861Z" fill="#E64939"/>
<path d="M639.548 802.736C640.645 798.913 652.066 779.624 652.066 779.624C652.066 779.624 651.529 802.033 650.431 805.858C649.334 809.684 646.01 812.086 643.004 811.225C639.997 810.363 638.451 806.564 639.548 802.736" fill="#E64939"/>
<path d="M670.179 798.67C666.88 796.446 652.065 779.624 652.065 779.624C652.065 779.624 673.211 787.059 676.509 789.285C679.809 791.511 681.067 795.415 679.319 798.007C677.569 800.599 673.479 800.896 670.179 798.67Z" fill="#E64939"/>
<path d="M675.777 768.283C672.643 770.733 652.065 779.624 652.065 779.624C652.065 779.624 665.672 761.811 668.808 759.362C671.944 756.911 676.045 756.921 677.97 759.385C679.896 761.85 678.914 765.833 675.777 768.283Z" fill="#E64939"/>
<path d="M656.761 777.914C657.704 780.507 656.368 783.375 653.774 784.319C651.181 785.263 648.313 783.926 647.369 781.333C646.425 778.74 647.763 775.871 650.356 774.928C652.95 773.984 655.817 775.321 656.761 777.914Z" fill="#E64939"/>
<path d="M719.655 1461.78C717.713 1462.48 716.709 1464.64 717.415 1466.58C718.122 1468.52 720.276 1469.52 722.218 1468.82C724.158 1468.11 725.163 1465.96 724.457 1464.02C723.75 1462.07 721.595 1461.07 719.655 1461.78ZM722.858 1470.58C719.947 1471.64 716.715 1470.13 715.655 1467.22C714.595 1464.31 716.102 1461.08 719.014 1460.02C721.926 1458.96 725.157 1460.46 726.217 1463.37C727.277 1466.29 725.771 1469.52 722.858 1470.58Z" fill="#D9D3D3"/>
<path d="M733.843 1499.15C733.553 1499.58 732.971 1499.69 732.542 1499.4L704.165 1480.26C703.737 1479.97 703.623 1479.39 703.912 1478.96C704.202 1478.53 704.784 1478.42 705.212 1478.71L733.591 1497.85C734.019 1498.14 734.132 1498.72 733.843 1499.15" fill="#FFEED6"/>
<path d="M706.129 1477.35C707.311 1478.14 707.622 1479.75 706.826 1480.93C706.03 1482.11 704.428 1482.42 703.247 1481.62C702.066 1480.82 701.755 1479.22 702.551 1478.04C703.346 1476.86 704.95 1476.55 706.129 1477.35" fill="#FFEED6"/>
<path d="M733.804 1498.05C734.123 1498.46 734.05 1499.04 733.643 1499.36L706.67 1520.44C706.263 1520.75 705.675 1520.68 705.355 1520.28C705.037 1519.87 705.109 1519.28 705.518 1518.96L732.49 1497.89C732.898 1497.57 733.485 1497.64 733.804 1498.05Z" fill="#FFEED6"/>
<path d="M704.506 1517.67C705.628 1516.79 707.248 1516.99 708.125 1518.11C709.002 1519.23 708.803 1520.85 707.681 1521.73C706.558 1522.61 704.938 1522.41 704.061 1521.29C703.184 1520.16 703.383 1518.54 704.506 1517.67Z" fill="#FFEED6"/>
<path d="M732.744 1497.74C733.231 1497.57 733.768 1497.82 733.945 1498.3L745.652 1530.47C745.829 1530.95 745.581 1531.49 745.093 1531.67C744.606 1531.84 744.069 1531.59 743.892 1531.11L732.184 1498.94C732.007 1498.46 732.259 1497.92 732.744 1497.74Z" fill="#FFEED6"/>
<path d="M742.349 1531.67C741.861 1530.33 742.553 1528.85 743.889 1528.37C745.228 1527.88 746.708 1528.57 747.195 1529.91C747.682 1531.25 746.993 1532.72 745.654 1533.21C744.317 1533.7 742.835 1533.01 742.349 1531.67Z" fill="#FFEED6"/>
<path d="M732.131 1498.66C732.112 1498.14 732.517 1497.71 733.034 1497.69L767.243 1496.49C767.758 1496.48 768.193 1496.88 768.211 1497.4C768.228 1497.92 767.824 1498.35 767.308 1498.37L733.098 1499.56C732.581 1499.58 732.149 1499.18 732.131 1498.66" fill="#FFEED6"/>
<path d="M767.364 1500.01C765.94 1500.06 764.746 1498.94 764.696 1497.52C764.646 1496.1 765.759 1494.9 767.183 1494.85C768.607 1494.8 769.799 1495.92 769.851 1497.34C769.901 1498.76 768.787 1499.96 767.364 1500.01" fill="#FFEED6"/>
<path d="M732.808 1499.52C732.31 1499.38 732.022 1498.86 732.166 1498.37L741.601 1465.46C741.743 1464.97 742.259 1464.68 742.759 1464.82C743.257 1464.96 743.543 1465.48 743.4 1465.98L733.966 1498.88C733.823 1499.38 733.306 1499.67 732.808 1499.52Z" fill="#FFEED6"/>
<path d="M744.978 1466.43C744.587 1467.8 743.157 1468.59 741.79 1468.2C740.42 1467.81 739.628 1466.38 740.021 1465.01C740.413 1463.64 741.84 1462.85 743.211 1463.24C744.579 1463.64 745.371 1465.06 744.978 1466.43Z" fill="#FFEED6"/>
<path d="M729.607 1472.57C730.968 1476.31 733.066 1498.62 733.066 1498.62C733.066 1498.62 720.329 1480.18 718.968 1476.44C717.607 1472.7 718.884 1468.8 721.822 1467.73C724.761 1466.66 728.246 1468.83 729.607 1472.57Z" fill="#E64939"/>
<path d="M707.215 1493.86C711.192 1493.72 733.065 1498.62 733.065 1498.62C733.065 1498.62 711.587 1505.04 707.611 1505.18C703.633 1505.31 700.32 1502.9 700.211 1499.77C700.103 1496.64 703.238 1494 707.215 1493.86Z" fill="#E64939"/>
<path d="M720.548 1521.74C721.645 1517.91 733.066 1498.62 733.066 1498.62C733.066 1498.62 732.529 1521.03 731.431 1524.86C730.334 1528.68 727.01 1531.09 724.004 1530.23C720.997 1529.36 719.451 1525.56 720.548 1521.74" fill="#E64939"/>
<path d="M751.179 1517.67C747.88 1515.45 733.065 1498.62 733.065 1498.62C733.065 1498.62 754.211 1506.06 757.509 1508.29C760.809 1510.51 762.067 1514.42 760.319 1517.01C758.569 1519.6 754.479 1519.9 751.179 1517.67Z" fill="#E64939"/>
<path d="M756.777 1487.28C753.643 1489.73 733.065 1498.62 733.065 1498.62C733.065 1498.62 746.672 1480.81 749.808 1478.36C752.944 1475.91 757.045 1475.92 758.97 1478.38C760.896 1480.85 759.914 1484.83 756.777 1487.28Z" fill="#E64939"/>
<path d="M737.761 1496.91C738.704 1499.51 737.368 1502.38 734.774 1503.32C732.181 1504.26 729.313 1502.93 728.369 1500.33C727.425 1497.74 728.763 1494.87 731.356 1493.93C733.95 1492.98 736.817 1494.32 737.761 1496.91Z" fill="#E64939"/>
<path d="M792.653 1922.78C790.711 1923.48 789.707 1925.64 790.413 1927.58C791.12 1929.52 793.274 1930.52 795.216 1929.82C797.156 1929.11 798.161 1926.96 797.455 1925.02C796.748 1923.07 794.593 1922.07 792.653 1922.78ZM795.856 1931.58C792.945 1932.64 789.713 1931.13 788.653 1928.22C787.593 1925.31 789.1 1922.08 792.012 1921.02C794.924 1919.96 798.155 1921.46 799.215 1924.37C800.275 1927.29 798.769 1930.52 795.856 1931.58Z" fill="#D9D3D3"/>
<path d="M806.841 1960.15C806.551 1960.58 805.969 1960.69 805.54 1960.4L777.163 1941.26C776.735 1940.97 776.621 1940.39 776.91 1939.96C777.2 1939.53 777.782 1939.42 778.21 1939.71L806.589 1958.85C807.017 1959.14 807.13 1959.72 806.841 1960.15" fill="#FFEED6"/>
<path d="M779.127 1938.35C780.309 1939.14 780.62 1940.75 779.824 1941.93C779.028 1943.11 777.426 1943.42 776.245 1942.62C775.064 1941.82 774.753 1940.22 775.549 1939.04C776.344 1937.86 777.948 1937.55 779.127 1938.35" fill="#FFEED6"/>
<path d="M806.802 1959.05C807.121 1959.46 807.048 1960.04 806.641 1960.36L779.668 1981.44C779.261 1981.75 778.673 1981.68 778.353 1981.28C778.035 1980.87 778.107 1980.28 778.516 1979.96L805.488 1958.89C805.896 1958.57 806.483 1958.64 806.802 1959.05Z" fill="#FFEED6"/>
<path d="M777.504 1978.67C778.626 1977.79 780.246 1977.99 781.123 1979.11C782 1980.23 781.801 1981.85 780.679 1982.73C779.556 1983.61 777.936 1983.41 777.059 1982.29C776.182 1981.16 776.381 1979.54 777.504 1978.67Z" fill="#FFEED6"/>
<path d="M805.742 1958.74C806.229 1958.57 806.766 1958.82 806.943 1959.3L818.65 1991.47C818.827 1991.95 818.579 1992.49 818.091 1992.67C817.604 1992.84 817.067 1992.59 816.89 1992.11L805.182 1959.94C805.005 1959.46 805.257 1958.92 805.742 1958.74Z" fill="#FFEED6"/>
<path d="M815.348 1992.67C814.859 1991.33 815.551 1989.85 816.888 1989.37C818.226 1988.88 819.706 1989.57 820.193 1990.91C820.68 1992.25 819.991 1993.72 818.652 1994.21C817.315 1994.7 815.833 1994.01 815.348 1992.67Z" fill="#FFEED6"/>
<path d="M805.129 1959.66C805.11 1959.14 805.515 1958.71 806.032 1958.69L840.241 1957.49C840.756 1957.48 841.191 1957.88 841.209 1958.4C841.226 1958.92 840.822 1959.35 840.306 1959.37L806.096 1960.56C805.579 1960.58 805.147 1960.18 805.129 1959.66" fill="#FFEED6"/>
<path d="M840.362 1961.01C838.938 1961.06 837.744 1959.94 837.694 1958.52C837.644 1957.1 838.757 1955.9 840.181 1955.85C841.605 1955.8 842.798 1956.92 842.849 1958.34C842.899 1959.76 841.785 1960.96 840.362 1961.01" fill="#FFEED6"/>
<path d="M805.806 1960.52C805.308 1960.38 805.021 1959.86 805.164 1959.37L814.599 1926.46C814.741 1925.97 815.257 1925.68 815.757 1925.82C816.255 1925.96 816.541 1926.48 816.398 1926.98L806.964 1959.88C806.821 1960.38 806.304 1960.67 805.806 1960.52Z" fill="#FFEED6"/>
<path d="M817.976 1927.43C817.585 1928.8 816.155 1929.59 814.788 1929.2C813.418 1928.81 812.626 1927.38 813.019 1926.01C813.411 1924.64 814.838 1923.85 816.209 1924.24C817.577 1924.64 818.37 1926.06 817.976 1927.43Z" fill="#FFEED6"/>
<path d="M802.605 1933.57C803.966 1937.31 806.064 1959.62 806.064 1959.62C806.064 1959.62 793.327 1941.18 791.966 1937.44C790.605 1933.7 791.882 1929.8 794.82 1928.73C797.759 1927.66 801.244 1929.83 802.605 1933.57Z" fill="#E64939"/>
<path d="M780.213 1954.86C784.19 1954.72 806.063 1959.62 806.063 1959.62C806.063 1959.62 784.585 1966.04 780.609 1966.18C776.631 1966.31 773.319 1963.9 773.209 1960.77C773.101 1957.64 776.236 1955 780.213 1954.86Z" fill="#E64939"/>
<path d="M793.546 1982.74C794.643 1978.91 806.064 1959.62 806.064 1959.62C806.064 1959.62 805.527 1982.03 804.429 1985.86C803.332 1989.68 800.008 1992.09 797.002 1991.23C793.996 1990.36 792.449 1986.56 793.546 1982.74" fill="#E64939"/>
<path d="M824.177 1978.67C820.878 1976.45 806.063 1959.62 806.063 1959.62C806.063 1959.62 827.209 1967.06 830.507 1969.29C833.807 1971.51 835.065 1975.42 833.317 1978.01C831.567 1980.6 827.477 1980.9 824.177 1978.67Z" fill="#E64939"/>
<path d="M829.775 1948.28C826.641 1950.73 806.063 1959.62 806.063 1959.62C806.063 1959.62 819.67 1941.81 822.806 1939.36C825.942 1936.91 830.043 1936.92 831.968 1939.38C833.894 1941.85 832.912 1945.83 829.775 1948.28Z" fill="#E64939"/>
<path d="M810.759 1957.91C811.702 1960.51 810.366 1963.38 807.772 1964.32C805.179 1965.26 802.311 1963.93 801.367 1961.33C800.423 1958.74 801.761 1955.87 804.354 1954.93C806.948 1953.98 809.815 1955.32 810.759 1957.91Z" fill="#E64939"/>
<path d="M1027.72 2293.88C1025.77 2294.53 1024.72 2296.65 1025.37 2298.59C1026.02 2300.54 1028.14 2301.6 1030.09 2300.94C1032.03 2300.29 1033.09 2298.17 1032.43 2296.22C1031.78 2294.28 1029.66 2293.22 1027.72 2293.88ZM1030.68 2302.71C1027.76 2303.69 1024.58 2302.11 1023.6 2299.19C1022.62 2296.26 1024.2 2293.09 1027.12 2292.11C1030.05 2291.13 1033.22 2292.71 1034.2 2295.63C1035.18 2298.55 1033.6 2301.73 1030.68 2302.71Z" fill="#D9D3D3"/>
<path d="M1040.88 2331.39C1040.58 2331.81 1040 2331.91 1039.58 2331.61L1011.85 2311.86C1011.43 2311.56 1011.33 2310.98 1011.63 2310.56C1011.93 2310.14 1012.51 2310.05 1012.93 2310.34L1040.66 2330.09C1041.08 2330.39 1041.17 2330.97 1040.88 2331.39" fill="#FFEED6"/>
<path d="M1013.88 2309.01C1015.03 2309.84 1015.3 2311.44 1014.48 2312.59C1013.66 2313.75 1012.06 2314.01 1010.9 2313.19C1009.75 2312.37 1009.48 2310.77 1010.3 2309.62C1011.12 2308.46 1012.72 2308.19 1013.88 2309.01" fill="#FFEED6"/>
<path d="M1040.87 2330.29C1041.17 2330.71 1041.08 2331.29 1040.67 2331.6L1013.32 2351.87C1012.91 2352.17 1012.33 2352.09 1012.02 2351.67C1011.71 2351.26 1011.8 2350.68 1012.21 2350.37L1039.56 2330.1C1039.98 2329.8 1040.56 2329.88 1040.87 2330.29Z" fill="#FFEED6"/>
<path d="M1011.24 2349.06C1012.38 2348.21 1013.99 2348.45 1014.83 2349.59C1015.67 2350.73 1015.43 2352.33 1014.3 2353.18C1013.16 2354.02 1011.55 2353.78 1010.71 2352.65C1009.86 2351.51 1010.1 2349.9 1011.24 2349.06Z" fill="#FFEED6"/>
<path d="M1039.82 2329.97C1040.31 2329.8 1040.84 2330.07 1041 2330.55L1051.82 2362.83C1051.99 2363.32 1051.73 2363.84 1051.24 2364.01C1050.75 2364.17 1050.22 2363.91 1050.06 2363.42L1039.23 2331.15C1039.07 2330.66 1039.33 2330.13 1039.82 2329.97Z" fill="#FFEED6"/>
<path d="M1048.51 2363.94C1048.06 2362.6 1048.78 2361.14 1050.12 2360.69C1051.47 2360.24 1052.92 2360.96 1053.37 2362.31C1053.82 2363.65 1053.1 2365.1 1051.76 2365.56C1050.41 2366.01 1048.96 2365.28 1048.51 2363.94Z" fill="#FFEED6"/>
<path d="M1039.19 2330.86C1039.18 2330.34 1039.59 2329.92 1040.11 2329.92L1074.15 2329.6C1074.66 2329.59 1075.08 2330 1075.09 2330.52C1075.09 2331.04 1074.68 2331.45 1074.17 2331.46L1040.13 2331.78C1039.61 2331.79 1039.19 2331.38 1039.19 2330.86" fill="#FFEED6"/>
<path d="M1074.18 2333.09C1072.76 2333.11 1071.6 2331.97 1071.59 2330.55C1071.58 2329.14 1072.71 2327.98 1074.13 2327.97C1075.55 2327.95 1076.71 2329.09 1076.72 2330.51C1076.73 2331.92 1075.6 2333.08 1074.18 2333.09" fill="#FFEED6"/>
<path d="M1039.84 2331.74C1039.35 2331.58 1039.07 2331.06 1039.23 2330.57L1049.44 2298.1C1049.6 2297.61 1050.12 2297.33 1050.61 2297.49C1051.1 2297.64 1051.37 2298.17 1051.22 2298.66L1041.01 2331.13C1040.85 2331.62 1040.33 2331.89 1039.84 2331.74Z" fill="#FFEED6"/>
<path d="M1052.77 2299.15C1052.35 2300.5 1050.91 2301.25 1049.56 2300.82C1048.21 2300.4 1047.46 2298.96 1047.88 2297.61C1048.31 2296.26 1049.75 2295.51 1051.1 2295.93C1052.45 2296.36 1053.2 2297.8 1052.77 2299.15Z" fill="#FFEED6"/>
<path d="M1037.34 2304.86C1038.6 2308.61 1040.12 2330.85 1040.12 2330.85C1040.12 2330.85 1027.92 2312.19 1026.66 2308.44C1025.4 2304.68 1026.77 2300.84 1029.72 2299.85C1032.67 2298.86 1036.08 2301.1 1037.34 2304.86Z" fill="#E64939"/>
<path d="M1014.54 2325.46C1018.49 2325.42 1040.12 2330.85 1040.12 2330.85C1040.12 2330.85 1018.6 2336.68 1014.64 2336.72C1010.69 2336.76 1007.45 2334.27 1007.42 2331.16C1007.4 2328.05 1010.58 2325.5 1014.54 2325.46Z" fill="#E64939"/>
<path d="M1027.09 2353.51C1028.27 2349.74 1040.12 2330.85 1040.12 2330.85C1040.12 2330.85 1039.02 2353.11 1037.83 2356.89C1036.64 2360.67 1033.27 2362.97 1030.31 2362.04C1027.34 2361.1 1025.9 2357.29 1027.09 2353.51" fill="#E64939"/>
<path d="M1057.64 2350.24C1054.42 2347.95 1040.12 2330.85 1040.12 2330.85C1040.12 2330.85 1060.95 2338.78 1064.17 2341.07C1067.4 2343.37 1068.55 2347.28 1066.75 2349.82C1064.94 2352.35 1060.87 2352.54 1057.64 2350.24Z" fill="#E64939"/>
<path d="M1063.98 2320.17C1060.8 2322.53 1040.12 2330.85 1040.12 2330.85C1040.12 2330.85 1054.09 2313.48 1057.27 2311.13C1060.45 2308.77 1064.53 2308.89 1066.38 2311.38C1068.23 2313.88 1067.16 2317.82 1063.98 2320.17Z" fill="#E64939"/>
<path d="M1044.83 2329.27C1045.7 2331.87 1044.3 2334.69 1041.7 2335.56C1039.1 2336.43 1036.28 2335.03 1035.4 2332.43C1034.53 2329.83 1035.93 2327.01 1038.54 2326.14C1041.14 2325.26 1043.96 2326.67 1044.83 2329.27Z" fill="#E64939"/>
<path d="M201.913 2637.87C199.691 2636.99 197.173 2638.09 196.3 2640.31C195.427 2642.53 196.523 2645.05 198.745 2645.92C200.966 2646.8 203.485 2645.7 204.358 2643.48C205.231 2641.26 204.134 2638.74 201.913 2637.87ZM197.954 2647.94C194.622 2646.63 192.976 2642.85 194.286 2639.52C195.596 2636.19 199.373 2634.54 202.704 2635.85C206.037 2637.16 207.683 2640.94 206.372 2644.27C205.063 2647.6 201.287 2649.25 197.954 2647.94Z" fill="#D9D3D3"/>
<path d="M185.61 2681.08C185.031 2681.23 184.441 2680.88 184.291 2680.3L174.361 2642.02C174.212 2641.44 174.557 2640.85 175.137 2640.7C175.715 2640.55 176.306 2640.9 176.455 2641.48L186.387 2679.76C186.536 2680.34 186.189 2680.93 185.61 2681.08" fill="#FFEED6"/>
<path d="M178.29 2641C178.705 2642.59 177.747 2644.22 176.155 2644.63C174.562 2645.05 172.937 2644.09 172.524 2642.5C172.11 2640.9 173.066 2639.28 174.659 2638.86C176.251 2638.45 177.879 2639.41 178.29 2641" fill="#FFEED6"/>
<path d="M186.418 2680.1C186.382 2680.7 185.868 2681.15 185.272 2681.11L145.796 2678.73C145.2 2678.69 144.745 2678.18 144.78 2677.58C144.817 2676.98 145.329 2676.53 145.926 2676.57L185.404 2678.95C186 2678.99 186.453 2679.5 186.418 2680.1Z" fill="#FFEED6"/>
<path d="M146.041 2674.67C147.684 2674.77 148.934 2676.18 148.836 2677.83C148.736 2679.47 147.325 2680.72 145.682 2680.62C144.039 2680.52 142.789 2679.11 142.886 2677.47C142.986 2675.82 144.398 2674.57 146.041 2674.67Z" fill="#FFEED6"/>
<path d="M185.733 2679.02C186.29 2679.24 186.563 2679.87 186.344 2680.43L171.876 2717.23C171.658 2717.79 171.032 2718.06 170.474 2717.85C169.917 2717.63 169.644 2717 169.863 2716.44L184.33 2679.63C184.549 2679.08 185.177 2678.8 185.733 2679.02Z" fill="#FFEED6"/>
<path d="M168.096 2715.75C168.697 2714.22 170.428 2713.46 171.958 2714.06C173.49 2714.67 174.244 2716.4 173.641 2717.93C173.039 2719.46 171.311 2720.21 169.778 2719.61C168.248 2719.01 167.493 2717.28 168.096 2715.75Z" fill="#FFEED6"/>
<path d="M184.502 2679.35C184.881 2678.88 185.563 2678.82 186.025 2679.2L216.561 2704.33C217.02 2704.71 217.089 2705.39 216.709 2705.85C216.326 2706.32 215.646 2706.38 215.185 2706L184.649 2680.87C184.187 2680.49 184.121 2679.81 184.502 2679.35" fill="#FFEED6"/>
<path d="M213.98 2707.47C212.708 2706.42 212.526 2704.54 213.571 2703.27C214.617 2702 216.493 2701.82 217.764 2702.87C219.036 2703.91 219.217 2705.79 218.172 2707.06C217.127 2708.33 215.249 2708.51 213.98 2707.47" fill="#FFEED6"/>
<path d="M184.426 2680.61C184.104 2680.11 184.251 2679.44 184.757 2679.12L218.096 2657.85C218.599 2657.52 219.268 2657.67 219.591 2658.17C219.912 2658.68 219.763 2659.35 219.26 2659.67L185.92 2680.94C185.415 2681.27 184.749 2681.12 184.426 2680.61Z" fill="#FFEED6"/>
<path d="M220.279 2661.27C218.893 2662.15 217.05 2661.75 216.166 2660.36C215.28 2658.97 215.686 2657.13 217.074 2656.25C218.462 2655.36 220.302 2655.77 221.189 2657.15C222.073 2658.54 221.667 2660.38 220.279 2661.27Z" fill="#FFEED6"/>
<path d="M202.275 2654.82C200.593 2659.1 185.338 2680.03 185.338 2680.03C185.338 2680.03 188.418 2654.32 190.101 2650.04C191.782 2645.76 195.871 2643.36 199.233 2644.68C202.596 2646 203.957 2650.54 202.275 2654.82Z" fill="#E64939"/>
<path d="M166.597 2656.13C170.146 2659.05 185.337 2680.03 185.337 2680.03C185.337 2680.03 161.833 2669.15 158.283 2666.23C154.733 2663.31 153.715 2658.68 156.01 2655.89C158.308 2653.1 163.046 2653.21 166.597 2656.13Z" fill="#E64939"/>
<path d="M156.819 2690.47C160.693 2688 185.338 2680.03 185.338 2680.03C185.338 2680.03 167.731 2699.02 163.854 2701.5C159.977 2703.97 155.262 2703.51 153.317 2700.46C151.374 2697.42 152.941 2692.94 156.819 2690.47" fill="#E64939"/>
<path d="M186.452 2710.38C185.298 2705.93 185.338 2680.03 185.338 2680.03C185.338 2680.03 197.96 2702.65 199.114 2707.1C200.269 2711.55 198.371 2715.89 194.875 2716.8C191.376 2717.7 187.607 2714.83 186.452 2710.38Z" fill="#E64939"/>
<path d="M214.546 2688.35C209.957 2688.07 185.338 2680.03 185.338 2680.03C185.338 2680.03 210.747 2675.01 215.335 2675.29C219.926 2675.57 223.47 2678.72 223.251 2682.32C223.033 2685.93 219.137 2688.63 214.546 2688.35Z" fill="#E64939"/>
<path d="M190.712 2682.14C189.546 2685.11 186.194 2686.57 183.226 2685.4C180.259 2684.24 178.798 2680.89 179.965 2677.92C181.131 2674.95 184.483 2673.49 187.45 2674.66C190.419 2675.82 191.878 2679.18 190.712 2682.14Z" fill="#E64939"/>
</svg>
