<svg width="991" height="142" viewBox="0 0 991 142" fill="none" xmlns="http://www.w3.org/2000/svg">
<g clip-path="url(#clip0_401_945)">
<ellipse cx="415.5" cy="138.781" rx="83.5" ry="81.5" fill="#F2F2FF"/>
<path d="M622 152.281C622 201.987 584.392 242.281 538 242.281C491.608 242.281 454 201.987 454 152.281C454 102.576 484.5 62.2812 538 62.2812C584.392 62.2812 622 102.576 622 152.281Z" fill="#F2F2FF"/>
<ellipse cx="476" cy="157.281" rx="84" ry="90" fill="#F2F2FF"/>
<ellipse cx="612.5" cy="141.781" rx="81.5" ry="91.5" fill="#F2F2FF"/>
<ellipse cx="688.5" cy="105.781" rx="76.5" ry="72.5" fill="#F2F2FF"/>
<ellipse cx="316" cy="98.7812" rx="90" ry="59.5" fill="#F2F2FF"/>
<ellipse cx="250" cy="126.5" rx="90" ry="59.5" fill="#F2F2FF"/>
<ellipse cx="144" cy="170.5" rx="90" ry="59.5" fill="#F2F2FF"/>
<ellipse cx="830" cy="170.5" rx="90" ry="59.5" fill="#F2F2FF"/>
<ellipse cx="895" cy="170.5" rx="90" ry="59.5" fill="#F2F2FF"/>
<ellipse cx="730" cy="170.5" rx="90" ry="59.5" fill="#F2F2FF"/>
<path d="M626.06 21.3396C625.563 26.3268 624.242 31.197 622.151 35.7522C620.432 39.104 618.048 42.1482 617.166 45.7413C616.67 48.3714 616.676 51.0715 617.182 53.6995C617.654 56.795 618.415 59.9978 620.441 62.3843C622.818 65.1905 626.558 66.4276 630.166 67.0547C640.171 68.7375 650.447 66.7431 659.096 61.4399C661.397 60.1895 663.326 58.3511 664.685 56.1121C665.814 53.6635 666.241 50.9494 665.917 48.2725C665.446 41.1796 663.024 34.3549 658.918 28.5523C657.613 26.6036 655.989 24.8887 654.115 23.4795C647.806 19.054 639.046 20.3552 632.068 17.0824C632.771 14.7984 632.958 12.3866 632.616 10.0214C632.619 9.89577 632.597 9.77089 632.55 9.65444C632.503 9.53798 632.432 9.43246 632.342 9.34438C631.922 9.00403 631.354 9.57911 631.076 9.99735C630.798 10.4156 630.414 11.073 629.893 10.8947C629.448 9.36283 628.446 8.05293 627.084 7.22263C626.815 7.03268 626.501 6.91648 626.174 6.8855C625.251 6.86576 624.68 7.95731 624.696 8.87173C624.859 9.78326 624.96 10.7047 624.999 11.6299C624.98 11.9235 624.837 12.272 624.545 12.3161C623.513 10.7753 622.232 9.09216 620.376 8.95461C620.184 8.91974 619.986 8.93709 619.803 9.00492C619.62 9.07274 619.458 9.18853 619.335 9.34014C619.224 9.56846 619.197 9.82891 619.259 10.0754C619.593 11.9582 621.788 13.0466 622.197 14.9244C621.876 14.9222 621.558 14.9931 621.269 15.1316C620.979 15.2701 620.725 15.4727 620.525 15.724C620.394 16.0168 620.363 16.3447 620.437 16.6569C620.511 16.9691 620.686 17.2481 620.935 17.4504C621.448 17.8443 622.034 18.1326 622.659 18.2988C623.545 18.6045 624.406 18.9757 625.237 19.4095C625.546 19.5514 625.814 19.769 626.016 20.042C626.235 20.3295 626.351 21.1323 626.06 21.3396Z" fill="#E64939"/>
<path d="M641.77 39.1883C640.664 42.2077 639.425 45.2082 638.003 48.075" stroke="#F2F2FF" stroke-width="2.75802" stroke-linecap="round" stroke-linejoin="round"/>
<path d="M637.058 40.8828C639.032 42.724 641.006 44.5652 643.04 46.4686" stroke="#F2F2FF" stroke-width="2.75802" stroke-linecap="round" stroke-linejoin="round"/>
<path d="M635.237 44.6637C638.381 44.0948 641.44 43.3039 644.379 42.2996" stroke="#F2F2FF" stroke-width="2.75802" stroke-linecap="round" stroke-linejoin="round"/>
<path d="M640.629 38.1641L641.66 39.4944L643.034 38.882" stroke="#F2F2FF" stroke-width="2.75802" stroke-linecap="round" stroke-linejoin="round"/>
<path d="M642.765 47.9455L642.997 46.3096L644.804 46.9428" stroke="#F2F2FF" stroke-width="2.75802" stroke-linecap="round" stroke-linejoin="round"/>
<path d="M645.309 41.4656C644.862 41.799 644.583 42.2538 644.517 42.753C645.18 42.8873 645.797 43.1606 646.302 43.5443" stroke="#F2F2FF" stroke-width="2.75802" stroke-linecap="round" stroke-linejoin="round"/>
<path d="M636.151 48.7281L637.51 48.2209L638.106 49.2748" stroke="#F2F2FF" stroke-width="2.75802" stroke-linecap="round" stroke-linejoin="round"/>
<path d="M633.513 43.4521C633.949 43.9351 634.522 44.3307 635.179 44.6035L634.299 45.5554" stroke="#F2F2FF" stroke-width="2.75802" stroke-linecap="round" stroke-linejoin="round"/>
<path d="M635.342 40.5857C635.857 40.8149 636.444 40.8981 637.002 40.8212C637.094 40.422 637.152 40.0166 637.174 39.6075" stroke="#F2F2FF" stroke-width="2.75802" stroke-linecap="round" stroke-linejoin="round"/>
<path d="M629.924 19.6565C630.392 21.2627 630.427 22.9639 630.026 24.5881C629.63 26.2045 629.373 27.8519 629.259 29.5123C629.202 30.0633 629.334 30.6174 629.633 31.0839C629.974 31.4037 630.425 31.5792 630.893 31.5736C631.361 31.5681 631.808 31.3818 632.141 31.054C632.787 30.3278 633.158 29.3986 633.19 28.4275" stroke="#001C47" stroke-width="1.5" stroke-linecap="round" stroke-linejoin="round"/>
<path d="M630.781 19.2881C631.68 21.2972 633.116 23.0191 634.932 24.2641" stroke="#001C47" stroke-width="1.5" stroke-linecap="round" stroke-linejoin="round"/>
<path d="M630.93 18.6992C632.016 20.0759 633.537 21.0447 635.243 21.448" stroke="#001C47" stroke-width="1.5" stroke-linecap="round" stroke-linejoin="round"/>
<path d="M625.901 20.2449C625.842 20.2591 625.935 20.3878 626.072 20.3805C627.3 20.3207 628.502 20.0084 629.604 19.4632C630.706 18.9179 631.683 18.1513 632.476 17.2114" stroke="#F2F2FF" stroke-width="1.5" stroke-linecap="round" stroke-linejoin="round"/>
<path d="M623.008 21.4099C622.586 21.711 622.254 22.1205 622.045 22.5951C621.837 23.0697 621.761 23.5918 621.825 24.1061C621.815 24.227 621.844 24.3478 621.907 24.4514C622.124 24.6765 622.508 24.5475 622.772 24.3843C623.937 23.67 624.928 22.7039 625.672 21.5569C625.799 21.4003 625.893 21.219 625.946 21.0244C625.999 20.8298 626.012 20.6263 625.982 20.4267C625.515 21.7956 624.833 23.0015 624.387 24.3023C623.804 25.5917 623.594 27.0186 623.781 28.4212C623.8 28.6372 623.888 28.8413 624.032 29.0029C624.18 29.1322 624.372 29.1993 624.567 29.1903C624.85 29.1553 625.121 29.0555 625.358 28.8987C625.596 28.7419 625.794 28.5322 625.938 28.2862C626.651 27.1802 626.989 25.8737 626.901 24.5604C626.868 23.5745 626.832 21.621 626.03 20.8933C625.228 20.1656 623.712 20.8779 623.008 21.4099Z" stroke="#F2F2FF" stroke-width="1.5" stroke-linecap="round" stroke-linejoin="round"/>
<path d="M552.584 67.7748L553.138 69.7244C552.436 70.7301 551.517 71.5658 550.45 72.1702L549.463 68.9465C550.522 68.3127 551.435 67.4637 552.145 66.4546C552.307 66.9011 552.451 67.3366 552.584 67.7748Z" fill="#F2F2FF"/>
<path d="M554.128 73.0001C554.508 74.0444 554.798 75.1195 554.994 76.2134C555.14 77.4149 553.285 78.4019 552.36 77.4729C552.163 77.2415 552.019 76.969 551.939 76.6752C551.785 76.2586 551.65 75.8366 551.512 75.421C552.451 74.864 553.271 74.1268 553.924 73.2518C553.994 73.1745 554.061 73.0873 554.128 73.0001Z" fill="#F2F2FF"/>
<path d="M551.086 63.239C550.376 64.2207 549.461 65.0364 548.404 65.6299C548.098 64.7055 547.743 63.7781 547.381 62.8634C548.362 62.0889 549.214 61.1632 549.905 60.1209C550.322 61.1432 550.719 62.1872 551.086 63.239Z" fill="#F2F2FF"/>
<path d="M538.93 55.3141C539.289 54.7115 539.771 54.1918 540.345 53.7892C540.92 53.3866 541.572 53.1103 542.261 52.9785C542.414 52.9612 542.568 52.9519 542.722 52.9508C543.22 54.2085 543.403 55.5686 543.257 56.9132C542.964 56.8848 542.67 56.9542 542.421 57.1107C542.255 57.2225 542.114 57.3671 542.007 57.5356C541.28 56.4512 540.189 55.6631 538.93 55.3141V55.3141Z" fill="#F2F2FF"/>
<path d="M541.525 59.5498C541.524 59.7541 541.541 59.958 541.576 60.1591C541.665 60.6891 541.848 61.2737 541.56 61.729C541.461 61.8721 541.332 61.9921 541.182 62.081C541.032 62.1698 540.865 62.2254 540.691 62.2439C540.193 62.281 539.696 62.1672 539.263 61.9175C538.83 61.6677 538.483 61.2936 538.266 60.8436C537.986 60.2771 537.846 59.6518 537.857 59.0201C538.484 58.841 539.145 58.8213 539.78 58.9628C540.378 59.1049 540.962 59.3014 541.525 59.5498V59.5498Z" fill="#F2F2FF"/>
<path d="M546.354 54.2833C546.594 54.4781 546.821 54.6876 547.034 54.9107C547.616 55.5426 548.116 56.2461 548.521 57.0043C547.93 58.165 547.13 59.2065 546.16 60.076C545.986 59.7071 545.817 59.3319 545.63 58.9719C545.419 58.5473 545.163 58.1463 544.867 57.7757C545.622 56.7399 546.131 55.5455 546.354 54.2833V54.2833Z" fill="#F2F2FF"/>
<path d="M552.164 66.4676C551.454 67.4767 550.541 68.3256 549.482 68.9594C549.135 67.8436 548.785 66.734 548.404 65.6325C549.461 65.039 550.376 64.2233 551.087 63.2416C551.463 64.3071 551.821 65.3878 552.164 66.4676Z" fill="#E64939"/>
<path d="M553.827 72.0221C553.919 72.3437 554.023 72.6727 554.094 73.0158C554.039 73.1103 553.985 73.2048 553.89 73.2676C553.237 74.1426 552.417 74.8798 551.478 75.4367C551.105 74.3812 550.773 73.2825 550.434 72.1965C551.502 71.5921 552.42 70.7564 553.123 69.7507C553.381 70.4962 553.613 71.2597 553.827 72.0221Z" fill="#E64939"/>
<path d="M538.93 55.3154C540.188 55.6644 541.28 56.4526 542.007 57.537C541.854 57.7622 541.739 58.0106 541.666 58.2726C541.553 58.6867 541.501 59.115 541.512 59.5441C540.945 59.3015 540.358 59.1113 539.756 58.976C539.121 58.8345 538.46 58.8542 537.833 59.0333C537.83 58.6706 537.854 58.3081 537.905 57.9491C538.064 57.0107 538.413 56.1145 538.93 55.3154V55.3154Z" fill="#E64939"/>
<path d="M549.675 59.5024C549.76 59.7031 549.836 59.9065 549.912 60.1098C549.221 61.1521 548.369 62.0779 547.388 62.8523C547.018 61.9078 546.604 60.9802 546.167 60.0643C547.137 59.1947 547.937 58.1533 548.528 56.9926C548.96 57.8057 549.343 58.6438 549.675 59.5024V59.5024Z" fill="#E64939"/>
<path d="M542.747 52.9666C544.069 52.957 545.35 53.4251 546.354 54.2847C546.13 55.5468 545.622 56.7413 544.867 57.7771C544.724 57.6087 544.565 57.455 544.392 57.3184C544.068 57.0829 543.682 56.9476 543.282 56.9291C543.428 55.5845 543.245 54.2244 542.747 52.9666V52.9666Z" fill="#E64939"/>
<path d="M419.489 59.9712L419.169 62.9261C420.432 64.2065 421.966 65.1878 423.659 65.7981L424.289 60.8949C422.603 60.2398 421.072 59.2381 419.798 57.9545C419.673 58.6399 419.574 59.3049 419.489 59.9712Z" fill="#F2F2FF"/>
<path d="M418.546 67.9059C418.254 69.5093 418.1 71.1348 418.087 72.7644C418.172 74.5374 421.096 75.5064 422.205 73.9353C422.433 73.5519 422.574 73.1226 422.617 72.6782C422.737 72.0379 422.827 71.3948 422.924 70.7599C421.429 70.1865 420.063 69.3231 418.903 68.2194C418.783 68.1249 418.665 68.0154 418.546 67.9059Z" fill="#F2F2FF"/>
<path d="M420.535 53.0456C421.804 54.2893 423.328 55.2426 425.002 55.8397C425.216 54.428 425.501 52.9999 425.799 51.5883C424.189 50.711 422.729 49.583 421.473 48.2468C421.122 49.8277 420.806 51.4346 420.535 53.0456Z" fill="#F2F2FF"/>
<path d="M436.151 38.5912C435.484 37.8086 434.658 37.1763 433.729 36.7361C432.8 36.2958 431.788 36.0575 430.76 36.0369C430.534 36.0497 430.309 36.0743 430.086 36.1106C429.677 38.0515 429.748 40.0627 430.291 41.9703C430.708 41.8568 431.15 41.8847 431.549 42.0494C431.816 42.1701 432.055 42.3445 432.251 42.5616C433.035 40.8147 434.418 39.4062 436.151 38.5912V38.5912Z" fill="#F2F2FF"/>
<path d="M433.446 45.3545C433.498 45.6495 433.523 45.9485 433.522 46.2479C433.524 47.036 433.403 47.9262 433.932 48.5133C434.111 48.6956 434.327 48.8373 434.566 48.9287C434.804 49.0202 435.06 49.0592 435.315 49.0433C436.044 48.974 436.735 48.6867 437.299 48.219C437.863 47.7512 438.272 47.1246 438.475 46.4207C438.739 45.5328 438.788 44.5944 438.616 43.684C437.667 43.5796 436.706 43.7142 435.822 44.0756C434.993 44.4286 434.197 44.8567 433.446 45.3545V45.3545Z" fill="#F2F2FF"/>
<path d="M425.165 38.9326C424.867 39.2731 424.591 39.6319 424.338 40.0071C423.651 41.0643 423.102 42.2045 422.704 43.4004C423.845 44.9324 425.259 46.2402 426.875 47.2578C427.035 46.6818 427.188 46.0976 427.369 45.5311C427.569 44.8652 427.84 44.2225 428.176 43.6139C426.829 42.3029 425.799 40.7018 425.165 38.9326V38.9326Z" fill="#F2F2FF"/>
<path d="M419.774 57.9754C421.049 59.2589 422.579 60.2607 424.265 60.9157C424.491 59.2171 424.724 57.5268 425.002 55.8406C423.329 55.2435 421.805 54.2902 420.535 53.0465C420.255 54.6794 420.003 56.3301 419.774 57.9754Z" fill="#E64939"/>
<path d="M418.74 66.4156C418.687 66.9031 418.618 67.4042 418.6 67.9177C418.703 68.0408 418.805 68.164 418.958 68.2312C420.117 69.3349 421.484 70.1983 422.979 70.7717C423.258 69.1538 423.466 67.4839 423.688 65.8304C421.996 65.2201 420.462 64.2388 419.198 62.9584C419.009 64.0998 418.863 65.2604 418.74 66.4156Z" fill="#E64939"/>
<path d="M436.152 38.5905C434.419 39.4054 433.036 40.814 432.252 42.5609C432.529 42.8488 432.756 43.1795 432.926 43.5402C433.192 44.111 433.373 44.7173 433.464 45.3401C434.223 44.8496 435.025 44.4298 435.86 44.0858C436.744 43.7244 437.705 43.5897 438.654 43.6941C438.57 43.1689 438.446 42.6509 438.283 42.1446C437.822 40.8274 437.096 39.6181 436.152 38.5905V38.5905Z" fill="#E64939"/>
<path d="M421.654 47.295C421.58 47.6062 421.52 47.9188 421.461 48.2315C422.716 49.5677 424.176 50.6957 425.786 51.573C426.088 50.1163 426.457 48.6734 426.863 47.2416C425.247 46.2239 423.833 44.9161 422.692 43.3841C422.269 44.6659 421.922 45.9719 421.654 47.295V47.295Z" fill="#E64939"/>
<path d="M430.055 36.1369C428.142 36.4491 426.406 37.4417 425.166 38.9321C425.801 40.7013 426.831 42.3024 428.178 43.6134C428.342 43.3349 428.534 43.0736 428.75 42.8334C429.161 42.413 429.686 42.1221 430.26 41.9966C429.716 40.089 429.646 38.0778 430.055 36.1369V36.1369Z" fill="#E64939"/>
<path d="M666.143 86.1596C664.914 87.3875 662.158 88.1662 662.158 88.1662C662.158 88.1662 661.486 85.289 662.095 83.488C662.417 82.5349 663.167 80.3836 664.453 80.7433C665.739 81.1029 666.862 81.7411 667.541 82.4982C668.22 83.2553 666.905 85.398 666.143 86.1596Z" fill="#FCAF34"/>
<path d="M665.945 85.7463C664.854 87.0948 662.195 88.1563 662.195 88.1563C662.195 88.1563 661.219 85.3676 661.631 83.5145C661.85 82.5337 662.367 80.3176 663.685 80.5407C665.003 80.7638 666.189 81.2806 666.945 81.962C667.702 82.6434 666.622 84.91 665.945 85.7463Z" fill="#E64939"/>
<path d="M657.781 88.3977C659.459 88.8468 662.235 88.1434 662.235 88.1434C662.235 88.1434 661.379 85.3157 659.951 84.0602C659.196 83.3958 657.47 81.9079 656.536 82.8624C655.602 83.8169 654.949 84.931 654.739 85.9262C654.53 86.9214 656.741 88.1192 657.781 88.3977Z" fill="#FCAF34"/>
<path d="M657.746 87.941C659.365 88.5632 662.199 88.1531 662.199 88.1531C662.199 88.1531 661.65 85.2498 660.366 83.8513C659.686 83.1112 658.131 81.4504 657.101 82.3027C656.071 83.155 655.302 84.1954 654.988 85.1638C654.673 86.1323 656.742 87.5552 657.746 87.941Z" fill="#E64939"/>
<rect x="653.592" y="94.084" width="19.6212" height="9.5239" transform="rotate(-15 653.592 94.084)" fill="#40AB30"/>
<rect x="651.879" y="90.7881" width="21.223" height="3.62815" transform="rotate(-15 651.879 90.7881)" fill="#2B9126"/>
<rect x="662.708" y="87.8867" width="13.152" height="1.2013" transform="rotate(75 662.708 87.8867)" fill="#E64939"/>
<path d="M466.03 96.1811C464.328 96.7047 461.458 96.089 461.458 96.089C461.458 96.089 462.229 93.1596 463.643 91.8193C464.392 91.11 466.104 89.5203 467.097 90.463C468.09 91.4056 468.801 92.5223 469.054 93.5339C469.306 94.5456 467.086 95.8564 466.03 96.1811Z" fill="#FCAF34"/>
<path d="M466.05 95.711C464.414 96.4097 461.496 96.0967 461.496 96.0967C461.496 96.0967 461.948 93.1014 463.211 91.6201C463.879 90.8361 465.41 89.0757 466.497 89.9099C467.585 90.7442 468.412 91.7811 468.771 92.7614C469.13 93.7417 467.064 95.2777 466.05 95.711Z" fill="#FFE336"/>
<path d="M457.379 94.2002C458.684 95.4118 461.537 96.1053 461.537 96.1053C461.537 96.1053 462.116 93.1322 461.425 91.3101C461.059 90.3457 460.209 88.17 458.905 88.5872C457.601 89.0043 456.475 89.7006 455.807 90.5019C455.14 91.3033 456.569 93.4488 457.379 94.2002Z" fill="#FCAF34"/>
<path d="M457.566 93.7704C458.735 95.1107 461.499 96.0977 461.499 96.0977C461.499 96.0977 462.394 93.2036 461.901 91.3207C461.64 90.3241 461.027 88.0732 459.685 88.3516C458.343 88.63 457.147 89.2044 456.398 89.9311C455.649 90.6578 456.841 92.9392 457.566 93.7704Z" fill="#FFE336"/>
<rect x="450.858" y="97.3428" width="20.1162" height="9.76413" transform="rotate(12.8859 450.858 97.3428)" fill="#F26652"/>
<rect x="450.887" y="93.5342" width="21.7583" height="3.71967" transform="rotate(12.8859 450.887 93.5342)" fill="#E64939"/>
<rect x="462.092" y="96.0977" width="13.4838" height="1.2316" transform="rotate(102.886 462.092 96.0977)" fill="#FFE336"/>
<path d="M389.251 91.5313C386.872 93.9086 381.537 95.4161 381.537 95.4161C381.537 95.4161 380.236 89.8458 381.414 86.359C382.037 84.5136 383.49 80.3485 385.98 81.0449C388.47 81.7413 390.644 82.9768 391.959 84.4426C393.273 85.9083 390.726 90.0569 389.251 91.5313Z" fill="#2B9126"/>
<path d="M388.866 90.7298C386.753 93.3406 381.606 95.3957 381.606 95.3957C381.606 95.3957 379.715 89.9965 380.515 86.4087C380.938 84.5099 381.938 80.2194 384.49 80.6513C387.042 81.0832 389.338 82.0838 390.803 83.403C392.268 84.7223 390.177 89.1106 388.866 90.7298Z" fill="#40AB30"/>
<path d="M373.063 95.8722C376.311 96.7417 381.685 95.3798 381.685 95.3798C381.685 95.3798 380.027 89.9052 377.263 87.4745C375.801 86.188 372.46 83.3074 370.652 85.1554C368.844 87.0034 367.579 89.1604 367.173 91.0871C366.768 93.0138 371.048 95.3329 373.063 95.8722Z" fill="#2B9126"/>
<path d="M372.994 94.9876C376.129 96.1921 381.615 95.3982 381.615 95.3982C381.615 95.3982 380.552 89.7771 378.066 87.0696C376.751 85.6367 373.739 82.4212 371.745 84.0713C369.75 85.7215 368.263 87.7358 367.654 89.6107C367.045 91.4857 371.05 94.2405 372.994 94.9876Z" fill="#40AB30"/>
<rect x="364.951" y="106.87" width="37.988" height="18.4389" transform="rotate(-15 364.951 106.87)" fill="#FCAF34"/>
<rect x="361.637" y="100.491" width="41.089" height="7.02433" transform="rotate(-15 361.637 100.491)" fill="#FFE336"/>
<rect x="382.603" y="94.8691" width="25.4632" height="2.32579" transform="rotate(75 382.603 94.8691)" fill="#40AB30"/>
<path d="M366.245 51.6451C366.39 53.8756 366.39 56.1131 366.245 58.3435C366.257 58.4943 366.235 58.6459 366.179 58.7865C366.124 58.9272 366.036 59.053 365.924 59.1541C365.776 59.2226 365.613 59.254 365.45 59.2458C363.504 59.335 361.554 59.2787 359.615 59.0776C359.481 59.0748 359.35 59.0379 359.234 58.9705C358.898 58.8023 358.852 58.3282 358.867 57.9459L359.004 51.8286C359.004 51.7216 359.005 51.5228 359.157 51.5228C361.464 51.431 363.862 51.584 366.245 51.6451Z" fill="#E64939"/>
<path d="M350.236 50.727C347.625 49.9519 345.209 48.6276 343.149 46.8426C342.183 45.9944 341.419 44.9398 340.914 43.7567C340.409 42.5735 340.176 41.292 340.232 40.0065C340.198 39.8271 340.209 39.6423 340.264 39.4681C340.318 39.294 340.414 39.1358 340.544 39.0075C340.673 38.8792 340.833 38.7848 341.007 38.7323C341.182 38.6798 341.366 38.671 341.545 38.7066C344.22 38.8929 346.908 38.6765 349.519 38.0643C350.853 37.687 352.079 36.9982 353.096 36.0545C354.113 35.1107 354.892 33.9389 355.369 32.6353C352.928 32.5624 350.611 31.5424 348.908 29.7907C347.863 28.7961 347.202 27.4635 347.044 26.0286C346.998 25.7437 347.03 25.4517 347.134 25.1829C347.239 24.914 347.414 24.678 347.64 24.4993C347.923 24.3546 348.239 24.2861 348.556 24.3005C350.993 24.3542 353.418 23.9495 355.705 23.1076C356.872 22.6129 357.886 21.8171 358.646 20.8016C359.405 19.786 359.882 18.587 360.028 17.3268C358.698 17.7028 357.292 17.7228 355.952 17.3846C354.612 17.0465 353.384 16.3621 352.39 15.3998C351.611 14.6199 351.031 13.2435 351.856 12.5247C352.087 12.3398 352.352 12.1998 352.635 12.1118C355.22 11.1136 357.578 9.60558 359.569 7.67729C361.561 5.74901 363.145 3.43979 364.228 0.886666C364.287 0.710314 364.4 0.556975 364.551 0.448332C364.701 0.33969 364.883 0.28125 365.068 0.28125C365.254 0.28125 365.435 0.33969 365.586 0.448332C365.737 0.556975 365.849 0.710314 365.908 0.886666C367.754 6.0971 371.315 10.5245 376.005 13.4423C376.152 13.5237 376.281 13.6327 376.387 13.7635C376.723 14.2529 376.203 14.8646 375.73 15.201C373.103 16.9212 369.986 17.7324 366.855 17.5103C368.688 21.7159 373.958 23.6276 378.082 23.0923C378.19 23.0606 378.302 23.0524 378.413 23.0682C378.524 23.0841 378.63 23.1236 378.724 23.1841C378.848 23.306 378.924 23.469 378.938 23.6429C379.112 24.868 378.954 26.1174 378.481 27.2607C378.008 28.404 377.237 29.3992 376.249 30.1425C374.038 31.747 371.338 32.531 368.612 32.3599C369.147 35.0362 371.85 37.2538 374.554 38.3549C377.411 39.3311 380.431 39.7364 383.444 39.5477C383.538 39.5325 383.635 39.5396 383.726 39.5685C383.817 39.5974 383.9 39.6474 383.968 39.7144C384.037 39.7813 384.088 39.8633 384.119 39.9539C384.15 40.0445 384.16 40.1411 384.146 40.2359C383.684 42.6365 382.519 44.8455 380.801 46.5826C377.868 49.7942 370.598 51.8281 366.687 52.0728C361.167 52.5997 355.598 52.144 350.236 50.727V50.727Z" fill="#40AB30"/>
<path d="M363.312 12.5256C363.553 12.565 363.8 12.5422 364.03 12.4592C364.26 12.3763 364.465 12.2359 364.625 12.0515C364.783 11.8677 364.901 11.6533 364.972 11.4217C365.043 11.1901 365.065 10.9464 365.038 10.7057C365.017 10.4849 364.938 10.2737 364.809 10.094C363.373 8.33527 361.051 12.0668 363.312 12.5256Z" fill="#F2F2FF"/>
<path d="M363.479 21.4867C363.739 21.5884 364.022 21.6108 364.294 21.5509C364.566 21.491 364.814 21.3515 365.007 21.1502C365.239 20.853 365.368 20.4877 365.373 20.1103C365.385 19.8335 365.322 19.5586 365.19 19.315C364.916 18.9915 364.534 18.7789 364.116 18.7169C363.697 18.655 363.269 18.748 362.914 18.9786C362.735 19.1611 362.605 19.3856 362.535 19.6317C362.465 19.8777 362.458 20.1374 362.514 20.3869C362.57 20.6365 362.688 20.8679 362.856 21.06C363.025 21.2522 363.239 21.3989 363.479 21.4867V21.4867Z" fill="#F2F2FF"/>
<path d="M368.688 27.3284C368.95 27.4286 369.236 27.4471 369.508 27.3816C369.781 27.3161 370.028 27.1696 370.215 26.9613C370.431 26.7291 370.569 26.4356 370.611 26.1213C370.653 25.807 370.596 25.4875 370.448 25.207C370.301 24.9265 370.069 24.6989 369.787 24.5556C369.504 24.4124 369.184 24.3606 368.871 24.4074C367.619 24.6521 367.542 26.8084 368.688 27.3284Z" fill="#F2F2FF"/>
<path d="M366.764 48.7236C367.028 48.8198 367.314 48.8348 367.586 48.7667C367.858 48.6986 368.104 48.5504 368.291 48.3413C368.507 48.1091 368.645 47.8155 368.687 47.5012C368.729 47.1869 368.672 46.8674 368.524 46.5869C368.377 46.3064 368.145 46.0788 367.863 45.9355C367.58 45.7923 367.26 45.7405 366.947 45.7873C365.634 46.0473 365.634 48.2036 366.764 48.7236Z" fill="#F2F2FF"/>
<path d="M356.316 27.3286C356.264 27.7371 356.333 28.1518 356.514 28.5215C356.66 28.7462 356.867 28.9246 357.11 29.0357C357.354 29.1467 357.624 29.1859 357.889 29.1485C358.153 29.1045 358.403 29.0003 358.621 28.8438C358.838 28.6874 359.016 28.4828 359.142 28.2462C359.31 27.9326 359.381 27.5759 359.345 27.2218C359.31 26.8676 359.17 26.5321 358.943 26.2581C358.731 26.038 358.458 25.8865 358.16 25.8232C357.861 25.7599 357.55 25.7877 357.267 25.9029C356.985 26.0181 356.743 26.2155 356.573 26.4696C356.404 26.7238 356.314 27.023 356.316 27.3286Z" fill="#F2F2FF"/>
<path d="M362.44 30.7691C362.41 31.0188 362.441 31.2723 362.532 31.5071C362.622 31.7419 362.769 31.9506 362.96 32.1148C363.308 32.3318 363.71 32.4482 364.121 32.4513C364.273 32.4743 364.427 32.4743 364.579 32.4513C364.76 32.3827 364.922 32.2727 365.052 32.1301C365.244 31.9285 365.389 31.6867 365.476 31.4222C365.563 31.1577 365.591 30.8772 365.556 30.6008C365.517 30.3249 365.41 30.0631 365.245 29.8389C365.08 29.6146 364.861 29.435 364.609 29.3162C364.371 29.226 364.114 29.1942 363.86 29.2234C363.607 29.2526 363.364 29.3419 363.152 29.484C362.94 29.6261 362.764 29.8168 362.641 30.0403C362.517 30.2638 362.448 30.5137 362.44 30.7691V30.7691Z" fill="#F2F2FF"/>
<path d="M356.774 37.3911C356.838 37.7122 357.003 38.0044 357.245 38.2246C357.486 38.4449 357.793 38.5815 358.118 38.6145C358.449 38.6701 358.788 38.6323 359.098 38.5053C359.409 38.3784 359.677 38.1672 359.875 37.8957C361.631 35.4488 356.239 34.3324 356.774 37.3911Z" fill="#F2F2FF"/>
<path d="M369.161 41.8418C369.34 41.8446 369.518 41.808 369.681 41.7347C369.859 41.6147 370.01 41.4584 370.124 41.2759C370.329 41.013 370.466 40.7029 370.521 40.3737C370.628 39.089 368.505 38.0338 367.695 39.1655C367.491 39.4202 367.366 39.73 367.338 40.0556C367.309 40.3812 367.378 40.7078 367.535 40.9944C367.692 41.2809 367.93 41.5144 368.22 41.6652C368.509 41.8161 368.837 41.8775 369.161 41.8418Z" fill="#F2F2FF"/>
<path d="M360.562 42.4071C360.614 42.6746 360.736 42.9233 360.916 43.1276C361.096 43.332 361.327 43.4845 361.585 43.5694C361.849 43.6527 362.131 43.6527 362.395 43.5694C362.656 43.4516 362.875 43.2566 363.023 43.0105C363.17 42.7645 363.239 42.4793 363.22 42.1931C363.233 41.8529 363.119 41.52 362.899 41.2602C362.712 41.0183 362.447 40.8485 362.149 40.7794C361.851 40.7104 361.539 40.7462 361.264 40.881C360.99 41.0157 360.77 41.241 360.642 41.519C360.514 41.7971 360.486 42.1107 360.562 42.4071V42.4071Z" fill="#F2F2FF"/>
<path d="M356.896 47.5923C358.286 46.2618 356.148 43.7384 354.85 45.1454C353.551 46.5524 355.354 49.0757 356.896 47.5923Z" fill="#F2F2FF"/>
<path d="M346.845 44.5348C347.116 44.6654 347.419 44.7132 347.716 44.6725C348.016 44.6115 348.287 44.452 348.486 44.2193C348.686 43.9866 348.802 43.694 348.816 43.3878C348.82 43.0971 348.741 42.8113 348.588 42.564C348.436 42.3166 348.216 42.1178 347.955 41.991C347.693 41.8642 347.401 41.8146 347.113 41.848C346.825 41.8814 346.552 41.9965 346.326 42.1797C345.272 42.8067 345.898 44.1219 346.845 44.5348Z" fill="#F2F2FF"/>
<path d="M592.358 91.0007C589.755 91.6972 585.451 90.6063 585.451 90.6063C585.451 90.6063 586.779 86.2207 588.993 84.2735C590.164 83.243 592.841 80.9354 594.289 82.4158C595.737 83.8962 596.751 85.6241 597.076 87.1675C597.401 88.711 593.972 90.5687 592.358 91.0007Z" fill="#2B9126"/>
<path d="M592.412 90.2903C589.901 91.2553 585.507 90.6193 585.507 90.6193C585.507 90.6193 586.358 86.1164 588.349 83.9475C589.403 82.7996 591.816 80.2238 593.413 81.5456C595.011 82.8675 596.202 84.4812 596.69 85.9831C597.178 87.4851 593.97 89.6919 592.412 90.2903Z" fill="#40AB30"/>
<path d="M579.388 87.5307C581.293 89.4352 585.567 90.6427 585.567 90.6427C585.567 90.6427 586.609 86.1806 585.665 83.3873C585.166 81.9091 584.002 78.5725 582.008 79.1304C580.013 79.6882 578.271 80.6779 577.218 81.8522C576.165 83.0264 578.206 86.3496 579.388 87.5307Z" fill="#2B9126"/>
<path d="M579.694 86.8897C581.387 88.9811 585.51 90.6274 585.51 90.6274C585.51 90.6274 587.025 86.3023 586.384 83.4282C586.046 81.9071 585.244 78.4701 583.2 78.8161C581.155 79.1621 579.316 79.9637 578.143 81.0204C576.969 82.0772 578.644 85.5926 579.694 86.8897Z" fill="#40AB30"/>
<rect x="569.356" y="91.9102" width="30.4311" height="14.7709" transform="rotate(15 569.356 91.9102)" fill="#FCAF34"/>
<rect x="569.612" y="86.1572" width="32.9153" height="5.627" transform="rotate(15 569.612 86.1572)" fill="#FFE336"/>
<rect x="586.408" y="90.6543" width="20.3979" height="1.86313" transform="rotate(105 586.408 90.6543)" fill="#40AB30"/>
</g>
<defs>
<clipPath id="clip0_401_945">
<rect width="991" height="142" fill="white"/>
</clipPath>
</defs>
</svg>
